<?xml version="1.0" encoding="UTF-8" standalone="no"?>
<!DOCTYPE svg PUBLIC "-//W3C//DTD SVG 1.1//EN"
 "http://www.w3.org/Graphics/SVG/1.1/DTD/svg11.dtd">
<!-- Generated by graphviz version 2.38.0 (20140413.2041)
 -->
<!-- Title: org.buildmlearn.appstore.models.FlashModel.getName Pages: 1 -->
<svg width="406pt" height="88pt"
 viewBox="0.00 0.00 406.00 88.00" xmlns="http://www.w3.org/2000/svg" xmlns:xlink="http://www.w3.org/1999/xlink">
<g id="graph0" class="graph" transform="scale(1 1) rotate(0) translate(4 84)">
<title>org.buildmlearn.appstore.models.FlashModel.getName</title>
<!-- Node1 -->
<g id="node1" class="node"><title>Node1</title>
<polygon fill="#bfbfbf" stroke="black" points="0,-24.5 0,-54.5 161,-54.5 161,-24.5 0,-24.5"/>
<text text-anchor="start" x="8" y="-42.5" font-family="Helvetica,sans-Serif" font-size="10.00">org.buildmlearn.appstore.models.</text>
<text text-anchor="middle" x="80.5" y="-31.5" font-family="Helvetica,sans-Serif" font-size="10.00">FlashModel.getName</text>
</g>
<!-- Node2 -->
<g id="node2" class="node"><title>Node2</title>
<g id="a_node2"><a xlink:href="$d6/d1d/classorg_1_1buildmlearn_1_1appstore_1_1activities_1_1_flash_activity.html#a76bd9b78546b0a6b5867988002f88e36" xlink:title="The method is executed first when the activity is created. ">
<polygon fill="none" stroke="black" points="214,-49.5 214,-79.5 381,-79.5 381,-49.5 214,-49.5"/>
<text text-anchor="start" x="222" y="-67.5" font-family="Helvetica,sans-Serif" font-size="10.00">org.buildmlearn.appstore.activities.</text>
<text text-anchor="middle" x="297.5" y="-56.5" font-family="Helvetica,sans-Serif" font-size="10.00">FlashActivity.onCreate</text>
</a>
</g>
</g>
<!-- Node1&#45;&gt;Node2 -->
<g id="edge1" class="edge"><title>Node1&#45;&gt;Node2</title>
<path fill="none" stroke="midnightblue" d="M171.438,-49.9579C185.546,-51.5984 200.07,-53.2872 214,-54.907"/>
<polygon fill="midnightblue" stroke="midnightblue" points="171.59,-46.4521 161.253,-48.7736 170.781,-53.4052 171.59,-46.4521"/>
</g>
<!-- Node3 -->
<g id="node3" class="node"><title>Node3</title>
<g id="a_node3"><a xlink:href="$d3/dbf/classorg_1_1buildmlearn_1_1appstore_1_1activities_1_1_start_activity_1_1_file_read_task.html#a1170e20ba70058ef64883f3cc85e209b" xlink:title="This method is called after the task has been performed. ">
<polygon fill="none" stroke="black" points="197,-0.5 197,-30.5 398,-30.5 398,-0.5 197,-0.5"/>
<text text-anchor="start" x="205" y="-18.5" font-family="Helvetica,sans-Serif" font-size="10.00">org.buildmlearn.appstore.activities.</text>
<text text-anchor="middle" x="297.5" y="-7.5" font-family="Helvetica,sans-Serif" font-size="10.00">StartActivity.FileReadTask.onPostExecute</text>
</a>
</g>
</g>
<!-- Node1&#45;&gt;Node3 -->
<g id="edge2" class="edge"><title>Node1&#45;&gt;Node3</title>
<path fill="none" stroke="midnightblue" d="M171.407,-29.4639C179.803,-28.5267 188.346,-27.573 196.824,-26.6267"/>
<polygon fill="midnightblue" stroke="midnightblue" points="170.802,-26.0095 161.253,-30.5974 171.579,-32.9663 170.802,-26.0095"/>
</g>
</g>
</svg>
