<?xml version="1.0" encoding="UTF-8" standalone="no"?>
<!DOCTYPE svg PUBLIC "-//W3C//DTD SVG 1.1//EN"
 "http://www.w3.org/Graphics/SVG/1.1/DTD/svg11.dtd">
<!-- Generated by graphviz version 2.38.0 (20140413.2041)
 -->
<!-- Title: org.buildmlearn.appstore.activities.InfoActivity.onCreate Pages: 1 -->
<svg width="372pt" height="137pt"
 viewBox="0.00 0.00 372.00 137.00" xmlns="http://www.w3.org/2000/svg" xmlns:xlink="http://www.w3.org/1999/xlink">
<g id="graph0" class="graph" transform="scale(1 1) rotate(0) translate(4 133)">
<title>org.buildmlearn.appstore.activities.InfoActivity.onCreate</title>
<!-- Node1 -->
<g id="node1" class="node"><title>Node1</title>
<polygon fill="#bfbfbf" stroke="black" points="0,-49.5 0,-79.5 167,-79.5 167,-49.5 0,-49.5"/>
<text text-anchor="start" x="8" y="-67.5" font-family="Helvetica,sans-Serif" font-size="10.00">org.buildmlearn.appstore.activities.</text>
<text text-anchor="middle" x="83.5" y="-56.5" font-family="Helvetica,sans-Serif" font-size="10.00">InfoActivity.onCreate</text>
</g>
<!-- Node2 -->
<g id="node2" class="node"><title>Node2</title>
<g id="a_node2"><a xlink:href="../../d2/d32/classorg_1_1buildmlearn_1_1appstore_1_1models_1_1_info_model.html#a36f373dfeec1b5bb676195a047d401e5" target="_top" xlink:title="org.buildmlearn.appstore.models.\lInfoModel.getInstance">
<polygon fill="none" stroke="black" points="203,-98.5 203,-128.5 364,-128.5 364,-98.5 203,-98.5"/>
<text text-anchor="start" x="211" y="-116.5" font-family="Helvetica,sans-Serif" font-size="10.00">org.buildmlearn.appstore.models.</text>
<text text-anchor="middle" x="283.5" y="-105.5" font-family="Helvetica,sans-Serif" font-size="10.00">InfoModel.getInstance</text>
</a>
</g>
</g>
<!-- Node1&#45;&gt;Node2 -->
<g id="edge1" class="edge"><title>Node1&#45;&gt;Node2</title>
<path fill="none" stroke="midnightblue" d="M145.252,-79.5346C166.348,-84.7554 190.182,-90.6537 211.998,-96.0526"/>
<polygon fill="midnightblue" stroke="midnightblue" points="211.315,-99.489 221.863,-98.4938 212.996,-92.694 211.315,-99.489"/>
</g>
<!-- Node3 -->
<g id="node3" class="node"><title>Node3</title>
<g id="a_node3"><a xlink:href="../../d2/d32/classorg_1_1buildmlearn_1_1appstore_1_1models_1_1_info_model.html#af8e102df59ef47cb042958d174ebf8e4" target="_top" xlink:title="org.buildmlearn.appstore.models.\lInfoModel.getListTitleList">
<polygon fill="none" stroke="black" points="203,-49.5 203,-79.5 364,-79.5 364,-49.5 203,-49.5"/>
<text text-anchor="start" x="211" y="-67.5" font-family="Helvetica,sans-Serif" font-size="10.00">org.buildmlearn.appstore.models.</text>
<text text-anchor="middle" x="283.5" y="-56.5" font-family="Helvetica,sans-Serif" font-size="10.00">InfoModel.getListTitleList</text>
</a>
</g>
</g>
<!-- Node1&#45;&gt;Node3 -->
<g id="edge2" class="edge"><title>Node1&#45;&gt;Node3</title>
<path fill="none" stroke="midnightblue" d="M167.036,-64.5C175.578,-64.5 184.288,-64.5 192.903,-64.5"/>
<polygon fill="midnightblue" stroke="midnightblue" points="192.955,-68.0001 202.955,-64.5 192.955,-61.0001 192.955,-68.0001"/>
</g>
<!-- Node4 -->
<g id="node4" class="node"><title>Node4</title>
<g id="a_node4"><a xlink:href="../../d2/d32/classorg_1_1buildmlearn_1_1appstore_1_1models_1_1_info_model.html#a032f70e5afd85c2adca8b3fde854341a" target="_top" xlink:title="org.buildmlearn.appstore.models.\lInfoModel.getInfoName">
<polygon fill="none" stroke="black" points="203,-0.5 203,-30.5 364,-30.5 364,-0.5 203,-0.5"/>
<text text-anchor="start" x="211" y="-18.5" font-family="Helvetica,sans-Serif" font-size="10.00">org.buildmlearn.appstore.models.</text>
<text text-anchor="middle" x="283.5" y="-7.5" font-family="Helvetica,sans-Serif" font-size="10.00">InfoModel.getInfoName</text>
</a>
</g>
</g>
<!-- Node1&#45;&gt;Node4 -->
<g id="edge3" class="edge"><title>Node1&#45;&gt;Node4</title>
<path fill="none" stroke="midnightblue" d="M145.252,-49.4654C166.348,-44.2446 190.182,-38.3463 211.998,-32.9474"/>
<polygon fill="midnightblue" stroke="midnightblue" points="212.996,-36.306 221.863,-30.5062 211.315,-29.511 212.996,-36.306"/>
</g>
</g>
</svg>
