<?xml version="1.0" encoding="UTF-8" standalone="no"?>
<!DOCTYPE svg PUBLIC "-//W3C//DTD SVG 1.1//EN"
 "http://www.w3.org/Graphics/SVG/1.1/DTD/svg11.dtd">
<!-- Generated by graphviz version 2.38.0 (20140413.2041)
 -->
<!-- Title: org.buildmlearn.appstore.utils.VolleySingleton.getImageLoader Pages: 1 -->
<svg width="367pt" height="137pt"
 viewBox="0.00 0.00 367.00 137.00" xmlns="http://www.w3.org/2000/svg" xmlns:xlink="http://www.w3.org/1999/xlink">
<g id="graph0" class="graph" transform="scale(1 1) rotate(0) translate(4 133)">
<title>org.buildmlearn.appstore.utils.VolleySingleton.getImageLoader</title>
<!-- Node1 -->
<g id="node1" class="node"><title>Node1</title>
<polygon fill="#bfbfbf" stroke="black" points="0,-49.5 0,-79.5 156,-79.5 156,-49.5 0,-49.5"/>
<text text-anchor="start" x="8" y="-67.5" font-family="Helvetica,sans-Serif" font-size="10.00">org.buildmlearn.appstore.utils.</text>
<text text-anchor="middle" x="78" y="-56.5" font-family="Helvetica,sans-Serif" font-size="10.00">VolleySingleton.getImageLoader</text>
</g>
<!-- Node2 -->
<g id="node2" class="node"><title>Node2</title>
<g id="a_node2"><a xlink:href="$dd/d52/classorg_1_1buildmlearn_1_1appstore_1_1activities_1_1_app_details.html#a5496a1ae07afc43ae065d908ceea260b" xlink:title="The method is executed first when the activity is created. ">
<polygon fill="none" stroke="black" points="192,-98.5 192,-128.5 359,-128.5 359,-98.5 192,-98.5"/>
<text text-anchor="start" x="200" y="-116.5" font-family="Helvetica,sans-Serif" font-size="10.00">org.buildmlearn.appstore.activities.</text>
<text text-anchor="middle" x="275.5" y="-105.5" font-family="Helvetica,sans-Serif" font-size="10.00">AppDetails.onCreate</text>
</a>
</g>
</g>
<!-- Node1&#45;&gt;Node2 -->
<g id="edge1" class="edge"><title>Node1&#45;&gt;Node2</title>
<path fill="none" stroke="midnightblue" d="M148.729,-81.9768C170.277,-87.3775 193.808,-93.2755 214.628,-98.4938"/>
<polygon fill="midnightblue" stroke="midnightblue" points="149.536,-78.5709 138.985,-79.5346 147.834,-85.3609 149.536,-78.5709"/>
</g>
<!-- Node3 -->
<g id="node3" class="node"><title>Node3</title>
<g id="a_node3"><a xlink:href="$d7/d07/classorg_1_1buildmlearn_1_1appstore_1_1activities_1_1_full_screen_view_activity.html#ab634b24b8cfee4d1feb01426e9f8325b" xlink:title="The method is executed first when the activity is created. ">
<polygon fill="none" stroke="black" points="192,-49.5 192,-79.5 359,-79.5 359,-49.5 192,-49.5"/>
<text text-anchor="start" x="200" y="-67.5" font-family="Helvetica,sans-Serif" font-size="10.00">org.buildmlearn.appstore.activities.</text>
<text text-anchor="middle" x="275.5" y="-56.5" font-family="Helvetica,sans-Serif" font-size="10.00">FullScreenViewActivity.onCreate</text>
</a>
</g>
</g>
<!-- Node1&#45;&gt;Node3 -->
<g id="edge2" class="edge"><title>Node1&#45;&gt;Node3</title>
<path fill="none" stroke="midnightblue" d="M166.44,-64.5C174.836,-64.5 183.334,-64.5 191.683,-64.5"/>
<polygon fill="midnightblue" stroke="midnightblue" points="166.267,-61.0001 156.267,-64.5 166.267,-68.0001 166.267,-61.0001"/>
</g>
<!-- Node4 -->
<g id="node4" class="node"><title>Node4</title>
<g id="a_node4"><a xlink:href="$dd/df9/classorg_1_1buildmlearn_1_1appstore_1_1adapters_1_1_search_list_adapter.html#a91dabedaae628786d4ca4d4c1bc98696" xlink:title="Binds the content ot different views. ">
<polygon fill="none" stroke="black" points="192,-0.5 192,-30.5 359,-30.5 359,-0.5 192,-0.5"/>
<text text-anchor="start" x="200" y="-18.5" font-family="Helvetica,sans-Serif" font-size="10.00">org.buildmlearn.appstore.adapters.</text>
<text text-anchor="middle" x="275.5" y="-7.5" font-family="Helvetica,sans-Serif" font-size="10.00">SearchListAdapter.bindView</text>
</a>
</g>
</g>
<!-- Node1&#45;&gt;Node4 -->
<g id="edge3" class="edge"><title>Node1&#45;&gt;Node4</title>
<path fill="none" stroke="midnightblue" d="M148.729,-47.0232C170.277,-41.6225 193.808,-35.7245 214.628,-30.5062"/>
<polygon fill="midnightblue" stroke="midnightblue" points="147.834,-43.6391 138.985,-49.4654 149.536,-50.4291 147.834,-43.6391"/>
</g>
</g>
</svg>
