<?xml version="1.0" encoding="UTF-8" standalone="no"?>
<!DOCTYPE svg PUBLIC "-//W3C//DTD SVG 1.1//EN"
 "http://www.w3.org/Graphics/SVG/1.1/DTD/svg11.dtd">
<!-- Generated by graphviz version 2.38.0 (20140413.2041)
 -->
<!-- Title: org.buildmlearn.appstore.utils.VolleySingleton.getInstance Pages: 1 -->
<svg width="378pt" height="198pt"
 viewBox="0.00 0.00 378.00 198.00" xmlns="http://www.w3.org/2000/svg" xmlns:xlink="http://www.w3.org/1999/xlink">
<g id="graph0" class="graph" transform="scale(1 1) rotate(0) translate(4 194)">
<title>org.buildmlearn.appstore.utils.VolleySingleton.getInstance</title>
<!-- Node1 -->
<g id="node1" class="node"><title>Node1</title>
<polygon fill="#bfbfbf" stroke="black" points="0,-82.5 0,-112.5 147,-112.5 147,-82.5 0,-82.5"/>
<text text-anchor="start" x="8" y="-100.5" font-family="Helvetica,sans-Serif" font-size="10.00">org.buildmlearn.appstore.utils.</text>
<text text-anchor="middle" x="73.5" y="-89.5" font-family="Helvetica,sans-Serif" font-size="10.00">VolleySingleton.getInstance</text>
</g>
<!-- Node2 -->
<g id="node2" class="node"><title>Node2</title>
<g id="a_node2"><a xlink:href="$dd/d52/classorg_1_1buildmlearn_1_1appstore_1_1activities_1_1_app_details.html#a5496a1ae07afc43ae065d908ceea260b" xlink:title="The method is executed first when the activity is created. ">
<polygon fill="none" stroke="black" points="193,-159.5 193,-189.5 360,-189.5 360,-159.5 193,-159.5"/>
<text text-anchor="start" x="201" y="-177.5" font-family="Helvetica,sans-Serif" font-size="10.00">org.buildmlearn.appstore.activities.</text>
<text text-anchor="middle" x="276.5" y="-166.5" font-family="Helvetica,sans-Serif" font-size="10.00">AppDetails.onCreate</text>
</a>
</g>
</g>
<!-- Node1&#45;&gt;Node2 -->
<g id="edge1" class="edge"><title>Node1&#45;&gt;Node2</title>
<path fill="none" stroke="midnightblue" d="M110.555,-117.378C131.295,-128.232 158.105,-141.296 183,-150.5 191.87,-153.779 201.376,-156.788 210.795,-159.484"/>
<polygon fill="midnightblue" stroke="midnightblue" points="111.955,-114.159 101.481,-112.568 108.677,-120.344 111.955,-114.159"/>
</g>
<!-- Node3 -->
<g id="node3" class="node"><title>Node3</title>
<g id="a_node3"><a xlink:href="$d7/d07/classorg_1_1buildmlearn_1_1appstore_1_1activities_1_1_full_screen_view_activity.html#ab634b24b8cfee4d1feb01426e9f8325b" xlink:title="The method is executed first when the activity is created. ">
<polygon fill="none" stroke="black" points="193,-110.5 193,-140.5 360,-140.5 360,-110.5 193,-110.5"/>
<text text-anchor="start" x="201" y="-128.5" font-family="Helvetica,sans-Serif" font-size="10.00">org.buildmlearn.appstore.activities.</text>
<text text-anchor="middle" x="276.5" y="-117.5" font-family="Helvetica,sans-Serif" font-size="10.00">FullScreenViewActivity.onCreate</text>
</a>
</g>
</g>
<!-- Node1&#45;&gt;Node3 -->
<g id="edge2" class="edge"><title>Node1&#45;&gt;Node3</title>
<path fill="none" stroke="midnightblue" d="M157.274,-109.031C169.006,-110.665 181.072,-112.346 192.803,-113.98"/>
<polygon fill="midnightblue" stroke="midnightblue" points="157.453,-105.522 147.066,-107.609 156.487,-112.455 157.453,-105.522"/>
</g>
<!-- Node4 -->
<g id="node4" class="node"><title>Node4</title>
<g id="a_node4"><a xlink:href="$df/da8/classorg_1_1buildmlearn_1_1appstore_1_1adapters_1_1_card_view_adapter_1_1_card_view_holder.html#acc7b8394cad57217471bcaac46d87104" xlink:title="org.buildmlearn.appstore.adapters.\lCardViewAdapter.CardViewHolder.Card\lViewHolder">
<polygon fill="none" stroke="black" points="183,-50 183,-91 370,-91 370,-50 183,-50"/>
<text text-anchor="start" x="191" y="-79" font-family="Helvetica,sans-Serif" font-size="10.00">org.buildmlearn.appstore.adapters.</text>
<text text-anchor="start" x="191" y="-68" font-family="Helvetica,sans-Serif" font-size="10.00">CardViewAdapter.CardViewHolder.Card</text>
<text text-anchor="middle" x="276.5" y="-57" font-family="Helvetica,sans-Serif" font-size="10.00">ViewHolder</text>
</a>
</g>
</g>
<!-- Node1&#45;&gt;Node4 -->
<g id="edge3" class="edge"><title>Node1&#45;&gt;Node4</title>
<path fill="none" stroke="midnightblue" d="M157.228,-86.3873C165.642,-85.257 174.229,-84.1036 182.74,-82.9602"/>
<polygon fill="midnightblue" stroke="midnightblue" points="156.511,-82.9521 147.066,-87.7524 157.443,-89.8898 156.511,-82.9521"/>
</g>
<!-- Node5 -->
<g id="node5" class="node"><title>Node5</title>
<g id="a_node5"><a xlink:href="$dd/df9/classorg_1_1buildmlearn_1_1appstore_1_1adapters_1_1_search_list_adapter.html#a91dabedaae628786d4ca4d4c1bc98696" xlink:title="Binds the content ot different views. ">
<polygon fill="none" stroke="black" points="193,-0.5 193,-30.5 360,-30.5 360,-0.5 193,-0.5"/>
<text text-anchor="start" x="201" y="-18.5" font-family="Helvetica,sans-Serif" font-size="10.00">org.buildmlearn.appstore.adapters.</text>
<text text-anchor="middle" x="276.5" y="-7.5" font-family="Helvetica,sans-Serif" font-size="10.00">SearchListAdapter.bindView</text>
</a>
</g>
</g>
<!-- Node1&#45;&gt;Node5 -->
<g id="edge4" class="edge"><title>Node1&#45;&gt;Node5</title>
<path fill="none" stroke="midnightblue" d="M108.444,-77.191C129.39,-65.2914 157.118,-50.6534 183,-40.5 192.292,-36.855 202.309,-33.5452 212.202,-30.6139"/>
<polygon fill="midnightblue" stroke="midnightblue" points="106.54,-74.2486 99.619,-82.2704 110.032,-80.3156 106.54,-74.2486"/>
</g>
</g>
</svg>
