<?xml version="1.0" encoding="UTF-8" standalone="no"?>
<!DOCTYPE svg PUBLIC "-//W3C//DTD SVG 1.1//EN"
 "http://www.w3.org/Graphics/SVG/1.1/DTD/svg11.dtd">
<!-- Generated by graphviz version 2.38.0 (20140413.2041)
 -->
<!-- Title: org.buildmlearn.appstore.activities.SplashActivity.parseXML Pages: 1 -->
<svg width="561pt" height="137pt"
 viewBox="0.00 0.00 561.00 137.00" xmlns="http://www.w3.org/2000/svg" xmlns:xlink="http://www.w3.org/1999/xlink">
<g id="graph0" class="graph" transform="scale(1 1) rotate(0) translate(4 133)">
<title>org.buildmlearn.appstore.activities.SplashActivity.parseXML</title>
<!-- Node1 -->
<g id="node1" class="node"><title>Node1</title>
<polygon fill="#bfbfbf" stroke="black" points="0,-49.5 0,-79.5 167,-79.5 167,-49.5 0,-49.5"/>
<text text-anchor="start" x="8" y="-67.5" font-family="Helvetica,sans-Serif" font-size="10.00">org.buildmlearn.appstore.activities.</text>
<text text-anchor="middle" x="83.5" y="-56.5" font-family="Helvetica,sans-Serif" font-size="10.00">SplashActivity.parseXML</text>
</g>
<!-- Node1&#45;&gt;Node1 -->
<g id="edge2" class="edge"><title>Node1&#45;&gt;Node1</title>
<path fill="none" stroke="midnightblue" d="M48.2973,-79.659C39.8087,-89.0566 51.543,-98 83.5,-98 102.974,-98 114.938,-94.679 119.393,-89.9579"/>
<polygon fill="midnightblue" stroke="midnightblue" points="122.864,-89.4025 118.703,-79.659 115.879,-89.8707 122.864,-89.4025"/>
</g>
<!-- Node2 -->
<g id="node2" class="node"><title>Node2</title>
<g id="a_node2"><a xlink:href="../../df/d05/classorg_1_1buildmlearn_1_1appstore_1_1activities_1_1_splash_activity.html#a1d5fc2ca5fd1a52786a7ce0d914d1d7e" target="_top" xlink:title="The method check whether the phone is connected to internet or not. ">
<polygon fill="none" stroke="black" points="203,-98.5 203,-128.5 370,-128.5 370,-98.5 203,-98.5"/>
<text text-anchor="start" x="211" y="-116.5" font-family="Helvetica,sans-Serif" font-size="10.00">org.buildmlearn.appstore.activities.</text>
<text text-anchor="middle" x="286.5" y="-105.5" font-family="Helvetica,sans-Serif" font-size="10.00">SplashActivity.isNetworkAvailable</text>
</a>
</g>
</g>
<!-- Node1&#45;&gt;Node2 -->
<g id="edge1" class="edge"><title>Node1&#45;&gt;Node2</title>
<path fill="none" stroke="midnightblue" d="M146.173,-79.5346C167.588,-84.7554 191.784,-90.6537 213.93,-96.0526"/>
<polygon fill="midnightblue" stroke="midnightblue" points="213.4,-99.5257 223.944,-98.4938 215.058,-92.7249 213.4,-99.5257"/>
</g>
<!-- Node3 -->
<g id="node3" class="node"><title>Node3</title>
<g id="a_node3"><a xlink:href="../../d6/d02/classorg_1_1buildmlearn_1_1appstore_1_1utils_1_1_x_m_l_parser.html#a15a8449f10403c80625319062f73432e" target="_top" xlink:title="Gets the Document object from the xml string. ">
<polygon fill="none" stroke="black" points="213,-49.5 213,-79.5 360,-79.5 360,-49.5 213,-49.5"/>
<text text-anchor="start" x="221" y="-67.5" font-family="Helvetica,sans-Serif" font-size="10.00">org.buildmlearn.appstore.utils.</text>
<text text-anchor="middle" x="286.5" y="-56.5" font-family="Helvetica,sans-Serif" font-size="10.00">XMLParser.getDomElement</text>
</a>
</g>
</g>
<!-- Node1&#45;&gt;Node3 -->
<g id="edge3" class="edge"><title>Node1&#45;&gt;Node3</title>
<path fill="none" stroke="midnightblue" d="M167.125,-64.5C178.849,-64.5 190.909,-64.5 202.638,-64.5"/>
<polygon fill="midnightblue" stroke="midnightblue" points="202.843,-68.0001 212.843,-64.5 202.843,-61.0001 202.843,-68.0001"/>
</g>
<!-- Node4 -->
<g id="node4" class="node"><title>Node4</title>
<g id="a_node4"><a xlink:href="../../d6/d02/classorg_1_1buildmlearn_1_1appstore_1_1utils_1_1_x_m_l_parser.html#a42151792145130629c7bf2a16b2885bc" target="_top" xlink:title="Gets the value of the item from the Document object. ">
<polygon fill="none" stroke="black" points="213,-0.5 213,-30.5 360,-30.5 360,-0.5 213,-0.5"/>
<text text-anchor="start" x="221" y="-18.5" font-family="Helvetica,sans-Serif" font-size="10.00">org.buildmlearn.appstore.utils.</text>
<text text-anchor="middle" x="286.5" y="-7.5" font-family="Helvetica,sans-Serif" font-size="10.00">XMLParser.getValue</text>
</a>
</g>
</g>
<!-- Node1&#45;&gt;Node4 -->
<g id="edge4" class="edge"><title>Node1&#45;&gt;Node4</title>
<path fill="none" stroke="midnightblue" d="M146.173,-49.4654C167.588,-44.2446 191.784,-38.3463 213.93,-32.9474"/>
<polygon fill="midnightblue" stroke="midnightblue" points="215.058,-36.2751 223.944,-30.5062 213.4,-29.4743 215.058,-36.2751"/>
</g>
<!-- Node5 -->
<g id="node5" class="node"><title>Node5</title>
<g id="a_node5"><a xlink:href="../../d6/d02/classorg_1_1buildmlearn_1_1appstore_1_1utils_1_1_x_m_l_parser.html#a623e2412cff7b8ab44947732d167feef" target="_top" xlink:title="Gets the element value of the node. ">
<polygon fill="none" stroke="black" points="406,-0.5 406,-30.5 553,-30.5 553,-0.5 406,-0.5"/>
<text text-anchor="start" x="414" y="-18.5" font-family="Helvetica,sans-Serif" font-size="10.00">org.buildmlearn.appstore.utils.</text>
<text text-anchor="middle" x="479.5" y="-7.5" font-family="Helvetica,sans-Serif" font-size="10.00">XMLParser.getElementValue</text>
</a>
</g>
</g>
<!-- Node4&#45;&gt;Node5 -->
<g id="edge5" class="edge"><title>Node4&#45;&gt;Node5</title>
<path fill="none" stroke="midnightblue" d="M360.254,-15.5C371.832,-15.5 383.884,-15.5 395.674,-15.5"/>
<polygon fill="midnightblue" stroke="midnightblue" points="395.949,-19.0001 405.949,-15.5 395.948,-12.0001 395.949,-19.0001"/>
</g>
</g>
</svg>
