<?xml version="1.0" encoding="UTF-8" standalone="no"?>
<!DOCTYPE svg PUBLIC "-//W3C//DTD SVG 1.1//EN"
 "http://www.w3.org/Graphics/SVG/1.1/DTD/svg11.dtd">
<!-- Generated by graphviz version 2.38.0 (20140413.2041)
 -->
<!-- Title: org.buildmlearn.appstore.activities.SplashActivity.parseXML Pages: 1 -->
<svg width="378pt" height="57pt"
 viewBox="0.00 0.00 378.00 57.00" xmlns="http://www.w3.org/2000/svg" xmlns:xlink="http://www.w3.org/1999/xlink">
<g id="graph0" class="graph" transform="scale(1 1) rotate(0) translate(4 53)">
<title>org.buildmlearn.appstore.activities.SplashActivity.parseXML</title>
<!-- Node1 -->
<g id="node1" class="node"><title>Node1</title>
<polygon fill="#bfbfbf" stroke="black" points="0,-0.5 0,-30.5 167,-30.5 167,-0.5 0,-0.5"/>
<text text-anchor="start" x="8" y="-18.5" font-family="Helvetica,sans-Serif" font-size="10.00">org.buildmlearn.appstore.activities.</text>
<text text-anchor="middle" x="83.5" y="-7.5" font-family="Helvetica,sans-Serif" font-size="10.00">SplashActivity.parseXML</text>
</g>
<!-- Node1&#45;&gt;Node1 -->
<g id="edge2" class="edge"><title>Node1&#45;&gt;Node1</title>
<path fill="none" stroke="midnightblue" d="M47.607,-40.9579C52.0619,-45.679 64.0262,-49 83.5,-49 115.457,-49 127.191,-40.0566 118.703,-30.659"/>
<polygon fill="midnightblue" stroke="midnightblue" points="51.1206,-40.8707 48.2973,-30.659 44.1363,-40.4025 51.1206,-40.8707"/>
</g>
<!-- Node2 -->
<g id="node2" class="node"><title>Node2</title>
<g id="a_node2"><a xlink:href="../../df/d05/classorg_1_1buildmlearn_1_1appstore_1_1activities_1_1_splash_activity.html#a87a3b8f0b5f853a7f8c658bde17b5020" target="_top" xlink:title="The method is executed when the activity is created. ">
<polygon fill="none" stroke="black" points="203,-0.5 203,-30.5 370,-30.5 370,-0.5 203,-0.5"/>
<text text-anchor="start" x="211" y="-18.5" font-family="Helvetica,sans-Serif" font-size="10.00">org.buildmlearn.appstore.activities.</text>
<text text-anchor="middle" x="286.5" y="-7.5" font-family="Helvetica,sans-Serif" font-size="10.00">SplashActivity.onCreate</text>
</a>
</g>
</g>
<!-- Node1&#45;&gt;Node2 -->
<g id="edge1" class="edge"><title>Node1&#45;&gt;Node2</title>
<path fill="none" stroke="midnightblue" d="M177.148,-15.5C185.73,-15.5 194.389,-15.5 202.872,-15.5"/>
<polygon fill="midnightblue" stroke="midnightblue" points="177.125,-12.0001 167.125,-15.5 177.124,-19.0001 177.125,-12.0001"/>
</g>
</g>
</svg>
