<?xml version="1.0" encoding="UTF-8" standalone="no"?>
<!DOCTYPE svg PUBLIC "-//W3C//DTD SVG 1.1//EN"
 "http://www.w3.org/Graphics/SVG/1.1/DTD/svg11.dtd">
<!-- Generated by graphviz version 2.38.0 (20140413.2041)
 -->
<!-- Title: org.buildmlearn.appstore.utils.SlidingTabLayout.InternalViewPagerListener.onPageSelected Pages: 1 -->
<svg width="419pt" height="88pt"
 viewBox="0.00 0.00 419.00 88.00" xmlns="http://www.w3.org/2000/svg" xmlns:xlink="http://www.w3.org/1999/xlink">
<g id="graph0" class="graph" transform="scale(1 1) rotate(0) translate(4 84)">
<title>org.buildmlearn.appstore.utils.SlidingTabLayout.InternalViewPagerListener.onPageSelected</title>
<!-- Node1 -->
<g id="node1" class="node"><title>Node1</title>
<polygon fill="#bfbfbf" stroke="black" points="0,-19 0,-60 172,-60 172,-19 0,-19"/>
<text text-anchor="start" x="8" y="-48" font-family="Helvetica,sans-Serif" font-size="10.00">org.buildmlearn.appstore.utils.</text>
<text text-anchor="start" x="8" y="-37" font-family="Helvetica,sans-Serif" font-size="10.00">SlidingTabLayout.InternalViewPager</text>
<text text-anchor="middle" x="86" y="-26" font-family="Helvetica,sans-Serif" font-size="10.00">Listener.onPageSelected</text>
</g>
<!-- Node2 -->
<g id="node2" class="node"><title>Node2</title>
<g id="a_node2"><a xlink:href="$d2/d6d/classorg_1_1buildmlearn_1_1appstore_1_1utils_1_1_sliding_tab_strip.html#a18a5a303a650373690a8f3457fe1546f" xlink:title="This method is activated, when the tabs are changed. ">
<polygon fill="none" stroke="black" points="208,-49.5 208,-79.5 411,-79.5 411,-49.5 208,-49.5"/>
<text text-anchor="start" x="216" y="-67.5" font-family="Helvetica,sans-Serif" font-size="10.00">org.buildmlearn.appstore.utils.</text>
<text text-anchor="middle" x="309.5" y="-56.5" font-family="Helvetica,sans-Serif" font-size="10.00">SlidingTabStrip.onViewPagerPageChanged</text>
</a>
</g>
</g>
<!-- Node1&#45;&gt;Node2 -->
<g id="edge1" class="edge"><title>Node1&#45;&gt;Node2</title>
<path fill="none" stroke="midnightblue" d="M172.004,-49.0942C180.422,-50.0443 189.05,-51.0181 197.679,-51.992"/>
<polygon fill="midnightblue" stroke="midnightblue" points="197.467,-55.4902 207.796,-53.1339 198.252,-48.5343 197.467,-55.4902"/>
</g>
<!-- Node3 -->
<g id="node3" class="node"><title>Node3</title>
<g id="a_node3"><a xlink:href="$d8/dcb/classorg_1_1buildmlearn_1_1appstore_1_1utils_1_1_sliding_tab_layout.html#a40c0580a57d64abcf06e35a666089b05" xlink:title="Scrolls the tabs. ">
<polygon fill="none" stroke="black" points="236,-0.5 236,-30.5 383,-30.5 383,-0.5 236,-0.5"/>
<text text-anchor="start" x="244" y="-18.5" font-family="Helvetica,sans-Serif" font-size="10.00">org.buildmlearn.appstore.utils.</text>
<text text-anchor="middle" x="309.5" y="-7.5" font-family="Helvetica,sans-Serif" font-size="10.00">SlidingTabLayout.scrollToTab</text>
</a>
</g>
</g>
<!-- Node1&#45;&gt;Node3 -->
<g id="edge2" class="edge"><title>Node1&#45;&gt;Node3</title>
<path fill="none" stroke="midnightblue" d="M172.004,-30.2896C189.648,-28.3779 208.214,-26.3662 225.774,-24.4636"/>
<polygon fill="midnightblue" stroke="midnightblue" points="226.417,-27.9144 235.982,-23.3575 225.663,-20.9551 226.417,-27.9144"/>
</g>
</g>
</svg>
