<?xml version="1.0" encoding="UTF-8" standalone="no"?>
<!DOCTYPE svg PUBLIC "-//W3C//DTD SVG 1.1//EN"
 "http://www.w3.org/Graphics/SVG/1.1/DTD/svg11.dtd">
<!-- Generated by graphviz version 2.38.0 (20140413.2041)
 -->
<!-- Title: org.buildmlearn.appstore.activities.AppsActivity.refineSearch Pages: 1 -->
<svg width="606pt" height="57pt"
 viewBox="0.00 0.00 606.00 57.00" xmlns="http://www.w3.org/2000/svg" xmlns:xlink="http://www.w3.org/1999/xlink">
<g id="graph0" class="graph" transform="scale(1 1) rotate(0) translate(4 53)">
<title>org.buildmlearn.appstore.activities.AppsActivity.refineSearch</title>
<!-- Node1 -->
<g id="node1" class="node"><title>Node1</title>
<polygon fill="#bfbfbf" stroke="black" points="0,-0.5 0,-30.5 167,-30.5 167,-0.5 0,-0.5"/>
<text text-anchor="start" x="8" y="-18.5" font-family="Helvetica,sans-Serif" font-size="10.00">org.buildmlearn.appstore.activities.</text>
<text text-anchor="middle" x="83.5" y="-7.5" font-family="Helvetica,sans-Serif" font-size="10.00">AppsActivity.refineSearch</text>
</g>
<!-- Node2 -->
<g id="node2" class="node"><title>Node2</title>
<g id="a_node2"><a xlink:href="$d0/d60/classorg_1_1buildmlearn_1_1appstore_1_1activities_1_1_navigation_activity.html#a205e1d750606e6ca55b3cb753fc6f9cc" xlink:title="This method sends the search query to respective active activities, to refresh their view with the cu...">
<polygon fill="none" stroke="black" points="203,-0.5 203,-30.5 370,-30.5 370,-0.5 203,-0.5"/>
<text text-anchor="start" x="211" y="-18.5" font-family="Helvetica,sans-Serif" font-size="10.00">org.buildmlearn.appstore.activities.</text>
<text text-anchor="middle" x="286.5" y="-7.5" font-family="Helvetica,sans-Serif" font-size="10.00">NavigationActivity.refineSearch</text>
</a>
</g>
</g>
<!-- Node1&#45;&gt;Node2 -->
<g id="edge1" class="edge"><title>Node1&#45;&gt;Node2</title>
<path fill="none" stroke="midnightblue" d="M177.148,-15.5C185.73,-15.5 194.389,-15.5 202.872,-15.5"/>
<polygon fill="midnightblue" stroke="midnightblue" points="177.125,-12.0001 167.125,-15.5 177.124,-19.0001 177.125,-12.0001"/>
</g>
<!-- Node3 -->
<g id="node3" class="node"><title>Node3</title>
<g id="a_node3"><a xlink:href="$d0/d60/classorg_1_1buildmlearn_1_1appstore_1_1activities_1_1_navigation_activity.html#a0d03e67c759108fd119b9e5ad2e48014" xlink:title="This method creates menu items to be shown on the Action Bar. ">
<polygon fill="none" stroke="black" points="406,-0.5 406,-30.5 598,-30.5 598,-0.5 406,-0.5"/>
<text text-anchor="start" x="414" y="-18.5" font-family="Helvetica,sans-Serif" font-size="10.00">org.buildmlearn.appstore.activities.</text>
<text text-anchor="middle" x="502" y="-7.5" font-family="Helvetica,sans-Serif" font-size="10.00">NavigationActivity.onCreateOptionsMenu</text>
</a>
</g>
</g>
<!-- Node2&#45;&gt;Node3 -->
<g id="edge2" class="edge"><title>Node2&#45;&gt;Node3</title>
<path fill="none" stroke="midnightblue" d="M380.309,-15.5C388.784,-15.5 397.379,-15.5 405.874,-15.5"/>
<polygon fill="midnightblue" stroke="midnightblue" points="380.045,-12.0001 370.045,-15.5 380.045,-19.0001 380.045,-12.0001"/>
</g>
<!-- Node3&#45;&gt;Node3 -->
<g id="edge3" class="edge"><title>Node3&#45;&gt;Node3</title>
<path fill="none" stroke="midnightblue" d="M463.975,-40.9579C468.694,-45.679 481.369,-49 502,-49 535.855,-49 548.287,-40.0566 539.294,-30.659"/>
<polygon fill="midnightblue" stroke="midnightblue" points="467.489,-40.8818 464.706,-30.659 460.506,-40.386 467.489,-40.8818"/>
</g>
</g>
</svg>
