<?xml version="1.0" encoding="UTF-8" standalone="no"?>
<!DOCTYPE svg PUBLIC "-//W3C//DTD SVG 1.1//EN"
 "http://www.w3.org/Graphics/SVG/1.1/DTD/svg11.dtd">
<!-- Generated by graphviz version 2.38.0 (20140413.2041)
 -->
<!-- Title: org.buildmlearn.appstore.activities.NavigationActivity.getCustomCursor Pages: 1 -->
<svg width="407pt" height="57pt"
 viewBox="0.00 0.00 407.00 57.00" xmlns="http://www.w3.org/2000/svg" xmlns:xlink="http://www.w3.org/1999/xlink">
<g id="graph0" class="graph" transform="scale(1 1) rotate(0) translate(4 53)">
<title>org.buildmlearn.appstore.activities.NavigationActivity.getCustomCursor</title>
<!-- Node1 -->
<g id="node1" class="node"><title>Node1</title>
<polygon fill="#bfbfbf" stroke="black" points="0,-0.5 0,-30.5 171,-30.5 171,-0.5 0,-0.5"/>
<text text-anchor="start" x="8" y="-18.5" font-family="Helvetica,sans-Serif" font-size="10.00">org.buildmlearn.appstore.activities.</text>
<text text-anchor="middle" x="85.5" y="-7.5" font-family="Helvetica,sans-Serif" font-size="10.00">NavigationActivity.getCustomCursor</text>
</g>
<!-- Node2 -->
<g id="node2" class="node"><title>Node2</title>
<g id="a_node2"><a xlink:href="../../d0/d60/classorg_1_1buildmlearn_1_1appstore_1_1activities_1_1_navigation_activity.html#a0d03e67c759108fd119b9e5ad2e48014" target="_top" xlink:title="This method creates menu items to be shown on the Action Bar. ">
<polygon fill="none" stroke="black" points="207,-0.5 207,-30.5 399,-30.5 399,-0.5 207,-0.5"/>
<text text-anchor="start" x="215" y="-18.5" font-family="Helvetica,sans-Serif" font-size="10.00">org.buildmlearn.appstore.activities.</text>
<text text-anchor="middle" x="303" y="-7.5" font-family="Helvetica,sans-Serif" font-size="10.00">NavigationActivity.onCreateOptionsMenu</text>
</a>
</g>
</g>
<!-- Node1&#45;&gt;Node2 -->
<g id="edge1" class="edge"><title>Node1&#45;&gt;Node2</title>
<path fill="none" stroke="midnightblue" d="M181.081,-15.5C189.679,-15.5 198.391,-15.5 206.993,-15.5"/>
<polygon fill="midnightblue" stroke="midnightblue" points="181.053,-12.0001 171.053,-15.5 181.053,-19.0001 181.053,-12.0001"/>
</g>
<!-- Node2&#45;&gt;Node2 -->
<g id="edge2" class="edge"><title>Node2&#45;&gt;Node2</title>
<path fill="none" stroke="midnightblue" d="M264.619,-40.9579C269.383,-45.679 282.177,-49 303,-49 337.172,-49 349.719,-40.0566 340.642,-30.659"/>
<polygon fill="midnightblue" stroke="midnightblue" points="268.134,-40.8837 265.358,-30.659 261.152,-40.3832 268.134,-40.8837"/>
</g>
</g>
</svg>
