<?xml version="1.0" encoding="UTF-8" standalone="no"?>
<!DOCTYPE svg PUBLIC "-//W3C//DTD SVG 1.1//EN"
 "http://www.w3.org/Graphics/SVG/1.1/DTD/svg11.dtd">
<!-- Generated by graphviz version 2.38.0 (20140413.2041)
 -->
<!-- Title: org.buildmlearn.appstore.activities.NavigationActivity.onCreateOptionsMenu Pages: 1 -->
<!--zoomable 526 -->
<svg id="main" version="1.1" xmlns="http://www.w3.org/2000/svg" xmlns:xlink="http://www.w3.org/1999/xlink" xml:space="preserve" onload="init(evt)">
<style type="text/css"><![CDATA[
.edge:hover path { stroke: red; }
.edge:hover polygon { stroke: red; fill: red; }
]]></style>
<script type="text/javascript"><![CDATA[
var edges = document.getElementsByTagName('g');
if (edges && edges.length) {
  for (var i=0;i<edges.length;i++) {
    if (edges[i].id.substr(0,4)=='edge') {
      edges[i].setAttribute('class','edge');
    }
  }
}
]]></script>
        <defs>
                <circle id="rim" cx="0" cy="0" r="7"/>
                <circle id="rim2" cx="0" cy="0" r="3.5"/>
                <g id="zoomPlus">
                        <use xlink:href="#rim" fill="#404040">
                                <set attributeName="fill" to="#808080" begin="zoomplus.mouseover" end="zoomplus.mouseout"/>
                        </use>
                        <path d="M-4,0h8M0,-4v8" fill="none" stroke="white" stroke-width="1.5" pointer-events="none"/>
                </g>
                <g id="zoomMin">
                        <use xlink:href="#rim" fill="#404040">
                                <set attributeName="fill" to="#808080" begin="zoomminus.mouseover" end="zoomminus.mouseout"/>
                        </use>
                        <path d="M-4,0h8" fill="none" stroke="white" stroke-width="1.5" pointer-events="none"/>
                </g>
                <g id="dirArrow">
                        <path fill="none" stroke="white" stroke-width="1.5" d="M0,-3.0v7 M-2.5,-0.5L0,-3.0L2.5,-0.5"/>
                </g>
               <g id="resetDef">
                       <use xlink:href="#rim2" fill="#404040">
                               <set attributeName="fill" to="#808080" begin="reset.mouseover" end="reset.mouseout"/>
                       </use>
               </g>
        </defs>

<script type="text/javascript">
var viewWidth = 823;
var viewHeight = 526;
var sectionId = 'dynsection-5';
</script>
<script xlink:href="../../svgpan.js"/>
<svg id="graph" class="graph">
<g id="viewport">
<title>org.buildmlearn.appstore.activities.NavigationActivity.onCreateOptionsMenu</title>
<!-- Node1 -->
<g id="node1" class="node"><title>Node1</title>
<polygon fill="#bfbfbf" stroke="black" points="0,-216.5 0,-246.5 192,-246.5 192,-216.5 0,-216.5"/>
<text text-anchor="start" x="8" y="-234.5" font-family="Helvetica,sans-Serif" font-size="10.00">org.buildmlearn.appstore.activities.</text>
<text text-anchor="middle" x="96" y="-223.5" font-family="Helvetica,sans-Serif" font-size="10.00">NavigationActivity.onCreateOptionsMenu</text>
</g>
<!-- Node1&#45;&gt;Node1 -->
<g id="edge19" class="edge"><title>Node1&#45;&gt;Node1</title>
<path fill="none" stroke="midnightblue" d="M58.3575,-246.659C49.2806,-256.057 61.8281,-265 96,-265 116.823,-265 129.617,-261.679 134.381,-256.958"/>
<polygon fill="midnightblue" stroke="midnightblue" points="137.848,-256.383 133.642,-246.659 130.866,-256.884 137.848,-256.383"/>
</g>
<!-- Node2 -->
<g id="node2" class="node"><title>Node2</title>
<g id="a_node2"><a xlink:href="../../d0/d60/classorg_1_1buildmlearn_1_1appstore_1_1activities_1_1_navigation_activity.html#a6574d770f486951a2978ff3529959883" target="_top" xlink:title="Gets the cursor position for the search suggestions. ">
<polygon fill="none" stroke="black" points="228,-487.5 228,-517.5 399,-517.5 399,-487.5 228,-487.5"/>
<text text-anchor="start" x="236" y="-505.5" font-family="Helvetica,sans-Serif" font-size="10.00">org.buildmlearn.appstore.activities.</text>
<text text-anchor="middle" x="313.5" y="-494.5" font-family="Helvetica,sans-Serif" font-size="10.00">NavigationActivity.getCustomCursor</text>
</a>
</g>
</g>
<!-- Node1&#45;&gt;Node2 -->
<g id="edge1" class="edge"><title>Node1&#45;&gt;Node2</title>
<path fill="none" stroke="midnightblue" d="M101.059,-246.651C113.089,-288.702 152.509,-408.002 228,-472.5 232.549,-476.387 237.638,-479.783 243,-482.748"/>
<polygon fill="midnightblue" stroke="midnightblue" points="241.725,-486.022 252.238,-487.341 244.842,-479.755 241.725,-486.022"/>
</g>
<!-- Node3 -->
<g id="node3" class="node"><title>Node3</title>
<g id="a_node3"><a xlink:href="../../d0/df6/classorg_1_1buildmlearn_1_1appstore_1_1fragments_1_1_tab_my_apps.html#ad2cfa4949b0adb6836ee7ddc5e07803b" target="_top" xlink:title="This method is called from the Navigation Activity. ">
<polygon fill="none" stroke="black" points="643,-332.5 643,-362.5 815,-362.5 815,-332.5 643,-332.5"/>
<text text-anchor="start" x="651" y="-350.5" font-family="Helvetica,sans-Serif" font-size="10.00">org.buildmlearn.appstore.fragments.</text>
<text text-anchor="middle" x="729" y="-339.5" font-family="Helvetica,sans-Serif" font-size="10.00">TabMyApps.closeSearch</text>
</a>
</g>
</g>
<!-- Node1&#45;&gt;Node3 -->
<g id="edge2" class="edge"><title>Node1&#45;&gt;Node3</title>
<path fill="none" stroke="midnightblue" d="M118.159,-246.647C169.419,-282.293 305.583,-370.787 435,-401.5 509.379,-419.151 532.233,-417.427 607,-401.5 637.787,-394.942 670.232,-379.966 693.767,-367.446"/>
<polygon fill="midnightblue" stroke="midnightblue" points="695.533,-370.469 702.643,-362.615 692.187,-364.321 695.533,-370.469"/>
</g>
<!-- Node4 -->
<g id="node4" class="node"><title>Node4</title>
<g id="a_node4"><a xlink:href="../../d8/dd4/classorg_1_1buildmlearn_1_1appstore_1_1fragments_1_1_tab_store.html#a9b04ad8cb6754042ab570357d36cc1da" target="_top" xlink:title="This method is called from the Navigation Activity. ">
<polygon fill="none" stroke="black" points="643,-422.5 643,-452.5 815,-452.5 815,-422.5 643,-422.5"/>
<text text-anchor="start" x="651" y="-440.5" font-family="Helvetica,sans-Serif" font-size="10.00">org.buildmlearn.appstore.fragments.</text>
<text text-anchor="middle" x="729" y="-429.5" font-family="Helvetica,sans-Serif" font-size="10.00">TabStore.closeSearch</text>
</a>
</g>
</g>
<!-- Node1&#45;&gt;Node4 -->
<g id="edge3" class="edge"><title>Node1&#45;&gt;Node4</title>
<path fill="none" stroke="midnightblue" d="M107.284,-246.787C127.153,-275.099 173.681,-335.699 228,-367.5 353.673,-441.075 526.817,-448.634 632.885,-444.876"/>
<polygon fill="midnightblue" stroke="midnightblue" points="633.083,-448.371 642.937,-444.479 632.806,-441.377 633.083,-448.371"/>
</g>
<!-- Node5 -->
<g id="node5" class="node"><title>Node5</title>
<g id="a_node5"><a xlink:href="../../d6/d69/classorg_1_1buildmlearn_1_1appstore_1_1activities_1_1_categories_activity.html#ad5feda8baa86efb06548383e14e941de" target="_top" xlink:title="This method is called from the Navigation Activity. ">
<polygon fill="none" stroke="black" points="645.5,-151.5 645.5,-181.5 812.5,-181.5 812.5,-151.5 645.5,-151.5"/>
<text text-anchor="start" x="653.5" y="-169.5" font-family="Helvetica,sans-Serif" font-size="10.00">org.buildmlearn.appstore.activities.</text>
<text text-anchor="middle" x="729" y="-158.5" font-family="Helvetica,sans-Serif" font-size="10.00">CategoriesActivity.closeSearch</text>
</a>
</g>
</g>
<!-- Node1&#45;&gt;Node5 -->
<g id="edge4" class="edge"><title>Node1&#45;&gt;Node5</title>
<path fill="none" stroke="midnightblue" d="M129.645,-216.344C188.905,-189.76 318.81,-135.725 435,-116.5 510.419,-104.021 532.018,-101.618 607,-116.5 622.724,-119.621 657.855,-134.482 686.234,-147.199"/>
<polygon fill="midnightblue" stroke="midnightblue" points="685.006,-150.485 695.561,-151.409 687.886,-144.105 685.006,-150.485"/>
</g>
<!-- Node6 -->
<g id="node6" class="node"><title>Node6</title>
<g id="a_node6"><a xlink:href="../../dd/d45/classorg_1_1buildmlearn_1_1appstore_1_1activities_1_1_categories_view.html#a5726ab0db7d7b89c35822807ea94e145" target="_top" xlink:title="This method is called from the Navigation Activity. ">
<polygon fill="none" stroke="black" points="645.5,-88.5 645.5,-118.5 812.5,-118.5 812.5,-88.5 645.5,-88.5"/>
<text text-anchor="start" x="653.5" y="-106.5" font-family="Helvetica,sans-Serif" font-size="10.00">org.buildmlearn.appstore.activities.</text>
<text text-anchor="middle" x="729" y="-95.5" font-family="Helvetica,sans-Serif" font-size="10.00">CategoriesView.closeSearch</text>
</a>
</g>
</g>
<!-- Node1&#45;&gt;Node6 -->
<g id="edge5" class="edge"><title>Node1&#45;&gt;Node6</title>
<path fill="none" stroke="midnightblue" d="M109.206,-216.329C130.363,-191.287 176.545,-141.942 228,-120.5 361.065,-65.0485 531.757,-74.3533 635.354,-87.7554"/>
<polygon fill="midnightblue" stroke="midnightblue" points="635.102,-91.2526 645.477,-89.1057 636.027,-84.3141 635.102,-91.2526"/>
</g>
<!-- Node7 -->
<g id="node7" class="node"><title>Node7</title>
<g id="a_node7"><a xlink:href="../../dc/d90/classorg_1_1buildmlearn_1_1appstore_1_1activities_1_1_apps_activity.html#ae6bef9c8e4af2b268bd90327ac922c2b" target="_top" xlink:title="This method is called from the Navigation Activity. ">
<polygon fill="none" stroke="black" points="645.5,-207.5 645.5,-237.5 812.5,-237.5 812.5,-207.5 645.5,-207.5"/>
<text text-anchor="start" x="653.5" y="-225.5" font-family="Helvetica,sans-Serif" font-size="10.00">org.buildmlearn.appstore.activities.</text>
<text text-anchor="middle" x="729" y="-214.5" font-family="Helvetica,sans-Serif" font-size="10.00">AppsActivity.closeSearch</text>
</a>
</g>
</g>
<!-- Node1&#45;&gt;Node7 -->
<g id="edge6" class="edge"><title>Node1&#45;&gt;Node7</title>
<path fill="none" stroke="midnightblue" d="M192.01,-219.283C294.493,-207.785 462.427,-193.805 607,-204.5 616.099,-205.173 625.552,-206.127 634.984,-207.249"/>
<polygon fill="midnightblue" stroke="midnightblue" points="634.834,-210.758 645.192,-208.527 635.704,-203.812 634.834,-210.758"/>
</g>
<!-- Node8 -->
<g id="node8" class="node"><title>Node8</title>
<g id="a_node8"><a xlink:href="../../d0/d60/classorg_1_1buildmlearn_1_1appstore_1_1activities_1_1_navigation_activity.html#a205e1d750606e6ca55b3cb753fc6f9cc" target="_top" xlink:title="This method sends the search query to respective active activities, to refresh their view with the cu...">
<polygon fill="none" stroke="black" points="230,-240.5 230,-270.5 397,-270.5 397,-240.5 230,-240.5"/>
<text text-anchor="start" x="238" y="-258.5" font-family="Helvetica,sans-Serif" font-size="10.00">org.buildmlearn.appstore.activities.</text>
<text text-anchor="middle" x="313.5" y="-247.5" font-family="Helvetica,sans-Serif" font-size="10.00">NavigationActivity.refineSearch</text>
</a>
</g>
</g>
<!-- Node1&#45;&gt;Node8 -->
<g id="edge7" class="edge"><title>Node1&#45;&gt;Node8</title>
<path fill="none" stroke="midnightblue" d="M192.149,-242.097C201.242,-243.109 210.457,-244.136 219.529,-245.146"/>
<polygon fill="midnightblue" stroke="midnightblue" points="219.371,-248.65 229.697,-246.278 220.146,-241.693 219.371,-248.65"/>
</g>
<!-- Node14 -->
<g id="node14" class="node"><title>Node14</title>
<g id="a_node14"><a xlink:href="../../d0/d60/classorg_1_1buildmlearn_1_1appstore_1_1activities_1_1_navigation_activity.html#afcd30abf1f641abff036c29738567eb1" target="_top" xlink:title="Refreshes the cursor position for the search suggestions. ">
<polygon fill="none" stroke="black" points="230,-0.5 230,-30.5 397,-30.5 397,-0.5 230,-0.5"/>
<text text-anchor="start" x="238" y="-18.5" font-family="Helvetica,sans-Serif" font-size="10.00">org.buildmlearn.appstore.activities.</text>
<text text-anchor="middle" x="313.5" y="-7.5" font-family="Helvetica,sans-Serif" font-size="10.00">NavigationActivity.refreshCursor</text>
</a>
</g>
</g>
<!-- Node1&#45;&gt;Node14 -->
<g id="edge18" class="edge"><title>Node1&#45;&gt;Node14</title>
<path fill="none" stroke="midnightblue" d="M103.664,-216.341C119.847,-181.22 164.603,-93.6117 228,-45.5 233.332,-41.4534 239.257,-37.9197 245.425,-34.8409"/>
<polygon fill="midnightblue" stroke="midnightblue" points="246.956,-37.9896 254.596,-30.6488 244.046,-31.6233 246.956,-37.9896"/>
</g>
<!-- Node9 -->
<g id="node9" class="node"><title>Node9</title>
<g id="a_node9"><a xlink:href="../../d0/df6/classorg_1_1buildmlearn_1_1appstore_1_1fragments_1_1_tab_my_apps.html#ae66ef4c95b75f055d223a14038669ac2" target="_top" xlink:title="This method is called from the Navigation Activity, which controls all the search view...">
<polygon fill="none" stroke="black" points="435,-312.5 435,-342.5 607,-342.5 607,-312.5 435,-312.5"/>
<text text-anchor="start" x="443" y="-330.5" font-family="Helvetica,sans-Serif" font-size="10.00">org.buildmlearn.appstore.fragments.</text>
<text text-anchor="middle" x="521" y="-319.5" font-family="Helvetica,sans-Serif" font-size="10.00">TabMyApps.refineSearch</text>
</a>
</g>
</g>
<!-- Node8&#45;&gt;Node9 -->
<g id="edge8" class="edge"><title>Node8&#45;&gt;Node9</title>
<path fill="none" stroke="midnightblue" d="M349.468,-270.547C373.329,-280.537 405.785,-293.587 435,-303.5 441.003,-305.537 447.285,-307.542 453.598,-309.472"/>
<polygon fill="midnightblue" stroke="midnightblue" points="452.925,-312.924 463.508,-312.438 454.931,-306.218 452.925,-312.924"/>
</g>
<!-- Node10 -->
<g id="node10" class="node"><title>Node10</title>
<g id="a_node10"><a xlink:href="../../d8/dd4/classorg_1_1buildmlearn_1_1appstore_1_1fragments_1_1_tab_store.html#abe9f38b6bf9181eef441a1f89148a8a3" target="_top" xlink:title="This method is called from the Navigation Activity, which controls all the search view...">
<polygon fill="none" stroke="black" points="435,-361.5 435,-391.5 607,-391.5 607,-361.5 435,-361.5"/>
<text text-anchor="start" x="443" y="-379.5" font-family="Helvetica,sans-Serif" font-size="10.00">org.buildmlearn.appstore.fragments.</text>
<text text-anchor="middle" x="521" y="-368.5" font-family="Helvetica,sans-Serif" font-size="10.00">TabStore.refineSearch</text>
</a>
</g>
</g>
<!-- Node8&#45;&gt;Node10 -->
<g id="edge10" class="edge"><title>Node8&#45;&gt;Node10</title>
<path fill="none" stroke="midnightblue" d="M329.053,-270.563C350.389,-291.812 392.282,-330.451 435,-352.5 438.577,-354.346 442.314,-356.066 446.141,-357.666"/>
<polygon fill="midnightblue" stroke="midnightblue" points="445.208,-361.058 455.797,-361.401 447.733,-354.529 445.208,-361.058"/>
</g>
<!-- Node11 -->
<g id="node11" class="node"><title>Node11</title>
<g id="a_node11"><a xlink:href="../../d6/d69/classorg_1_1buildmlearn_1_1appstore_1_1activities_1_1_categories_activity.html#a3672a6d4cc226656c88d964f354cae7b" target="_top" xlink:title="This method is called from the Navigation Activity, which controls all the search view...">
<polygon fill="none" stroke="black" points="437.5,-214.5 437.5,-244.5 604.5,-244.5 604.5,-214.5 437.5,-214.5"/>
<text text-anchor="start" x="445.5" y="-232.5" font-family="Helvetica,sans-Serif" font-size="10.00">org.buildmlearn.appstore.activities.</text>
<text text-anchor="middle" x="521" y="-221.5" font-family="Helvetica,sans-Serif" font-size="10.00">CategoriesActivity.refineSearch</text>
</a>
</g>
</g>
<!-- Node8&#45;&gt;Node11 -->
<g id="edge12" class="edge"><title>Node8&#45;&gt;Node11</title>
<path fill="none" stroke="midnightblue" d="M397.196,-245.037C407.15,-243.778 417.366,-242.485 427.449,-241.21"/>
<polygon fill="midnightblue" stroke="midnightblue" points="427.991,-244.669 437.473,-239.941 427.113,-237.724 427.991,-244.669"/>
</g>
<!-- Node12 -->
<g id="node12" class="node"><title>Node12</title>
<g id="a_node12"><a xlink:href="../../dd/d45/classorg_1_1buildmlearn_1_1appstore_1_1activities_1_1_categories_view.html#a9b8cfee2f830c826f124ecde3c316d63" target="_top" xlink:title="This method is called from the Navigation Activity, which controls all the search view...">
<polygon fill="none" stroke="black" points="437.5,-126.5 437.5,-156.5 604.5,-156.5 604.5,-126.5 437.5,-126.5"/>
<text text-anchor="start" x="445.5" y="-144.5" font-family="Helvetica,sans-Serif" font-size="10.00">org.buildmlearn.appstore.activities.</text>
<text text-anchor="middle" x="521" y="-133.5" font-family="Helvetica,sans-Serif" font-size="10.00">CategoriesView.refineSearch</text>
</a>
</g>
</g>
<!-- Node8&#45;&gt;Node12 -->
<g id="edge14" class="edge"><title>Node8&#45;&gt;Node12</title>
<path fill="none" stroke="midnightblue" d="M341.789,-240.362C378.431,-220.034 443.61,-183.877 484.169,-161.377"/>
<polygon fill="midnightblue" stroke="midnightblue" points="485.879,-164.431 492.926,-156.519 482.483,-158.31 485.879,-164.431"/>
</g>
<!-- Node13 -->
<g id="node13" class="node"><title>Node13</title>
<g id="a_node13"><a xlink:href="../../dc/d90/classorg_1_1buildmlearn_1_1appstore_1_1activities_1_1_apps_activity.html#afc2b93e8898eda23eabe8550a88b4fa8" target="_top" xlink:title="This method is called from the Navigation Activity, which controls all the search view...">
<polygon fill="none" stroke="black" points="437.5,-263.5 437.5,-293.5 604.5,-293.5 604.5,-263.5 437.5,-263.5"/>
<text text-anchor="start" x="445.5" y="-281.5" font-family="Helvetica,sans-Serif" font-size="10.00">org.buildmlearn.appstore.activities.</text>
<text text-anchor="middle" x="521" y="-270.5" font-family="Helvetica,sans-Serif" font-size="10.00">AppsActivity.refineSearch</text>
</a>
</g>
</g>
<!-- Node8&#45;&gt;Node13 -->
<g id="edge16" class="edge"><title>Node8&#45;&gt;Node13</title>
<path fill="none" stroke="midnightblue" d="M397.196,-264.756C407.15,-265.87 417.366,-267.013 427.449,-268.141"/>
<polygon fill="midnightblue" stroke="midnightblue" points="427.146,-271.629 437.473,-269.263 427.924,-264.673 427.146,-271.629"/>
</g>
<!-- Node9&#45;&gt;Node3 -->
<g id="edge9" class="edge"><title>Node9&#45;&gt;Node3</title>
<path fill="none" stroke="midnightblue" d="M607.275,-335.779C615.708,-336.598 624.305,-337.432 632.829,-338.26"/>
<polygon fill="midnightblue" stroke="midnightblue" points="632.497,-341.744 642.789,-339.227 633.174,-334.777 632.497,-341.744"/>
</g>
<!-- Node10&#45;&gt;Node4 -->
<g id="edge11" class="edge"><title>Node10&#45;&gt;Node4</title>
<path fill="none" stroke="midnightblue" d="M572.657,-391.5C601.234,-399.963 637.133,-410.593 667.22,-419.502"/>
<polygon fill="midnightblue" stroke="midnightblue" points="666.599,-422.968 677.181,-422.452 668.587,-416.256 666.599,-422.968"/>
</g>
<!-- Node11&#45;&gt;Node5 -->
<g id="edge13" class="edge"><title>Node11&#45;&gt;Node5</title>
<path fill="none" stroke="midnightblue" d="M571.08,-214.49C600.503,-205.492 638.102,-193.993 669.119,-184.507"/>
<polygon fill="midnightblue" stroke="midnightblue" points="670.4,-187.776 678.939,-181.504 668.353,-181.082 670.4,-187.776"/>
</g>
<!-- Node12&#45;&gt;Node6 -->
<g id="edge15" class="edge"><title>Node12&#45;&gt;Node6</title>
<path fill="none" stroke="midnightblue" d="M603.417,-126.481C614.266,-124.48 625.449,-122.417 636.456,-120.387"/>
<polygon fill="midnightblue" stroke="midnightblue" points="637.301,-123.79 646.5,-118.534 636.031,-116.906 637.301,-123.79"/>
</g>
<!-- Node13&#45;&gt;Node7 -->
<g id="edge17" class="edge"><title>Node13&#45;&gt;Node7</title>
<path fill="none" stroke="midnightblue" d="M577.204,-263.493C603.528,-256.337 635.203,-247.726 662.714,-240.248"/>
<polygon fill="midnightblue" stroke="midnightblue" points="663.912,-243.549 672.643,-237.548 662.075,-236.794 663.912,-243.549"/>
</g>
</g>
</svg>
        <g id="navigator" transform="translate(0 0)" fill="#404254">
                <rect fill="#f2f5e9" fill-opacity="0.5" stroke="#606060" stroke-width=".5" x="0" y="0" width="60" height="60"/>
                <use id="zoomplus" xlink:href="#zoomPlus" x="17" y="9" onmousedown="handleZoom(evt,'in')"/>
                <use id="zoomminus" xlink:href="#zoomMin" x="42" y="9" onmousedown="handleZoom(evt,'out')"/>
                <use id="reset" xlink:href="#resetDef" x="30" y="36" onmousedown="handleReset()"/>
                <g id="arrowUp" xlink:href="#dirArrow" transform="translate(30 24)" onmousedown="handlePan(0,-1)">
                  <use xlink:href="#rim" fill="#404040">
                        <set attributeName="fill" to="#808080" begin="arrowUp.mouseover" end="arrowUp.mouseout"/>
                  </use>
                  <path fill="none" stroke="white" stroke-width="1.5" d="M0,-3.0v7 M-2.5,-0.5L0,-3.0L2.5,-0.5"/>
                </g>
                <g id="arrowRight" xlink:href="#dirArrow" transform="rotate(90) translate(36 -43)" onmousedown="handlePan(1,0)">
                  <use xlink:href="#rim" fill="#404040">
                        <set attributeName="fill" to="#808080" begin="arrowRight.mouseover" end="arrowRight.mouseout"/>
                  </use>
                  <path fill="none" stroke="white" stroke-width="1.5" d="M0,-3.0v7 M-2.5,-0.5L0,-3.0L2.5,-0.5"/>
                </g>
                <g id="arrowDown" xlink:href="#dirArrow" transform="rotate(180) translate(-30 -48)" onmousedown="handlePan(0,1)">
                  <use xlink:href="#rim" fill="#404040">
                        <set attributeName="fill" to="#808080" begin="arrowDown.mouseover" end="arrowDown.mouseout"/>
                  </use>
                  <path fill="none" stroke="white" stroke-width="1.5" d="M0,-3.0v7 M-2.5,-0.5L0,-3.0L2.5,-0.5"/>
                </g>
                <g id="arrowLeft" xlink:href="#dirArrow" transform="rotate(270) translate(-36 17)" onmousedown="handlePan(-1,0)">
                  <use xlink:href="#rim" fill="#404040">
                        <set attributeName="fill" to="#808080" begin="arrowLeft.mouseover" end="arrowLeft.mouseout"/>
                  </use>
                  <path fill="none" stroke="white" stroke-width="1.5" d="M0,-3.0v7 M-2.5,-0.5L0,-3.0L2.5,-0.5"/>
                </g>
        </g>
        <svg viewBox="0 0 15 15" width="100%" height="30px" preserveAspectRatio="xMaxYMin meet">
         <g id="arrow_out" transform="scale(0.3 0.3)">
          <a xlink:href="classorg_1_1buildmlearn_1_1appstore_1_1activities_1_1_navigation_activity_a0d03e67c759108fd119b9e5ad2e48014_cgraph_org.svg" target="_base">
           <rect id="button" ry="5" rx="5" y="6" x="6" height="38" width="38"
                fill="#f2f5e9" fill-opacity="0.5" stroke="#606060" stroke-width="1.0"/>
           <path id="arrow"
             d="M 11.500037,31.436501 C 11.940474,20.09759 22.043105,11.32322 32.158766,21.979434 L 37.068811,17.246167 C 37.068811,17.246167 37.088388,32 37.088388,32 L 22.160133,31.978069 C 22.160133,31.978069 26.997745,27.140456 26.997745,27.140456 C 18.528582,18.264221 13.291696,25.230495 11.500037,31.436501 z"
             style="fill:#404040;"/>
          </a>
         </g>
        </svg>
</svg>
