<?xml version="1.0" encoding="UTF-8" standalone="no"?>
<!DOCTYPE svg PUBLIC "-//W3C//DTD SVG 1.1//EN"
 "http://www.w3.org/Graphics/SVG/1.1/DTD/svg11.dtd">
<!-- Generated by graphviz version 2.38.0 (20140413.2041)
 -->
<!-- Title: org.buildmlearn.appstore.activities.NavigationActivity.clearSearch Pages: 1 -->
<svg width="613pt" height="284pt"
 viewBox="0.00 0.00 613.00 284.00" xmlns="http://www.w3.org/2000/svg" xmlns:xlink="http://www.w3.org/1999/xlink">
<g id="graph0" class="graph" transform="scale(1 1) rotate(0) translate(4 280)">
<title>org.buildmlearn.appstore.activities.NavigationActivity.clearSearch</title>
<!-- Node1 -->
<g id="node1" class="node"><title>Node1</title>
<polygon fill="#bfbfbf" stroke="black" points="0,-122.5 0,-152.5 167,-152.5 167,-122.5 0,-122.5"/>
<text text-anchor="start" x="8" y="-140.5" font-family="Helvetica,sans-Serif" font-size="10.00">org.buildmlearn.appstore.activities.</text>
<text text-anchor="middle" x="83.5" y="-129.5" font-family="Helvetica,sans-Serif" font-size="10.00">NavigationActivity.clearSearch</text>
</g>
<!-- Node2 -->
<g id="node2" class="node"><title>Node2</title>
<g id="a_node2"><a xlink:href="../../dd/d52/classorg_1_1buildmlearn_1_1appstore_1_1activities_1_1_app_details.html#a767a23ca17e84ad2eb3a4d6031222453" target="_top" xlink:title="This method is called automatically when the back button is pressed. ">
<polygon fill="none" stroke="black" points="219,-245.5 219,-275.5 386,-275.5 386,-245.5 219,-245.5"/>
<text text-anchor="start" x="227" y="-263.5" font-family="Helvetica,sans-Serif" font-size="10.00">org.buildmlearn.appstore.activities.</text>
<text text-anchor="middle" x="302.5" y="-252.5" font-family="Helvetica,sans-Serif" font-size="10.00">AppDetails.onBackPressed</text>
</a>
</g>
</g>
<!-- Node1&#45;&gt;Node2 -->
<g id="edge1" class="edge"><title>Node1&#45;&gt;Node2</title>
<path fill="none" stroke="midnightblue" d="M105.42,-160.239C127.527,-182.901 164.467,-217.048 203,-236.5 209.835,-239.95 217.191,-242.921 224.694,-245.476"/>
<polygon fill="midnightblue" stroke="midnightblue" points="107.687,-157.545 98.2412,-152.746 102.632,-162.388 107.687,-157.545"/>
</g>
<!-- Node4 -->
<g id="node4" class="node"><title>Node4</title>
<g id="a_node4"><a xlink:href="../../d8/dfa/classorg_1_1buildmlearn_1_1appstore_1_1activities_1_1_home_activity.html#a1a3c72988991108cb3f2f70b345a1a0d" target="_top" xlink:title="The method is executed first when the activity is created. ">
<polygon fill="none" stroke="black" points="219,-196.5 219,-226.5 386,-226.5 386,-196.5 219,-196.5"/>
<text text-anchor="start" x="227" y="-214.5" font-family="Helvetica,sans-Serif" font-size="10.00">org.buildmlearn.appstore.activities.</text>
<text text-anchor="middle" x="302.5" y="-203.5" font-family="Helvetica,sans-Serif" font-size="10.00">HomeActivity.onCreate</text>
</a>
</g>
</g>
<!-- Node1&#45;&gt;Node4 -->
<g id="edge3" class="edge"><title>Node1&#45;&gt;Node4</title>
<path fill="none" stroke="midnightblue" d="M125.898,-156.895C148.374,-166.931 176.842,-178.857 203,-187.5 212.777,-190.731 223.229,-193.738 233.537,-196.455"/>
<polygon fill="midnightblue" stroke="midnightblue" points="127.211,-153.648 116.657,-152.724 124.332,-160.028 127.211,-153.648"/>
</g>
<!-- Node5 -->
<g id="node5" class="node"><title>Node5</title>
<g id="a_node5"><a xlink:href="../../d6/d04/classorg_1_1buildmlearn_1_1appstore_1_1adapters_1_1_card_categories_adapter.html#a15a41b533fef084c27b851ed933a4361" target="_top" xlink:title="It binds content to the views. ">
<polygon fill="none" stroke="black" points="203,-147.5 203,-177.5 402,-177.5 402,-147.5 203,-147.5"/>
<text text-anchor="start" x="211" y="-165.5" font-family="Helvetica,sans-Serif" font-size="10.00">org.buildmlearn.appstore.adapters.</text>
<text text-anchor="middle" x="302.5" y="-154.5" font-family="Helvetica,sans-Serif" font-size="10.00">CardCategoriesAdapter.onBindViewHolder</text>
</a>
</g>
</g>
<!-- Node1&#45;&gt;Node5 -->
<g id="edge4" class="edge"><title>Node1&#45;&gt;Node5</title>
<path fill="none" stroke="midnightblue" d="M177.324,-148.194C185.722,-149.161 194.248,-150.144 202.695,-151.117"/>
<polygon fill="midnightblue" stroke="midnightblue" points="177.492,-144.69 167.157,-147.023 176.691,-151.644 177.492,-144.69"/>
</g>
<!-- Node6 -->
<g id="node6" class="node"><title>Node6</title>
<g id="a_node6"><a xlink:href="../../d5/d3c/classorg_1_1buildmlearn_1_1appstore_1_1adapters_1_1_card_view_adapter.html#a2c54de70fff6623b6c325037c947a13f" target="_top" xlink:title="Binds content to the cardviewholder object. ">
<polygon fill="none" stroke="black" points="216,-98.5 216,-128.5 389,-128.5 389,-98.5 216,-98.5"/>
<text text-anchor="start" x="224" y="-116.5" font-family="Helvetica,sans-Serif" font-size="10.00">org.buildmlearn.appstore.adapters.</text>
<text text-anchor="middle" x="302.5" y="-105.5" font-family="Helvetica,sans-Serif" font-size="10.00">CardViewAdapter.onBindViewHolder</text>
</a>
</g>
</g>
<!-- Node1&#45;&gt;Node6 -->
<g id="edge5" class="edge"><title>Node1&#45;&gt;Node6</title>
<path fill="none" stroke="midnightblue" d="M177.329,-127.233C190.11,-125.82 203.186,-124.373 215.83,-122.975"/>
<polygon fill="midnightblue" stroke="midnightblue" points="176.712,-123.78 167.157,-128.358 177.482,-130.738 176.712,-123.78"/>
</g>
<!-- Node7 -->
<g id="node7" class="node"><title>Node7</title>
<g id="a_node7"><a xlink:href="../../df/de6/classorg_1_1buildmlearn_1_1appstore_1_1adapters_1_1_categories_adapter.html#af9bbdd82c8170ec63f1977d1197f163d" target="_top" xlink:title="Binds the content to the view. ">
<polygon fill="none" stroke="black" points="213,-49.5 213,-79.5 392,-79.5 392,-49.5 213,-49.5"/>
<text text-anchor="start" x="221" y="-67.5" font-family="Helvetica,sans-Serif" font-size="10.00">org.buildmlearn.appstore.adapters.</text>
<text text-anchor="middle" x="302.5" y="-56.5" font-family="Helvetica,sans-Serif" font-size="10.00">CategoriesAdapter.onBindViewHolder</text>
</a>
</g>
</g>
<!-- Node1&#45;&gt;Node7 -->
<g id="edge6" class="edge"><title>Node1&#45;&gt;Node7</title>
<path fill="none" stroke="midnightblue" d="M127.209,-118.556C149.522,-109.08 177.438,-97.8777 203,-89.5 213.898,-85.9284 225.611,-82.5588 237.024,-79.5189"/>
<polygon fill="midnightblue" stroke="midnightblue" points="125.825,-115.341 118.013,-122.498 128.583,-121.775 125.825,-115.341"/>
</g>
<!-- Node8 -->
<g id="node8" class="node"><title>Node8</title>
<g id="a_node8"><a xlink:href="../../dc/d6e/classorg_1_1buildmlearn_1_1appstore_1_1adapters_1_1_my_apps_view_adapter.html#ab95b082936ebfbe1ca7120428e7024d7" target="_top" xlink:title="Binds the content to the view. ">
<polygon fill="none" stroke="black" points="208,-0.5 208,-30.5 397,-30.5 397,-0.5 208,-0.5"/>
<text text-anchor="start" x="216" y="-18.5" font-family="Helvetica,sans-Serif" font-size="10.00">org.buildmlearn.appstore.adapters.</text>
<text text-anchor="middle" x="302.5" y="-7.5" font-family="Helvetica,sans-Serif" font-size="10.00">MyAppsViewAdapter.onBindViewHolder</text>
</a>
</g>
</g>
<!-- Node1&#45;&gt;Node8 -->
<g id="edge7" class="edge"><title>Node1&#45;&gt;Node8</title>
<path fill="none" stroke="midnightblue" d="M105.921,-114.942C128.171,-92.8115 164.993,-59.6755 203,-40.5 210.64,-36.6457 218.92,-33.3545 227.324,-30.5513"/>
<polygon fill="midnightblue" stroke="midnightblue" points="103.22,-112.697 98.681,-122.27 108.199,-117.617 103.22,-112.697"/>
</g>
<!-- Node3 -->
<g id="node3" class="node"><title>Node3</title>
<g id="a_node3"><a xlink:href="../../dd/d52/classorg_1_1buildmlearn_1_1appstore_1_1activities_1_1_app_details.html#a5496a1ae07afc43ae065d908ceea260b" target="_top" xlink:title="The method is executed first when the activity is created. ">
<polygon fill="none" stroke="black" points="438,-245.5 438,-275.5 605,-275.5 605,-245.5 438,-245.5"/>
<text text-anchor="start" x="446" y="-263.5" font-family="Helvetica,sans-Serif" font-size="10.00">org.buildmlearn.appstore.activities.</text>
<text text-anchor="middle" x="521.5" y="-252.5" font-family="Helvetica,sans-Serif" font-size="10.00">AppDetails.onCreate</text>
</a>
</g>
</g>
<!-- Node2&#45;&gt;Node3 -->
<g id="edge2" class="edge"><title>Node2&#45;&gt;Node3</title>
<path fill="none" stroke="midnightblue" d="M396.544,-260.5C410.23,-260.5 424.252,-260.5 437.713,-260.5"/>
<polygon fill="midnightblue" stroke="midnightblue" points="396.157,-257 386.157,-260.5 396.157,-264 396.157,-257"/>
</g>
</g>
</svg>
