<?xml version="1.0" encoding="UTF-8" standalone="no"?>
<!DOCTYPE svg PUBLIC "-//W3C//DTD SVG 1.1//EN"
 "http://www.w3.org/Graphics/SVG/1.1/DTD/svg11.dtd">
<!-- Generated by graphviz version 2.38.0 (20140413.2041)
 -->
<!-- Title: org.buildmlearn.appstore.activities.NavigationActivity.refineSearch Pages: 1 -->
<!--zoomable 235 -->
<svg id="main" version="1.1" xmlns="http://www.w3.org/2000/svg" xmlns:xlink="http://www.w3.org/1999/xlink" xml:space="preserve" onload="init(evt)">
<style type="text/css"><![CDATA[
.edge:hover path { stroke: red; }
.edge:hover polygon { stroke: red; fill: red; }
]]></style>
<script type="text/javascript"><![CDATA[
var edges = document.getElementsByTagName('g');
if (edges && edges.length) {
  for (var i=0;i<edges.length;i++) {
    if (edges[i].id.substr(0,4)=='edge') {
      edges[i].setAttribute('class','edge');
    }
  }
}
]]></script>
        <defs>
                <circle id="rim" cx="0" cy="0" r="7"/>
                <circle id="rim2" cx="0" cy="0" r="3.5"/>
                <g id="zoomPlus">
                        <use xlink:href="#rim" fill="#404040">
                                <set attributeName="fill" to="#808080" begin="zoomplus.mouseover" end="zoomplus.mouseout"/>
                        </use>
                        <path d="M-4,0h8M0,-4v8" fill="none" stroke="white" stroke-width="1.5" pointer-events="none"/>
                </g>
                <g id="zoomMin">
                        <use xlink:href="#rim" fill="#404040">
                                <set attributeName="fill" to="#808080" begin="zoomminus.mouseover" end="zoomminus.mouseout"/>
                        </use>
                        <path d="M-4,0h8" fill="none" stroke="white" stroke-width="1.5" pointer-events="none"/>
                </g>
                <g id="dirArrow">
                        <path fill="none" stroke="white" stroke-width="1.5" d="M0,-3.0v7 M-2.5,-0.5L0,-3.0L2.5,-0.5"/>
                </g>
               <g id="resetDef">
                       <use xlink:href="#rim2" fill="#404040">
                               <set attributeName="fill" to="#808080" begin="reset.mouseover" end="reset.mouseout"/>
                       </use>
               </g>
        </defs>

<script type="text/javascript">
var viewWidth = 591;
var viewHeight = 235;
var sectionId = 'dynsection-7';
</script>
<script xlink:href="../../svgpan.js"/>
<svg id="graph" class="graph">
<g id="viewport">
<title>org.buildmlearn.appstore.activities.NavigationActivity.refineSearch</title>
<!-- Node1 -->
<g id="node1" class="node"><title>Node1</title>
<polygon fill="#bfbfbf" stroke="black" points="0,-98.5 0,-128.5 167,-128.5 167,-98.5 0,-98.5"/>
<text text-anchor="start" x="8" y="-116.5" font-family="Helvetica,sans-Serif" font-size="10.00">org.buildmlearn.appstore.activities.</text>
<text text-anchor="middle" x="83.5" y="-105.5" font-family="Helvetica,sans-Serif" font-size="10.00">NavigationActivity.refineSearch</text>
</g>
<!-- Node2 -->
<g id="node2" class="node"><title>Node2</title>
<g id="a_node2"><a xlink:href="../../d0/df6/classorg_1_1buildmlearn_1_1appstore_1_1fragments_1_1_tab_my_apps.html#ae66ef4c95b75f055d223a14038669ac2" target="_top" xlink:title="This method is called from the Navigation Activity, which controls all the search view...">
<polygon fill="none" stroke="black" points="203,-196.5 203,-226.5 375,-226.5 375,-196.5 203,-196.5"/>
<text text-anchor="start" x="211" y="-214.5" font-family="Helvetica,sans-Serif" font-size="10.00">org.buildmlearn.appstore.fragments.</text>
<text text-anchor="middle" x="289" y="-203.5" font-family="Helvetica,sans-Serif" font-size="10.00">TabMyApps.refineSearch</text>
</a>
</g>
</g>
<!-- Node1&#45;&gt;Node2 -->
<g id="edge1" class="edge"><title>Node1&#45;&gt;Node2</title>
<path fill="none" stroke="midnightblue" d="M104.903,-128.764C127.755,-145.243 166.404,-171.302 203,-187.5 207.412,-189.453 212.025,-191.289 216.72,-193.006"/>
<polygon fill="midnightblue" stroke="midnightblue" points="215.845,-196.407 226.44,-196.365 218.132,-189.791 215.845,-196.407"/>
</g>
<!-- Node4 -->
<g id="node4" class="node"><title>Node4</title>
<g id="a_node4"><a xlink:href="../../d8/dd4/classorg_1_1buildmlearn_1_1appstore_1_1fragments_1_1_tab_store.html#abe9f38b6bf9181eef441a1f89148a8a3" target="_top" xlink:title="This method is called from the Navigation Activity, which controls all the search view...">
<polygon fill="none" stroke="black" points="203,-147.5 203,-177.5 375,-177.5 375,-147.5 203,-147.5"/>
<text text-anchor="start" x="211" y="-165.5" font-family="Helvetica,sans-Serif" font-size="10.00">org.buildmlearn.appstore.fragments.</text>
<text text-anchor="middle" x="289" y="-154.5" font-family="Helvetica,sans-Serif" font-size="10.00">TabStore.refineSearch</text>
</a>
</g>
</g>
<!-- Node1&#45;&gt;Node4 -->
<g id="edge3" class="edge"><title>Node1&#45;&gt;Node4</title>
<path fill="none" stroke="midnightblue" d="M146.94,-128.535C168.719,-133.779 193.339,-139.707 215.843,-145.126"/>
<polygon fill="midnightblue" stroke="midnightblue" points="215.137,-148.556 225.678,-147.494 216.776,-141.75 215.137,-148.556"/>
</g>
<!-- Node6 -->
<g id="node6" class="node"><title>Node6</title>
<g id="a_node6"><a xlink:href="../../d6/d69/classorg_1_1buildmlearn_1_1appstore_1_1activities_1_1_categories_activity.html#a3672a6d4cc226656c88d964f354cae7b" target="_top" xlink:title="This method is called from the Navigation Activity, which controls all the search view...">
<polygon fill="none" stroke="black" points="205.5,-98.5 205.5,-128.5 372.5,-128.5 372.5,-98.5 205.5,-98.5"/>
<text text-anchor="start" x="213.5" y="-116.5" font-family="Helvetica,sans-Serif" font-size="10.00">org.buildmlearn.appstore.activities.</text>
<text text-anchor="middle" x="289" y="-105.5" font-family="Helvetica,sans-Serif" font-size="10.00">CategoriesActivity.refineSearch</text>
</a>
</g>
</g>
<!-- Node1&#45;&gt;Node6 -->
<g id="edge5" class="edge"><title>Node1&#45;&gt;Node6</title>
<path fill="none" stroke="midnightblue" d="M167.271,-113.5C176.484,-113.5 185.911,-113.5 195.237,-113.5"/>
<polygon fill="midnightblue" stroke="midnightblue" points="195.302,-117 205.302,-113.5 195.302,-110 195.302,-117"/>
</g>
<!-- Node8 -->
<g id="node8" class="node"><title>Node8</title>
<g id="a_node8"><a xlink:href="../../dd/d45/classorg_1_1buildmlearn_1_1appstore_1_1activities_1_1_categories_view.html#a9b8cfee2f830c826f124ecde3c316d63" target="_top" xlink:title="This method is called from the Navigation Activity, which controls all the search view...">
<polygon fill="none" stroke="black" points="205.5,-49.5 205.5,-79.5 372.5,-79.5 372.5,-49.5 205.5,-49.5"/>
<text text-anchor="start" x="213.5" y="-67.5" font-family="Helvetica,sans-Serif" font-size="10.00">org.buildmlearn.appstore.activities.</text>
<text text-anchor="middle" x="289" y="-56.5" font-family="Helvetica,sans-Serif" font-size="10.00">CategoriesView.refineSearch</text>
</a>
</g>
</g>
<!-- Node1&#45;&gt;Node8 -->
<g id="edge7" class="edge"><title>Node1&#45;&gt;Node8</title>
<path fill="none" stroke="midnightblue" d="M146.94,-98.4654C168.719,-93.2211 193.339,-87.2931 215.843,-81.8745"/>
<polygon fill="midnightblue" stroke="midnightblue" points="216.776,-85.25 225.678,-79.5062 215.137,-78.4445 216.776,-85.25"/>
</g>
<!-- Node10 -->
<g id="node10" class="node"><title>Node10</title>
<g id="a_node10"><a xlink:href="../../dc/d90/classorg_1_1buildmlearn_1_1appstore_1_1activities_1_1_apps_activity.html#afc2b93e8898eda23eabe8550a88b4fa8" target="_top" xlink:title="This method is called from the Navigation Activity, which controls all the search view...">
<polygon fill="none" stroke="black" points="205.5,-0.5 205.5,-30.5 372.5,-30.5 372.5,-0.5 205.5,-0.5"/>
<text text-anchor="start" x="213.5" y="-18.5" font-family="Helvetica,sans-Serif" font-size="10.00">org.buildmlearn.appstore.activities.</text>
<text text-anchor="middle" x="289" y="-7.5" font-family="Helvetica,sans-Serif" font-size="10.00">AppsActivity.refineSearch</text>
</a>
</g>
</g>
<!-- Node1&#45;&gt;Node10 -->
<g id="edge9" class="edge"><title>Node1&#45;&gt;Node10</title>
<path fill="none" stroke="midnightblue" d="M105.388,-98.2403C128.35,-82.0496 166.802,-56.6257 203,-40.5 208.311,-38.1342 213.906,-35.922 219.587,-33.8696"/>
<polygon fill="midnightblue" stroke="midnightblue" points="220.872,-37.1287 229.191,-30.5676 218.596,-30.509 220.872,-37.1287"/>
</g>
<!-- Node3 -->
<g id="node3" class="node"><title>Node3</title>
<g id="a_node3"><a xlink:href="../../d0/df6/classorg_1_1buildmlearn_1_1appstore_1_1fragments_1_1_tab_my_apps.html#ad2cfa4949b0adb6836ee7ddc5e07803b" target="_top" xlink:title="This method is called from the Navigation Activity. ">
<polygon fill="none" stroke="black" points="411,-196.5 411,-226.5 583,-226.5 583,-196.5 411,-196.5"/>
<text text-anchor="start" x="419" y="-214.5" font-family="Helvetica,sans-Serif" font-size="10.00">org.buildmlearn.appstore.fragments.</text>
<text text-anchor="middle" x="497" y="-203.5" font-family="Helvetica,sans-Serif" font-size="10.00">TabMyApps.closeSearch</text>
</a>
</g>
</g>
<!-- Node2&#45;&gt;Node3 -->
<g id="edge2" class="edge"><title>Node2&#45;&gt;Node3</title>
<path fill="none" stroke="midnightblue" d="M375.275,-211.5C383.616,-211.5 392.118,-211.5 400.551,-211.5"/>
<polygon fill="midnightblue" stroke="midnightblue" points="400.789,-215 410.789,-211.5 400.789,-208 400.789,-215"/>
</g>
<!-- Node5 -->
<g id="node5" class="node"><title>Node5</title>
<g id="a_node5"><a xlink:href="../../d8/dd4/classorg_1_1buildmlearn_1_1appstore_1_1fragments_1_1_tab_store.html#a9b04ad8cb6754042ab570357d36cc1da" target="_top" xlink:title="This method is called from the Navigation Activity. ">
<polygon fill="none" stroke="black" points="411,-147.5 411,-177.5 583,-177.5 583,-147.5 411,-147.5"/>
<text text-anchor="start" x="419" y="-165.5" font-family="Helvetica,sans-Serif" font-size="10.00">org.buildmlearn.appstore.fragments.</text>
<text text-anchor="middle" x="497" y="-154.5" font-family="Helvetica,sans-Serif" font-size="10.00">TabStore.closeSearch</text>
</a>
</g>
</g>
<!-- Node4&#45;&gt;Node5 -->
<g id="edge4" class="edge"><title>Node4&#45;&gt;Node5</title>
<path fill="none" stroke="midnightblue" d="M375.275,-162.5C383.616,-162.5 392.118,-162.5 400.551,-162.5"/>
<polygon fill="midnightblue" stroke="midnightblue" points="400.789,-166 410.789,-162.5 400.789,-159 400.789,-166"/>
</g>
<!-- Node7 -->
<g id="node7" class="node"><title>Node7</title>
<g id="a_node7"><a xlink:href="../../d6/d69/classorg_1_1buildmlearn_1_1appstore_1_1activities_1_1_categories_activity.html#ad5feda8baa86efb06548383e14e941de" target="_top" xlink:title="This method is called from the Navigation Activity. ">
<polygon fill="none" stroke="black" points="413.5,-98.5 413.5,-128.5 580.5,-128.5 580.5,-98.5 413.5,-98.5"/>
<text text-anchor="start" x="421.5" y="-116.5" font-family="Helvetica,sans-Serif" font-size="10.00">org.buildmlearn.appstore.activities.</text>
<text text-anchor="middle" x="497" y="-105.5" font-family="Helvetica,sans-Serif" font-size="10.00">CategoriesActivity.closeSearch</text>
</a>
</g>
</g>
<!-- Node6&#45;&gt;Node7 -->
<g id="edge6" class="edge"><title>Node6&#45;&gt;Node7</title>
<path fill="none" stroke="midnightblue" d="M372.601,-113.5C382.675,-113.5 393.021,-113.5 403.231,-113.5"/>
<polygon fill="midnightblue" stroke="midnightblue" points="403.38,-117 413.38,-113.5 403.38,-110 403.38,-117"/>
</g>
<!-- Node9 -->
<g id="node9" class="node"><title>Node9</title>
<g id="a_node9"><a xlink:href="../../dd/d45/classorg_1_1buildmlearn_1_1appstore_1_1activities_1_1_categories_view.html#a5726ab0db7d7b89c35822807ea94e145" target="_top" xlink:title="This method is called from the Navigation Activity. ">
<polygon fill="none" stroke="black" points="413.5,-49.5 413.5,-79.5 580.5,-79.5 580.5,-49.5 413.5,-49.5"/>
<text text-anchor="start" x="421.5" y="-67.5" font-family="Helvetica,sans-Serif" font-size="10.00">org.buildmlearn.appstore.activities.</text>
<text text-anchor="middle" x="497" y="-56.5" font-family="Helvetica,sans-Serif" font-size="10.00">CategoriesView.closeSearch</text>
</a>
</g>
</g>
<!-- Node8&#45;&gt;Node9 -->
<g id="edge8" class="edge"><title>Node8&#45;&gt;Node9</title>
<path fill="none" stroke="midnightblue" d="M372.601,-64.5C382.675,-64.5 393.021,-64.5 403.231,-64.5"/>
<polygon fill="midnightblue" stroke="midnightblue" points="403.38,-68.0001 413.38,-64.5 403.38,-61.0001 403.38,-68.0001"/>
</g>
<!-- Node11 -->
<g id="node11" class="node"><title>Node11</title>
<g id="a_node11"><a xlink:href="../../dc/d90/classorg_1_1buildmlearn_1_1appstore_1_1activities_1_1_apps_activity.html#ae6bef9c8e4af2b268bd90327ac922c2b" target="_top" xlink:title="This method is called from the Navigation Activity. ">
<polygon fill="none" stroke="black" points="413.5,-0.5 413.5,-30.5 580.5,-30.5 580.5,-0.5 413.5,-0.5"/>
<text text-anchor="start" x="421.5" y="-18.5" font-family="Helvetica,sans-Serif" font-size="10.00">org.buildmlearn.appstore.activities.</text>
<text text-anchor="middle" x="497" y="-7.5" font-family="Helvetica,sans-Serif" font-size="10.00">AppsActivity.closeSearch</text>
</a>
</g>
</g>
<!-- Node10&#45;&gt;Node11 -->
<g id="edge10" class="edge"><title>Node10&#45;&gt;Node11</title>
<path fill="none" stroke="midnightblue" d="M372.601,-15.5C382.675,-15.5 393.021,-15.5 403.231,-15.5"/>
<polygon fill="midnightblue" stroke="midnightblue" points="403.38,-19.0001 413.38,-15.5 403.38,-12.0001 403.38,-19.0001"/>
</g>
</g>
</svg>
        <g id="navigator" transform="translate(0 0)" fill="#404254">
                <rect fill="#f2f5e9" fill-opacity="0.5" stroke="#606060" stroke-width=".5" x="0" y="0" width="60" height="60"/>
                <use id="zoomplus" xlink:href="#zoomPlus" x="17" y="9" onmousedown="handleZoom(evt,'in')"/>
                <use id="zoomminus" xlink:href="#zoomMin" x="42" y="9" onmousedown="handleZoom(evt,'out')"/>
                <use id="reset" xlink:href="#resetDef" x="30" y="36" onmousedown="handleReset()"/>
                <g id="arrowUp" xlink:href="#dirArrow" transform="translate(30 24)" onmousedown="handlePan(0,-1)">
                  <use xlink:href="#rim" fill="#404040">
                        <set attributeName="fill" to="#808080" begin="arrowUp.mouseover" end="arrowUp.mouseout"/>
                  </use>
                  <path fill="none" stroke="white" stroke-width="1.5" d="M0,-3.0v7 M-2.5,-0.5L0,-3.0L2.5,-0.5"/>
                </g>
                <g id="arrowRight" xlink:href="#dirArrow" transform="rotate(90) translate(36 -43)" onmousedown="handlePan(1,0)">
                  <use xlink:href="#rim" fill="#404040">
                        <set attributeName="fill" to="#808080" begin="arrowRight.mouseover" end="arrowRight.mouseout"/>
                  </use>
                  <path fill="none" stroke="white" stroke-width="1.5" d="M0,-3.0v7 M-2.5,-0.5L0,-3.0L2.5,-0.5"/>
                </g>
                <g id="arrowDown" xlink:href="#dirArrow" transform="rotate(180) translate(-30 -48)" onmousedown="handlePan(0,1)">
                  <use xlink:href="#rim" fill="#404040">
                        <set attributeName="fill" to="#808080" begin="arrowDown.mouseover" end="arrowDown.mouseout"/>
                  </use>
                  <path fill="none" stroke="white" stroke-width="1.5" d="M0,-3.0v7 M-2.5,-0.5L0,-3.0L2.5,-0.5"/>
                </g>
                <g id="arrowLeft" xlink:href="#dirArrow" transform="rotate(270) translate(-36 17)" onmousedown="handlePan(-1,0)">
                  <use xlink:href="#rim" fill="#404040">
                        <set attributeName="fill" to="#808080" begin="arrowLeft.mouseover" end="arrowLeft.mouseout"/>
                  </use>
                  <path fill="none" stroke="white" stroke-width="1.5" d="M0,-3.0v7 M-2.5,-0.5L0,-3.0L2.5,-0.5"/>
                </g>
        </g>
        <svg viewBox="0 0 15 15" width="100%" height="30px" preserveAspectRatio="xMaxYMin meet">
         <g id="arrow_out" transform="scale(0.3 0.3)">
          <a xlink:href="classorg_1_1buildmlearn_1_1appstore_1_1activities_1_1_navigation_activity_a205e1d750606e6ca55b3cb753fc6f9cc_cgraph_org.svg" target="_base">
           <rect id="button" ry="5" rx="5" y="6" x="6" height="38" width="38"
                fill="#f2f5e9" fill-opacity="0.5" stroke="#606060" stroke-width="1.0"/>
           <path id="arrow"
             d="M 11.500037,31.436501 C 11.940474,20.09759 22.043105,11.32322 32.158766,21.979434 L 37.068811,17.246167 C 37.068811,17.246167 37.088388,32 37.088388,32 L 22.160133,31.978069 C 22.160133,31.978069 26.997745,27.140456 26.997745,27.140456 C 18.528582,18.264221 13.291696,25.230495 11.500037,31.436501 z"
             style="fill:#404040;"/>
          </a>
         </g>
        </svg>
</svg>
