<?xml version="1.0" encoding="UTF-8" standalone="no"?>
<!DOCTYPE svg PUBLIC "-//W3C//DTD SVG 1.1//EN"
 "http://www.w3.org/Graphics/SVG/1.1/DTD/svg11.dtd">
<!-- Generated by graphviz version 2.38.0 (20140413.2041)
 -->
<!-- Title: org.buildmlearn.appstore.fragments.TabMyApps.refreshList Pages: 1 -->
<svg width="405pt" height="88pt"
 viewBox="0.00 0.00 405.00 88.00" xmlns="http://www.w3.org/2000/svg" xmlns:xlink="http://www.w3.org/1999/xlink">
<g id="graph0" class="graph" transform="scale(1 1) rotate(0) translate(4 84)">
<title>org.buildmlearn.appstore.fragments.TabMyApps.refreshList</title>
<!-- Node1 -->
<g id="node1" class="node"><title>Node1</title>
<polygon fill="#bfbfbf" stroke="black" points="0,-24.5 0,-54.5 172,-54.5 172,-24.5 0,-24.5"/>
<text text-anchor="start" x="8" y="-42.5" font-family="Helvetica,sans-Serif" font-size="10.00">org.buildmlearn.appstore.fragments.</text>
<text text-anchor="middle" x="86" y="-31.5" font-family="Helvetica,sans-Serif" font-size="10.00">TabMyApps.refreshList</text>
</g>
<!-- Node2 -->
<g id="node2" class="node"><title>Node2</title>
<g id="a_node2"><a xlink:href="../../d8/dfa/classorg_1_1buildmlearn_1_1appstore_1_1activities_1_1_home_activity.html#a1a3c72988991108cb3f2f70b345a1a0d" target="_top" xlink:title="The method is executed first when the activity is created. ">
<polygon fill="none" stroke="black" points="219,-49.5 219,-79.5 386,-79.5 386,-49.5 219,-49.5"/>
<text text-anchor="start" x="227" y="-67.5" font-family="Helvetica,sans-Serif" font-size="10.00">org.buildmlearn.appstore.activities.</text>
<text text-anchor="middle" x="302.5" y="-56.5" font-family="Helvetica,sans-Serif" font-size="10.00">HomeActivity.onCreate</text>
</a>
</g>
</g>
<!-- Node1&#45;&gt;Node2 -->
<g id="edge1" class="edge"><title>Node1&#45;&gt;Node2</title>
<path fill="none" stroke="midnightblue" d="M182.294,-50.6066C194.525,-52.032 206.965,-53.482 218.969,-54.881"/>
<polygon fill="midnightblue" stroke="midnightblue" points="182.422,-47.0979 172.084,-49.4166 181.612,-54.0508 182.422,-47.0979"/>
</g>
<!-- Node3 -->
<g id="node3" class="node"><title>Node3</title>
<g id="a_node3"><a xlink:href="../../dc/d6e/classorg_1_1buildmlearn_1_1appstore_1_1adapters_1_1_my_apps_view_adapter.html#ab95b082936ebfbe1ca7120428e7024d7" target="_top" xlink:title="Binds the content to the view. ">
<polygon fill="none" stroke="black" points="208,-0.5 208,-30.5 397,-30.5 397,-0.5 208,-0.5"/>
<text text-anchor="start" x="216" y="-18.5" font-family="Helvetica,sans-Serif" font-size="10.00">org.buildmlearn.appstore.adapters.</text>
<text text-anchor="middle" x="302.5" y="-7.5" font-family="Helvetica,sans-Serif" font-size="10.00">MyAppsViewAdapter.onBindViewHolder</text>
</a>
</g>
</g>
<!-- Node1&#45;&gt;Node3 -->
<g id="edge2" class="edge"><title>Node1&#45;&gt;Node3</title>
<path fill="none" stroke="midnightblue" d="M182.027,-28.8676C190.55,-27.914 199.176,-26.9488 207.688,-25.9965"/>
<polygon fill="midnightblue" stroke="midnightblue" points="181.633,-25.3898 172.084,-29.9801 182.411,-32.3464 181.633,-25.3898"/>
</g>
</g>
</svg>
