<?xml version="1.0" encoding="UTF-8" standalone="no"?>
<!DOCTYPE svg PUBLIC "-//W3C//DTD SVG 1.1//EN"
 "http://www.w3.org/Graphics/SVG/1.1/DTD/svg11.dtd">
<!-- Generated by graphviz version 2.38.0 (20140413.2041)
 -->
<!-- Title: org.buildmlearn.appstore.activities.ScoreActivity.onCreate Pages: 1 -->
<svg width="372pt" height="578pt"
 viewBox="0.00 0.00 372.00 578.00" xmlns="http://www.w3.org/2000/svg" xmlns:xlink="http://www.w3.org/1999/xlink">
<g id="graph0" class="graph" transform="scale(1 1) rotate(0) translate(4 574)">
<title>org.buildmlearn.appstore.activities.ScoreActivity.onCreate</title>
<!-- Node1 -->
<g id="node1" class="node"><title>Node1</title>
<polygon fill="#bfbfbf" stroke="black" points="0,-269.5 0,-299.5 167,-299.5 167,-269.5 0,-269.5"/>
<text text-anchor="start" x="8" y="-287.5" font-family="Helvetica,sans-Serif" font-size="10.00">org.buildmlearn.appstore.activities.</text>
<text text-anchor="middle" x="83.5" y="-276.5" font-family="Helvetica,sans-Serif" font-size="10.00">ScoreActivity.onCreate</text>
</g>
<!-- Node2 -->
<g id="node2" class="node"><title>Node2</title>
<g id="a_node2"><a xlink:href="../../d9/d29/classorg_1_1buildmlearn_1_1appstore_1_1models_1_1_spellings_model.html#af291064e82c76410196621b65c4703fb" target="_top" xlink:title="org.buildmlearn.appstore.models.\lSpellingsModel.getInstance">
<polygon fill="none" stroke="black" points="203,-539.5 203,-569.5 364,-569.5 364,-539.5 203,-539.5"/>
<text text-anchor="start" x="211" y="-557.5" font-family="Helvetica,sans-Serif" font-size="10.00">org.buildmlearn.appstore.models.</text>
<text text-anchor="middle" x="283.5" y="-546.5" font-family="Helvetica,sans-Serif" font-size="10.00">SpellingsModel.getInstance</text>
</a>
</g>
</g>
<!-- Node1&#45;&gt;Node2 -->
<g id="edge1" class="edge"><title>Node1&#45;&gt;Node2</title>
<path fill="none" stroke="midnightblue" d="M87.3383,-299.511C96.2205,-342.301 127.525,-465.95 203,-530.5 204.52,-531.8 206.109,-533.03 207.755,-534.193"/>
<polygon fill="midnightblue" stroke="midnightblue" points="206.043,-537.249 216.402,-539.471 209.69,-531.274 206.043,-537.249"/>
</g>
<!-- Node3 -->
<g id="node3" class="node"><title>Node3</title>
<g id="a_node3"><a xlink:href="../../d9/d29/classorg_1_1buildmlearn_1_1appstore_1_1models_1_1_spellings_model.html#a42ee50162a58bd2ca2ae66f1ee9b5a0d" target="_top" xlink:title="org.buildmlearn.appstore.models.\lSpellingsModel.getPuzzleName">
<polygon fill="none" stroke="black" points="203,-490.5 203,-520.5 364,-520.5 364,-490.5 203,-490.5"/>
<text text-anchor="start" x="211" y="-508.5" font-family="Helvetica,sans-Serif" font-size="10.00">org.buildmlearn.appstore.models.</text>
<text text-anchor="middle" x="283.5" y="-497.5" font-family="Helvetica,sans-Serif" font-size="10.00">SpellingsModel.getPuzzleName</text>
</a>
</g>
</g>
<!-- Node1&#45;&gt;Node3 -->
<g id="edge2" class="edge"><title>Node1&#45;&gt;Node3</title>
<path fill="none" stroke="midnightblue" d="M89.3192,-299.664C101.827,-336.558 138.897,-431.624 203,-481.5 204.803,-482.903 206.687,-484.224 208.636,-485.468"/>
<polygon fill="midnightblue" stroke="midnightblue" points="207.102,-488.62 217.539,-490.444 210.517,-482.51 207.102,-488.62"/>
</g>
<!-- Node4 -->
<g id="node4" class="node"><title>Node4</title>
<g id="a_node4"><a xlink:href="../../da/d2e/classorg_1_1buildmlearn_1_1appstore_1_1models_1_1_quiz_model.html#afd56bc8e8b1e5fdd506622bae6362f73" target="_top" xlink:title="org.buildmlearn.appstore.models.\lQuizModel.getInstance">
<polygon fill="none" stroke="black" points="203,-441.5 203,-471.5 364,-471.5 364,-441.5 203,-441.5"/>
<text text-anchor="start" x="211" y="-459.5" font-family="Helvetica,sans-Serif" font-size="10.00">org.buildmlearn.appstore.models.</text>
<text text-anchor="middle" x="283.5" y="-448.5" font-family="Helvetica,sans-Serif" font-size="10.00">QuizModel.getInstance</text>
</a>
</g>
</g>
<!-- Node1&#45;&gt;Node4 -->
<g id="edge3" class="edge"><title>Node1&#45;&gt;Node4</title>
<path fill="none" stroke="midnightblue" d="M92.4204,-299.582C108.903,-329.498 149.824,-396.554 203,-432.5 205.273,-434.037 207.648,-435.477 210.096,-436.828"/>
<polygon fill="midnightblue" stroke="midnightblue" points="208.718,-440.051 219.234,-441.335 211.814,-433.773 208.718,-440.051"/>
</g>
<!-- Node5 -->
<g id="node5" class="node"><title>Node5</title>
<g id="a_node5"><a xlink:href="../../da/d2e/classorg_1_1buildmlearn_1_1appstore_1_1models_1_1_quiz_model.html#ad8b77ee2f097056dd3926a7b245b46b1" target="_top" xlink:title="org.buildmlearn.appstore.models.\lQuizModel.getQuizName">
<polygon fill="none" stroke="black" points="203,-392.5 203,-422.5 364,-422.5 364,-392.5 203,-392.5"/>
<text text-anchor="start" x="211" y="-410.5" font-family="Helvetica,sans-Serif" font-size="10.00">org.buildmlearn.appstore.models.</text>
<text text-anchor="middle" x="283.5" y="-399.5" font-family="Helvetica,sans-Serif" font-size="10.00">QuizModel.getQuizName</text>
</a>
</g>
</g>
<!-- Node1&#45;&gt;Node5 -->
<g id="edge4" class="edge"><title>Node1&#45;&gt;Node5</title>
<path fill="none" stroke="midnightblue" d="M98.7497,-299.8C119.657,-321.396 160.764,-360.723 203,-383.5 206.303,-385.281 209.757,-386.949 213.296,-388.507"/>
<polygon fill="midnightblue" stroke="midnightblue" points="212.237,-391.854 222.819,-392.379 214.874,-385.37 212.237,-391.854"/>
</g>
<!-- Node6 -->
<g id="node6" class="node"><title>Node6</title>
<g id="a_node6"><a xlink:href="../../d9/d29/classorg_1_1buildmlearn_1_1appstore_1_1models_1_1_spellings_model.html#a8f4d4af1aa28f68f33f24e6b2ed79bd2" target="_top" xlink:title="org.buildmlearn.appstore.models.\lSpellingsModel.getTotalCorrect">
<polygon fill="none" stroke="black" points="203,-343.5 203,-373.5 364,-373.5 364,-343.5 203,-343.5"/>
<text text-anchor="start" x="211" y="-361.5" font-family="Helvetica,sans-Serif" font-size="10.00">org.buildmlearn.appstore.models.</text>
<text text-anchor="middle" x="283.5" y="-350.5" font-family="Helvetica,sans-Serif" font-size="10.00">SpellingsModel.getTotalCorrect</text>
</a>
</g>
</g>
<!-- Node1&#45;&gt;Node6 -->
<g id="edge5" class="edge"><title>Node1&#45;&gt;Node6</title>
<path fill="none" stroke="midnightblue" d="M117.582,-299.572C141.144,-310.032 173.699,-323.929 203,-334.5 208.473,-336.475 214.197,-338.423 219.956,-340.305"/>
<polygon fill="midnightblue" stroke="midnightblue" points="219.052,-343.69 229.643,-343.401 221.183,-337.022 219.052,-343.69"/>
</g>
<!-- Node7 -->
<g id="node7" class="node"><title>Node7</title>
<g id="a_node7"><a xlink:href="../../d9/d29/classorg_1_1buildmlearn_1_1appstore_1_1models_1_1_spellings_model.html#add730428f51492a8d1223bb051865248" target="_top" xlink:title="org.buildmlearn.appstore.models.\lSpellingsModel.getTotalWrong">
<polygon fill="none" stroke="black" points="203,-294.5 203,-324.5 364,-324.5 364,-294.5 203,-294.5"/>
<text text-anchor="start" x="211" y="-312.5" font-family="Helvetica,sans-Serif" font-size="10.00">org.buildmlearn.appstore.models.</text>
<text text-anchor="middle" x="283.5" y="-301.5" font-family="Helvetica,sans-Serif" font-size="10.00">SpellingsModel.getTotalWrong</text>
</a>
</g>
</g>
<!-- Node1&#45;&gt;Node7 -->
<g id="edge6" class="edge"><title>Node1&#45;&gt;Node7</title>
<path fill="none" stroke="midnightblue" d="M167.036,-294.921C175.578,-296 184.288,-297.1 192.903,-298.187"/>
<polygon fill="midnightblue" stroke="midnightblue" points="192.596,-301.676 202.955,-299.456 193.473,-294.731 192.596,-301.676"/>
</g>
<!-- Node8 -->
<g id="node8" class="node"><title>Node8</title>
<g id="a_node8"><a xlink:href="../../d9/d29/classorg_1_1buildmlearn_1_1appstore_1_1models_1_1_spellings_model.html#a189a3ab4b51200e9a9c4d357a393d1f8" target="_top" xlink:title="org.buildmlearn.appstore.models.\lSpellingsModel.getSpellingsList">
<polygon fill="none" stroke="black" points="203,-245.5 203,-275.5 364,-275.5 364,-245.5 203,-245.5"/>
<text text-anchor="start" x="211" y="-263.5" font-family="Helvetica,sans-Serif" font-size="10.00">org.buildmlearn.appstore.models.</text>
<text text-anchor="middle" x="283.5" y="-252.5" font-family="Helvetica,sans-Serif" font-size="10.00">SpellingsModel.getSpellingsList</text>
</a>
</g>
</g>
<!-- Node1&#45;&gt;Node8 -->
<g id="edge7" class="edge"><title>Node1&#45;&gt;Node8</title>
<path fill="none" stroke="midnightblue" d="M167.036,-274.496C175.578,-273.46 184.288,-272.404 192.903,-271.36"/>
<polygon fill="midnightblue" stroke="midnightblue" points="193.449,-274.82 202.955,-270.142 192.607,-267.871 193.449,-274.82"/>
</g>
<!-- Node9 -->
<g id="node9" class="node"><title>Node9</title>
<g id="a_node9"><a xlink:href="../../da/d2e/classorg_1_1buildmlearn_1_1appstore_1_1models_1_1_quiz_model.html#a00aede4ce68eefdb825a3c56d37f4ce2" target="_top" xlink:title="org.buildmlearn.appstore.models.\lQuizModel.getTotalCorrect">
<polygon fill="none" stroke="black" points="203,-196.5 203,-226.5 364,-226.5 364,-196.5 203,-196.5"/>
<text text-anchor="start" x="211" y="-214.5" font-family="Helvetica,sans-Serif" font-size="10.00">org.buildmlearn.appstore.models.</text>
<text text-anchor="middle" x="283.5" y="-203.5" font-family="Helvetica,sans-Serif" font-size="10.00">QuizModel.getTotalCorrect</text>
</a>
</g>
</g>
<!-- Node1&#45;&gt;Node9 -->
<g id="edge8" class="edge"><title>Node1&#45;&gt;Node9</title>
<path fill="none" stroke="midnightblue" d="M119.475,-269.472C142.921,-259.612 174.589,-246.703 203,-236.5 209.313,-234.233 215.946,-231.967 222.577,-229.777"/>
<polygon fill="midnightblue" stroke="midnightblue" points="223.826,-233.051 232.253,-226.629 221.661,-226.394 223.826,-233.051"/>
</g>
<!-- Node10 -->
<g id="node10" class="node"><title>Node10</title>
<g id="a_node10"><a xlink:href="../../da/d2e/classorg_1_1buildmlearn_1_1appstore_1_1models_1_1_quiz_model.html#a4882c53765d30ac097e50ca9d2f7f589" target="_top" xlink:title="org.buildmlearn.appstore.models.\lQuizModel.getTotalWrong">
<polygon fill="none" stroke="black" points="203,-147.5 203,-177.5 364,-177.5 364,-147.5 203,-147.5"/>
<text text-anchor="start" x="211" y="-165.5" font-family="Helvetica,sans-Serif" font-size="10.00">org.buildmlearn.appstore.models.</text>
<text text-anchor="middle" x="283.5" y="-154.5" font-family="Helvetica,sans-Serif" font-size="10.00">QuizModel.getTotalWrong</text>
</a>
</g>
</g>
<!-- Node1&#45;&gt;Node10 -->
<g id="edge9" class="edge"><title>Node1&#45;&gt;Node10</title>
<path fill="none" stroke="midnightblue" d="M99.2031,-269.237C120.338,-248.103 161.364,-209.994 203,-187.5 207.157,-185.254 211.547,-183.175 216.043,-181.255"/>
<polygon fill="midnightblue" stroke="midnightblue" points="217.383,-184.489 225.38,-177.539 214.795,-177.985 217.383,-184.489"/>
</g>
<!-- Node11 -->
<g id="node11" class="node"><title>Node11</title>
<g id="a_node11"><a xlink:href="../../da/d2e/classorg_1_1buildmlearn_1_1appstore_1_1models_1_1_quiz_model.html#aca9eac557c61f0a772054c1ad2ebe126" target="_top" xlink:title="org.buildmlearn.appstore.models.\lQuizModel.getQueAnsList">
<polygon fill="none" stroke="black" points="203,-98.5 203,-128.5 364,-128.5 364,-98.5 203,-98.5"/>
<text text-anchor="start" x="211" y="-116.5" font-family="Helvetica,sans-Serif" font-size="10.00">org.buildmlearn.appstore.models.</text>
<text text-anchor="middle" x="283.5" y="-105.5" font-family="Helvetica,sans-Serif" font-size="10.00">QuizModel.getQueAnsList</text>
</a>
</g>
</g>
<!-- Node1&#45;&gt;Node11 -->
<g id="edge10" class="edge"><title>Node1&#45;&gt;Node11</title>
<path fill="none" stroke="midnightblue" d="M92.7675,-269.221C109.575,-239.586 150.617,-174.094 203,-138.5 205.9,-136.529 208.964,-134.708 212.134,-133.025"/>
<polygon fill="midnightblue" stroke="midnightblue" points="213.791,-136.112 221.302,-128.639 210.77,-129.797 213.791,-136.112"/>
</g>
<!-- Node12 -->
<g id="node12" class="node"><title>Node12</title>
<g id="a_node12"><a xlink:href="../../da/d2e/classorg_1_1buildmlearn_1_1appstore_1_1models_1_1_quiz_model.html#af7bbe592689060c8497a887e8bf1e742" target="_top" xlink:title="org.buildmlearn.appstore.models.\lQuizModel.clearInstance">
<polygon fill="none" stroke="black" points="203,-49.5 203,-79.5 364,-79.5 364,-49.5 203,-49.5"/>
<text text-anchor="start" x="211" y="-67.5" font-family="Helvetica,sans-Serif" font-size="10.00">org.buildmlearn.appstore.models.</text>
<text text-anchor="middle" x="283.5" y="-56.5" font-family="Helvetica,sans-Serif" font-size="10.00">QuizModel.clearInstance</text>
</a>
</g>
</g>
<!-- Node1&#45;&gt;Node12 -->
<g id="edge11" class="edge"><title>Node1&#45;&gt;Node12</title>
<path fill="none" stroke="midnightblue" d="M89.4952,-269.265C102.278,-232.655 139.703,-139.104 203,-89.5 205.295,-87.7011 207.722,-86.0306 210.245,-84.4792"/>
<polygon fill="midnightblue" stroke="midnightblue" points="212.025,-87.496 219.145,-79.651 208.687,-81.3431 212.025,-87.496"/>
</g>
<!-- Node13 -->
<g id="node13" class="node"><title>Node13</title>
<g id="a_node13"><a xlink:href="../../d9/d29/classorg_1_1buildmlearn_1_1appstore_1_1models_1_1_spellings_model.html#a06d230ff2d47cae76428c11f75250d2d" target="_top" xlink:title="org.buildmlearn.appstore.models.\lSpellingsModel.clearInstance">
<polygon fill="none" stroke="black" points="203,-0.5 203,-30.5 364,-30.5 364,-0.5 203,-0.5"/>
<text text-anchor="start" x="211" y="-18.5" font-family="Helvetica,sans-Serif" font-size="10.00">org.buildmlearn.appstore.models.</text>
<text text-anchor="middle" x="283.5" y="-7.5" font-family="Helvetica,sans-Serif" font-size="10.00">SpellingsModel.clearInstance</text>
</a>
</g>
</g>
<!-- Node1&#45;&gt;Node13 -->
<g id="edge12" class="edge"><title>Node1&#45;&gt;Node13</title>
<path fill="none" stroke="midnightblue" d="M87.4794,-269.347C96.6501,-226.734 128.467,-104.781 203,-40.5 204.965,-38.805 207.046,-37.2248 209.215,-35.7516"/>
<polygon fill="midnightblue" stroke="midnightblue" points="211.137,-38.6811 217.97,-30.5836 207.579,-32.653 211.137,-38.6811"/>
</g>
</g>
</svg>
