<?xml version="1.0" encoding="UTF-8" standalone="no"?>
<!DOCTYPE svg PUBLIC "-//W3C//DTD SVG 1.1//EN"
 "http://www.w3.org/Graphics/SVG/1.1/DTD/svg11.dtd">
<!-- Generated by graphviz version 2.38.0 (20140413.2041)
 -->
<!-- Title: org.buildmlearn.appstore.utils.SlidingTabLayout.scrollToTab Pages: 1 -->
<svg width="379pt" height="160pt"
 viewBox="0.00 0.00 379.00 159.50" xmlns="http://www.w3.org/2000/svg" xmlns:xlink="http://www.w3.org/1999/xlink">
<g id="graph0" class="graph" transform="scale(1 1) rotate(0) translate(4 155.5)">
<title>org.buildmlearn.appstore.utils.SlidingTabLayout.scrollToTab</title>
<!-- Node1 -->
<g id="node1" class="node"><title>Node1</title>
<polygon fill="#bfbfbf" stroke="black" points="0,-66 0,-96 147,-96 147,-66 0,-66"/>
<text text-anchor="start" x="8" y="-84" font-family="Helvetica,sans-Serif" font-size="10.00">org.buildmlearn.appstore.utils.</text>
<text text-anchor="middle" x="73.5" y="-73" font-family="Helvetica,sans-Serif" font-size="10.00">SlidingTabLayout.scrollToTab</text>
</g>
<!-- Node2 -->
<g id="node2" class="node"><title>Node2</title>
<g id="a_node2"><a xlink:href="$d8/dcb/classorg_1_1buildmlearn_1_1appstore_1_1utils_1_1_sliding_tab_layout.html#a733343ec4e298086e01ae5df8a310152" xlink:title="This method is executed when the window is attached to the view. ">
<polygon fill="none" stroke="black" points="183,-121 183,-151 371,-151 371,-121 183,-121"/>
<text text-anchor="start" x="191" y="-139" font-family="Helvetica,sans-Serif" font-size="10.00">org.buildmlearn.appstore.utils.</text>
<text text-anchor="middle" x="277" y="-128" font-family="Helvetica,sans-Serif" font-size="10.00">SlidingTabLayout.onAttachedToWindow</text>
</a>
</g>
</g>
<!-- Node1&#45;&gt;Node2 -->
<g id="edge1" class="edge"><title>Node1&#45;&gt;Node2</title>
<path fill="none" stroke="midnightblue" d="M138.521,-98.7834C153.134,-102.82 168.599,-107.074 183,-111 194.936,-114.254 207.743,-117.716 219.919,-120.994"/>
<polygon fill="midnightblue" stroke="midnightblue" points="139.135,-95.322 128.564,-96.0304 137.27,-102.069 139.135,-95.322"/>
</g>
<!-- Node3 -->
<g id="node3" class="node"><title>Node3</title>
<g id="a_node3"><a xlink:href="$da/d65/classorg_1_1buildmlearn_1_1appstore_1_1utils_1_1_sliding_tab_layout_1_1_internal_view_pager_listener.html#a16ddc6a6eefc35a915964f0a785c6410" xlink:title="This method is executed when the page is scrolled/swiped in the view&#45;pager. ">
<polygon fill="none" stroke="black" points="191,-60.5 191,-101.5 363,-101.5 363,-60.5 191,-60.5"/>
<text text-anchor="start" x="199" y="-89.5" font-family="Helvetica,sans-Serif" font-size="10.00">org.buildmlearn.appstore.utils.</text>
<text text-anchor="start" x="199" y="-78.5" font-family="Helvetica,sans-Serif" font-size="10.00">SlidingTabLayout.InternalViewPager</text>
<text text-anchor="middle" x="277" y="-67.5" font-family="Helvetica,sans-Serif" font-size="10.00">Listener.onPageScrolled</text>
</a>
</g>
</g>
<!-- Node1&#45;&gt;Node3 -->
<g id="edge2" class="edge"><title>Node1&#45;&gt;Node3</title>
<path fill="none" stroke="midnightblue" d="M157.269,-81C168.291,-81 179.609,-81 190.674,-81"/>
<polygon fill="midnightblue" stroke="midnightblue" points="157.246,-77.5001 147.246,-81 157.246,-84.5001 157.246,-77.5001"/>
</g>
<!-- Node4 -->
<g id="node4" class="node"><title>Node4</title>
<g id="a_node4"><a xlink:href="$da/d65/classorg_1_1buildmlearn_1_1appstore_1_1utils_1_1_sliding_tab_layout_1_1_internal_view_pager_listener.html#adb9d33fdfc05a7b2b6896e8aa47ca6cb" xlink:title="This method is executed when a page is selected. ">
<polygon fill="none" stroke="black" points="191,-0.5 191,-41.5 363,-41.5 363,-0.5 191,-0.5"/>
<text text-anchor="start" x="199" y="-29.5" font-family="Helvetica,sans-Serif" font-size="10.00">org.buildmlearn.appstore.utils.</text>
<text text-anchor="start" x="199" y="-18.5" font-family="Helvetica,sans-Serif" font-size="10.00">SlidingTabLayout.InternalViewPager</text>
<text text-anchor="middle" x="277" y="-7.5" font-family="Helvetica,sans-Serif" font-size="10.00">Listener.onPageSelected</text>
</a>
</g>
</g>
<!-- Node1&#45;&gt;Node4 -->
<g id="edge3" class="edge"><title>Node1&#45;&gt;Node4</title>
<path fill="none" stroke="midnightblue" d="M134.943,-63.0022C157.671,-56.2345 183.676,-48.491 207.116,-41.5114"/>
<polygon fill="midnightblue" stroke="midnightblue" points="133.672,-59.7286 125.087,-65.9369 135.67,-66.4375 133.672,-59.7286"/>
</g>
</g>
</svg>
