<?xml version="1.0" encoding="UTF-8" standalone="no"?>
<!DOCTYPE svg PUBLIC "-//W3C//DTD SVG 1.1//EN"
 "http://www.w3.org/Graphics/SVG/1.1/DTD/svg11.dtd">
<!-- Generated by graphviz version 2.38.0 (20140413.2041)
 -->
<!-- Title: org.buildmlearn.appstore.utils.SlidingTabLayout.setViewPager Pages: 1 -->
<svg width="589pt" height="39pt"
 viewBox="0.00 0.00 589.00 39.00" xmlns="http://www.w3.org/2000/svg" xmlns:xlink="http://www.w3.org/1999/xlink">
<g id="graph0" class="graph" transform="scale(1 1) rotate(0) translate(4 35)">
<title>org.buildmlearn.appstore.utils.SlidingTabLayout.setViewPager</title>
<!-- Node1 -->
<g id="node1" class="node"><title>Node1</title>
<polygon fill="#bfbfbf" stroke="black" points="0,-0.5 0,-30.5 154,-30.5 154,-0.5 0,-0.5"/>
<text text-anchor="start" x="8" y="-18.5" font-family="Helvetica,sans-Serif" font-size="10.00">org.buildmlearn.appstore.utils.</text>
<text text-anchor="middle" x="77" y="-7.5" font-family="Helvetica,sans-Serif" font-size="10.00">SlidingTabLayout.setViewPager</text>
</g>
<!-- Node2 -->
<g id="node2" class="node"><title>Node2</title>
<g id="a_node2"><a xlink:href="$d8/dcb/classorg_1_1buildmlearn_1_1appstore_1_1utils_1_1_sliding_tab_layout.html#a372e773548f8b02b384a9297c618bb65" xlink:title="Populates tabs strip. ">
<polygon fill="none" stroke="black" points="190,-0.5 190,-30.5 357,-30.5 357,-0.5 190,-0.5"/>
<text text-anchor="start" x="198" y="-18.5" font-family="Helvetica,sans-Serif" font-size="10.00">org.buildmlearn.appstore.utils.</text>
<text text-anchor="middle" x="273.5" y="-7.5" font-family="Helvetica,sans-Serif" font-size="10.00">SlidingTabLayout.populateTabStrip</text>
</a>
</g>
</g>
<!-- Node1&#45;&gt;Node2 -->
<g id="edge1" class="edge"><title>Node1&#45;&gt;Node2</title>
<path fill="none" stroke="midnightblue" d="M154.034,-15.5C162.458,-15.5 171.105,-15.5 179.706,-15.5"/>
<polygon fill="midnightblue" stroke="midnightblue" points="179.764,-19.0001 189.764,-15.5 179.764,-12.0001 179.764,-19.0001"/>
</g>
<!-- Node3 -->
<g id="node3" class="node"><title>Node3</title>
<g id="a_node3"><a xlink:href="$d8/dcb/classorg_1_1buildmlearn_1_1appstore_1_1utils_1_1_sliding_tab_layout.html#ae1a0a68a2e16ac093b4d8b80bcbaeb88" xlink:title="Create a default view to be used for tabs. ">
<polygon fill="none" stroke="black" points="393,-0.5 393,-30.5 581,-30.5 581,-0.5 393,-0.5"/>
<text text-anchor="start" x="401" y="-18.5" font-family="Helvetica,sans-Serif" font-size="10.00">org.buildmlearn.appstore.utils.</text>
<text text-anchor="middle" x="487" y="-7.5" font-family="Helvetica,sans-Serif" font-size="10.00">SlidingTabLayout.createDefaultTabView</text>
</a>
</g>
</g>
<!-- Node2&#45;&gt;Node3 -->
<g id="edge2" class="edge"><title>Node2&#45;&gt;Node3</title>
<path fill="none" stroke="midnightblue" d="M357.18,-15.5C365.591,-15.5 374.206,-15.5 382.799,-15.5"/>
<polygon fill="midnightblue" stroke="midnightblue" points="382.862,-19.0001 392.862,-15.5 382.862,-12.0001 382.862,-19.0001"/>
</g>
</g>
</svg>
