<?xml version="1.0" encoding="UTF-8" standalone="no"?>
<!DOCTYPE svg PUBLIC "-//W3C//DTD SVG 1.1//EN"
 "http://www.w3.org/Graphics/SVG/1.1/DTD/svg11.dtd">
<!-- Generated by graphviz version 2.38.0 (20140413.2041)
 -->
<!-- Title: org.buildmlearn.appstore.utils.SlidingTabLayout.setSelectedIndicatorColors Pages: 1 -->
<svg width="676pt" height="50pt"
 viewBox="0.00 0.00 676.00 50.00" xmlns="http://www.w3.org/2000/svg" xmlns:xlink="http://www.w3.org/1999/xlink">
<g id="graph0" class="graph" transform="scale(1 1) rotate(0) translate(4 46)">
<title>org.buildmlearn.appstore.utils.SlidingTabLayout.setSelectedIndicatorColors</title>
<!-- Node1 -->
<g id="node1" class="node"><title>Node1</title>
<polygon fill="#bfbfbf" stroke="black" points="0,-6 0,-36 210,-36 210,-6 0,-6"/>
<text text-anchor="start" x="8" y="-24" font-family="Helvetica,sans-Serif" font-size="10.00">org.buildmlearn.appstore.utils.</text>
<text text-anchor="middle" x="105" y="-13" font-family="Helvetica,sans-Serif" font-size="10.00">SlidingTabLayout.setSelectedIndicatorColors</text>
</g>
<!-- Node2 -->
<g id="node2" class="node"><title>Node2</title>
<g id="a_node2"><a xlink:href="$d2/d6d/classorg_1_1buildmlearn_1_1appstore_1_1utils_1_1_sliding_tab_strip.html#a83d4b6bd9114a7d661b6db66339b64b2" xlink:title="Set the Color to the active Tab. ">
<polygon fill="none" stroke="black" points="246,-6 246,-36 447,-36 447,-6 246,-6"/>
<text text-anchor="start" x="254" y="-24" font-family="Helvetica,sans-Serif" font-size="10.00">org.buildmlearn.appstore.utils.</text>
<text text-anchor="middle" x="346.5" y="-13" font-family="Helvetica,sans-Serif" font-size="10.00">SlidingTabStrip.setSelectedIndicatorColors</text>
</a>
</g>
</g>
<!-- Node1&#45;&gt;Node2 -->
<g id="edge1" class="edge"><title>Node1&#45;&gt;Node2</title>
<path fill="none" stroke="midnightblue" d="M210.003,-21C218.532,-21 227.17,-21 235.739,-21"/>
<polygon fill="midnightblue" stroke="midnightblue" points="235.755,-24.5001 245.755,-21 235.755,-17.5001 235.755,-24.5001"/>
</g>
<!-- Node3 -->
<g id="node3" class="node"><title>Node3</title>
<g id="a_node3"><a xlink:href="$d7/d95/classorg_1_1buildmlearn_1_1appstore_1_1utils_1_1_sliding_tab_strip_1_1_simple_tab_colorizer.html#ac7f6cb67aab2132317215aeb8e8674fe" xlink:title="Sets the Indicator colors for the Tabs. ">
<polygon fill="none" stroke="black" points="483,-0.5 483,-41.5 668,-41.5 668,-0.5 483,-0.5"/>
<text text-anchor="start" x="491" y="-29.5" font-family="Helvetica,sans-Serif" font-size="10.00">org.buildmlearn.appstore.utils.</text>
<text text-anchor="start" x="491" y="-18.5" font-family="Helvetica,sans-Serif" font-size="10.00">SlidingTabStrip.SimpleTabColorizer.set</text>
<text text-anchor="middle" x="575.5" y="-7.5" font-family="Helvetica,sans-Serif" font-size="10.00">IndicatorColors</text>
</a>
</g>
</g>
<!-- Node2&#45;&gt;Node3 -->
<g id="edge2" class="edge"><title>Node2&#45;&gt;Node3</title>
<path fill="none" stroke="midnightblue" d="M447.066,-21C455.628,-21 464.297,-21 472.875,-21"/>
<polygon fill="midnightblue" stroke="midnightblue" points="472.891,-24.5001 482.891,-21 472.891,-17.5001 472.891,-24.5001"/>
</g>
</g>
</svg>
