<?xml version="1.0" encoding="UTF-8" standalone="no"?>
<!DOCTYPE svg PUBLIC "-//W3C//DTD SVG 1.1//EN"
 "http://www.w3.org/Graphics/SVG/1.1/DTD/svg11.dtd">
<!-- Generated by graphviz version 2.38.0 (20140413.2041)
 -->
<!-- Title: org.buildmlearn.appstore.adapters.CategoriesAdapter.onBindViewHolder Pages: 1 -->
<svg width="435pt" height="100pt"
 viewBox="0.00 0.00 435.00 99.50" xmlns="http://www.w3.org/2000/svg" xmlns:xlink="http://www.w3.org/1999/xlink">
<g id="graph0" class="graph" transform="scale(1 1) rotate(0) translate(4 95.5)">
<title>org.buildmlearn.appstore.adapters.CategoriesAdapter.onBindViewHolder</title>
<!-- Node1 -->
<g id="node1" class="node"><title>Node1</title>
<polygon fill="#bfbfbf" stroke="black" points="0,-27.5 0,-57.5 179,-57.5 179,-27.5 0,-27.5"/>
<text text-anchor="start" x="8" y="-45.5" font-family="Helvetica,sans-Serif" font-size="10.00">org.buildmlearn.appstore.adapters.</text>
<text text-anchor="middle" x="89.5" y="-34.5" font-family="Helvetica,sans-Serif" font-size="10.00">CategoriesAdapter.onBindViewHolder</text>
</g>
<!-- Node2 -->
<g id="node2" class="node"><title>Node2</title>
<g id="a_node2"><a xlink:href="$dc/d9f/classorg_1_1buildmlearn_1_1appstore_1_1adapters_1_1_categories_adapter_1_1_categories_view_holder.html#a9d7e2c60134a2eb331c8112c3e00cfba" xlink:title="org.buildmlearn.appstore.adapters.\lCategoriesAdapter.CategoriesViewHolder.set\lClickListener">
<polygon fill="none" stroke="black" points="215,-50 215,-91 427,-91 427,-50 215,-50"/>
<text text-anchor="start" x="223" y="-79" font-family="Helvetica,sans-Serif" font-size="10.00">org.buildmlearn.appstore.adapters.</text>
<text text-anchor="start" x="223" y="-68" font-family="Helvetica,sans-Serif" font-size="10.00">CategoriesAdapter.CategoriesViewHolder.set</text>
<text text-anchor="middle" x="321" y="-57" font-family="Helvetica,sans-Serif" font-size="10.00">ClickListener</text>
</a>
</g>
</g>
<!-- Node1&#45;&gt;Node2 -->
<g id="edge1" class="edge"><title>Node1&#45;&gt;Node2</title>
<path fill="none" stroke="midnightblue" d="M179.231,-53.3255C187.571,-54.3431 196.106,-55.3844 204.644,-56.4261"/>
<polygon fill="midnightblue" stroke="midnightblue" points="204.309,-59.911 214.659,-57.6479 205.156,-52.9625 204.309,-59.911"/>
</g>
<!-- Node3 -->
<g id="node3" class="node"><title>Node3</title>
<g id="a_node3"><a xlink:href="$d0/d60/classorg_1_1buildmlearn_1_1appstore_1_1activities_1_1_navigation_activity.html#a3819b15bd7eeb6b579ffc4ae12bb289b" xlink:title="It clears the text in the search tool and collapses the search tool. ">
<polygon fill="none" stroke="black" points="237.5,-0.5 237.5,-30.5 404.5,-30.5 404.5,-0.5 237.5,-0.5"/>
<text text-anchor="start" x="245.5" y="-18.5" font-family="Helvetica,sans-Serif" font-size="10.00">org.buildmlearn.appstore.activities.</text>
<text text-anchor="middle" x="321" y="-7.5" font-family="Helvetica,sans-Serif" font-size="10.00">NavigationActivity.clearSearch</text>
</a>
</g>
</g>
<!-- Node1&#45;&gt;Node3 -->
<g id="edge2" class="edge"><title>Node1&#45;&gt;Node3</title>
<path fill="none" stroke="midnightblue" d="M179.231,-32.0611C194.855,-30.223 211.158,-28.3049 226.898,-26.4532"/>
<polygon fill="midnightblue" stroke="midnightblue" points="227.624,-29.892 237.147,-25.2475 226.806,-22.9399 227.624,-29.892"/>
</g>
</g>
</svg>
