<?xml version="1.0" encoding="UTF-8" standalone="no"?>
<!DOCTYPE svg PUBLIC "-//W3C//DTD SVG 1.1//EN"
 "http://www.w3.org/Graphics/SVG/1.1/DTD/svg11.dtd">
<!-- Generated by graphviz version 2.38.0 (20140413.2041)
 -->
<!-- Title: org.buildmlearn.appstore.utils.SlidingTabStrip.SimpleTabColorizer Pages: 1 -->
<svg width="177pt" height="193pt"
 viewBox="0.00 0.00 177.00 193.00" xmlns="http://www.w3.org/2000/svg" xmlns:xlink="http://www.w3.org/1999/xlink">
<g id="graph0" class="graph" transform="scale(1 1) rotate(0) translate(4 189)">
<title>org.buildmlearn.appstore.utils.SlidingTabStrip.SimpleTabColorizer</title>
<!-- Node1 -->
<g id="node1" class="node"><title>Node1</title>
<polygon fill="#bfbfbf" stroke="black" points="0,-0.5 0,-79.5 169,-79.5 169,-0.5 0,-0.5"/>
<text text-anchor="start" x="8" y="-67.5" font-family="Helvetica,sans-Serif" font-size="10.00">org.buildmlearn.appstore.utils.</text>
<text text-anchor="middle" x="84.5" y="-56.5" font-family="Helvetica,sans-Serif" font-size="10.00">SlidingTabStrip.SimpleTabColorizer</text>
<polyline fill="none" stroke="black" points="0,-49.5 169,-49.5 "/>
<text text-anchor="start" x="8" y="-37.5" font-family="Helvetica,sans-Serif" font-size="10.00">&#45; mIndicatorColors</text>
<polyline fill="none" stroke="black" points="0,-30.5 169,-30.5 "/>
<text text-anchor="start" x="8" y="-18.5" font-family="Helvetica,sans-Serif" font-size="10.00">+ getIndicatorColor()</text>
<text text-anchor="start" x="8" y="-7.5" font-family="Helvetica,sans-Serif" font-size="10.00">~ setIndicatorColors()</text>
</g>
<!-- Node2 -->
<g id="node2" class="node"><title>Node2</title>
<g id="a_node2"><a xlink:href="$de/d11/interfaceorg_1_1buildmlearn_1_1appstore_1_1utils_1_1_sliding_tab_layout_1_1_tab_colorizer.html" xlink:title="Sets the Interface to color the tabs. ">
<polygon fill="none" stroke="black" points="10.5,-116.5 10.5,-184.5 158.5,-184.5 158.5,-116.5 10.5,-116.5"/>
<text text-anchor="start" x="18.5" y="-172.5" font-family="Helvetica,sans-Serif" font-size="10.00">org.buildmlearn.appstore.utils.</text>
<text text-anchor="middle" x="84.5" y="-161.5" font-family="Helvetica,sans-Serif" font-size="10.00">SlidingTabLayout.TabColorizer</text>
<polyline fill="none" stroke="black" points="10.5,-154.5 158.5,-154.5 "/>
<text text-anchor="middle" x="84.5" y="-142.5" font-family="Helvetica,sans-Serif" font-size="10.00"> </text>
<polyline fill="none" stroke="black" points="10.5,-135.5 158.5,-135.5 "/>
<text text-anchor="start" x="18.5" y="-123.5" font-family="Helvetica,sans-Serif" font-size="10.00">+ getIndicatorColor()</text>
</a>
</g>
</g>
<!-- Node2&#45;&gt;Node1 -->
<g id="edge1" class="edge"><title>Node2&#45;&gt;Node1</title>
<path fill="none" stroke="midnightblue" d="M84.5,-106.274C84.5,-97.4764 84.5,-88.2753 84.5,-79.6493"/>
<polygon fill="none" stroke="midnightblue" points="81.0001,-106.357 84.5,-116.357 88.0001,-106.357 81.0001,-106.357"/>
</g>
</g>
</svg>
