<?xml version="1.0" encoding="UTF-8" standalone="no"?>
<!DOCTYPE svg PUBLIC "-//W3C//DTD SVG 1.1//EN"
 "http://www.w3.org/Graphics/SVG/1.1/DTD/svg11.dtd">
<!-- Generated by graphviz version 2.38.0 (20140413.2041)
 -->
<!-- Title: org.buildmlearn.appstore.activities.SpellingActivity.getProgressValue Pages: 1 -->
<svg width="603pt" height="88pt"
 viewBox="0.00 0.00 603.00 88.00" xmlns="http://www.w3.org/2000/svg" xmlns:xlink="http://www.w3.org/1999/xlink">
<g id="graph0" class="graph" transform="scale(1 1) rotate(0) translate(4 84)">
<title>org.buildmlearn.appstore.activities.SpellingActivity.getProgressValue</title>
<!-- Node1 -->
<g id="node1" class="node"><title>Node1</title>
<polygon fill="#bfbfbf" stroke="black" points="0,-24.5 0,-54.5 167,-54.5 167,-24.5 0,-24.5"/>
<text text-anchor="start" x="8" y="-42.5" font-family="Helvetica,sans-Serif" font-size="10.00">org.buildmlearn.appstore.activities.</text>
<text text-anchor="middle" x="83.5" y="-31.5" font-family="Helvetica,sans-Serif" font-size="10.00">SpellingActivity.getProgressValue</text>
</g>
<!-- Node2 -->
<g id="node2" class="node"><title>Node2</title>
<g id="a_node2"><a xlink:href="../../d9/dca/classorg_1_1buildmlearn_1_1appstore_1_1activities_1_1_spelling_activity.html#a6bcb8e8e82276f8e02e4ba846b74fbe6" target="_top" xlink:title="Speaks the string using the specified queuing strategy and speech parameters. ">
<polygon fill="none" stroke="black" points="203,-49.5 203,-79.5 392,-79.5 392,-49.5 203,-49.5"/>
<text text-anchor="start" x="211" y="-67.5" font-family="Helvetica,sans-Serif" font-size="10.00">org.buildmlearn.appstore.activities.</text>
<text text-anchor="middle" x="297.5" y="-56.5" font-family="Helvetica,sans-Serif" font-size="10.00">SpellingActivity.convertTextToSpeech21</text>
</a>
</g>
</g>
<!-- Node1&#45;&gt;Node2 -->
<g id="edge1" class="edge"><title>Node1&#45;&gt;Node2</title>
<path fill="none" stroke="midnightblue" d="M177.062,-50.4153C185.63,-51.4257 194.317,-52.4501 202.894,-53.4616"/>
<polygon fill="midnightblue" stroke="midnightblue" points="177.413,-46.9325 167.072,-49.2372 176.593,-53.8844 177.413,-46.9325"/>
</g>
<!-- Node4 -->
<g id="node4" class="node"><title>Node4</title>
<g id="a_node4"><a xlink:href="../../d9/dca/classorg_1_1buildmlearn_1_1appstore_1_1activities_1_1_spelling_activity.html#abeaedc39c33ac9ce8ec3d00da7973bcc" target="_top" xlink:title="Speaks the string using the specified queuing strategy and speech parameters. ">
<polygon fill="none" stroke="black" points="208,-0.5 208,-30.5 387,-30.5 387,-0.5 208,-0.5"/>
<text text-anchor="start" x="216" y="-18.5" font-family="Helvetica,sans-Serif" font-size="10.00">org.buildmlearn.appstore.activities.</text>
<text text-anchor="middle" x="297.5" y="-7.5" font-family="Helvetica,sans-Serif" font-size="10.00">SpellingActivity.convertTextToSpeech</text>
</a>
</g>
</g>
<!-- Node1&#45;&gt;Node4 -->
<g id="edge3" class="edge"><title>Node1&#45;&gt;Node4</title>
<path fill="none" stroke="midnightblue" d="M177.183,-29.0076C187.365,-27.855 197.712,-26.6835 207.843,-25.5367"/>
<polygon fill="midnightblue" stroke="midnightblue" points="176.615,-25.5495 167.072,-30.1523 177.402,-32.5051 176.615,-25.5495"/>
</g>
<!-- Node3 -->
<g id="node3" class="node"><title>Node3</title>
<g id="a_node3"><a xlink:href="../../d9/dca/classorg_1_1buildmlearn_1_1appstore_1_1activities_1_1_spelling_activity.html#abeccd03866d824b9744d7e8b84f1214d" target="_top" xlink:title="This method is executed when next/skip button is pressed, hence it populates the next question in the...">
<polygon fill="none" stroke="black" points="428,-24.5 428,-54.5 595,-54.5 595,-24.5 428,-24.5"/>
<text text-anchor="start" x="436" y="-42.5" font-family="Helvetica,sans-Serif" font-size="10.00">org.buildmlearn.appstore.activities.</text>
<text text-anchor="middle" x="511.5" y="-31.5" font-family="Helvetica,sans-Serif" font-size="10.00">SpellingActivity.click</text>
</a>
</g>
</g>
<!-- Node2&#45;&gt;Node3 -->
<g id="edge2" class="edge"><title>Node2&#45;&gt;Node3</title>
<path fill="none" stroke="midnightblue" d="M402.154,-52.2767C410.735,-51.2647 419.337,-50.2504 427.734,-49.2602"/>
<polygon fill="midnightblue" stroke="midnightblue" points="401.625,-48.8147 392.103,-53.4619 402.445,-55.7666 401.625,-48.8147"/>
</g>
<!-- Node4&#45;&gt;Node3 -->
<g id="edge4" class="edge"><title>Node4&#45;&gt;Node3</title>
<path fill="none" stroke="midnightblue" d="M397.363,-26.6921C407.592,-27.85 417.91,-29.0181 427.933,-30.1528"/>
<polygon fill="midnightblue" stroke="midnightblue" points="397.509,-23.1863 387.179,-25.5391 396.722,-30.1419 397.509,-23.1863"/>
</g>
</g>
</svg>
