<?xml version="1.0" encoding="UTF-8" standalone="no"?>
<!DOCTYPE svg PUBLIC "-//W3C//DTD SVG 1.1//EN"
 "http://www.w3.org/Graphics/SVG/1.1/DTD/svg11.dtd">
<!-- Generated by graphviz version 2.38.0 (20140413.2041)
 -->
<!-- Title: org.buildmlearn.appstore.activities.SpellingActivity.click Pages: 1 -->
<svg width="603pt" height="210pt"
 viewBox="0.00 0.00 603.00 210.00" xmlns="http://www.w3.org/2000/svg" xmlns:xlink="http://www.w3.org/1999/xlink">
<g id="graph0" class="graph" transform="scale(1 1) rotate(0) translate(4 206)">
<title>org.buildmlearn.appstore.activities.SpellingActivity.click</title>
<!-- Node1 -->
<g id="node1" class="node"><title>Node1</title>
<polygon fill="#bfbfbf" stroke="black" points="0,-97.5 0,-127.5 167,-127.5 167,-97.5 0,-97.5"/>
<text text-anchor="start" x="8" y="-115.5" font-family="Helvetica,sans-Serif" font-size="10.00">org.buildmlearn.appstore.activities.</text>
<text text-anchor="middle" x="83.5" y="-104.5" font-family="Helvetica,sans-Serif" font-size="10.00">SpellingActivity.click</text>
</g>
<!-- Node2 -->
<g id="node2" class="node"><title>Node2</title>
<g id="a_node2"><a xlink:href="../../d9/d29/classorg_1_1buildmlearn_1_1appstore_1_1models_1_1_spellings_model.html#aa51bbf283d82762ff488da066bb513d2" target="_top" xlink:title="org.buildmlearn.appstore.models.\lSpellingsModel.setActiveCount">
<polygon fill="none" stroke="black" points="217,-171.5 217,-201.5 378,-201.5 378,-171.5 217,-171.5"/>
<text text-anchor="start" x="225" y="-189.5" font-family="Helvetica,sans-Serif" font-size="10.00">org.buildmlearn.appstore.models.</text>
<text text-anchor="middle" x="297.5" y="-178.5" font-family="Helvetica,sans-Serif" font-size="10.00">SpellingsModel.setActiveCount</text>
</a>
</g>
</g>
<!-- Node1&#45;&gt;Node2 -->
<g id="edge1" class="edge"><title>Node1&#45;&gt;Node2</title>
<path fill="none" stroke="midnightblue" d="M116.694,-127.614C140.248,-138.293 173.167,-152.439 203,-162.5 209.402,-164.659 216.106,-166.733 222.858,-168.696"/>
<polygon fill="midnightblue" stroke="midnightblue" points="222.182,-172.141 232.756,-171.488 224.082,-165.404 222.182,-172.141"/>
</g>
<!-- Node3 -->
<g id="node3" class="node"><title>Node3</title>
<g id="a_node3"><a xlink:href="../../d9/dca/classorg_1_1buildmlearn_1_1appstore_1_1activities_1_1_spelling_activity.html#a6bcb8e8e82276f8e02e4ba846b74fbe6" target="_top" xlink:title="Speaks the string using the specified queuing strategy and speech parameters. ">
<polygon fill="none" stroke="black" points="203,-122.5 203,-152.5 392,-152.5 392,-122.5 203,-122.5"/>
<text text-anchor="start" x="211" y="-140.5" font-family="Helvetica,sans-Serif" font-size="10.00">org.buildmlearn.appstore.activities.</text>
<text text-anchor="middle" x="297.5" y="-129.5" font-family="Helvetica,sans-Serif" font-size="10.00">SpellingActivity.convertTextToSpeech21</text>
</a>
</g>
</g>
<!-- Node1&#45;&gt;Node3 -->
<g id="edge2" class="edge"><title>Node1&#45;&gt;Node3</title>
<path fill="none" stroke="midnightblue" d="M167.072,-122.237C175.512,-123.233 184.16,-124.252 192.788,-125.27"/>
<polygon fill="midnightblue" stroke="midnightblue" points="192.553,-128.766 202.894,-126.462 193.373,-121.814 192.553,-128.766"/>
</g>
<!-- Node5 -->
<g id="node5" class="node"><title>Node5</title>
<g id="a_node5"><a xlink:href="../../d9/dca/classorg_1_1buildmlearn_1_1appstore_1_1activities_1_1_spelling_activity.html#abeaedc39c33ac9ce8ec3d00da7973bcc" target="_top" xlink:title="Speaks the string using the specified queuing strategy and speech parameters. ">
<polygon fill="none" stroke="black" points="208,-73.5 208,-103.5 387,-103.5 387,-73.5 208,-73.5"/>
<text text-anchor="start" x="216" y="-91.5" font-family="Helvetica,sans-Serif" font-size="10.00">org.buildmlearn.appstore.activities.</text>
<text text-anchor="middle" x="297.5" y="-80.5" font-family="Helvetica,sans-Serif" font-size="10.00">SpellingActivity.convertTextToSpeech</text>
</a>
</g>
</g>
<!-- Node1&#45;&gt;Node5 -->
<g id="edge4" class="edge"><title>Node1&#45;&gt;Node5</title>
<path fill="none" stroke="midnightblue" d="M167.072,-103.152C177.099,-102.017 187.421,-100.849 197.654,-99.6901"/>
<polygon fill="midnightblue" stroke="midnightblue" points="198.3,-103.139 207.843,-98.5367 197.513,-96.1838 198.3,-103.139"/>
</g>
<!-- Node6 -->
<g id="node6" class="node"><title>Node6</title>
<g id="a_node6"><a xlink:href="../../d9/dca/classorg_1_1buildmlearn_1_1appstore_1_1activities_1_1_spelling_activity.html#a884c149192fd5f2755969d659430c8c2" target="_top" xlink:title="This method is called when the submit button is pressed. ">
<polygon fill="none" stroke="black" points="214,-24.5 214,-54.5 381,-54.5 381,-24.5 214,-24.5"/>
<text text-anchor="start" x="222" y="-42.5" font-family="Helvetica,sans-Serif" font-size="10.00">org.buildmlearn.appstore.activities.</text>
<text text-anchor="middle" x="297.5" y="-31.5" font-family="Helvetica,sans-Serif" font-size="10.00">SpellingActivity.submit</text>
</a>
</g>
</g>
<!-- Node1&#45;&gt;Node6 -->
<g id="edge6" class="edge"><title>Node1&#45;&gt;Node6</title>
<path fill="none" stroke="midnightblue" d="M118.562,-97.3954C142.021,-87.3177 174.059,-74.1895 203,-64.5 210.394,-62.0245 218.18,-59.6249 225.973,-57.3552"/>
<polygon fill="midnightblue" stroke="midnightblue" points="227.158,-60.657 235.818,-54.5536 225.242,-53.9243 227.158,-60.657"/>
</g>
<!-- Node4 -->
<g id="node4" class="node"><title>Node4</title>
<g id="a_node4"><a xlink:href="../../d9/dca/classorg_1_1buildmlearn_1_1appstore_1_1activities_1_1_spelling_activity.html#a9c2701d3a8966647bf3d1836f0d1416f" target="_top" xlink:title="Gets the value of the seek&#45;bar to represent the speech synthesis. ">
<polygon fill="none" stroke="black" points="428,-110.5 428,-140.5 595,-140.5 595,-110.5 428,-110.5"/>
<text text-anchor="start" x="436" y="-128.5" font-family="Helvetica,sans-Serif" font-size="10.00">org.buildmlearn.appstore.activities.</text>
<text text-anchor="middle" x="511.5" y="-117.5" font-family="Helvetica,sans-Serif" font-size="10.00">SpellingActivity.getProgressValue</text>
</a>
</g>
</g>
<!-- Node3&#45;&gt;Node4 -->
<g id="edge3" class="edge"><title>Node3&#45;&gt;Node4</title>
<path fill="none" stroke="midnightblue" d="M392.103,-132.202C400.541,-131.724 409.085,-131.24 417.518,-130.763"/>
<polygon fill="midnightblue" stroke="midnightblue" points="417.947,-134.245 427.734,-130.185 417.552,-127.256 417.947,-134.245"/>
</g>
<!-- Node5&#45;&gt;Node4 -->
<g id="edge5" class="edge"><title>Node5&#45;&gt;Node4</title>
<path fill="none" stroke="midnightblue" d="M384.729,-103.549C395.612,-105.449 406.783,-107.398 417.762,-109.315"/>
<polygon fill="midnightblue" stroke="midnightblue" points="417.323,-112.791 427.776,-111.062 418.527,-105.895 417.323,-112.791"/>
</g>
<!-- Node7 -->
<g id="node7" class="node"><title>Node7</title>
<g id="a_node7"><a xlink:href="../../d9/d29/classorg_1_1buildmlearn_1_1appstore_1_1models_1_1_spellings_model.html#a05414e7030d1cf432ef09e00ac32126e" target="_top" xlink:title="org.buildmlearn.appstore.models.\lSpellingsModel.setTotalCorrect">
<polygon fill="none" stroke="black" points="431,-49.5 431,-79.5 592,-79.5 592,-49.5 431,-49.5"/>
<text text-anchor="start" x="439" y="-67.5" font-family="Helvetica,sans-Serif" font-size="10.00">org.buildmlearn.appstore.models.</text>
<text text-anchor="middle" x="511.5" y="-56.5" font-family="Helvetica,sans-Serif" font-size="10.00">SpellingsModel.setTotalCorrect</text>
</a>
</g>
</g>
<!-- Node6&#45;&gt;Node7 -->
<g id="edge7" class="edge"><title>Node6&#45;&gt;Node7</title>
<path fill="none" stroke="midnightblue" d="M381.072,-49.2372C394.135,-50.7777 407.698,-52.3771 420.912,-53.9354"/>
<polygon fill="midnightblue" stroke="midnightblue" points="420.594,-57.422 430.935,-55.1173 421.413,-50.4702 420.594,-57.422"/>
</g>
<!-- Node8 -->
<g id="node8" class="node"><title>Node8</title>
<g id="a_node8"><a xlink:href="../../d9/d29/classorg_1_1buildmlearn_1_1appstore_1_1models_1_1_spellings_model.html#a11f65865284ec54e0fca7364e9513f9c" target="_top" xlink:title="org.buildmlearn.appstore.models.\lSpellingsModel.setTotalWrong">
<polygon fill="none" stroke="black" points="431,-0.5 431,-30.5 592,-30.5 592,-0.5 431,-0.5"/>
<text text-anchor="start" x="439" y="-18.5" font-family="Helvetica,sans-Serif" font-size="10.00">org.buildmlearn.appstore.models.</text>
<text text-anchor="middle" x="511.5" y="-7.5" font-family="Helvetica,sans-Serif" font-size="10.00">SpellingsModel.setTotalWrong</text>
</a>
</g>
</g>
<!-- Node6&#45;&gt;Node8 -->
<g id="edge8" class="edge"><title>Node6&#45;&gt;Node8</title>
<path fill="none" stroke="midnightblue" d="M381.072,-30.1523C394.135,-28.6734 407.698,-27.138 420.912,-25.6421"/>
<polygon fill="midnightblue" stroke="midnightblue" points="421.392,-29.1102 430.935,-24.5074 420.604,-22.1546 421.392,-29.1102"/>
</g>
</g>
</svg>
