<?xml version="1.0" encoding="UTF-8" standalone="no"?>
<!DOCTYPE svg PUBLIC "-//W3C//DTD SVG 1.1//EN"
 "http://www.w3.org/Graphics/SVG/1.1/DTD/svg11.dtd">
<!-- Generated by graphviz version 2.38.0 (20140413.2041)
 -->
<!-- Title: org.buildmlearn.appstore.activities.SpellingActivity.onCreate Pages: 1 -->
<svg width="575pt" height="333pt"
 viewBox="0.00 0.00 575.00 333.00" xmlns="http://www.w3.org/2000/svg" xmlns:xlink="http://www.w3.org/1999/xlink">
<g id="graph0" class="graph" transform="scale(1 1) rotate(0) translate(4 329)">
<title>org.buildmlearn.appstore.activities.SpellingActivity.onCreate</title>
<!-- Node1 -->
<g id="node1" class="node"><title>Node1</title>
<polygon fill="#bfbfbf" stroke="black" points="0,-147.5 0,-177.5 167,-177.5 167,-147.5 0,-147.5"/>
<text text-anchor="start" x="8" y="-165.5" font-family="Helvetica,sans-Serif" font-size="10.00">org.buildmlearn.appstore.activities.</text>
<text text-anchor="middle" x="83.5" y="-154.5" font-family="Helvetica,sans-Serif" font-size="10.00">SpellingActivity.onCreate</text>
</g>
<!-- Node2 -->
<g id="node2" class="node"><title>Node2</title>
<g id="a_node2"><a xlink:href="../../d9/dca/classorg_1_1buildmlearn_1_1appstore_1_1activities_1_1_spelling_activity.html#a940a644b7d99baf612a1434f4c82534b" target="_top" xlink:title="It is automatically called when the back button is pressed. ">
<polygon fill="none" stroke="black" points="203,-294.5 203,-324.5 370,-324.5 370,-294.5 203,-294.5"/>
<text text-anchor="start" x="211" y="-312.5" font-family="Helvetica,sans-Serif" font-size="10.00">org.buildmlearn.appstore.activities.</text>
<text text-anchor="middle" x="286.5" y="-301.5" font-family="Helvetica,sans-Serif" font-size="10.00">SpellingActivity.onBackPressed</text>
</a>
</g>
</g>
<!-- Node1&#45;&gt;Node2 -->
<g id="edge1" class="edge"><title>Node1&#45;&gt;Node2</title>
<path fill="none" stroke="midnightblue" d="M95.0421,-177.822C113.746,-203.849 155.289,-256.669 203,-285.5 205.809,-287.197 208.744,-288.78 211.763,-290.255"/>
<polygon fill="midnightblue" stroke="midnightblue" points="210.47,-293.511 221.031,-294.367 213.309,-287.112 210.47,-293.511"/>
</g>
<!-- Node4 -->
<g id="node4" class="node"><title>Node4</title>
<g id="a_node4"><a xlink:href="../../d9/d29/classorg_1_1buildmlearn_1_1appstore_1_1models_1_1_spellings_model.html#af291064e82c76410196621b65c4703fb" target="_top" xlink:title="org.buildmlearn.appstore.models.\lSpellingsModel.getInstance">
<polygon fill="none" stroke="black" points="206,-245.5 206,-275.5 367,-275.5 367,-245.5 206,-245.5"/>
<text text-anchor="start" x="214" y="-263.5" font-family="Helvetica,sans-Serif" font-size="10.00">org.buildmlearn.appstore.models.</text>
<text text-anchor="middle" x="286.5" y="-252.5" font-family="Helvetica,sans-Serif" font-size="10.00">SpellingsModel.getInstance</text>
</a>
</g>
</g>
<!-- Node1&#45;&gt;Node4 -->
<g id="edge3" class="edge"><title>Node1&#45;&gt;Node4</title>
<path fill="none" stroke="midnightblue" d="M104.927,-177.709C127.801,-194.14 166.469,-220.157 203,-236.5 207.366,-238.453 211.932,-240.293 216.58,-242.019"/>
<polygon fill="midnightblue" stroke="midnightblue" points="215.603,-245.385 226.198,-245.397 217.923,-238.781 215.603,-245.385"/>
</g>
<!-- Node5 -->
<g id="node5" class="node"><title>Node5</title>
<g id="a_node5"><a xlink:href="../../d9/d29/classorg_1_1buildmlearn_1_1appstore_1_1models_1_1_spellings_model.html#a42ee50162a58bd2ca2ae66f1ee9b5a0d" target="_top" xlink:title="org.buildmlearn.appstore.models.\lSpellingsModel.getPuzzleName">
<polygon fill="none" stroke="black" points="206,-196.5 206,-226.5 367,-226.5 367,-196.5 206,-196.5"/>
<text text-anchor="start" x="214" y="-214.5" font-family="Helvetica,sans-Serif" font-size="10.00">org.buildmlearn.appstore.models.</text>
<text text-anchor="middle" x="286.5" y="-203.5" font-family="Helvetica,sans-Serif" font-size="10.00">SpellingsModel.getPuzzleName</text>
</a>
</g>
</g>
<!-- Node1&#45;&gt;Node5 -->
<g id="edge4" class="edge"><title>Node1&#45;&gt;Node5</title>
<path fill="none" stroke="midnightblue" d="M146.173,-177.535C167.588,-182.755 191.784,-188.654 213.93,-194.053"/>
<polygon fill="midnightblue" stroke="midnightblue" points="213.4,-197.526 223.944,-196.494 215.058,-190.725 213.4,-197.526"/>
</g>
<!-- Node6 -->
<g id="node6" class="node"><title>Node6</title>
<g id="a_node6"><a xlink:href="../../d9/d29/classorg_1_1buildmlearn_1_1appstore_1_1models_1_1_spellings_model.html#a189a3ab4b51200e9a9c4d357a393d1f8" target="_top" xlink:title="org.buildmlearn.appstore.models.\lSpellingsModel.getSpellingsList">
<polygon fill="none" stroke="black" points="206,-147.5 206,-177.5 367,-177.5 367,-147.5 206,-147.5"/>
<text text-anchor="start" x="214" y="-165.5" font-family="Helvetica,sans-Serif" font-size="10.00">org.buildmlearn.appstore.models.</text>
<text text-anchor="middle" x="286.5" y="-154.5" font-family="Helvetica,sans-Serif" font-size="10.00">SpellingsModel.getSpellingsList</text>
</a>
</g>
</g>
<!-- Node1&#45;&gt;Node6 -->
<g id="edge5" class="edge"><title>Node1&#45;&gt;Node6</title>
<path fill="none" stroke="midnightblue" d="M167.125,-162.5C176.508,-162.5 186.105,-162.5 195.576,-162.5"/>
<polygon fill="midnightblue" stroke="midnightblue" points="195.788,-166 205.788,-162.5 195.788,-159 195.788,-166"/>
</g>
<!-- Node7 -->
<g id="node7" class="node"><title>Node7</title>
<g id="a_node7"><a xlink:href="../../d9/d29/classorg_1_1buildmlearn_1_1appstore_1_1models_1_1_spellings_model.html#a5b57480a57b3138f32c22c0d70f62979" target="_top" xlink:title="org.buildmlearn.appstore.models.\lSpellingsModel.getActiveCount">
<polygon fill="none" stroke="black" points="206,-98.5 206,-128.5 367,-128.5 367,-98.5 206,-98.5"/>
<text text-anchor="start" x="214" y="-116.5" font-family="Helvetica,sans-Serif" font-size="10.00">org.buildmlearn.appstore.models.</text>
<text text-anchor="middle" x="286.5" y="-105.5" font-family="Helvetica,sans-Serif" font-size="10.00">SpellingsModel.getActiveCount</text>
</a>
</g>
</g>
<!-- Node1&#45;&gt;Node7 -->
<g id="edge6" class="edge"><title>Node1&#45;&gt;Node7</title>
<path fill="none" stroke="midnightblue" d="M146.173,-147.465C167.588,-142.245 191.784,-136.346 213.93,-130.947"/>
<polygon fill="midnightblue" stroke="midnightblue" points="215.058,-134.275 223.944,-128.506 213.4,-127.474 215.058,-134.275"/>
</g>
<!-- Node8 -->
<g id="node8" class="node"><title>Node8</title>
<g id="a_node8"><a xlink:href="../../d9/d29/classorg_1_1buildmlearn_1_1appstore_1_1models_1_1_spellings_model.html#a8f4d4af1aa28f68f33f24e6b2ed79bd2" target="_top" xlink:title="org.buildmlearn.appstore.models.\lSpellingsModel.getTotalCorrect">
<polygon fill="none" stroke="black" points="206,-49.5 206,-79.5 367,-79.5 367,-49.5 206,-49.5"/>
<text text-anchor="start" x="214" y="-67.5" font-family="Helvetica,sans-Serif" font-size="10.00">org.buildmlearn.appstore.models.</text>
<text text-anchor="middle" x="286.5" y="-56.5" font-family="Helvetica,sans-Serif" font-size="10.00">SpellingsModel.getTotalCorrect</text>
</a>
</g>
</g>
<!-- Node1&#45;&gt;Node8 -->
<g id="edge7" class="edge"><title>Node1&#45;&gt;Node8</title>
<path fill="none" stroke="midnightblue" d="M105.414,-147.298C128.398,-131.156 166.868,-105.774 203,-89.5 208.245,-87.1376 213.775,-84.9211 219.386,-82.8598"/>
<polygon fill="midnightblue" stroke="midnightblue" points="220.588,-86.1473 228.869,-79.539 218.275,-79.5406 220.588,-86.1473"/>
</g>
<!-- Node9 -->
<g id="node9" class="node"><title>Node9</title>
<g id="a_node9"><a xlink:href="../../d9/d29/classorg_1_1buildmlearn_1_1appstore_1_1models_1_1_spellings_model.html#add730428f51492a8d1223bb051865248" target="_top" xlink:title="org.buildmlearn.appstore.models.\lSpellingsModel.getTotalWrong">
<polygon fill="none" stroke="black" points="206,-0.5 206,-30.5 367,-30.5 367,-0.5 206,-0.5"/>
<text text-anchor="start" x="214" y="-18.5" font-family="Helvetica,sans-Serif" font-size="10.00">org.buildmlearn.appstore.models.</text>
<text text-anchor="middle" x="286.5" y="-7.5" font-family="Helvetica,sans-Serif" font-size="10.00">SpellingsModel.getTotalWrong</text>
</a>
</g>
</g>
<!-- Node1&#45;&gt;Node9 -->
<g id="edge8" class="edge"><title>Node1&#45;&gt;Node9</title>
<path fill="none" stroke="midnightblue" d="M95.1061,-147.362C113.906,-121.636 155.591,-69.3773 203,-40.5 206.425,-38.4137 210.037,-36.4903 213.759,-34.7185"/>
<polygon fill="midnightblue" stroke="midnightblue" points="215.417,-37.8143 223.195,-30.6201 212.629,-31.3938 215.417,-37.8143"/>
</g>
<!-- Node3 -->
<g id="node3" class="node"><title>Node3</title>
<g id="a_node3"><a xlink:href="../../d9/d29/classorg_1_1buildmlearn_1_1appstore_1_1models_1_1_spellings_model.html#a06d230ff2d47cae76428c11f75250d2d" target="_top" xlink:title="org.buildmlearn.appstore.models.\lSpellingsModel.clearInstance">
<polygon fill="none" stroke="black" points="406,-294.5 406,-324.5 567,-324.5 567,-294.5 406,-294.5"/>
<text text-anchor="start" x="414" y="-312.5" font-family="Helvetica,sans-Serif" font-size="10.00">org.buildmlearn.appstore.models.</text>
<text text-anchor="middle" x="486.5" y="-301.5" font-family="Helvetica,sans-Serif" font-size="10.00">SpellingsModel.clearInstance</text>
</a>
</g>
</g>
<!-- Node2&#45;&gt;Node3 -->
<g id="edge2" class="edge"><title>Node2&#45;&gt;Node3</title>
<path fill="none" stroke="midnightblue" d="M370.036,-309.5C378.578,-309.5 387.288,-309.5 395.903,-309.5"/>
<polygon fill="midnightblue" stroke="midnightblue" points="395.955,-313 405.955,-309.5 395.955,-306 395.955,-313"/>
</g>
</g>
</svg>
