<?xml version="1.0" encoding="UTF-8" standalone="no"?>
<!DOCTYPE svg PUBLIC "-//W3C//DTD SVG 1.1//EN"
 "http://www.w3.org/Graphics/SVG/1.1/DTD/svg11.dtd">
<!-- Generated by graphviz version 2.38.0 (20140413.2041)
 -->
<!-- Title: org.buildmlearn.appstore.activities.WordInfoActivity.onCreate Pages: 1 -->
<svg width="590pt" height="284pt"
 viewBox="0.00 0.00 590.00 284.00" xmlns="http://www.w3.org/2000/svg" xmlns:xlink="http://www.w3.org/1999/xlink">
<g id="graph0" class="graph" transform="scale(1 1) rotate(0) translate(4 280)">
<title>org.buildmlearn.appstore.activities.WordInfoActivity.onCreate</title>
<!-- Node1 -->
<g id="node1" class="node"><title>Node1</title>
<polygon fill="#bfbfbf" stroke="black" points="0,-122.5 0,-152.5 167,-152.5 167,-122.5 0,-122.5"/>
<text text-anchor="start" x="8" y="-140.5" font-family="Helvetica,sans-Serif" font-size="10.00">org.buildmlearn.appstore.activities.</text>
<text text-anchor="middle" x="83.5" y="-129.5" font-family="Helvetica,sans-Serif" font-size="10.00">WordInfoActivity.onCreate</text>
</g>
<!-- Node2 -->
<g id="node2" class="node"><title>Node2</title>
<g id="a_node2"><a xlink:href="../../d2/d2d/classorg_1_1buildmlearn_1_1appstore_1_1activities_1_1_word_info_activity.html#a4e4d4c3187fe3442f5034ad9411bbb97" target="_top" xlink:title="This method is automatically called when the back button is pressed. ">
<polygon fill="none" stroke="black" points="210.5,-245.5 210.5,-275.5 377.5,-275.5 377.5,-245.5 210.5,-245.5"/>
<text text-anchor="start" x="218.5" y="-263.5" font-family="Helvetica,sans-Serif" font-size="10.00">org.buildmlearn.appstore.activities.</text>
<text text-anchor="middle" x="294" y="-252.5" font-family="Helvetica,sans-Serif" font-size="10.00">WordInfoActivity.onBackPressed</text>
</a>
</g>
</g>
<!-- Node1&#45;&gt;Node2 -->
<g id="edge1" class="edge"><title>Node1&#45;&gt;Node2</title>
<path fill="none" stroke="midnightblue" d="M98.304,-152.623C118.98,-174.369 160.161,-214.29 203,-236.5 206.715,-238.426 210.598,-240.208 214.578,-241.855"/>
<polygon fill="midnightblue" stroke="midnightblue" points="213.414,-245.157 224.005,-245.458 215.914,-238.618 213.414,-245.157"/>
</g>
<!-- Node4 -->
<g id="node4" class="node"><title>Node4</title>
<g id="a_node4"><a xlink:href="../../d9/d29/classorg_1_1buildmlearn_1_1appstore_1_1models_1_1_spellings_model.html#af291064e82c76410196621b65c4703fb" target="_top" xlink:title="org.buildmlearn.appstore.models.\lSpellingsModel.getInstance">
<polygon fill="none" stroke="black" points="213.5,-196.5 213.5,-226.5 374.5,-226.5 374.5,-196.5 213.5,-196.5"/>
<text text-anchor="start" x="221.5" y="-214.5" font-family="Helvetica,sans-Serif" font-size="10.00">org.buildmlearn.appstore.models.</text>
<text text-anchor="middle" x="294" y="-203.5" font-family="Helvetica,sans-Serif" font-size="10.00">SpellingsModel.getInstance</text>
</a>
</g>
</g>
<!-- Node1&#45;&gt;Node4 -->
<g id="edge3" class="edge"><title>Node1&#45;&gt;Node4</title>
<path fill="none" stroke="midnightblue" d="M116.722,-152.529C140.291,-163.168 173.214,-177.3 203,-187.5 209.024,-189.563 215.324,-191.559 221.673,-193.46"/>
<polygon fill="midnightblue" stroke="midnightblue" points="221.077,-196.932 231.656,-196.365 223.032,-190.211 221.077,-196.932"/>
</g>
<!-- Node5 -->
<g id="node5" class="node"><title>Node5</title>
<g id="a_node5"><a xlink:href="../../d9/d29/classorg_1_1buildmlearn_1_1appstore_1_1models_1_1_spellings_model.html#a189a3ab4b51200e9a9c4d357a393d1f8" target="_top" xlink:title="org.buildmlearn.appstore.models.\lSpellingsModel.getSpellingsList">
<polygon fill="none" stroke="black" points="213.5,-147.5 213.5,-177.5 374.5,-177.5 374.5,-147.5 213.5,-147.5"/>
<text text-anchor="start" x="221.5" y="-165.5" font-family="Helvetica,sans-Serif" font-size="10.00">org.buildmlearn.appstore.models.</text>
<text text-anchor="middle" x="294" y="-154.5" font-family="Helvetica,sans-Serif" font-size="10.00">SpellingsModel.getSpellingsList</text>
</a>
</g>
</g>
<!-- Node1&#45;&gt;Node5 -->
<g id="edge4" class="edge"><title>Node1&#45;&gt;Node5</title>
<path fill="none" stroke="midnightblue" d="M167.204,-147.417C179.107,-148.844 191.401,-150.318 203.429,-151.76"/>
<polygon fill="midnightblue" stroke="midnightblue" points="203.11,-155.247 213.456,-152.962 203.944,-148.297 203.11,-155.247"/>
</g>
<!-- Node6 -->
<g id="node6" class="node"><title>Node6</title>
<g id="a_node6"><a xlink:href="../../d9/d29/classorg_1_1buildmlearn_1_1appstore_1_1models_1_1_spellings_model.html#a42ee50162a58bd2ca2ae66f1ee9b5a0d" target="_top" xlink:title="org.buildmlearn.appstore.models.\lSpellingsModel.getPuzzleName">
<polygon fill="none" stroke="black" points="213.5,-98.5 213.5,-128.5 374.5,-128.5 374.5,-98.5 213.5,-98.5"/>
<text text-anchor="start" x="221.5" y="-116.5" font-family="Helvetica,sans-Serif" font-size="10.00">org.buildmlearn.appstore.models.</text>
<text text-anchor="middle" x="294" y="-105.5" font-family="Helvetica,sans-Serif" font-size="10.00">SpellingsModel.getPuzzleName</text>
</a>
</g>
</g>
<!-- Node1&#45;&gt;Node6 -->
<g id="edge5" class="edge"><title>Node1&#45;&gt;Node6</title>
<path fill="none" stroke="midnightblue" d="M167.204,-127.98C179.107,-126.61 191.401,-125.195 203.429,-123.81"/>
<polygon fill="midnightblue" stroke="midnightblue" points="203.922,-127.277 213.456,-122.656 203.121,-120.323 203.922,-127.277"/>
</g>
<!-- Node7 -->
<g id="node7" class="node"><title>Node7</title>
<g id="a_node7"><a xlink:href="../../d9/d29/classorg_1_1buildmlearn_1_1appstore_1_1models_1_1_spellings_model.html#a5b57480a57b3138f32c22c0d70f62979" target="_top" xlink:title="org.buildmlearn.appstore.models.\lSpellingsModel.getActiveCount">
<polygon fill="none" stroke="black" points="213.5,-49.5 213.5,-79.5 374.5,-79.5 374.5,-49.5 213.5,-49.5"/>
<text text-anchor="start" x="221.5" y="-67.5" font-family="Helvetica,sans-Serif" font-size="10.00">org.buildmlearn.appstore.models.</text>
<text text-anchor="middle" x="294" y="-56.5" font-family="Helvetica,sans-Serif" font-size="10.00">SpellingsModel.getActiveCount</text>
</a>
</g>
</g>
<!-- Node1&#45;&gt;Node7 -->
<g id="edge6" class="edge"><title>Node1&#45;&gt;Node7</title>
<path fill="none" stroke="midnightblue" d="M118.593,-122.485C142.065,-112.447 174.106,-99.3294 203,-89.5 210.233,-87.0396 217.851,-84.6381 225.468,-82.3572"/>
<polygon fill="midnightblue" stroke="midnightblue" points="226.476,-85.7093 235.087,-79.5372 224.506,-78.992 226.476,-85.7093"/>
</g>
<!-- Node8 -->
<g id="node8" class="node"><title>Node8</title>
<g id="a_node8"><a xlink:href="../../d2/d2d/classorg_1_1buildmlearn_1_1appstore_1_1activities_1_1_word_info_activity.html#afd0f50995b84bf81cb0ff96a4da4755c" target="_top" xlink:title="This method converts the given text to speech. ">
<polygon fill="none" stroke="black" points="203,-0.5 203,-30.5 385,-30.5 385,-0.5 203,-0.5"/>
<text text-anchor="start" x="211" y="-18.5" font-family="Helvetica,sans-Serif" font-size="10.00">org.buildmlearn.appstore.activities.</text>
<text text-anchor="middle" x="294" y="-7.5" font-family="Helvetica,sans-Serif" font-size="10.00">WordInfoActivity.convertTextToSpeech</text>
</a>
</g>
</g>
<!-- Node1&#45;&gt;Node8 -->
<g id="edge7" class="edge"><title>Node1&#45;&gt;Node8</title>
<path fill="none" stroke="midnightblue" d="M98.7469,-122.399C119.651,-101.105 160.754,-62.4106 203,-40.5 207.474,-38.1796 212.188,-36.0542 217.018,-34.1106"/>
<polygon fill="midnightblue" stroke="midnightblue" points="218.277,-37.3764 226.416,-30.5935 215.824,-30.8204 218.277,-37.3764"/>
</g>
<!-- Node3 -->
<g id="node3" class="node"><title>Node3</title>
<g id="a_node3"><a xlink:href="../../d9/d29/classorg_1_1buildmlearn_1_1appstore_1_1models_1_1_spellings_model.html#a06d230ff2d47cae76428c11f75250d2d" target="_top" xlink:title="org.buildmlearn.appstore.models.\lSpellingsModel.clearInstance">
<polygon fill="none" stroke="black" points="421,-245.5 421,-275.5 582,-275.5 582,-245.5 421,-245.5"/>
<text text-anchor="start" x="429" y="-263.5" font-family="Helvetica,sans-Serif" font-size="10.00">org.buildmlearn.appstore.models.</text>
<text text-anchor="middle" x="501.5" y="-252.5" font-family="Helvetica,sans-Serif" font-size="10.00">SpellingsModel.clearInstance</text>
</a>
</g>
</g>
<!-- Node2&#45;&gt;Node3 -->
<g id="edge2" class="edge"><title>Node2&#45;&gt;Node3</title>
<path fill="none" stroke="midnightblue" d="M377.696,-260.5C388.626,-260.5 399.871,-260.5 410.91,-260.5"/>
<polygon fill="midnightblue" stroke="midnightblue" points="410.975,-264 420.975,-260.5 410.975,-257 410.975,-264"/>
</g>
</g>
</svg>
