<?xml version="1.0" encoding="UTF-8" standalone="no"?>
<!DOCTYPE svg PUBLIC "-//W3C//DTD SVG 1.1//EN"
 "http://www.w3.org/Graphics/SVG/1.1/DTD/svg11.dtd">
<!-- Generated by graphviz version 2.38.0 (20140413.2041)
 -->
<!-- Title: org.buildmlearn.appstore.adapters.CardViewAdapter.CardViewHolder.CardViewHolder Pages: 1 -->
<svg width="569pt" height="50pt"
 viewBox="0.00 0.00 569.00 50.00" xmlns="http://www.w3.org/2000/svg" xmlns:xlink="http://www.w3.org/1999/xlink">
<g id="graph0" class="graph" transform="scale(1 1) rotate(0) translate(4 46)">
<title>org.buildmlearn.appstore.adapters.CardViewAdapter.CardViewHolder.CardViewHolder</title>
<!-- Node1 -->
<g id="node1" class="node"><title>Node1</title>
<polygon fill="#bfbfbf" stroke="black" points="0,-0.5 0,-41.5 187,-41.5 187,-0.5 0,-0.5"/>
<text text-anchor="start" x="8" y="-29.5" font-family="Helvetica,sans-Serif" font-size="10.00">org.buildmlearn.appstore.adapters.</text>
<text text-anchor="start" x="8" y="-18.5" font-family="Helvetica,sans-Serif" font-size="10.00">CardViewAdapter.CardViewHolder.Card</text>
<text text-anchor="middle" x="93.5" y="-7.5" font-family="Helvetica,sans-Serif" font-size="10.00">ViewHolder</text>
</g>
<!-- Node2 -->
<g id="node2" class="node"><title>Node2</title>
<g id="a_node2"><a xlink:href="$dc/d8d/classorg_1_1buildmlearn_1_1appstore_1_1utils_1_1_volley_singleton.html#a0ae2f754208733f98580d31801f723c6" xlink:title="Gets the instance of the Volley. ">
<polygon fill="none" stroke="black" points="223,-6 223,-36 370,-36 370,-6 223,-6"/>
<text text-anchor="start" x="231" y="-24" font-family="Helvetica,sans-Serif" font-size="10.00">org.buildmlearn.appstore.utils.</text>
<text text-anchor="middle" x="296.5" y="-13" font-family="Helvetica,sans-Serif" font-size="10.00">VolleySingleton.getInstance</text>
</a>
</g>
</g>
<!-- Node1&#45;&gt;Node2 -->
<g id="edge1" class="edge"><title>Node1&#45;&gt;Node2</title>
<path fill="none" stroke="midnightblue" d="M187.058,-21C195.628,-21 204.276,-21 212.75,-21"/>
<polygon fill="midnightblue" stroke="midnightblue" points="212.983,-24.5001 222.983,-21 212.983,-17.5001 212.983,-24.5001"/>
</g>
<!-- Node3 -->
<g id="node3" class="node"><title>Node3</title>
<g id="a_node3"><a xlink:href="$dc/d8d/classorg_1_1buildmlearn_1_1appstore_1_1utils_1_1_volley_singleton.html#a701f3cfa1b0637eb979515798176e891" xlink:title="Private Constructor of the class. ">
<polygon fill="none" stroke="black" points="406,-6 406,-36 561,-36 561,-6 406,-6"/>
<text text-anchor="start" x="414" y="-24" font-family="Helvetica,sans-Serif" font-size="10.00">org.buildmlearn.appstore.utils.</text>
<text text-anchor="middle" x="483.5" y="-13" font-family="Helvetica,sans-Serif" font-size="10.00">VolleySingleton.VolleySingleton</text>
</a>
</g>
</g>
<!-- Node2&#45;&gt;Node3 -->
<g id="edge2" class="edge"><title>Node2&#45;&gt;Node3</title>
<path fill="none" stroke="midnightblue" d="M370.086,-21C378.526,-21 387.198,-21 395.803,-21"/>
<polygon fill="midnightblue" stroke="midnightblue" points="395.855,-24.5001 405.855,-21 395.855,-17.5001 395.855,-24.5001"/>
</g>
</g>
</svg>
