<?xml version="1.0" encoding="UTF-8" standalone="no"?>
<!DOCTYPE svg PUBLIC "-//W3C//DTD SVG 1.1//EN"
 "http://www.w3.org/Graphics/SVG/1.1/DTD/svg11.dtd">
<!-- Generated by graphviz version 2.38.0 (20140413.2041)
 -->
<!-- Title: org.buildmlearn.appstore.models.SpellingsModel.getInstance Pages: 1 -->
<svg width="646pt" height="235pt"
 viewBox="0.00 0.00 646.00 235.00" xmlns="http://www.w3.org/2000/svg" xmlns:xlink="http://www.w3.org/1999/xlink">
<g id="graph0" class="graph" transform="scale(1 1) rotate(0) translate(4 231)">
<title>org.buildmlearn.appstore.models.SpellingsModel.getInstance</title>
<!-- Node1 -->
<g id="node1" class="node"><title>Node1</title>
<polygon fill="#bfbfbf" stroke="black" points="0,-98.5 0,-128.5 161,-128.5 161,-98.5 0,-98.5"/>
<text text-anchor="start" x="8" y="-116.5" font-family="Helvetica,sans-Serif" font-size="10.00">org.buildmlearn.appstore.models.</text>
<text text-anchor="middle" x="80.5" y="-105.5" font-family="Helvetica,sans-Serif" font-size="10.00">SpellingsModel.getInstance</text>
</g>
<!-- Node2 -->
<g id="node2" class="node"><title>Node2</title>
<g id="a_node2"><a xlink:href="../../df/dcb/classorg_1_1buildmlearn_1_1appstore_1_1activities_1_1_score_activity.html#ac45846f5044d122523a51f69bf838d8b" target="_top" xlink:title="The method is executed first when the activity is created. ">
<polygon fill="none" stroke="black" points="214,-196.5 214,-226.5 381,-226.5 381,-196.5 214,-196.5"/>
<text text-anchor="start" x="222" y="-214.5" font-family="Helvetica,sans-Serif" font-size="10.00">org.buildmlearn.appstore.activities.</text>
<text text-anchor="middle" x="297.5" y="-203.5" font-family="Helvetica,sans-Serif" font-size="10.00">ScoreActivity.onCreate</text>
</a>
</g>
</g>
<!-- Node1&#45;&gt;Node2 -->
<g id="edge1" class="edge"><title>Node1&#45;&gt;Node2</title>
<path fill="none" stroke="midnightblue" d="M108.884,-134.785C131.408,-151.343 164.758,-173.745 197,-187.5 204.927,-190.882 213.422,-193.844 221.985,-196.423"/>
<polygon fill="midnightblue" stroke="midnightblue" points="110.914,-131.933 100.806,-128.756 106.726,-137.542 110.914,-131.933"/>
</g>
<!-- Node3 -->
<g id="node3" class="node"><title>Node3</title>
<g id="a_node3"><a xlink:href="../../d9/dca/classorg_1_1buildmlearn_1_1appstore_1_1activities_1_1_spelling_activity.html#ab11f98527ad998adcb11f119d815945e" target="_top" xlink:title="The method is executed first when the activity is created. ">
<polygon fill="none" stroke="black" points="214,-147.5 214,-177.5 381,-177.5 381,-147.5 214,-147.5"/>
<text text-anchor="start" x="222" y="-165.5" font-family="Helvetica,sans-Serif" font-size="10.00">org.buildmlearn.appstore.activities.</text>
<text text-anchor="middle" x="297.5" y="-154.5" font-family="Helvetica,sans-Serif" font-size="10.00">SpellingActivity.onCreate</text>
</a>
</g>
</g>
<!-- Node1&#45;&gt;Node3 -->
<g id="edge2" class="edge"><title>Node1&#45;&gt;Node3</title>
<path fill="none" stroke="midnightblue" d="M157.224,-130.758C181.181,-136.218 207.451,-142.205 230.657,-147.494"/>
<polygon fill="midnightblue" stroke="midnightblue" points="157.996,-127.344 147.468,-128.535 156.44,-134.169 157.996,-127.344"/>
</g>
<!-- Node4 -->
<g id="node4" class="node"><title>Node4</title>
<g id="a_node4"><a xlink:href="../../d3/dbf/classorg_1_1buildmlearn_1_1appstore_1_1activities_1_1_start_activity_1_1_file_read_task.html#a1170e20ba70058ef64883f3cc85e209b" target="_top" xlink:title="This method is called after the task has been performed. ">
<polygon fill="none" stroke="black" points="197,-98.5 197,-128.5 398,-128.5 398,-98.5 197,-98.5"/>
<text text-anchor="start" x="205" y="-116.5" font-family="Helvetica,sans-Serif" font-size="10.00">org.buildmlearn.appstore.activities.</text>
<text text-anchor="middle" x="297.5" y="-105.5" font-family="Helvetica,sans-Serif" font-size="10.00">StartActivity.FileReadTask.onPostExecute</text>
</a>
</g>
</g>
<!-- Node1&#45;&gt;Node4 -->
<g id="edge3" class="edge"><title>Node1&#45;&gt;Node4</title>
<path fill="none" stroke="midnightblue" d="M171.407,-113.5C179.803,-113.5 188.346,-113.5 196.824,-113.5"/>
<polygon fill="midnightblue" stroke="midnightblue" points="171.253,-110 161.253,-113.5 171.252,-117 171.253,-110"/>
</g>
<!-- Node5 -->
<g id="node5" class="node"><title>Node5</title>
<g id="a_node5"><a xlink:href="../../d2/d2d/classorg_1_1buildmlearn_1_1appstore_1_1activities_1_1_word_info_activity.html#a84c1bc2dbaad02b74b37c6390bf8380f" target="_top" xlink:title="The method is executed first when the activity is created. ">
<polygon fill="none" stroke="black" points="214,-49.5 214,-79.5 381,-79.5 381,-49.5 214,-49.5"/>
<text text-anchor="start" x="222" y="-67.5" font-family="Helvetica,sans-Serif" font-size="10.00">org.buildmlearn.appstore.activities.</text>
<text text-anchor="middle" x="297.5" y="-56.5" font-family="Helvetica,sans-Serif" font-size="10.00">WordInfoActivity.onCreate</text>
</a>
</g>
</g>
<!-- Node1&#45;&gt;Node5 -->
<g id="edge4" class="edge"><title>Node1&#45;&gt;Node5</title>
<path fill="none" stroke="midnightblue" d="M157.224,-96.2419C181.181,-90.782 207.451,-84.795 230.657,-79.5062"/>
<polygon fill="midnightblue" stroke="midnightblue" points="156.44,-92.8307 147.468,-98.4654 157.996,-99.6557 156.44,-92.8307"/>
</g>
<!-- Node6 -->
<g id="node6" class="node"><title>Node6</title>
<g id="a_node6"><a xlink:href="../../d0/da8/classorg_1_1buildmlearn_1_1appstore_1_1utils_1_1_app_reader.html#aaeb43a1338ffba1f17dd7993c82af47f" target="_top" xlink:title="Reads the Spelling Puzzle type of app. ">
<polygon fill="none" stroke="black" points="217.5,-0.5 217.5,-30.5 377.5,-30.5 377.5,-0.5 217.5,-0.5"/>
<text text-anchor="start" x="225.5" y="-18.5" font-family="Helvetica,sans-Serif" font-size="10.00">org.buildmlearn.appstore.utils.</text>
<text text-anchor="middle" x="297.5" y="-7.5" font-family="Helvetica,sans-Serif" font-size="10.00">AppReader.readSpellingsContent</text>
</a>
</g>
</g>
<!-- Node1&#45;&gt;Node6 -->
<g id="edge5" class="edge"><title>Node1&#45;&gt;Node6</title>
<path fill="none" stroke="midnightblue" d="M109.374,-92.3081C131.937,-76.0605 165.1,-54.1719 197,-40.5 205.84,-36.7112 215.378,-33.4084 224.926,-30.5552"/>
<polygon fill="midnightblue" stroke="midnightblue" points="107.279,-89.504 101.27,-98.2301 111.409,-95.1558 107.279,-89.504"/>
</g>
<!-- Node7 -->
<g id="node7" class="node"><title>Node7</title>
<g id="a_node7"><a xlink:href="../../d3/dbf/classorg_1_1buildmlearn_1_1appstore_1_1activities_1_1_start_activity_1_1_file_read_task.html#aed534a6e0d4bcb1df8009e878e2bb95f" target="_top" xlink:title="This method is automatically called, when the class is set to be executed. ">
<polygon fill="none" stroke="black" points="434,-0.5 434,-30.5 638,-30.5 638,-0.5 434,-0.5"/>
<text text-anchor="start" x="442" y="-18.5" font-family="Helvetica,sans-Serif" font-size="10.00">org.buildmlearn.appstore.activities.</text>
<text text-anchor="middle" x="536" y="-7.5" font-family="Helvetica,sans-Serif" font-size="10.00">StartActivity.FileReadTask.doInBackground</text>
</a>
</g>
</g>
<!-- Node6&#45;&gt;Node7 -->
<g id="edge6" class="edge"><title>Node6&#45;&gt;Node7</title>
<path fill="none" stroke="midnightblue" d="M387.832,-15.5C402.812,-15.5 418.452,-15.5 433.707,-15.5"/>
<polygon fill="midnightblue" stroke="midnightblue" points="387.58,-12.0001 377.58,-15.5 387.58,-19.0001 387.58,-12.0001"/>
</g>
</g>
</svg>
