<?xml version="1.0" encoding="UTF-8" standalone="no"?>
<!DOCTYPE svg PUBLIC "-//W3C//DTD SVG 1.1//EN"
 "http://www.w3.org/Graphics/SVG/1.1/DTD/svg11.dtd">
<!-- Generated by graphviz version 2.38.0 (20140413.2041)
 -->
<!-- Title: org.buildmlearn.appstore.models.SpellingsModel.setTotalCorrect Pages: 1 -->
<svg width="575pt" height="39pt"
 viewBox="0.00 0.00 575.00 39.00" xmlns="http://www.w3.org/2000/svg" xmlns:xlink="http://www.w3.org/1999/xlink">
<g id="graph0" class="graph" transform="scale(1 1) rotate(0) translate(4 35)">
<title>org.buildmlearn.appstore.models.SpellingsModel.setTotalCorrect</title>
<!-- Node1 -->
<g id="node1" class="node"><title>Node1</title>
<polygon fill="#bfbfbf" stroke="black" points="0,-0.5 0,-30.5 161,-30.5 161,-0.5 0,-0.5"/>
<text text-anchor="start" x="8" y="-18.5" font-family="Helvetica,sans-Serif" font-size="10.00">org.buildmlearn.appstore.models.</text>
<text text-anchor="middle" x="80.5" y="-7.5" font-family="Helvetica,sans-Serif" font-size="10.00">SpellingsModel.setTotalCorrect</text>
</g>
<!-- Node2 -->
<g id="node2" class="node"><title>Node2</title>
<g id="a_node2"><a xlink:href="../../d9/dca/classorg_1_1buildmlearn_1_1appstore_1_1activities_1_1_spelling_activity.html#a884c149192fd5f2755969d659430c8c2" target="_top" xlink:title="This method is called when the submit button is pressed. ">
<polygon fill="none" stroke="black" points="197,-0.5 197,-30.5 364,-30.5 364,-0.5 197,-0.5"/>
<text text-anchor="start" x="205" y="-18.5" font-family="Helvetica,sans-Serif" font-size="10.00">org.buildmlearn.appstore.activities.</text>
<text text-anchor="middle" x="280.5" y="-7.5" font-family="Helvetica,sans-Serif" font-size="10.00">SpellingActivity.submit</text>
</a>
</g>
</g>
<!-- Node1&#45;&gt;Node2 -->
<g id="edge1" class="edge"><title>Node1&#45;&gt;Node2</title>
<path fill="none" stroke="midnightblue" d="M171.413,-15.5C179.854,-15.5 188.383,-15.5 196.753,-15.5"/>
<polygon fill="midnightblue" stroke="midnightblue" points="171.178,-12.0001 161.178,-15.5 171.178,-19.0001 171.178,-12.0001"/>
</g>
<!-- Node3 -->
<g id="node3" class="node"><title>Node3</title>
<g id="a_node3"><a xlink:href="../../d9/dca/classorg_1_1buildmlearn_1_1appstore_1_1activities_1_1_spelling_activity.html#abeccd03866d824b9744d7e8b84f1214d" target="_top" xlink:title="This method is executed when next/skip button is pressed, hence it populates the next question in the...">
<polygon fill="none" stroke="black" points="400,-0.5 400,-30.5 567,-30.5 567,-0.5 400,-0.5"/>
<text text-anchor="start" x="408" y="-18.5" font-family="Helvetica,sans-Serif" font-size="10.00">org.buildmlearn.appstore.activities.</text>
<text text-anchor="middle" x="483.5" y="-7.5" font-family="Helvetica,sans-Serif" font-size="10.00">SpellingActivity.click</text>
</a>
</g>
</g>
<!-- Node2&#45;&gt;Node3 -->
<g id="edge2" class="edge"><title>Node2&#45;&gt;Node3</title>
<path fill="none" stroke="midnightblue" d="M374.148,-15.5C382.73,-15.5 391.389,-15.5 399.872,-15.5"/>
<polygon fill="midnightblue" stroke="midnightblue" points="374.125,-12.0001 364.125,-15.5 374.124,-19.0001 374.125,-12.0001"/>
</g>
</g>
</svg>
