<?xml version="1.0" encoding="UTF-8" standalone="no"?>
<!DOCTYPE svg PUBLIC "-//W3C//DTD SVG 1.1//EN"
 "http://www.w3.org/Graphics/SVG/1.1/DTD/svg11.dtd">
<!-- Generated by graphviz version 2.38.0 (20140413.2041)
 -->
<!-- Title: org.buildmlearn.appstore.models.SpellingsModel.setPuzzleAuthor Pages: 1 -->
<svg width="605pt" height="39pt"
 viewBox="0.00 0.00 605.00 39.00" xmlns="http://www.w3.org/2000/svg" xmlns:xlink="http://www.w3.org/1999/xlink">
<g id="graph0" class="graph" transform="scale(1 1) rotate(0) translate(4 35)">
<title>org.buildmlearn.appstore.models.SpellingsModel.setPuzzleAuthor</title>
<!-- Node1 -->
<g id="node1" class="node"><title>Node1</title>
<polygon fill="#bfbfbf" stroke="black" points="0,-0.5 0,-30.5 161,-30.5 161,-0.5 0,-0.5"/>
<text text-anchor="start" x="8" y="-18.5" font-family="Helvetica,sans-Serif" font-size="10.00">org.buildmlearn.appstore.models.</text>
<text text-anchor="middle" x="80.5" y="-7.5" font-family="Helvetica,sans-Serif" font-size="10.00">SpellingsModel.setPuzzleAuthor</text>
</g>
<!-- Node2 -->
<g id="node2" class="node"><title>Node2</title>
<g id="a_node2"><a xlink:href="../../d0/da8/classorg_1_1buildmlearn_1_1appstore_1_1utils_1_1_app_reader.html#aaeb43a1338ffba1f17dd7993c82af47f" target="_top" xlink:title="Reads the Spelling Puzzle type of app. ">
<polygon fill="none" stroke="black" points="197,-0.5 197,-30.5 357,-30.5 357,-0.5 197,-0.5"/>
<text text-anchor="start" x="205" y="-18.5" font-family="Helvetica,sans-Serif" font-size="10.00">org.buildmlearn.appstore.utils.</text>
<text text-anchor="middle" x="277" y="-7.5" font-family="Helvetica,sans-Serif" font-size="10.00">AppReader.readSpellingsContent</text>
</a>
</g>
</g>
<!-- Node1&#45;&gt;Node2 -->
<g id="edge1" class="edge"><title>Node1&#45;&gt;Node2</title>
<path fill="none" stroke="midnightblue" d="M171.433,-15.5C179.889,-15.5 188.42,-15.5 196.767,-15.5"/>
<polygon fill="midnightblue" stroke="midnightblue" points="171.172,-12.0001 161.172,-15.5 171.172,-19.0001 171.172,-12.0001"/>
</g>
<!-- Node3 -->
<g id="node3" class="node"><title>Node3</title>
<g id="a_node3"><a xlink:href="../../d3/dbf/classorg_1_1buildmlearn_1_1appstore_1_1activities_1_1_start_activity_1_1_file_read_task.html#aed534a6e0d4bcb1df8009e878e2bb95f" target="_top" xlink:title="This method is automatically called, when the class is set to be executed. ">
<polygon fill="none" stroke="black" points="393,-0.5 393,-30.5 597,-30.5 597,-0.5 393,-0.5"/>
<text text-anchor="start" x="401" y="-18.5" font-family="Helvetica,sans-Serif" font-size="10.00">org.buildmlearn.appstore.activities.</text>
<text text-anchor="middle" x="495" y="-7.5" font-family="Helvetica,sans-Serif" font-size="10.00">StartActivity.FileReadTask.doInBackground</text>
</a>
</g>
</g>
<!-- Node2&#45;&gt;Node3 -->
<g id="edge2" class="edge"><title>Node2&#45;&gt;Node3</title>
<path fill="none" stroke="midnightblue" d="M367.332,-15.5C375.71,-15.5 384.243,-15.5 392.72,-15.5"/>
<polygon fill="midnightblue" stroke="midnightblue" points="367.204,-12.0001 357.204,-15.5 367.204,-19.0001 367.204,-12.0001"/>
</g>
</g>
</svg>
