<?xml version="1.0" encoding="UTF-8" standalone="no"?>
<!DOCTYPE svg PUBLIC "-//W3C//DTD SVG 1.1//EN"
 "http://www.w3.org/Graphics/SVG/1.1/DTD/svg11.dtd">
<!-- Generated by graphviz version 2.38.0 (20140413.2041)
 -->
<!-- Title: org.buildmlearn.appstore.fragments.TabMyApps.closeSearch Pages: 1 -->
<svg width="819pt" height="127pt"
 viewBox="0.00 0.00 819.00 127.00" xmlns="http://www.w3.org/2000/svg" xmlns:xlink="http://www.w3.org/1999/xlink">
<g id="graph0" class="graph" transform="scale(1 1) rotate(0) translate(4 123)">
<title>org.buildmlearn.appstore.fragments.TabMyApps.closeSearch</title>
<!-- Node1 -->
<g id="node1" class="node"><title>Node1</title>
<polygon fill="#bfbfbf" stroke="black" points="0,-44.5 0,-74.5 172,-74.5 172,-44.5 0,-44.5"/>
<text text-anchor="start" x="8" y="-62.5" font-family="Helvetica,sans-Serif" font-size="10.00">org.buildmlearn.appstore.fragments.</text>
<text text-anchor="middle" x="86" y="-51.5" font-family="Helvetica,sans-Serif" font-size="10.00">TabMyApps.closeSearch</text>
</g>
<!-- Node2 -->
<g id="node2" class="node"><title>Node2</title>
<g id="a_node2"><a xlink:href="$d8/dfa/classorg_1_1buildmlearn_1_1appstore_1_1activities_1_1_home_activity.html#a1a3c72988991108cb3f2f70b345a1a0d" xlink:title="The method is executed first when the activity is created. ">
<polygon fill="none" stroke="black" points="210.5,-88.5 210.5,-118.5 377.5,-118.5 377.5,-88.5 210.5,-88.5"/>
<text text-anchor="start" x="218.5" y="-106.5" font-family="Helvetica,sans-Serif" font-size="10.00">org.buildmlearn.appstore.activities.</text>
<text text-anchor="middle" x="294" y="-95.5" font-family="Helvetica,sans-Serif" font-size="10.00">HomeActivity.onCreate</text>
</a>
</g>
</g>
<!-- Node1&#45;&gt;Node2 -->
<g id="edge1" class="edge"><title>Node1&#45;&gt;Node2</title>
<path fill="none" stroke="midnightblue" d="M167.34,-76.6601C185.595,-80.559 204.848,-84.6714 222.65,-88.4738"/>
<polygon fill="midnightblue" stroke="midnightblue" points="167.828,-73.1853 157.317,-74.5192 166.366,-80.0309 167.828,-73.1853"/>
</g>
<!-- Node3 -->
<g id="node3" class="node"><title>Node3</title>
<g id="a_node3"><a xlink:href="$d0/d60/classorg_1_1buildmlearn_1_1appstore_1_1activities_1_1_navigation_activity.html#a0d03e67c759108fd119b9e5ad2e48014" xlink:title="This method creates menu items to be shown on the Action Bar. ">
<polygon fill="none" stroke="black" points="619,-22.5 619,-52.5 811,-52.5 811,-22.5 619,-22.5"/>
<text text-anchor="start" x="627" y="-40.5" font-family="Helvetica,sans-Serif" font-size="10.00">org.buildmlearn.appstore.activities.</text>
<text text-anchor="middle" x="715" y="-29.5" font-family="Helvetica,sans-Serif" font-size="10.00">NavigationActivity.onCreateOptionsMenu</text>
</a>
</g>
</g>
<!-- Node1&#45;&gt;Node3 -->
<g id="edge2" class="edge"><title>Node1&#45;&gt;Node3</title>
<path fill="none" stroke="midnightblue" d="M182.337,-56.1549C300.565,-52.0065 500.892,-44.9775 618.975,-40.8342"/>
<polygon fill="midnightblue" stroke="midnightblue" points="182.084,-52.6615 172.213,-56.5101 182.329,-59.6572 182.084,-52.6615"/>
</g>
<!-- Node4 -->
<g id="node4" class="node"><title>Node4</title>
<g id="a_node4"><a xlink:href="$d0/df6/classorg_1_1buildmlearn_1_1appstore_1_1fragments_1_1_tab_my_apps.html#ae66ef4c95b75f055d223a14038669ac2" xlink:title="This method is called from the Navigation Activity, which controls all the search view...">
<polygon fill="none" stroke="black" points="208,-0.5 208,-30.5 380,-30.5 380,-0.5 208,-0.5"/>
<text text-anchor="start" x="216" y="-18.5" font-family="Helvetica,sans-Serif" font-size="10.00">org.buildmlearn.appstore.fragments.</text>
<text text-anchor="middle" x="294" y="-7.5" font-family="Helvetica,sans-Serif" font-size="10.00">TabMyApps.refineSearch</text>
</a>
</g>
</g>
<!-- Node1&#45;&gt;Node4 -->
<g id="edge4" class="edge"><title>Node1&#45;&gt;Node4</title>
<path fill="none" stroke="midnightblue" d="M167.34,-42.3399C185.595,-38.441 204.848,-34.3286 222.65,-30.5262"/>
<polygon fill="midnightblue" stroke="midnightblue" points="166.366,-38.9691 157.317,-44.4808 167.828,-45.8147 166.366,-38.9691"/>
</g>
<!-- Node3&#45;&gt;Node3 -->
<g id="edge3" class="edge"><title>Node3&#45;&gt;Node3</title>
<path fill="none" stroke="midnightblue" d="M676.975,-62.9579C681.694,-67.679 694.369,-71 715,-71 748.855,-71 761.287,-62.0566 752.294,-52.659"/>
<polygon fill="midnightblue" stroke="midnightblue" points="680.489,-62.8818 677.706,-52.659 673.506,-62.386 680.489,-62.8818"/>
</g>
<!-- Node5 -->
<g id="node5" class="node"><title>Node5</title>
<g id="a_node5"><a xlink:href="$d0/d60/classorg_1_1buildmlearn_1_1appstore_1_1activities_1_1_navigation_activity.html#a205e1d750606e6ca55b3cb753fc6f9cc" xlink:title="This method sends the search query to respective active activities, to refresh their view with the cu...">
<polygon fill="none" stroke="black" points="416,-0.5 416,-30.5 583,-30.5 583,-0.5 416,-0.5"/>
<text text-anchor="start" x="424" y="-18.5" font-family="Helvetica,sans-Serif" font-size="10.00">org.buildmlearn.appstore.activities.</text>
<text text-anchor="middle" x="499.5" y="-7.5" font-family="Helvetica,sans-Serif" font-size="10.00">NavigationActivity.refineSearch</text>
</a>
</g>
</g>
<!-- Node4&#45;&gt;Node5 -->
<g id="edge5" class="edge"><title>Node4&#45;&gt;Node5</title>
<path fill="none" stroke="midnightblue" d="M390.199,-15.5C398.819,-15.5 407.502,-15.5 415.999,-15.5"/>
<polygon fill="midnightblue" stroke="midnightblue" points="390.123,-12.0001 380.123,-15.5 390.123,-19.0001 390.123,-12.0001"/>
</g>
<!-- Node5&#45;&gt;Node3 -->
<g id="edge6" class="edge"><title>Node5&#45;&gt;Node3</title>
<path fill="none" stroke="midnightblue" d="M593.03,-25.0347C601.595,-25.9173 610.286,-26.8128 618.874,-27.6978"/>
<polygon fill="midnightblue" stroke="midnightblue" points="593.351,-21.5493 583.045,-24.0058 592.633,-28.5124 593.351,-21.5493"/>
</g>
</g>
</svg>
