<?xml version="1.0" encoding="UTF-8" standalone="no"?>
<!DOCTYPE svg PUBLIC "-//W3C//DTD SVG 1.1//EN"
 "http://www.w3.org/Graphics/SVG/1.1/DTD/svg11.dtd">
<!-- Generated by graphviz version 2.38.0 (20140413.2041)
 -->
<!-- Title: org.buildmlearn.appstore.activities.SplashActivity.onCreate Pages: 1 -->
<svg width="764pt" height="137pt"
 viewBox="0.00 0.00 764.00 137.00" xmlns="http://www.w3.org/2000/svg" xmlns:xlink="http://www.w3.org/1999/xlink">
<g id="graph0" class="graph" transform="scale(1 1) rotate(0) translate(4 133)">
<title>org.buildmlearn.appstore.activities.SplashActivity.onCreate</title>
<!-- Node1 -->
<g id="node1" class="node"><title>Node1</title>
<polygon fill="#bfbfbf" stroke="black" points="0,-49.5 0,-79.5 167,-79.5 167,-49.5 0,-49.5"/>
<text text-anchor="start" x="8" y="-67.5" font-family="Helvetica,sans-Serif" font-size="10.00">org.buildmlearn.appstore.activities.</text>
<text text-anchor="middle" x="83.5" y="-56.5" font-family="Helvetica,sans-Serif" font-size="10.00">SplashActivity.onCreate</text>
</g>
<!-- Node2 -->
<g id="node2" class="node"><title>Node2</title>
<g id="a_node2"><a xlink:href="$df/d05/classorg_1_1buildmlearn_1_1appstore_1_1activities_1_1_splash_activity.html#a524ae9928ab2c671026d7bfa84701531" xlink:title="It parses the xml data to be shown on the store. ">
<polygon fill="none" stroke="black" points="203,-49.5 203,-79.5 370,-79.5 370,-49.5 203,-49.5"/>
<text text-anchor="start" x="211" y="-67.5" font-family="Helvetica,sans-Serif" font-size="10.00">org.buildmlearn.appstore.activities.</text>
<text text-anchor="middle" x="286.5" y="-56.5" font-family="Helvetica,sans-Serif" font-size="10.00">SplashActivity.parseXML</text>
</a>
</g>
</g>
<!-- Node1&#45;&gt;Node2 -->
<g id="edge1" class="edge"><title>Node1&#45;&gt;Node2</title>
<path fill="none" stroke="midnightblue" d="M167.125,-64.5C175.607,-64.5 184.266,-64.5 192.848,-64.5"/>
<polygon fill="midnightblue" stroke="midnightblue" points="192.872,-68.0001 202.872,-64.5 192.871,-61.0001 192.872,-68.0001"/>
</g>
<!-- Node2&#45;&gt;Node2 -->
<g id="edge3" class="edge"><title>Node2&#45;&gt;Node2</title>
<path fill="none" stroke="midnightblue" d="M251.297,-79.659C242.809,-89.0566 254.543,-98 286.5,-98 305.974,-98 317.938,-94.679 322.393,-89.9579"/>
<polygon fill="midnightblue" stroke="midnightblue" points="325.864,-89.4025 321.703,-79.659 318.879,-89.8707 325.864,-89.4025"/>
</g>
<!-- Node3 -->
<g id="node3" class="node"><title>Node3</title>
<g id="a_node3"><a xlink:href="$df/d05/classorg_1_1buildmlearn_1_1appstore_1_1activities_1_1_splash_activity.html#a1d5fc2ca5fd1a52786a7ce0d914d1d7e" xlink:title="The method check whether the phone is connected to internet or not. ">
<polygon fill="none" stroke="black" points="406,-98.5 406,-128.5 573,-128.5 573,-98.5 406,-98.5"/>
<text text-anchor="start" x="414" y="-116.5" font-family="Helvetica,sans-Serif" font-size="10.00">org.buildmlearn.appstore.activities.</text>
<text text-anchor="middle" x="489.5" y="-105.5" font-family="Helvetica,sans-Serif" font-size="10.00">SplashActivity.isNetworkAvailable</text>
</a>
</g>
</g>
<!-- Node2&#45;&gt;Node3 -->
<g id="edge2" class="edge"><title>Node2&#45;&gt;Node3</title>
<path fill="none" stroke="midnightblue" d="M349.173,-79.5346C370.588,-84.7554 394.784,-90.6537 416.93,-96.0526"/>
<polygon fill="midnightblue" stroke="midnightblue" points="416.4,-99.5257 426.944,-98.4938 418.058,-92.7249 416.4,-99.5257"/>
</g>
<!-- Node4 -->
<g id="node4" class="node"><title>Node4</title>
<g id="a_node4"><a xlink:href="$d6/d02/classorg_1_1buildmlearn_1_1appstore_1_1utils_1_1_x_m_l_parser.html#a15a8449f10403c80625319062f73432e" xlink:title="Gets the Document object from the xml string. ">
<polygon fill="none" stroke="black" points="416,-49.5 416,-79.5 563,-79.5 563,-49.5 416,-49.5"/>
<text text-anchor="start" x="424" y="-67.5" font-family="Helvetica,sans-Serif" font-size="10.00">org.buildmlearn.appstore.utils.</text>
<text text-anchor="middle" x="489.5" y="-56.5" font-family="Helvetica,sans-Serif" font-size="10.00">XMLParser.getDomElement</text>
</a>
</g>
</g>
<!-- Node2&#45;&gt;Node4 -->
<g id="edge4" class="edge"><title>Node2&#45;&gt;Node4</title>
<path fill="none" stroke="midnightblue" d="M370.125,-64.5C381.849,-64.5 393.909,-64.5 405.638,-64.5"/>
<polygon fill="midnightblue" stroke="midnightblue" points="405.843,-68.0001 415.843,-64.5 405.843,-61.0001 405.843,-68.0001"/>
</g>
<!-- Node5 -->
<g id="node5" class="node"><title>Node5</title>
<g id="a_node5"><a xlink:href="$d6/d02/classorg_1_1buildmlearn_1_1appstore_1_1utils_1_1_x_m_l_parser.html#a42151792145130629c7bf2a16b2885bc" xlink:title="Gets the value of the item from the Document object. ">
<polygon fill="none" stroke="black" points="416,-0.5 416,-30.5 563,-30.5 563,-0.5 416,-0.5"/>
<text text-anchor="start" x="424" y="-18.5" font-family="Helvetica,sans-Serif" font-size="10.00">org.buildmlearn.appstore.utils.</text>
<text text-anchor="middle" x="489.5" y="-7.5" font-family="Helvetica,sans-Serif" font-size="10.00">XMLParser.getValue</text>
</a>
</g>
</g>
<!-- Node2&#45;&gt;Node5 -->
<g id="edge5" class="edge"><title>Node2&#45;&gt;Node5</title>
<path fill="none" stroke="midnightblue" d="M349.173,-49.4654C370.588,-44.2446 394.784,-38.3463 416.93,-32.9474"/>
<polygon fill="midnightblue" stroke="midnightblue" points="418.058,-36.2751 426.944,-30.5062 416.4,-29.4743 418.058,-36.2751"/>
</g>
<!-- Node6 -->
<g id="node6" class="node"><title>Node6</title>
<g id="a_node6"><a xlink:href="$d6/d02/classorg_1_1buildmlearn_1_1appstore_1_1utils_1_1_x_m_l_parser.html#a623e2412cff7b8ab44947732d167feef" xlink:title="Gets the element value of the node. ">
<polygon fill="none" stroke="black" points="609,-0.5 609,-30.5 756,-30.5 756,-0.5 609,-0.5"/>
<text text-anchor="start" x="617" y="-18.5" font-family="Helvetica,sans-Serif" font-size="10.00">org.buildmlearn.appstore.utils.</text>
<text text-anchor="middle" x="682.5" y="-7.5" font-family="Helvetica,sans-Serif" font-size="10.00">XMLParser.getElementValue</text>
</a>
</g>
</g>
<!-- Node5&#45;&gt;Node6 -->
<g id="edge6" class="edge"><title>Node5&#45;&gt;Node6</title>
<path fill="none" stroke="midnightblue" d="M563.254,-15.5C574.832,-15.5 586.884,-15.5 598.674,-15.5"/>
<polygon fill="midnightblue" stroke="midnightblue" points="598.949,-19.0001 608.949,-15.5 598.948,-12.0001 598.949,-19.0001"/>
</g>
</g>
</svg>
