<?xml version="1.0" encoding="UTF-8" standalone="no"?>
<!DOCTYPE svg PUBLIC "-//W3C//DTD SVG 1.1//EN"
 "http://www.w3.org/Graphics/SVG/1.1/DTD/svg11.dtd">
<!-- Generated by graphviz version 2.38.0 (20140413.2041)
 -->
<!-- Title: org.buildmlearn.appstore.activities.SplashActivity.isNetworkAvailable Pages: 1 -->
<svg width="581pt" height="57pt"
 viewBox="0.00 0.00 581.00 57.00" xmlns="http://www.w3.org/2000/svg" xmlns:xlink="http://www.w3.org/1999/xlink">
<g id="graph0" class="graph" transform="scale(1 1) rotate(0) translate(4 53)">
<title>org.buildmlearn.appstore.activities.SplashActivity.isNetworkAvailable</title>
<!-- Node1 -->
<g id="node1" class="node"><title>Node1</title>
<polygon fill="#bfbfbf" stroke="black" points="0,-0.5 0,-30.5 167,-30.5 167,-0.5 0,-0.5"/>
<text text-anchor="start" x="8" y="-18.5" font-family="Helvetica,sans-Serif" font-size="10.00">org.buildmlearn.appstore.activities.</text>
<text text-anchor="middle" x="83.5" y="-7.5" font-family="Helvetica,sans-Serif" font-size="10.00">SplashActivity.isNetworkAvailable</text>
</g>
<!-- Node2 -->
<g id="node2" class="node"><title>Node2</title>
<g id="a_node2"><a xlink:href="$df/d05/classorg_1_1buildmlearn_1_1appstore_1_1activities_1_1_splash_activity.html#a524ae9928ab2c671026d7bfa84701531" xlink:title="It parses the xml data to be shown on the store. ">
<polygon fill="none" stroke="black" points="203,-0.5 203,-30.5 370,-30.5 370,-0.5 203,-0.5"/>
<text text-anchor="start" x="211" y="-18.5" font-family="Helvetica,sans-Serif" font-size="10.00">org.buildmlearn.appstore.activities.</text>
<text text-anchor="middle" x="286.5" y="-7.5" font-family="Helvetica,sans-Serif" font-size="10.00">SplashActivity.parseXML</text>
</a>
</g>
</g>
<!-- Node1&#45;&gt;Node2 -->
<g id="edge1" class="edge"><title>Node1&#45;&gt;Node2</title>
<path fill="none" stroke="midnightblue" d="M177.148,-15.5C185.73,-15.5 194.389,-15.5 202.872,-15.5"/>
<polygon fill="midnightblue" stroke="midnightblue" points="177.125,-12.0001 167.125,-15.5 177.124,-19.0001 177.125,-12.0001"/>
</g>
<!-- Node2&#45;&gt;Node2 -->
<g id="edge3" class="edge"><title>Node2&#45;&gt;Node2</title>
<path fill="none" stroke="midnightblue" d="M250.607,-40.9579C255.062,-45.679 267.026,-49 286.5,-49 318.457,-49 330.191,-40.0566 321.703,-30.659"/>
<polygon fill="midnightblue" stroke="midnightblue" points="254.121,-40.8707 251.297,-30.659 247.136,-40.4025 254.121,-40.8707"/>
</g>
<!-- Node3 -->
<g id="node3" class="node"><title>Node3</title>
<g id="a_node3"><a xlink:href="$df/d05/classorg_1_1buildmlearn_1_1appstore_1_1activities_1_1_splash_activity.html#a87a3b8f0b5f853a7f8c658bde17b5020" xlink:title="The method is executed when the activity is created. ">
<polygon fill="none" stroke="black" points="406,-0.5 406,-30.5 573,-30.5 573,-0.5 406,-0.5"/>
<text text-anchor="start" x="414" y="-18.5" font-family="Helvetica,sans-Serif" font-size="10.00">org.buildmlearn.appstore.activities.</text>
<text text-anchor="middle" x="489.5" y="-7.5" font-family="Helvetica,sans-Serif" font-size="10.00">SplashActivity.onCreate</text>
</a>
</g>
</g>
<!-- Node2&#45;&gt;Node3 -->
<g id="edge2" class="edge"><title>Node2&#45;&gt;Node3</title>
<path fill="none" stroke="midnightblue" d="M380.148,-15.5C388.73,-15.5 397.389,-15.5 405.872,-15.5"/>
<polygon fill="midnightblue" stroke="midnightblue" points="380.125,-12.0001 370.125,-15.5 380.124,-19.0001 380.125,-12.0001"/>
</g>
</g>
</svg>
