<?xml version="1.0" encoding="UTF-8" standalone="no"?>
<!DOCTYPE svg PUBLIC "-//W3C//DTD SVG 1.1//EN"
 "http://www.w3.org/Graphics/SVG/1.1/DTD/svg11.dtd">
<!-- Generated by graphviz version 2.38.0 (20140413.2041)
 -->
<!-- Title: org.buildmlearn.appstore.utils.SlidingTabLayout.createDefaultTabView Pages: 1 -->
<svg width="792pt" height="39pt"
 viewBox="0.00 0.00 792.00 39.00" xmlns="http://www.w3.org/2000/svg" xmlns:xlink="http://www.w3.org/1999/xlink">
<g id="graph0" class="graph" transform="scale(1 1) rotate(0) translate(4 35)">
<title>org.buildmlearn.appstore.utils.SlidingTabLayout.createDefaultTabView</title>
<!-- Node1 -->
<g id="node1" class="node"><title>Node1</title>
<polygon fill="#bfbfbf" stroke="black" points="0,-0.5 0,-30.5 188,-30.5 188,-0.5 0,-0.5"/>
<text text-anchor="start" x="8" y="-18.5" font-family="Helvetica,sans-Serif" font-size="10.00">org.buildmlearn.appstore.utils.</text>
<text text-anchor="middle" x="94" y="-7.5" font-family="Helvetica,sans-Serif" font-size="10.00">SlidingTabLayout.createDefaultTabView</text>
</g>
<!-- Node2 -->
<g id="node2" class="node"><title>Node2</title>
<g id="a_node2"><a xlink:href="../../d8/dcb/classorg_1_1buildmlearn_1_1appstore_1_1utils_1_1_sliding_tab_layout.html#a372e773548f8b02b384a9297c618bb65" target="_top" xlink:title="Populates tabs strip. ">
<polygon fill="none" stroke="black" points="224,-0.5 224,-30.5 391,-30.5 391,-0.5 224,-0.5"/>
<text text-anchor="start" x="232" y="-18.5" font-family="Helvetica,sans-Serif" font-size="10.00">org.buildmlearn.appstore.utils.</text>
<text text-anchor="middle" x="307.5" y="-7.5" font-family="Helvetica,sans-Serif" font-size="10.00">SlidingTabLayout.populateTabStrip</text>
</a>
</g>
</g>
<!-- Node1&#45;&gt;Node2 -->
<g id="edge1" class="edge"><title>Node1&#45;&gt;Node2</title>
<path fill="none" stroke="midnightblue" d="M198.118,-15.5C206.694,-15.5 215.293,-15.5 223.689,-15.5"/>
<polygon fill="midnightblue" stroke="midnightblue" points="198.075,-12.0001 188.075,-15.5 198.075,-19.0001 198.075,-12.0001"/>
</g>
<!-- Node3 -->
<g id="node3" class="node"><title>Node3</title>
<g id="a_node3"><a xlink:href="../../d8/dcb/classorg_1_1buildmlearn_1_1appstore_1_1utils_1_1_sliding_tab_layout.html#a122f48ed0894e06f391afac8621a6421" target="_top" xlink:title="Sets the associated view pager. ">
<polygon fill="none" stroke="black" points="427,-0.5 427,-30.5 581,-30.5 581,-0.5 427,-0.5"/>
<text text-anchor="start" x="435" y="-18.5" font-family="Helvetica,sans-Serif" font-size="10.00">org.buildmlearn.appstore.utils.</text>
<text text-anchor="middle" x="504" y="-7.5" font-family="Helvetica,sans-Serif" font-size="10.00">SlidingTabLayout.setViewPager</text>
</a>
</g>
</g>
<!-- Node2&#45;&gt;Node3 -->
<g id="edge2" class="edge"><title>Node2&#45;&gt;Node3</title>
<path fill="none" stroke="midnightblue" d="M401.545,-15.5C410.001,-15.5 418.501,-15.5 426.786,-15.5"/>
<polygon fill="midnightblue" stroke="midnightblue" points="401.268,-12.0001 391.268,-15.5 401.268,-19.0001 401.268,-12.0001"/>
</g>
<!-- Node4 -->
<g id="node4" class="node"><title>Node4</title>
<g id="a_node4"><a xlink:href="../../d8/dfa/classorg_1_1buildmlearn_1_1appstore_1_1activities_1_1_home_activity.html#a1a3c72988991108cb3f2f70b345a1a0d" target="_top" xlink:title="The method is executed first when the activity is created. ">
<polygon fill="none" stroke="black" points="617,-0.5 617,-30.5 784,-30.5 784,-0.5 617,-0.5"/>
<text text-anchor="start" x="625" y="-18.5" font-family="Helvetica,sans-Serif" font-size="10.00">org.buildmlearn.appstore.activities.</text>
<text text-anchor="middle" x="700.5" y="-7.5" font-family="Helvetica,sans-Serif" font-size="10.00">HomeActivity.onCreate</text>
</a>
</g>
</g>
<!-- Node3&#45;&gt;Node4 -->
<g id="edge3" class="edge"><title>Node3&#45;&gt;Node4</title>
<path fill="none" stroke="midnightblue" d="M591.289,-15.5C599.755,-15.5 608.334,-15.5 616.764,-15.5"/>
<polygon fill="midnightblue" stroke="midnightblue" points="591.034,-12.0001 581.034,-15.5 591.034,-19.0001 591.034,-12.0001"/>
</g>
</g>
</svg>
