<?xml version="1.0" encoding="UTF-8" standalone="no"?>
<!DOCTYPE svg PUBLIC "-//W3C//DTD SVG 1.1//EN"
 "http://www.w3.org/Graphics/SVG/1.1/DTD/svg11.dtd">
<!-- Generated by graphviz version 2.38.0 (20140413.2041)
 -->
<!-- Title: org.buildmlearn.appstore.utils.SlidingTabLayout.populateTabStrip Pages: 1 -->
<svg width="568pt" height="39pt"
 viewBox="0.00 0.00 568.00 39.00" xmlns="http://www.w3.org/2000/svg" xmlns:xlink="http://www.w3.org/1999/xlink">
<g id="graph0" class="graph" transform="scale(1 1) rotate(0) translate(4 35)">
<title>org.buildmlearn.appstore.utils.SlidingTabLayout.populateTabStrip</title>
<!-- Node1 -->
<g id="node1" class="node"><title>Node1</title>
<polygon fill="#bfbfbf" stroke="black" points="0,-0.5 0,-30.5 167,-30.5 167,-0.5 0,-0.5"/>
<text text-anchor="start" x="8" y="-18.5" font-family="Helvetica,sans-Serif" font-size="10.00">org.buildmlearn.appstore.utils.</text>
<text text-anchor="middle" x="83.5" y="-7.5" font-family="Helvetica,sans-Serif" font-size="10.00">SlidingTabLayout.populateTabStrip</text>
</g>
<!-- Node2 -->
<g id="node2" class="node"><title>Node2</title>
<g id="a_node2"><a xlink:href="../../d8/dcb/classorg_1_1buildmlearn_1_1appstore_1_1utils_1_1_sliding_tab_layout.html#a122f48ed0894e06f391afac8621a6421" target="_top" xlink:title="Sets the associated view pager. ">
<polygon fill="none" stroke="black" points="203,-0.5 203,-30.5 357,-30.5 357,-0.5 203,-0.5"/>
<text text-anchor="start" x="211" y="-18.5" font-family="Helvetica,sans-Serif" font-size="10.00">org.buildmlearn.appstore.utils.</text>
<text text-anchor="middle" x="280" y="-7.5" font-family="Helvetica,sans-Serif" font-size="10.00">SlidingTabLayout.setViewPager</text>
</a>
</g>
</g>
<!-- Node1&#45;&gt;Node2 -->
<g id="edge1" class="edge"><title>Node1&#45;&gt;Node2</title>
<path fill="none" stroke="midnightblue" d="M177.545,-15.5C186.001,-15.5 194.501,-15.5 202.786,-15.5"/>
<polygon fill="midnightblue" stroke="midnightblue" points="177.268,-12.0001 167.268,-15.5 177.268,-19.0001 177.268,-12.0001"/>
</g>
<!-- Node3 -->
<g id="node3" class="node"><title>Node3</title>
<g id="a_node3"><a xlink:href="../../d8/dfa/classorg_1_1buildmlearn_1_1appstore_1_1activities_1_1_home_activity.html#a1a3c72988991108cb3f2f70b345a1a0d" target="_top" xlink:title="The method is executed first when the activity is created. ">
<polygon fill="none" stroke="black" points="393,-0.5 393,-30.5 560,-30.5 560,-0.5 393,-0.5"/>
<text text-anchor="start" x="401" y="-18.5" font-family="Helvetica,sans-Serif" font-size="10.00">org.buildmlearn.appstore.activities.</text>
<text text-anchor="middle" x="476.5" y="-7.5" font-family="Helvetica,sans-Serif" font-size="10.00">HomeActivity.onCreate</text>
</a>
</g>
</g>
<!-- Node2&#45;&gt;Node3 -->
<g id="edge2" class="edge"><title>Node2&#45;&gt;Node3</title>
<path fill="none" stroke="midnightblue" d="M367.289,-15.5C375.755,-15.5 384.334,-15.5 392.764,-15.5"/>
<polygon fill="midnightblue" stroke="midnightblue" points="367.034,-12.0001 357.034,-15.5 367.034,-19.0001 367.034,-12.0001"/>
</g>
</g>
</svg>
