<?xml version="1.0" encoding="UTF-8" standalone="no"?>
<!DOCTYPE svg PUBLIC "-//W3C//DTD SVG 1.1//EN"
 "http://www.w3.org/Graphics/SVG/1.1/DTD/svg11.dtd">
<!-- Generated by graphviz version 2.38.0 (20140413.2041)
 -->
<!-- Title: org.buildmlearn.appstore.activities.FullScreenViewActivity.onCreate Pages: 1 -->
<svg width="558pt" height="88pt"
 viewBox="0.00 0.00 558.00 88.00" xmlns="http://www.w3.org/2000/svg" xmlns:xlink="http://www.w3.org/1999/xlink">
<g id="graph0" class="graph" transform="scale(1 1) rotate(0) translate(4 84)">
<title>org.buildmlearn.appstore.activities.FullScreenViewActivity.onCreate</title>
<!-- Node1 -->
<g id="node1" class="node"><title>Node1</title>
<polygon fill="#bfbfbf" stroke="black" points="0,-24.5 0,-54.5 167,-54.5 167,-24.5 0,-24.5"/>
<text text-anchor="start" x="8" y="-42.5" font-family="Helvetica,sans-Serif" font-size="10.00">org.buildmlearn.appstore.activities.</text>
<text text-anchor="middle" x="83.5" y="-31.5" font-family="Helvetica,sans-Serif" font-size="10.00">FullScreenViewActivity.onCreate</text>
</g>
<!-- Node2 -->
<g id="node2" class="node"><title>Node2</title>
<g id="a_node2"><a xlink:href="$dc/d8d/classorg_1_1buildmlearn_1_1appstore_1_1utils_1_1_volley_singleton.html#a0ae2f754208733f98580d31801f723c6" xlink:title="Gets the instance of the Volley. ">
<polygon fill="none" stroke="black" points="207.5,-49.5 207.5,-79.5 354.5,-79.5 354.5,-49.5 207.5,-49.5"/>
<text text-anchor="start" x="215.5" y="-67.5" font-family="Helvetica,sans-Serif" font-size="10.00">org.buildmlearn.appstore.utils.</text>
<text text-anchor="middle" x="281" y="-56.5" font-family="Helvetica,sans-Serif" font-size="10.00">VolleySingleton.getInstance</text>
</a>
</g>
</g>
<!-- Node1&#45;&gt;Node2 -->
<g id="edge1" class="edge"><title>Node1&#45;&gt;Node2</title>
<path fill="none" stroke="midnightblue" d="M167.126,-50.066C177.026,-51.332 187.139,-52.6251 197.043,-53.8917"/>
<polygon fill="midnightblue" stroke="midnightblue" points="196.909,-57.403 207.272,-55.1998 197.797,-50.4595 196.909,-57.403"/>
</g>
<!-- Node4 -->
<g id="node4" class="node"><title>Node4</title>
<g id="a_node4"><a xlink:href="$dc/d8d/classorg_1_1buildmlearn_1_1appstore_1_1utils_1_1_volley_singleton.html#ae1d23a0e0cccd5c9894722131a3ea1f0" xlink:title="Gets the ImageLoader instance of the Volley. ">
<polygon fill="none" stroke="black" points="203,-0.5 203,-30.5 359,-30.5 359,-0.5 203,-0.5"/>
<text text-anchor="start" x="211" y="-18.5" font-family="Helvetica,sans-Serif" font-size="10.00">org.buildmlearn.appstore.utils.</text>
<text text-anchor="middle" x="281" y="-7.5" font-family="Helvetica,sans-Serif" font-size="10.00">VolleySingleton.getImageLoader</text>
</a>
</g>
</g>
<!-- Node1&#45;&gt;Node4 -->
<g id="edge3" class="edge"><title>Node1&#45;&gt;Node4</title>
<path fill="none" stroke="midnightblue" d="M167.126,-29.3566C175.665,-28.3084 184.362,-27.2408 192.947,-26.1868"/>
<polygon fill="midnightblue" stroke="midnightblue" points="193.459,-29.6503 202.958,-24.9578 192.606,-22.7025 193.459,-29.6503"/>
</g>
<!-- Node3 -->
<g id="node3" class="node"><title>Node3</title>
<g id="a_node3"><a xlink:href="$dc/d8d/classorg_1_1buildmlearn_1_1appstore_1_1utils_1_1_volley_singleton.html#a701f3cfa1b0637eb979515798176e891" xlink:title="Private Constructor of the class. ">
<polygon fill="none" stroke="black" points="395,-49.5 395,-79.5 550,-79.5 550,-49.5 395,-49.5"/>
<text text-anchor="start" x="403" y="-67.5" font-family="Helvetica,sans-Serif" font-size="10.00">org.buildmlearn.appstore.utils.</text>
<text text-anchor="middle" x="472.5" y="-56.5" font-family="Helvetica,sans-Serif" font-size="10.00">VolleySingleton.VolleySingleton</text>
</a>
</g>
</g>
<!-- Node2&#45;&gt;Node3 -->
<g id="edge2" class="edge"><title>Node2&#45;&gt;Node3</title>
<path fill="none" stroke="midnightblue" d="M354.724,-64.5C364.587,-64.5 374.788,-64.5 384.865,-64.5"/>
<polygon fill="midnightblue" stroke="midnightblue" points="384.884,-68.0001 394.884,-64.5 384.884,-61.0001 384.884,-68.0001"/>
</g>
</g>
</svg>
