<?xml version="1.0" encoding="UTF-8" standalone="no"?>
<!DOCTYPE svg PUBLIC "-//W3C//DTD SVG 1.1//EN"
 "http://www.w3.org/Graphics/SVG/1.1/DTD/svg11.dtd">
<!-- Generated by graphviz version 2.38.0 (20140413.2041)
 -->
<!-- Title: org.buildmlearn.appstore.adapters.CardViewAdapter.onBindViewHolder Pages: 1 -->
<svg width="419pt" height="149pt"
 viewBox="0.00 0.00 419.00 148.50" xmlns="http://www.w3.org/2000/svg" xmlns:xlink="http://www.w3.org/1999/xlink">
<g id="graph0" class="graph" transform="scale(1 1) rotate(0) translate(4 144.5)">
<title>org.buildmlearn.appstore.adapters.CardViewAdapter.onBindViewHolder</title>
<!-- Node1 -->
<g id="node1" class="node"><title>Node1</title>
<polygon fill="#bfbfbf" stroke="black" points="0,-49.5 0,-79.5 173,-79.5 173,-49.5 0,-49.5"/>
<text text-anchor="start" x="8" y="-67.5" font-family="Helvetica,sans-Serif" font-size="10.00">org.buildmlearn.appstore.adapters.</text>
<text text-anchor="middle" x="86.5" y="-56.5" font-family="Helvetica,sans-Serif" font-size="10.00">CardViewAdapter.onBindViewHolder</text>
</g>
<!-- Node2 -->
<g id="node2" class="node"><title>Node2</title>
<g id="a_node2"><a xlink:href="$df/da8/classorg_1_1buildmlearn_1_1appstore_1_1adapters_1_1_card_view_adapter_1_1_card_view_holder.html#a6ec6705e173a9b04fa0a4d64e021ca96" xlink:title="org.buildmlearn.appstore.adapters.\lCardViewAdapter.CardViewHolder.setClick\lListener">
<polygon fill="none" stroke="black" points="209,-99 209,-140 411,-140 411,-99 209,-99"/>
<text text-anchor="start" x="217" y="-128" font-family="Helvetica,sans-Serif" font-size="10.00">org.buildmlearn.appstore.adapters.</text>
<text text-anchor="start" x="217" y="-117" font-family="Helvetica,sans-Serif" font-size="10.00">CardViewAdapter.CardViewHolder.setClick</text>
<text text-anchor="middle" x="310" y="-106" font-family="Helvetica,sans-Serif" font-size="10.00">Listener</text>
</a>
</g>
</g>
<!-- Node1&#45;&gt;Node2 -->
<g id="edge1" class="edge"><title>Node1&#45;&gt;Node2</title>
<path fill="none" stroke="midnightblue" d="M148.026,-79.529C169.097,-84.761 193.245,-90.7571 216.317,-96.4863"/>
<polygon fill="midnightblue" stroke="midnightblue" points="215.579,-99.9091 226.128,-98.9223 217.266,-93.1154 215.579,-99.9091"/>
</g>
<!-- Node3 -->
<g id="node3" class="node"><title>Node3</title>
<g id="a_node3"><a xlink:href="$d0/d60/classorg_1_1buildmlearn_1_1appstore_1_1activities_1_1_navigation_activity.html#a3819b15bd7eeb6b579ffc4ae12bb289b" xlink:title="It clears the text in the search tool and collapses the search tool. ">
<polygon fill="none" stroke="black" points="226.5,-49.5 226.5,-79.5 393.5,-79.5 393.5,-49.5 226.5,-49.5"/>
<text text-anchor="start" x="234.5" y="-67.5" font-family="Helvetica,sans-Serif" font-size="10.00">org.buildmlearn.appstore.activities.</text>
<text text-anchor="middle" x="310" y="-56.5" font-family="Helvetica,sans-Serif" font-size="10.00">NavigationActivity.clearSearch</text>
</a>
</g>
</g>
<!-- Node1&#45;&gt;Node3 -->
<g id="edge2" class="edge"><title>Node1&#45;&gt;Node3</title>
<path fill="none" stroke="midnightblue" d="M173.138,-64.5C187.146,-64.5 201.72,-64.5 215.899,-64.5"/>
<polygon fill="midnightblue" stroke="midnightblue" points="216.139,-68.0001 226.139,-64.5 216.139,-61.0001 216.139,-68.0001"/>
</g>
<!-- Node4 -->
<g id="node4" class="node"><title>Node4</title>
<g id="a_node4"><a xlink:href="$d0/da8/classorg_1_1buildmlearn_1_1appstore_1_1utils_1_1_app_reader.html#aec556fcddde1c33f82e823933f3fb1a6" xlink:title="Gets the list of Installed Apps. ">
<polygon fill="none" stroke="black" points="236.5,-0.5 236.5,-30.5 383.5,-30.5 383.5,-0.5 236.5,-0.5"/>
<text text-anchor="start" x="244.5" y="-18.5" font-family="Helvetica,sans-Serif" font-size="10.00">org.buildmlearn.appstore.utils.</text>
<text text-anchor="middle" x="310" y="-7.5" font-family="Helvetica,sans-Serif" font-size="10.00">AppReader.listApps</text>
</a>
</g>
</g>
<!-- Node1&#45;&gt;Node4 -->
<g id="edge3" class="edge"><title>Node1&#45;&gt;Node4</title>
<path fill="none" stroke="midnightblue" d="M155.463,-49.4654C179.381,-44.1741 206.447,-38.1867 231.119,-32.7288"/>
<polygon fill="midnightblue" stroke="midnightblue" points="232.158,-36.0836 241.166,-30.5062 230.646,-29.2489 232.158,-36.0836"/>
</g>
</g>
</svg>
