<?xml version="1.0" encoding="UTF-8" standalone="no"?>
<!DOCTYPE svg PUBLIC "-//W3C//DTD SVG 1.1//EN"
 "http://www.w3.org/Graphics/SVG/1.1/DTD/svg11.dtd">
<!-- Generated by graphviz version 2.38.0 (20140413.2041)
 -->
<!-- Title: org.buildmlearn.appstore.utils.VolleySingleton Pages: 1 -->
<svg width="216pt" height="99pt"
 viewBox="0.00 0.00 216.00 99.00" xmlns="http://www.w3.org/2000/svg" xmlns:xlink="http://www.w3.org/1999/xlink">
<g id="graph0" class="graph" transform="scale(1 1) rotate(0) translate(4 95)">
<title>org.buildmlearn.appstore.utils.VolleySingleton</title>
<!-- Node1 -->
<g id="node1" class="node"><title>Node1</title>
<polygon fill="#bfbfbf" stroke="black" points="0,-0.5 0,-90.5 147,-90.5 147,-0.5 0,-0.5"/>
<text text-anchor="start" x="8" y="-78.5" font-family="Helvetica,sans-Serif" font-size="10.00">org.buildmlearn.appstore.utils.</text>
<text text-anchor="middle" x="73.5" y="-67.5" font-family="Helvetica,sans-Serif" font-size="10.00">VolleySingleton</text>
<polyline fill="none" stroke="black" points="0,-60.5 147,-60.5 "/>
<text text-anchor="start" x="8" y="-48.5" font-family="Helvetica,sans-Serif" font-size="10.00">&#45; imageLoader</text>
<polyline fill="none" stroke="black" points="0,-41.5 147,-41.5 "/>
<text text-anchor="start" x="8" y="-29.5" font-family="Helvetica,sans-Serif" font-size="10.00">+ getImageLoader()</text>
<text text-anchor="start" x="8" y="-18.5" font-family="Helvetica,sans-Serif" font-size="10.00">+ getInstance()</text>
<text text-anchor="start" x="8" y="-7.5" font-family="Helvetica,sans-Serif" font-size="10.00">&#45; VolleySingleton()</text>
</g>
<!-- Node1&#45;&gt;Node1 -->
<g id="edge1" class="edge"><title>Node1&#45;&gt;Node1</title>
<path fill="none" stroke="#404040" d="M147.093,-60.7271C157.792,-58.3101 165,-53.2344 165,-45.5 165,-41.0286 162.591,-37.4457 158.491,-34.7515"/>
<polygon fill="none" stroke="#404040" points="158.261,-34.6615 151.214,-36.1901 147.093,-30.2729 154.14,-28.7443 158.261,-34.6615"/>
<text text-anchor="middle" x="186.5" y="-43" font-family="Helvetica,sans-Serif" font-size="10.00"> &#45;instance</text>
</g>
</g>
</svg>
