<?xml version="1.0" encoding="UTF-8" standalone="no"?>
<!DOCTYPE svg PUBLIC "-//W3C//DTD SVG 1.1//EN"
 "http://www.w3.org/Graphics/SVG/1.1/DTD/svg11.dtd">
<!-- Generated by graphviz version 2.38.0 (20140413.2041)
 -->
<!-- Title: org.buildmlearn.appstore.utils.AppReader.readInfoFile Pages: 1 -->
<svg width="352pt" height="235pt"
 viewBox="0.00 0.00 352.00 235.00" xmlns="http://www.w3.org/2000/svg" xmlns:xlink="http://www.w3.org/1999/xlink">
<g id="graph0" class="graph" transform="scale(1 1) rotate(0) translate(4 231)">
<title>org.buildmlearn.appstore.utils.AppReader.readInfoFile</title>
<!-- Node1 -->
<g id="node1" class="node"><title>Node1</title>
<polygon fill="#bfbfbf" stroke="black" points="0,-98.5 0,-128.5 147,-128.5 147,-98.5 0,-98.5"/>
<text text-anchor="start" x="8" y="-116.5" font-family="Helvetica,sans-Serif" font-size="10.00">org.buildmlearn.appstore.utils.</text>
<text text-anchor="middle" x="73.5" y="-105.5" font-family="Helvetica,sans-Serif" font-size="10.00">AppReader.readInfoFile</text>
</g>
<!-- Node2 -->
<g id="node2" class="node"><title>Node2</title>
<g id="a_node2"><a xlink:href="$d2/d32/classorg_1_1buildmlearn_1_1appstore_1_1models_1_1_info_model.html#a36f373dfeec1b5bb676195a047d401e5" xlink:title="org.buildmlearn.appstore.models.\lInfoModel.getInstance">
<polygon fill="none" stroke="black" points="183,-196.5 183,-226.5 344,-226.5 344,-196.5 183,-196.5"/>
<text text-anchor="start" x="191" y="-214.5" font-family="Helvetica,sans-Serif" font-size="10.00">org.buildmlearn.appstore.models.</text>
<text text-anchor="middle" x="263.5" y="-203.5" font-family="Helvetica,sans-Serif" font-size="10.00">InfoModel.getInstance</text>
</a>
</g>
</g>
<!-- Node1&#45;&gt;Node2 -->
<g id="edge1" class="edge"><title>Node1&#45;&gt;Node2</title>
<path fill="none" stroke="midnightblue" d="M93.0157,-128.754C113.795,-145.225 149.057,-171.276 183,-187.5 186.986,-189.405 191.156,-191.198 195.41,-192.878"/>
<polygon fill="midnightblue" stroke="midnightblue" points="194.224,-196.171 204.817,-196.376 196.664,-189.61 194.224,-196.171"/>
</g>
<!-- Node3 -->
<g id="node3" class="node"><title>Node3</title>
<g id="a_node3"><a xlink:href="$d2/d32/classorg_1_1buildmlearn_1_1appstore_1_1models_1_1_info_model.html#a82a660299557f895f32e3545aec2a332" xlink:title="org.buildmlearn.appstore.models.\lInfoModel.setInfoAuthor">
<polygon fill="none" stroke="black" points="183,-147.5 183,-177.5 344,-177.5 344,-147.5 183,-147.5"/>
<text text-anchor="start" x="191" y="-165.5" font-family="Helvetica,sans-Serif" font-size="10.00">org.buildmlearn.appstore.models.</text>
<text text-anchor="middle" x="263.5" y="-154.5" font-family="Helvetica,sans-Serif" font-size="10.00">InfoModel.setInfoAuthor</text>
</a>
</g>
</g>
<!-- Node1&#45;&gt;Node3 -->
<g id="edge2" class="edge"><title>Node1&#45;&gt;Node3</title>
<path fill="none" stroke="midnightblue" d="M132.184,-128.535C152.034,-133.708 174.437,-139.548 194.999,-144.907"/>
<polygon fill="midnightblue" stroke="midnightblue" points="194.366,-148.358 204.925,-147.494 196.131,-141.585 194.366,-148.358"/>
</g>
<!-- Node4 -->
<g id="node4" class="node"><title>Node4</title>
<g id="a_node4"><a xlink:href="$d2/d32/classorg_1_1buildmlearn_1_1appstore_1_1models_1_1_info_model.html#a543a7e7619f281b8a209e2c1aa7792a9" xlink:title="org.buildmlearn.appstore.models.\lInfoModel.setInfoName">
<polygon fill="none" stroke="black" points="183,-98.5 183,-128.5 344,-128.5 344,-98.5 183,-98.5"/>
<text text-anchor="start" x="191" y="-116.5" font-family="Helvetica,sans-Serif" font-size="10.00">org.buildmlearn.appstore.models.</text>
<text text-anchor="middle" x="263.5" y="-105.5" font-family="Helvetica,sans-Serif" font-size="10.00">InfoModel.setInfoName</text>
</a>
</g>
</g>
<!-- Node1&#45;&gt;Node4 -->
<g id="edge3" class="edge"><title>Node1&#45;&gt;Node4</title>
<path fill="none" stroke="midnightblue" d="M147.186,-113.5C155.578,-113.5 164.209,-113.5 172.793,-113.5"/>
<polygon fill="midnightblue" stroke="midnightblue" points="172.83,-117 182.83,-113.5 172.83,-110 172.83,-117"/>
</g>
<!-- Node5 -->
<g id="node5" class="node"><title>Node5</title>
<g id="a_node5"><a xlink:href="$d2/d32/classorg_1_1buildmlearn_1_1appstore_1_1models_1_1_info_model.html#aaa70aa18d96990e8b1f3c9867f776de5" xlink:title="org.buildmlearn.appstore.models.\lInfoModel.setInfoMap">
<polygon fill="none" stroke="black" points="183,-49.5 183,-79.5 344,-79.5 344,-49.5 183,-49.5"/>
<text text-anchor="start" x="191" y="-67.5" font-family="Helvetica,sans-Serif" font-size="10.00">org.buildmlearn.appstore.models.</text>
<text text-anchor="middle" x="263.5" y="-56.5" font-family="Helvetica,sans-Serif" font-size="10.00">InfoModel.setInfoMap</text>
</a>
</g>
</g>
<!-- Node1&#45;&gt;Node5 -->
<g id="edge4" class="edge"><title>Node1&#45;&gt;Node5</title>
<path fill="none" stroke="midnightblue" d="M132.184,-98.4654C152.034,-93.2917 174.437,-87.4525 194.999,-82.0934"/>
<polygon fill="midnightblue" stroke="midnightblue" points="196.131,-85.4152 204.925,-79.5062 194.366,-78.6415 196.131,-85.4152"/>
</g>
<!-- Node6 -->
<g id="node6" class="node"><title>Node6</title>
<g id="a_node6"><a xlink:href="$d2/d32/classorg_1_1buildmlearn_1_1appstore_1_1models_1_1_info_model.html#aa4da7a4d70aff359c4b6db2590295821" xlink:title="org.buildmlearn.appstore.models.\lInfoModel.setListTitleList">
<polygon fill="none" stroke="black" points="183,-0.5 183,-30.5 344,-30.5 344,-0.5 183,-0.5"/>
<text text-anchor="start" x="191" y="-18.5" font-family="Helvetica,sans-Serif" font-size="10.00">org.buildmlearn.appstore.models.</text>
<text text-anchor="middle" x="263.5" y="-7.5" font-family="Helvetica,sans-Serif" font-size="10.00">InfoModel.setListTitleList</text>
</a>
</g>
</g>
<!-- Node1&#45;&gt;Node6 -->
<g id="edge5" class="edge"><title>Node1&#45;&gt;Node6</title>
<path fill="none" stroke="midnightblue" d="M93.467,-98.2473C114.356,-82.0625 149.448,-56.6437 183,-40.5 187.687,-38.2446 192.626,-36.1296 197.654,-34.1601"/>
<polygon fill="midnightblue" stroke="midnightblue" points="199.227,-37.3098 207.387,-30.5531 196.794,-30.746 199.227,-37.3098"/>
</g>
</g>
</svg>
