<?xml version="1.0" encoding="UTF-8" standalone="no"?>
<!DOCTYPE svg PUBLIC "-//W3C//DTD SVG 1.1//EN"
 "http://www.w3.org/Graphics/SVG/1.1/DTD/svg11.dtd">
<!-- Generated by graphviz version 2.38.0 (20140413.2041)
 -->
<!-- Title: org.buildmlearn.appstore.utils.AppReader.readQuizFile Pages: 1 -->
<svg width="535pt" height="323pt"
 viewBox="0.00 0.00 535.00 323.00" xmlns="http://www.w3.org/2000/svg" xmlns:xlink="http://www.w3.org/1999/xlink">
<g id="graph0" class="graph" transform="scale(1 1) rotate(0) translate(4 319)">
<title>org.buildmlearn.appstore.utils.AppReader.readQuizFile</title>
<!-- Node1 -->
<g id="node1" class="node"><title>Node1</title>
<polygon fill="#bfbfbf" stroke="black" points="0,-137.5 0,-167.5 147,-167.5 147,-137.5 0,-137.5"/>
<text text-anchor="start" x="8" y="-155.5" font-family="Helvetica,sans-Serif" font-size="10.00">org.buildmlearn.appstore.utils.</text>
<text text-anchor="middle" x="73.5" y="-144.5" font-family="Helvetica,sans-Serif" font-size="10.00">AppReader.readQuizFile</text>
</g>
<!-- Node2 -->
<g id="node2" class="node"><title>Node2</title>
<g id="a_node2"><a xlink:href="$da/d2e/classorg_1_1buildmlearn_1_1appstore_1_1models_1_1_quiz_model.html#afd56bc8e8b1e5fdd506622bae6362f73" xlink:title="org.buildmlearn.appstore.models.\lQuizModel.getInstance">
<polygon fill="none" stroke="black" points="183,-284.5 183,-314.5 344,-314.5 344,-284.5 183,-284.5"/>
<text text-anchor="start" x="191" y="-302.5" font-family="Helvetica,sans-Serif" font-size="10.00">org.buildmlearn.appstore.models.</text>
<text text-anchor="middle" x="263.5" y="-291.5" font-family="Helvetica,sans-Serif" font-size="10.00">QuizModel.getInstance</text>
</a>
</g>
</g>
<!-- Node1&#45;&gt;Node2 -->
<g id="edge1" class="edge"><title>Node1&#45;&gt;Node2</title>
<path fill="none" stroke="midnightblue" d="M83.8629,-167.805C100.551,-193.805 137.947,-246.586 183,-275.5 185.586,-277.16 188.292,-278.709 191.081,-280.156"/>
<polygon fill="midnightblue" stroke="midnightblue" points="189.681,-283.365 200.222,-284.432 192.648,-277.024 189.681,-283.365"/>
</g>
<!-- Node3 -->
<g id="node3" class="node"><title>Node3</title>
<g id="a_node3"><a xlink:href="$d6/d02/classorg_1_1buildmlearn_1_1appstore_1_1utils_1_1_x_m_l_parser.html#a15a8449f10403c80625319062f73432e" xlink:title="Gets the Document object from the xml string. ">
<polygon fill="none" stroke="black" points="190,-235.5 190,-265.5 337,-265.5 337,-235.5 190,-235.5"/>
<text text-anchor="start" x="198" y="-253.5" font-family="Helvetica,sans-Serif" font-size="10.00">org.buildmlearn.appstore.utils.</text>
<text text-anchor="middle" x="263.5" y="-242.5" font-family="Helvetica,sans-Serif" font-size="10.00">XMLParser.getDomElement</text>
</a>
</g>
</g>
<!-- Node1&#45;&gt;Node3 -->
<g id="edge2" class="edge"><title>Node1&#45;&gt;Node3</title>
<path fill="none" stroke="midnightblue" d="M93.0157,-167.754C113.795,-184.225 149.057,-210.276 183,-226.5 186.986,-228.405 191.156,-230.198 195.41,-231.878"/>
<polygon fill="midnightblue" stroke="midnightblue" points="194.224,-235.171 204.817,-235.376 196.664,-228.61 194.224,-235.171"/>
</g>
<!-- Node4 -->
<g id="node4" class="node"><title>Node4</title>
<g id="a_node4"><a xlink:href="$da/d2e/classorg_1_1buildmlearn_1_1appstore_1_1models_1_1_quiz_model.html#aad4ec9d0c34fbc5dbcddd9d57eb527b7" xlink:title="org.buildmlearn.appstore.models.\lQuizModel.setQuizAuthor">
<polygon fill="none" stroke="black" points="183,-186.5 183,-216.5 344,-216.5 344,-186.5 183,-186.5"/>
<text text-anchor="start" x="191" y="-204.5" font-family="Helvetica,sans-Serif" font-size="10.00">org.buildmlearn.appstore.models.</text>
<text text-anchor="middle" x="263.5" y="-193.5" font-family="Helvetica,sans-Serif" font-size="10.00">QuizModel.setQuizAuthor</text>
</a>
</g>
</g>
<!-- Node1&#45;&gt;Node4 -->
<g id="edge3" class="edge"><title>Node1&#45;&gt;Node4</title>
<path fill="none" stroke="midnightblue" d="M132.184,-167.535C152.034,-172.708 174.437,-178.548 194.999,-183.907"/>
<polygon fill="midnightblue" stroke="midnightblue" points="194.366,-187.358 204.925,-186.494 196.131,-180.585 194.366,-187.358"/>
</g>
<!-- Node5 -->
<g id="node5" class="node"><title>Node5</title>
<g id="a_node5"><a xlink:href="$d6/d02/classorg_1_1buildmlearn_1_1appstore_1_1utils_1_1_x_m_l_parser.html#a42151792145130629c7bf2a16b2885bc" xlink:title="Gets the value of the item from the Document object. ">
<polygon fill="none" stroke="black" points="190,-137.5 190,-167.5 337,-167.5 337,-137.5 190,-137.5"/>
<text text-anchor="start" x="198" y="-155.5" font-family="Helvetica,sans-Serif" font-size="10.00">org.buildmlearn.appstore.utils.</text>
<text text-anchor="middle" x="263.5" y="-144.5" font-family="Helvetica,sans-Serif" font-size="10.00">XMLParser.getValue</text>
</a>
</g>
</g>
<!-- Node1&#45;&gt;Node5 -->
<g id="edge4" class="edge"><title>Node1&#45;&gt;Node5</title>
<path fill="none" stroke="midnightblue" d="M147.186,-152.5C157.756,-152.5 168.707,-152.5 179.463,-152.5"/>
<polygon fill="midnightblue" stroke="midnightblue" points="179.698,-156 189.698,-152.5 179.698,-149 179.698,-156"/>
</g>
<!-- Node6 -->
<g id="node6" class="node"><title>Node6</title>
<g id="a_node6"><a xlink:href="$d6/d02/classorg_1_1buildmlearn_1_1appstore_1_1utils_1_1_x_m_l_parser.html#a623e2412cff7b8ab44947732d167feef" xlink:title="Gets the element value of the node. ">
<polygon fill="none" stroke="black" points="380,-115.5 380,-145.5 527,-145.5 527,-115.5 380,-115.5"/>
<text text-anchor="start" x="388" y="-133.5" font-family="Helvetica,sans-Serif" font-size="10.00">org.buildmlearn.appstore.utils.</text>
<text text-anchor="middle" x="453.5" y="-122.5" font-family="Helvetica,sans-Serif" font-size="10.00">XMLParser.getElementValue</text>
</a>
</g>
</g>
<!-- Node1&#45;&gt;Node6 -->
<g id="edge7" class="edge"><title>Node1&#45;&gt;Node6</title>
<path fill="none" stroke="midnightblue" d="M131.547,-137.441C148.029,-133.757 166.123,-130.344 183,-128.5 245.377,-121.684 316.358,-122.558 369.811,-124.935"/>
<polygon fill="midnightblue" stroke="midnightblue" points="369.767,-128.437 379.921,-125.412 370.097,-121.445 369.767,-128.437"/>
</g>
<!-- Node7 -->
<g id="node7" class="node"><title>Node7</title>
<g id="a_node7"><a xlink:href="$da/d2e/classorg_1_1buildmlearn_1_1appstore_1_1models_1_1_quiz_model.html#a27d28892237a29ae8f3c80aa389c275d" xlink:title="org.buildmlearn.appstore.models.\lQuizModel.setQuizName">
<polygon fill="none" stroke="black" points="183,-49.5 183,-79.5 344,-79.5 344,-49.5 183,-49.5"/>
<text text-anchor="start" x="191" y="-67.5" font-family="Helvetica,sans-Serif" font-size="10.00">org.buildmlearn.appstore.models.</text>
<text text-anchor="middle" x="263.5" y="-56.5" font-family="Helvetica,sans-Serif" font-size="10.00">QuizModel.setQuizName</text>
</a>
</g>
</g>
<!-- Node1&#45;&gt;Node7 -->
<g id="edge6" class="edge"><title>Node1&#45;&gt;Node7</title>
<path fill="none" stroke="midnightblue" d="M100.33,-137.463C122.017,-125.139 154.017,-107.648 183,-94.5 191.675,-90.5649 201.031,-86.7063 210.173,-83.1359"/>
<polygon fill="midnightblue" stroke="midnightblue" points="211.501,-86.3756 219.586,-79.5285 208.995,-79.8392 211.501,-86.3756"/>
</g>
<!-- Node8 -->
<g id="node8" class="node"><title>Node8</title>
<g id="a_node8"><a xlink:href="$da/d2e/classorg_1_1buildmlearn_1_1appstore_1_1models_1_1_quiz_model.html#aca9fbcfac76bcc6f0049d1c4bfc75826" xlink:title="org.buildmlearn.appstore.models.\lQuizModel.setQueAnsList">
<polygon fill="none" stroke="black" points="183,-0.5 183,-30.5 344,-30.5 344,-0.5 183,-0.5"/>
<text text-anchor="start" x="191" y="-18.5" font-family="Helvetica,sans-Serif" font-size="10.00">org.buildmlearn.appstore.models.</text>
<text text-anchor="middle" x="263.5" y="-7.5" font-family="Helvetica,sans-Serif" font-size="10.00">QuizModel.setQueAnsList</text>
</a>
</g>
</g>
<!-- Node1&#45;&gt;Node8 -->
<g id="edge8" class="edge"><title>Node1&#45;&gt;Node8</title>
<path fill="none" stroke="midnightblue" d="M85.3607,-137.114C103.105,-113.076 140.611,-66.6628 183,-40.5 186.367,-38.4221 189.921,-36.5029 193.585,-34.7322"/>
<polygon fill="midnightblue" stroke="midnightblue" points="195.138,-37.8722 202.872,-30.6306 192.31,-31.4689 195.138,-37.8722"/>
</g>
<!-- Node5&#45;&gt;Node6 -->
<g id="edge5" class="edge"><title>Node5&#45;&gt;Node6</title>
<path fill="none" stroke="midnightblue" d="M337.186,-143.994C347.756,-142.757 358.707,-141.476 369.463,-140.217"/>
<polygon fill="midnightblue" stroke="midnightblue" points="370.172,-143.658 379.698,-139.019 369.359,-136.706 370.172,-143.658"/>
</g>
</g>
</svg>
