<?xml version="1.0" encoding="UTF-8" standalone="no"?>
<!DOCTYPE svg PUBLIC "-//W3C//DTD SVG 1.1//EN"
 "http://www.w3.org/Graphics/SVG/1.1/DTD/svg11.dtd">
<!-- Generated by graphviz version 2.38.0 (20140413.2041)
 -->
<!-- Title: org.buildmlearn.appstore.models.SpellingsModel.getSpellingsList Pages: 1 -->
<svg width="372pt" height="137pt"
 viewBox="0.00 0.00 372.00 137.00" xmlns="http://www.w3.org/2000/svg" xmlns:xlink="http://www.w3.org/1999/xlink">
<g id="graph0" class="graph" transform="scale(1 1) rotate(0) translate(4 133)">
<title>org.buildmlearn.appstore.models.SpellingsModel.getSpellingsList</title>
<!-- Node1 -->
<g id="node1" class="node"><title>Node1</title>
<polygon fill="#bfbfbf" stroke="black" points="0,-49.5 0,-79.5 161,-79.5 161,-49.5 0,-49.5"/>
<text text-anchor="start" x="8" y="-67.5" font-family="Helvetica,sans-Serif" font-size="10.00">org.buildmlearn.appstore.models.</text>
<text text-anchor="middle" x="80.5" y="-56.5" font-family="Helvetica,sans-Serif" font-size="10.00">SpellingsModel.getSpellingsList</text>
</g>
<!-- Node2 -->
<g id="node2" class="node"><title>Node2</title>
<g id="a_node2"><a xlink:href="$df/dcb/classorg_1_1buildmlearn_1_1appstore_1_1activities_1_1_score_activity.html#ac45846f5044d122523a51f69bf838d8b" xlink:title="The method is executed first when the activity is created. ">
<polygon fill="none" stroke="black" points="197,-98.5 197,-128.5 364,-128.5 364,-98.5 197,-98.5"/>
<text text-anchor="start" x="205" y="-116.5" font-family="Helvetica,sans-Serif" font-size="10.00">org.buildmlearn.appstore.activities.</text>
<text text-anchor="middle" x="280.5" y="-105.5" font-family="Helvetica,sans-Serif" font-size="10.00">ScoreActivity.onCreate</text>
</a>
</g>
</g>
<!-- Node1&#45;&gt;Node2 -->
<g id="edge1" class="edge"><title>Node1&#45;&gt;Node2</title>
<path fill="none" stroke="midnightblue" d="M152.121,-81.9768C173.944,-87.3775 197.777,-93.2755 218.863,-98.4938"/>
<polygon fill="midnightblue" stroke="midnightblue" points="152.8,-78.5395 142.252,-79.5346 151.118,-85.3345 152.8,-78.5395"/>
</g>
<!-- Node3 -->
<g id="node3" class="node"><title>Node3</title>
<g id="a_node3"><a xlink:href="$d9/dca/classorg_1_1buildmlearn_1_1appstore_1_1activities_1_1_spelling_activity.html#ab11f98527ad998adcb11f119d815945e" xlink:title="The method is executed first when the activity is created. ">
<polygon fill="none" stroke="black" points="197,-49.5 197,-79.5 364,-79.5 364,-49.5 197,-49.5"/>
<text text-anchor="start" x="205" y="-67.5" font-family="Helvetica,sans-Serif" font-size="10.00">org.buildmlearn.appstore.activities.</text>
<text text-anchor="middle" x="280.5" y="-56.5" font-family="Helvetica,sans-Serif" font-size="10.00">SpellingActivity.onCreate</text>
</a>
</g>
</g>
<!-- Node1&#45;&gt;Node3 -->
<g id="edge2" class="edge"><title>Node1&#45;&gt;Node3</title>
<path fill="none" stroke="midnightblue" d="M171.413,-64.5C179.854,-64.5 188.383,-64.5 196.753,-64.5"/>
<polygon fill="midnightblue" stroke="midnightblue" points="171.178,-61.0001 161.178,-64.5 171.178,-68.0001 171.178,-61.0001"/>
</g>
<!-- Node4 -->
<g id="node4" class="node"><title>Node4</title>
<g id="a_node4"><a xlink:href="$d2/d2d/classorg_1_1buildmlearn_1_1appstore_1_1activities_1_1_word_info_activity.html#a84c1bc2dbaad02b74b37c6390bf8380f" xlink:title="The method is executed first when the activity is created. ">
<polygon fill="none" stroke="black" points="197,-0.5 197,-30.5 364,-30.5 364,-0.5 197,-0.5"/>
<text text-anchor="start" x="205" y="-18.5" font-family="Helvetica,sans-Serif" font-size="10.00">org.buildmlearn.appstore.activities.</text>
<text text-anchor="middle" x="280.5" y="-7.5" font-family="Helvetica,sans-Serif" font-size="10.00">WordInfoActivity.onCreate</text>
</a>
</g>
</g>
<!-- Node1&#45;&gt;Node4 -->
<g id="edge3" class="edge"><title>Node1&#45;&gt;Node4</title>
<path fill="none" stroke="midnightblue" d="M152.121,-47.0232C173.944,-41.6225 197.777,-35.7245 218.863,-30.5062"/>
<polygon fill="midnightblue" stroke="midnightblue" points="151.118,-43.6655 142.252,-49.4654 152.8,-50.4605 151.118,-43.6655"/>
</g>
</g>
</svg>
