<?xml version="1.0" encoding="UTF-8" standalone="no"?>
<!DOCTYPE svg PUBLIC "-//W3C//DTD SVG 1.1//EN"
 "http://www.w3.org/Graphics/SVG/1.1/DTD/svg11.dtd">
<!-- Generated by graphviz version 2.38.0 (20140413.2041)
 -->
<!-- Title: org.buildmlearn.appstore.utils.AppReader.readSpellingsContent Pages: 1 -->
<svg width="548pt" height="284pt"
 viewBox="0.00 0.00 548.00 284.00" xmlns="http://www.w3.org/2000/svg" xmlns:xlink="http://www.w3.org/1999/xlink">
<g id="graph0" class="graph" transform="scale(1 1) rotate(0) translate(4 280)">
<title>org.buildmlearn.appstore.utils.AppReader.readSpellingsContent</title>
<!-- Node1 -->
<g id="node1" class="node"><title>Node1</title>
<polygon fill="#bfbfbf" stroke="black" points="0,-122.5 0,-152.5 160,-152.5 160,-122.5 0,-122.5"/>
<text text-anchor="start" x="8" y="-140.5" font-family="Helvetica,sans-Serif" font-size="10.00">org.buildmlearn.appstore.utils.</text>
<text text-anchor="middle" x="80" y="-129.5" font-family="Helvetica,sans-Serif" font-size="10.00">AppReader.readSpellingsContent</text>
</g>
<!-- Node2 -->
<g id="node2" class="node"><title>Node2</title>
<g id="a_node2"><a xlink:href="../../d9/d29/classorg_1_1buildmlearn_1_1appstore_1_1models_1_1_spellings_model.html#af291064e82c76410196621b65c4703fb" target="_top" xlink:title="org.buildmlearn.appstore.models.\lSpellingsModel.getInstance">
<polygon fill="none" stroke="black" points="196,-245.5 196,-275.5 357,-275.5 357,-245.5 196,-245.5"/>
<text text-anchor="start" x="204" y="-263.5" font-family="Helvetica,sans-Serif" font-size="10.00">org.buildmlearn.appstore.models.</text>
<text text-anchor="middle" x="276.5" y="-252.5" font-family="Helvetica,sans-Serif" font-size="10.00">SpellingsModel.getInstance</text>
</a>
</g>
</g>
<!-- Node1&#45;&gt;Node2 -->
<g id="edge1" class="edge"><title>Node1&#45;&gt;Node2</title>
<path fill="none" stroke="midnightblue" d="M94.7336,-152.823C114.908,-174.449 154.661,-213.81 196,-236.5 199.29,-238.306 202.733,-239.993 206.264,-241.566"/>
<polygon fill="midnightblue" stroke="midnightblue" points="205.19,-244.908 215.77,-245.469 207.849,-238.433 205.19,-244.908"/>
</g>
<!-- Node3 -->
<g id="node3" class="node"><title>Node3</title>
<g id="a_node3"><a xlink:href="../../d6/d02/classorg_1_1buildmlearn_1_1appstore_1_1utils_1_1_x_m_l_parser.html#a15a8449f10403c80625319062f73432e" target="_top" xlink:title="Gets the Document object from the xml string. ">
<polygon fill="none" stroke="black" points="203,-196.5 203,-226.5 350,-226.5 350,-196.5 203,-196.5"/>
<text text-anchor="start" x="211" y="-214.5" font-family="Helvetica,sans-Serif" font-size="10.00">org.buildmlearn.appstore.utils.</text>
<text text-anchor="middle" x="276.5" y="-203.5" font-family="Helvetica,sans-Serif" font-size="10.00">XMLParser.getDomElement</text>
</a>
</g>
</g>
<!-- Node1&#45;&gt;Node3 -->
<g id="edge2" class="edge"><title>Node1&#45;&gt;Node3</title>
<path fill="none" stroke="midnightblue" d="M112.813,-152.528C135.675,-163.032 167.386,-177.001 196,-187.5 201.463,-189.504 207.179,-191.473 212.933,-193.368"/>
<polygon fill="midnightblue" stroke="midnightblue" points="212.023,-196.752 222.614,-196.48 214.165,-190.087 212.023,-196.752"/>
</g>
<!-- Node4 -->
<g id="node4" class="node"><title>Node4</title>
<g id="a_node4"><a xlink:href="../../d9/d29/classorg_1_1buildmlearn_1_1appstore_1_1models_1_1_spellings_model.html#a3a314993416a721ead3b5d8e0a877ed8" target="_top" xlink:title="org.buildmlearn.appstore.models.\lSpellingsModel.setPuzzleAuthor">
<polygon fill="none" stroke="black" points="196,-147.5 196,-177.5 357,-177.5 357,-147.5 196,-147.5"/>
<text text-anchor="start" x="204" y="-165.5" font-family="Helvetica,sans-Serif" font-size="10.00">org.buildmlearn.appstore.models.</text>
<text text-anchor="middle" x="276.5" y="-154.5" font-family="Helvetica,sans-Serif" font-size="10.00">SpellingsModel.setPuzzleAuthor</text>
</a>
</g>
</g>
<!-- Node1&#45;&gt;Node4 -->
<g id="edge3" class="edge"><title>Node1&#45;&gt;Node4</title>
<path fill="none" stroke="midnightblue" d="M160.111,-147.668C168.577,-148.757 177.234,-149.869 185.811,-150.972"/>
<polygon fill="midnightblue" stroke="midnightblue" points="185.464,-154.456 195.828,-152.259 186.356,-147.513 185.464,-154.456"/>
</g>
<!-- Node5 -->
<g id="node5" class="node"><title>Node5</title>
<g id="a_node5"><a xlink:href="../../d6/d02/classorg_1_1buildmlearn_1_1appstore_1_1utils_1_1_x_m_l_parser.html#a42151792145130629c7bf2a16b2885bc" target="_top" xlink:title="Gets the value of the item from the Document object. ">
<polygon fill="none" stroke="black" points="203,-98.5 203,-128.5 350,-128.5 350,-98.5 203,-98.5"/>
<text text-anchor="start" x="211" y="-116.5" font-family="Helvetica,sans-Serif" font-size="10.00">org.buildmlearn.appstore.utils.</text>
<text text-anchor="middle" x="276.5" y="-105.5" font-family="Helvetica,sans-Serif" font-size="10.00">XMLParser.getValue</text>
</a>
</g>
</g>
<!-- Node1&#45;&gt;Node5 -->
<g id="edge4" class="edge"><title>Node1&#45;&gt;Node5</title>
<path fill="none" stroke="midnightblue" d="M160.111,-127.738C170.791,-126.42 181.773,-125.065 192.518,-123.739"/>
<polygon fill="midnightblue" stroke="midnightblue" points="193.234,-127.178 202.73,-122.479 192.376,-120.23 193.234,-127.178"/>
</g>
<!-- Node7 -->
<g id="node7" class="node"><title>Node7</title>
<g id="a_node7"><a xlink:href="../../d9/d29/classorg_1_1buildmlearn_1_1appstore_1_1models_1_1_spellings_model.html#abb5a9649c871924119470ad500077374" target="_top" xlink:title="org.buildmlearn.appstore.models.\lSpellingsModel.setPuzzleName">
<polygon fill="none" stroke="black" points="196,-49.5 196,-79.5 357,-79.5 357,-49.5 196,-49.5"/>
<text text-anchor="start" x="204" y="-67.5" font-family="Helvetica,sans-Serif" font-size="10.00">org.buildmlearn.appstore.models.</text>
<text text-anchor="middle" x="276.5" y="-56.5" font-family="Helvetica,sans-Serif" font-size="10.00">SpellingsModel.setPuzzleName</text>
</a>
</g>
</g>
<!-- Node1&#45;&gt;Node7 -->
<g id="edge6" class="edge"><title>Node1&#45;&gt;Node7</title>
<path fill="none" stroke="midnightblue" d="M114.897,-122.398C137.633,-112.506 168.361,-99.5903 196,-89.5 202.301,-87.1998 208.927,-84.9128 215.553,-82.7097"/>
<polygon fill="midnightblue" stroke="midnightblue" points="216.806,-85.9825 225.225,-79.5501 214.632,-79.3286 216.806,-85.9825"/>
</g>
<!-- Node8 -->
<g id="node8" class="node"><title>Node8</title>
<g id="a_node8"><a xlink:href="../../d9/d29/classorg_1_1buildmlearn_1_1appstore_1_1models_1_1_spellings_model.html#a534bcc5c59d7c6f2016f1f10bdee5dca" target="_top" xlink:title="org.buildmlearn.appstore.models.\lSpellingsModel.setSpellingsList">
<polygon fill="none" stroke="black" points="196,-0.5 196,-30.5 357,-30.5 357,-0.5 196,-0.5"/>
<text text-anchor="start" x="204" y="-18.5" font-family="Helvetica,sans-Serif" font-size="10.00">org.buildmlearn.appstore.models.</text>
<text text-anchor="middle" x="276.5" y="-7.5" font-family="Helvetica,sans-Serif" font-size="10.00">SpellingsModel.setSpellingsList</text>
</a>
</g>
</g>
<!-- Node1&#45;&gt;Node8 -->
<g id="edge7" class="edge"><title>Node1&#45;&gt;Node8</title>
<path fill="none" stroke="midnightblue" d="M95.1758,-122.211C115.576,-101.045 155.259,-62.8989 196,-40.5 199.958,-38.3239 204.133,-36.3067 208.413,-34.4421"/>
<polygon fill="midnightblue" stroke="midnightblue" points="209.95,-37.596 217.908,-30.6013 207.325,-31.1068 209.95,-37.596"/>
</g>
<!-- Node6 -->
<g id="node6" class="node"><title>Node6</title>
<g id="a_node6"><a xlink:href="../../d6/d02/classorg_1_1buildmlearn_1_1appstore_1_1utils_1_1_x_m_l_parser.html#a623e2412cff7b8ab44947732d167feef" target="_top" xlink:title="Gets the element value of the node. ">
<polygon fill="none" stroke="black" points="393,-98.5 393,-128.5 540,-128.5 540,-98.5 393,-98.5"/>
<text text-anchor="start" x="401" y="-116.5" font-family="Helvetica,sans-Serif" font-size="10.00">org.buildmlearn.appstore.utils.</text>
<text text-anchor="middle" x="466.5" y="-105.5" font-family="Helvetica,sans-Serif" font-size="10.00">XMLParser.getElementValue</text>
</a>
</g>
</g>
<!-- Node5&#45;&gt;Node6 -->
<g id="edge5" class="edge"><title>Node5&#45;&gt;Node6</title>
<path fill="none" stroke="midnightblue" d="M350.186,-113.5C360.756,-113.5 371.707,-113.5 382.463,-113.5"/>
<polygon fill="midnightblue" stroke="midnightblue" points="382.698,-117 392.698,-113.5 382.698,-110 382.698,-117"/>
</g>
</g>
</svg>
