<?xml version="1.0" encoding="UTF-8" standalone="no"?>
<!DOCTYPE svg PUBLIC "-//W3C//DTD SVG 1.1//EN"
 "http://www.w3.org/Graphics/SVG/1.1/DTD/svg11.dtd">
<!-- Generated by graphviz version 2.38.0 (20140413.2041)
 -->
<!-- Title: org.buildmlearn.appstore.utils.AppReader.listApps Pages: 1 -->
<svg width="380pt" height="137pt"
 viewBox="0.00 0.00 380.00 137.00" xmlns="http://www.w3.org/2000/svg" xmlns:xlink="http://www.w3.org/1999/xlink">
<g id="graph0" class="graph" transform="scale(1 1) rotate(0) translate(4 133)">
<title>org.buildmlearn.appstore.utils.AppReader.listApps</title>
<!-- Node1 -->
<g id="node1" class="node"><title>Node1</title>
<polygon fill="#bfbfbf" stroke="black" points="0,-49.5 0,-79.5 147,-79.5 147,-49.5 0,-49.5"/>
<text text-anchor="start" x="8" y="-67.5" font-family="Helvetica,sans-Serif" font-size="10.00">org.buildmlearn.appstore.utils.</text>
<text text-anchor="middle" x="73.5" y="-56.5" font-family="Helvetica,sans-Serif" font-size="10.00">AppReader.listApps</text>
</g>
<!-- Node2 -->
<g id="node2" class="node"><title>Node2</title>
<g id="a_node2"><a xlink:href="../../dd/d52/classorg_1_1buildmlearn_1_1appstore_1_1activities_1_1_app_details.html#a5496a1ae07afc43ae065d908ceea260b" target="_top" xlink:title="The method is executed first when the activity is created. ">
<polygon fill="none" stroke="black" points="194,-98.5 194,-128.5 361,-128.5 361,-98.5 194,-98.5"/>
<text text-anchor="start" x="202" y="-116.5" font-family="Helvetica,sans-Serif" font-size="10.00">org.buildmlearn.appstore.activities.</text>
<text text-anchor="middle" x="277.5" y="-105.5" font-family="Helvetica,sans-Serif" font-size="10.00">AppDetails.onCreate</text>
</a>
</g>
</g>
<!-- Node1&#45;&gt;Node2 -->
<g id="edge1" class="edge"><title>Node1&#45;&gt;Node2</title>
<path fill="none" stroke="midnightblue" d="M146.246,-81.9038C168.592,-87.3243 193.029,-93.252 214.638,-98.4938"/>
<polygon fill="midnightblue" stroke="midnightblue" points="147.023,-78.4907 136.479,-79.5346 145.372,-85.2934 147.023,-78.4907"/>
</g>
<!-- Node3 -->
<g id="node3" class="node"><title>Node3</title>
<g id="a_node3"><a xlink:href="../../d5/d3c/classorg_1_1buildmlearn_1_1appstore_1_1adapters_1_1_card_view_adapter.html#a2c54de70fff6623b6c325037c947a13f" target="_top" xlink:title="Binds content to the cardviewholder object. ">
<polygon fill="none" stroke="black" points="191,-49.5 191,-79.5 364,-79.5 364,-49.5 191,-49.5"/>
<text text-anchor="start" x="199" y="-67.5" font-family="Helvetica,sans-Serif" font-size="10.00">org.buildmlearn.appstore.adapters.</text>
<text text-anchor="middle" x="277.5" y="-56.5" font-family="Helvetica,sans-Serif" font-size="10.00">CardViewAdapter.onBindViewHolder</text>
</a>
</g>
</g>
<!-- Node1&#45;&gt;Node3 -->
<g id="edge2" class="edge"><title>Node1&#45;&gt;Node3</title>
<path fill="none" stroke="midnightblue" d="M157.199,-64.5C168.262,-64.5 179.627,-64.5 190.741,-64.5"/>
<polygon fill="midnightblue" stroke="midnightblue" points="157.141,-61.0001 147.141,-64.5 157.141,-68.0001 157.141,-61.0001"/>
</g>
<!-- Node4 -->
<g id="node4" class="node"><title>Node4</title>
<g id="a_node4"><a xlink:href="../../dc/d6e/classorg_1_1buildmlearn_1_1appstore_1_1adapters_1_1_my_apps_view_adapter.html#ab95b082936ebfbe1ca7120428e7024d7" target="_top" xlink:title="Binds the content to the view. ">
<polygon fill="none" stroke="black" points="183,-0.5 183,-30.5 372,-30.5 372,-0.5 183,-0.5"/>
<text text-anchor="start" x="191" y="-18.5" font-family="Helvetica,sans-Serif" font-size="10.00">org.buildmlearn.appstore.adapters.</text>
<text text-anchor="middle" x="277.5" y="-7.5" font-family="Helvetica,sans-Serif" font-size="10.00">MyAppsViewAdapter.onBindViewHolder</text>
</a>
</g>
</g>
<!-- Node1&#45;&gt;Node4 -->
<g id="edge3" class="edge"><title>Node1&#45;&gt;Node4</title>
<path fill="none" stroke="midnightblue" d="M146.246,-47.0962C168.592,-41.6757 193.029,-35.748 214.638,-30.5062"/>
<polygon fill="midnightblue" stroke="midnightblue" points="145.372,-43.7066 136.479,-49.4654 147.023,-50.5093 145.372,-43.7066"/>
</g>
</g>
</svg>
