<?xml version="1.0" encoding="UTF-8" standalone="no"?>
<!DOCTYPE svg PUBLIC "-//W3C//DTD SVG 1.1//EN"
 "http://www.w3.org/Graphics/SVG/1.1/DTD/svg11.dtd">
<!-- Generated by graphviz version 2.38.0 (20140413.2041)
 -->
<!-- Title: org.buildmlearn.appstore.utils.AppReader.readFlashContent Pages: 1 -->
<!--zoomable 284 -->
<svg id="main" version="1.1" xmlns="http://www.w3.org/2000/svg" xmlns:xlink="http://www.w3.org/1999/xlink" xml:space="preserve" onload="init(evt)">
<style type="text/css"><![CDATA[
.edge:hover path { stroke: red; }
.edge:hover polygon { stroke: red; fill: red; }
]]></style>
<script type="text/javascript"><![CDATA[
var edges = document.getElementsByTagName('g');
if (edges && edges.length) {
  for (var i=0;i<edges.length;i++) {
    if (edges[i].id.substr(0,4)=='edge') {
      edges[i].setAttribute('class','edge');
    }
  }
}
]]></script>
        <defs>
                <circle id="rim" cx="0" cy="0" r="7"/>
                <circle id="rim2" cx="0" cy="0" r="3.5"/>
                <g id="zoomPlus">
                        <use xlink:href="#rim" fill="#404040">
                                <set attributeName="fill" to="#808080" begin="zoomplus.mouseover" end="zoomplus.mouseout"/>
                        </use>
                        <path d="M-4,0h8M0,-4v8" fill="none" stroke="white" stroke-width="1.5" pointer-events="none"/>
                </g>
                <g id="zoomMin">
                        <use xlink:href="#rim" fill="#404040">
                                <set attributeName="fill" to="#808080" begin="zoomminus.mouseover" end="zoomminus.mouseout"/>
                        </use>
                        <path d="M-4,0h8" fill="none" stroke="white" stroke-width="1.5" pointer-events="none"/>
                </g>
                <g id="dirArrow">
                        <path fill="none" stroke="white" stroke-width="1.5" d="M0,-3.0v7 M-2.5,-0.5L0,-3.0L2.5,-0.5"/>
                </g>
               <g id="resetDef">
                       <use xlink:href="#rim2" fill="#404040">
                               <set attributeName="fill" to="#808080" begin="reset.mouseover" end="reset.mouseout"/>
                       </use>
               </g>
        </defs>

<script type="text/javascript">
var viewWidth = 535;
var viewHeight = 284;
var sectionId = 'dynsection-2';
</script>
<script xlink:href="../../svgpan.js"/>
<svg id="graph" class="graph">
<g id="viewport">
<title>org.buildmlearn.appstore.utils.AppReader.readFlashContent</title>
<!-- Node1 -->
<g id="node1" class="node"><title>Node1</title>
<polygon fill="#bfbfbf" stroke="black" points="0,-122.5 0,-152.5 147,-152.5 147,-122.5 0,-122.5"/>
<text text-anchor="start" x="8" y="-140.5" font-family="Helvetica,sans-Serif" font-size="10.00">org.buildmlearn.appstore.utils.</text>
<text text-anchor="middle" x="73.5" y="-129.5" font-family="Helvetica,sans-Serif" font-size="10.00">AppReader.readFlashContent</text>
</g>
<!-- Node2 -->
<g id="node2" class="node"><title>Node2</title>
<g id="a_node2"><a xlink:href="../../d9/d64/classorg_1_1buildmlearn_1_1appstore_1_1models_1_1_flash_model.html#ad7225d1b4d75db6f5ce8755339783f28" target="_top" xlink:title="org.buildmlearn.appstore.models.\lFlashModel.getInstance">
<polygon fill="none" stroke="black" points="183,-245.5 183,-275.5 344,-275.5 344,-245.5 183,-245.5"/>
<text text-anchor="start" x="191" y="-263.5" font-family="Helvetica,sans-Serif" font-size="10.00">org.buildmlearn.appstore.models.</text>
<text text-anchor="middle" x="263.5" y="-252.5" font-family="Helvetica,sans-Serif" font-size="10.00">FlashModel.getInstance</text>
</a>
</g>
</g>
<!-- Node1&#45;&gt;Node2 -->
<g id="edge1" class="edge"><title>Node1&#45;&gt;Node2</title>
<path fill="none" stroke="midnightblue" d="M86.9566,-152.503C105.66,-174.099 143.086,-213.836 183,-236.5 186.197,-238.315 189.546,-240.007 192.985,-241.582"/>
<polygon fill="midnightblue" stroke="midnightblue" points="191.68,-244.83 202.255,-245.482 194.395,-238.378 191.68,-244.83"/>
</g>
<!-- Node3 -->
<g id="node3" class="node"><title>Node3</title>
<g id="a_node3"><a xlink:href="../../d6/d02/classorg_1_1buildmlearn_1_1appstore_1_1utils_1_1_x_m_l_parser.html#a15a8449f10403c80625319062f73432e" target="_top" xlink:title="Gets the Document object from the xml string. ">
<polygon fill="none" stroke="black" points="190,-196.5 190,-226.5 337,-226.5 337,-196.5 190,-196.5"/>
<text text-anchor="start" x="198" y="-214.5" font-family="Helvetica,sans-Serif" font-size="10.00">org.buildmlearn.appstore.utils.</text>
<text text-anchor="middle" x="263.5" y="-203.5" font-family="Helvetica,sans-Serif" font-size="10.00">XMLParser.getDomElement</text>
</a>
</g>
</g>
<!-- Node1&#45;&gt;Node3 -->
<g id="edge2" class="edge"><title>Node1&#45;&gt;Node3</title>
<path fill="none" stroke="midnightblue" d="M104.42,-152.652C125.946,-163.215 155.85,-177.203 183,-187.5 188.139,-189.449 193.511,-191.35 198.932,-193.174"/>
<polygon fill="midnightblue" stroke="midnightblue" points="198.111,-196.588 208.704,-196.367 200.286,-189.934 198.111,-196.588"/>
</g>
<!-- Node4 -->
<g id="node4" class="node"><title>Node4</title>
<g id="a_node4"><a xlink:href="../../d9/d64/classorg_1_1buildmlearn_1_1appstore_1_1models_1_1_flash_model.html#aef70d9b669c794f5142063d284909fdc" target="_top" xlink:title="org.buildmlearn.appstore.models.\lFlashModel.setAuthor">
<polygon fill="none" stroke="black" points="183,-147.5 183,-177.5 344,-177.5 344,-147.5 183,-147.5"/>
<text text-anchor="start" x="191" y="-165.5" font-family="Helvetica,sans-Serif" font-size="10.00">org.buildmlearn.appstore.models.</text>
<text text-anchor="middle" x="263.5" y="-154.5" font-family="Helvetica,sans-Serif" font-size="10.00">FlashModel.setAuthor</text>
</a>
</g>
</g>
<!-- Node1&#45;&gt;Node4 -->
<g id="edge3" class="edge"><title>Node1&#45;&gt;Node4</title>
<path fill="none" stroke="midnightblue" d="M147.186,-147.166C155.578,-148.282 164.209,-149.429 172.793,-150.571"/>
<polygon fill="midnightblue" stroke="midnightblue" points="172.455,-154.057 182.83,-151.906 173.378,-147.118 172.455,-154.057"/>
</g>
<!-- Node5 -->
<g id="node5" class="node"><title>Node5</title>
<g id="a_node5"><a xlink:href="../../d6/d02/classorg_1_1buildmlearn_1_1appstore_1_1utils_1_1_x_m_l_parser.html#a42151792145130629c7bf2a16b2885bc" target="_top" xlink:title="Gets the value of the item from the Document object. ">
<polygon fill="none" stroke="black" points="190,-98.5 190,-128.5 337,-128.5 337,-98.5 190,-98.5"/>
<text text-anchor="start" x="198" y="-116.5" font-family="Helvetica,sans-Serif" font-size="10.00">org.buildmlearn.appstore.utils.</text>
<text text-anchor="middle" x="263.5" y="-105.5" font-family="Helvetica,sans-Serif" font-size="10.00">XMLParser.getValue</text>
</a>
</g>
</g>
<!-- Node1&#45;&gt;Node5 -->
<g id="edge4" class="edge"><title>Node1&#45;&gt;Node5</title>
<path fill="none" stroke="midnightblue" d="M147.186,-128.221C157.756,-126.872 168.707,-125.474 179.463,-124.1"/>
<polygon fill="midnightblue" stroke="midnightblue" points="180.221,-127.532 189.698,-122.794 179.335,-120.588 180.221,-127.532"/>
</g>
<!-- Node7 -->
<g id="node7" class="node"><title>Node7</title>
<g id="a_node7"><a xlink:href="../../d9/d64/classorg_1_1buildmlearn_1_1appstore_1_1models_1_1_flash_model.html#a8114fa573bb5ba91a44be0bcb7d78cc6" target="_top" xlink:title="org.buildmlearn.appstore.models.\lFlashModel.setName">
<polygon fill="none" stroke="black" points="183,-49.5 183,-79.5 344,-79.5 344,-49.5 183,-49.5"/>
<text text-anchor="start" x="191" y="-67.5" font-family="Helvetica,sans-Serif" font-size="10.00">org.buildmlearn.appstore.models.</text>
<text text-anchor="middle" x="263.5" y="-56.5" font-family="Helvetica,sans-Serif" font-size="10.00">FlashModel.setName</text>
</a>
</g>
</g>
<!-- Node1&#45;&gt;Node7 -->
<g id="edge6" class="edge"><title>Node1&#45;&gt;Node7</title>
<path fill="none" stroke="midnightblue" d="M105.922,-122.481C127.379,-112.503 156.596,-99.4565 183,-89.5 189.185,-87.1677 195.695,-84.8716 202.216,-82.6731"/>
<polygon fill="midnightblue" stroke="midnightblue" points="203.343,-85.9869 211.742,-79.529 201.149,-79.3396 203.343,-85.9869"/>
</g>
<!-- Node8 -->
<g id="node8" class="node"><title>Node8</title>
<g id="a_node8"><a xlink:href="../../d9/d64/classorg_1_1buildmlearn_1_1appstore_1_1models_1_1_flash_model.html#a4f73eb4d6dc34a961774eefe86acd923" target="_top" xlink:title="org.buildmlearn.appstore.models.\lFlashModel.setList">
<polygon fill="none" stroke="black" points="183,-0.5 183,-30.5 344,-30.5 344,-0.5 183,-0.5"/>
<text text-anchor="start" x="191" y="-18.5" font-family="Helvetica,sans-Serif" font-size="10.00">org.buildmlearn.appstore.models.</text>
<text text-anchor="middle" x="263.5" y="-7.5" font-family="Helvetica,sans-Serif" font-size="10.00">FlashModel.setList</text>
</a>
</g>
</g>
<!-- Node1&#45;&gt;Node8 -->
<g id="edge7" class="edge"><title>Node1&#45;&gt;Node8</title>
<path fill="none" stroke="midnightblue" d="M87.6915,-122.165C106.721,-100.944 143.905,-62.7334 183,-40.5 186.854,-38.3084 190.924,-36.2834 195.103,-34.4163"/>
<polygon fill="midnightblue" stroke="midnightblue" points="196.482,-37.6336 204.386,-30.5781 193.807,-31.1647 196.482,-37.6336"/>
</g>
<!-- Node6 -->
<g id="node6" class="node"><title>Node6</title>
<g id="a_node6"><a xlink:href="../../d6/d02/classorg_1_1buildmlearn_1_1appstore_1_1utils_1_1_x_m_l_parser.html#a623e2412cff7b8ab44947732d167feef" target="_top" xlink:title="Gets the element value of the node. ">
<polygon fill="none" stroke="black" points="380,-98.5 380,-128.5 527,-128.5 527,-98.5 380,-98.5"/>
<text text-anchor="start" x="388" y="-116.5" font-family="Helvetica,sans-Serif" font-size="10.00">org.buildmlearn.appstore.utils.</text>
<text text-anchor="middle" x="453.5" y="-105.5" font-family="Helvetica,sans-Serif" font-size="10.00">XMLParser.getElementValue</text>
</a>
</g>
</g>
<!-- Node5&#45;&gt;Node6 -->
<g id="edge5" class="edge"><title>Node5&#45;&gt;Node6</title>
<path fill="none" stroke="midnightblue" d="M337.186,-113.5C347.756,-113.5 358.707,-113.5 369.463,-113.5"/>
<polygon fill="midnightblue" stroke="midnightblue" points="369.698,-117 379.698,-113.5 369.698,-110 369.698,-117"/>
</g>
</g>
</svg>
        <g id="navigator" transform="translate(0 0)" fill="#404254">
                <rect fill="#f2f5e9" fill-opacity="0.5" stroke="#606060" stroke-width=".5" x="0" y="0" width="60" height="60"/>
                <use id="zoomplus" xlink:href="#zoomPlus" x="17" y="9" onmousedown="handleZoom(evt,'in')"/>
                <use id="zoomminus" xlink:href="#zoomMin" x="42" y="9" onmousedown="handleZoom(evt,'out')"/>
                <use id="reset" xlink:href="#resetDef" x="30" y="36" onmousedown="handleReset()"/>
                <g id="arrowUp" xlink:href="#dirArrow" transform="translate(30 24)" onmousedown="handlePan(0,-1)">
                  <use xlink:href="#rim" fill="#404040">
                        <set attributeName="fill" to="#808080" begin="arrowUp.mouseover" end="arrowUp.mouseout"/>
                  </use>
                  <path fill="none" stroke="white" stroke-width="1.5" d="M0,-3.0v7 M-2.5,-0.5L0,-3.0L2.5,-0.5"/>
                </g>
                <g id="arrowRight" xlink:href="#dirArrow" transform="rotate(90) translate(36 -43)" onmousedown="handlePan(1,0)">
                  <use xlink:href="#rim" fill="#404040">
                        <set attributeName="fill" to="#808080" begin="arrowRight.mouseover" end="arrowRight.mouseout"/>
                  </use>
                  <path fill="none" stroke="white" stroke-width="1.5" d="M0,-3.0v7 M-2.5,-0.5L0,-3.0L2.5,-0.5"/>
                </g>
                <g id="arrowDown" xlink:href="#dirArrow" transform="rotate(180) translate(-30 -48)" onmousedown="handlePan(0,1)">
                  <use xlink:href="#rim" fill="#404040">
                        <set attributeName="fill" to="#808080" begin="arrowDown.mouseover" end="arrowDown.mouseout"/>
                  </use>
                  <path fill="none" stroke="white" stroke-width="1.5" d="M0,-3.0v7 M-2.5,-0.5L0,-3.0L2.5,-0.5"/>
                </g>
                <g id="arrowLeft" xlink:href="#dirArrow" transform="rotate(270) translate(-36 17)" onmousedown="handlePan(-1,0)">
                  <use xlink:href="#rim" fill="#404040">
                        <set attributeName="fill" to="#808080" begin="arrowLeft.mouseover" end="arrowLeft.mouseout"/>
                  </use>
                  <path fill="none" stroke="white" stroke-width="1.5" d="M0,-3.0v7 M-2.5,-0.5L0,-3.0L2.5,-0.5"/>
                </g>
        </g>
        <svg viewBox="0 0 15 15" width="100%" height="30px" preserveAspectRatio="xMaxYMin meet">
         <g id="arrow_out" transform="scale(0.3 0.3)">
          <a xlink:href="classorg_1_1buildmlearn_1_1appstore_1_1utils_1_1_app_reader_aefcab830573415c5c0d3d21a31e05e46_cgraph_org.svg" target="_base">
           <rect id="button" ry="5" rx="5" y="6" x="6" height="38" width="38"
                fill="#f2f5e9" fill-opacity="0.5" stroke="#606060" stroke-width="1.0"/>
           <path id="arrow"
             d="M 11.500037,31.436501 C 11.940474,20.09759 22.043105,11.32322 32.158766,21.979434 L 37.068811,17.246167 C 37.068811,17.246167 37.088388,32 37.088388,32 L 22.160133,31.978069 C 22.160133,31.978069 26.997745,27.140456 26.997745,27.140456 C 18.528582,18.264221 13.291696,25.230495 11.500037,31.436501 z"
             style="fill:#404040;"/>
          </a>
         </g>
        </svg>
</svg>
