<?xml version="1.0" encoding="UTF-8" standalone="no"?>
<!DOCTYPE svg PUBLIC "-//W3C//DTD SVG 1.1//EN"
 "http://www.w3.org/Graphics/SVG/1.1/DTD/svg11.dtd">
<!-- Generated by graphviz version 2.38.0 (20140413.2041)
 -->
<!-- Title: org.buildmlearn.appstore.models.InfoModel.getInfoName Pages: 1 -->
<svg width="406pt" height="137pt"
 viewBox="0.00 0.00 406.00 137.00" xmlns="http://www.w3.org/2000/svg" xmlns:xlink="http://www.w3.org/1999/xlink">
<g id="graph0" class="graph" transform="scale(1 1) rotate(0) translate(4 133)">
<title>org.buildmlearn.appstore.models.InfoModel.getInfoName</title>
<!-- Node1 -->
<g id="node1" class="node"><title>Node1</title>
<polygon fill="#bfbfbf" stroke="black" points="0,-49.5 0,-79.5 161,-79.5 161,-49.5 0,-49.5"/>
<text text-anchor="start" x="8" y="-67.5" font-family="Helvetica,sans-Serif" font-size="10.00">org.buildmlearn.appstore.models.</text>
<text text-anchor="middle" x="80.5" y="-56.5" font-family="Helvetica,sans-Serif" font-size="10.00">InfoModel.getInfoName</text>
</g>
<!-- Node2 -->
<g id="node2" class="node"><title>Node2</title>
<g id="a_node2"><a xlink:href="../../d2/d16/classorg_1_1buildmlearn_1_1appstore_1_1activities_1_1_info_activity.html#a5385938356bc5a0b15e92eb66d5e1c3e" target="_top" xlink:title="The method is executed first when the activity is created. ">
<polygon fill="none" stroke="black" points="214,-98.5 214,-128.5 381,-128.5 381,-98.5 214,-98.5"/>
<text text-anchor="start" x="222" y="-116.5" font-family="Helvetica,sans-Serif" font-size="10.00">org.buildmlearn.appstore.activities.</text>
<text text-anchor="middle" x="297.5" y="-105.5" font-family="Helvetica,sans-Serif" font-size="10.00">InfoActivity.onCreate</text>
</a>
</g>
</g>
<!-- Node1&#45;&gt;Node2 -->
<g id="edge1" class="edge"><title>Node1&#45;&gt;Node2</title>
<path fill="none" stroke="midnightblue" d="M157.224,-81.7581C181.181,-87.218 207.451,-93.205 230.657,-98.4938"/>
<polygon fill="midnightblue" stroke="midnightblue" points="157.996,-78.3443 147.468,-79.5346 156.44,-85.1693 157.996,-78.3443"/>
</g>
<!-- Node3 -->
<g id="node3" class="node"><title>Node3</title>
<g id="a_node3"><a xlink:href="../../d1/d3e/classorg_1_1buildmlearn_1_1appstore_1_1activities_1_1_info_detail_activity.html#a8d0b9755938bde954369d580fd2a4a29" target="_top" xlink:title="The method is executed first when the activity is created. ">
<polygon fill="none" stroke="black" points="214,-49.5 214,-79.5 381,-79.5 381,-49.5 214,-49.5"/>
<text text-anchor="start" x="222" y="-67.5" font-family="Helvetica,sans-Serif" font-size="10.00">org.buildmlearn.appstore.activities.</text>
<text text-anchor="middle" x="297.5" y="-56.5" font-family="Helvetica,sans-Serif" font-size="10.00">InfoDetailActivity.onCreate</text>
</a>
</g>
</g>
<!-- Node1&#45;&gt;Node3 -->
<g id="edge2" class="edge"><title>Node1&#45;&gt;Node3</title>
<path fill="none" stroke="midnightblue" d="M171.438,-64.5C185.546,-64.5 200.07,-64.5 214,-64.5"/>
<polygon fill="midnightblue" stroke="midnightblue" points="171.253,-61.0001 161.253,-64.5 171.252,-68.0001 171.253,-61.0001"/>
</g>
<!-- Node4 -->
<g id="node4" class="node"><title>Node4</title>
<g id="a_node4"><a xlink:href="../../d3/dbf/classorg_1_1buildmlearn_1_1appstore_1_1activities_1_1_start_activity_1_1_file_read_task.html#a1170e20ba70058ef64883f3cc85e209b" target="_top" xlink:title="This method is called after the task has been performed. ">
<polygon fill="none" stroke="black" points="197,-0.5 197,-30.5 398,-30.5 398,-0.5 197,-0.5"/>
<text text-anchor="start" x="205" y="-18.5" font-family="Helvetica,sans-Serif" font-size="10.00">org.buildmlearn.appstore.activities.</text>
<text text-anchor="middle" x="297.5" y="-7.5" font-family="Helvetica,sans-Serif" font-size="10.00">StartActivity.FileReadTask.onPostExecute</text>
</a>
</g>
</g>
<!-- Node1&#45;&gt;Node4 -->
<g id="edge3" class="edge"><title>Node1&#45;&gt;Node4</title>
<path fill="none" stroke="midnightblue" d="M157.224,-47.2419C181.181,-41.782 207.451,-35.795 230.657,-30.5062"/>
<polygon fill="midnightblue" stroke="midnightblue" points="156.44,-43.8307 147.468,-49.4654 157.996,-50.6557 156.44,-43.8307"/>
</g>
</g>
</svg>
