<?xml version="1.0" encoding="UTF-8" standalone="no"?>
<!DOCTYPE svg PUBLIC "-//W3C//DTD SVG 1.1//EN"
 "http://www.w3.org/Graphics/SVG/1.1/DTD/svg11.dtd">
<!-- Generated by graphviz version 2.38.0 (20140413.2041)
 -->
<!-- Title: org.buildmlearn.appstore.models.InfoModel.getInstance Pages: 1 -->
<svg width="646pt" height="186pt"
 viewBox="0.00 0.00 646.00 186.00" xmlns="http://www.w3.org/2000/svg" xmlns:xlink="http://www.w3.org/1999/xlink">
<g id="graph0" class="graph" transform="scale(1 1) rotate(0) translate(4 182)">
<title>org.buildmlearn.appstore.models.InfoModel.getInstance</title>
<!-- Node1 -->
<g id="node1" class="node"><title>Node1</title>
<polygon fill="#bfbfbf" stroke="black" points="0,-73.5 0,-103.5 161,-103.5 161,-73.5 0,-73.5"/>
<text text-anchor="start" x="8" y="-91.5" font-family="Helvetica,sans-Serif" font-size="10.00">org.buildmlearn.appstore.models.</text>
<text text-anchor="middle" x="80.5" y="-80.5" font-family="Helvetica,sans-Serif" font-size="10.00">InfoModel.getInstance</text>
</g>
<!-- Node2 -->
<g id="node2" class="node"><title>Node2</title>
<g id="a_node2"><a xlink:href="../../d2/d16/classorg_1_1buildmlearn_1_1appstore_1_1activities_1_1_info_activity.html#a5385938356bc5a0b15e92eb66d5e1c3e" target="_top" xlink:title="The method is executed first when the activity is created. ">
<polygon fill="none" stroke="black" points="214,-147.5 214,-177.5 381,-177.5 381,-147.5 214,-147.5"/>
<text text-anchor="start" x="222" y="-165.5" font-family="Helvetica,sans-Serif" font-size="10.00">org.buildmlearn.appstore.activities.</text>
<text text-anchor="middle" x="297.5" y="-154.5" font-family="Helvetica,sans-Serif" font-size="10.00">InfoActivity.onCreate</text>
</a>
</g>
</g>
<!-- Node1&#45;&gt;Node2 -->
<g id="edge1" class="edge"><title>Node1&#45;&gt;Node2</title>
<path fill="none" stroke="midnightblue" d="M121.622,-107.894C143.539,-117.969 171.367,-129.931 197,-138.5 206.69,-141.739 217.047,-144.734 227.283,-147.431"/>
<polygon fill="midnightblue" stroke="midnightblue" points="122.85,-104.606 112.307,-103.563 119.899,-110.953 122.85,-104.606"/>
</g>
<!-- Node3 -->
<g id="node3" class="node"><title>Node3</title>
<g id="a_node3"><a xlink:href="../../d1/d3e/classorg_1_1buildmlearn_1_1appstore_1_1activities_1_1_info_detail_activity.html#a8d0b9755938bde954369d580fd2a4a29" target="_top" xlink:title="The method is executed first when the activity is created. ">
<polygon fill="none" stroke="black" points="214,-98.5 214,-128.5 381,-128.5 381,-98.5 214,-98.5"/>
<text text-anchor="start" x="222" y="-116.5" font-family="Helvetica,sans-Serif" font-size="10.00">org.buildmlearn.appstore.activities.</text>
<text text-anchor="middle" x="297.5" y="-105.5" font-family="Helvetica,sans-Serif" font-size="10.00">InfoDetailActivity.onCreate</text>
</a>
</g>
</g>
<!-- Node1&#45;&gt;Node3 -->
<g id="edge2" class="edge"><title>Node1&#45;&gt;Node3</title>
<path fill="none" stroke="midnightblue" d="M171.438,-98.9579C185.546,-100.598 200.07,-102.287 214,-103.907"/>
<polygon fill="midnightblue" stroke="midnightblue" points="171.59,-95.4521 161.253,-97.7736 170.781,-102.405 171.59,-95.4521"/>
</g>
<!-- Node4 -->
<g id="node4" class="node"><title>Node4</title>
<g id="a_node4"><a xlink:href="../../d3/dbf/classorg_1_1buildmlearn_1_1appstore_1_1activities_1_1_start_activity_1_1_file_read_task.html#a1170e20ba70058ef64883f3cc85e209b" target="_top" xlink:title="This method is called after the task has been performed. ">
<polygon fill="none" stroke="black" points="197,-49.5 197,-79.5 398,-79.5 398,-49.5 197,-49.5"/>
<text text-anchor="start" x="205" y="-67.5" font-family="Helvetica,sans-Serif" font-size="10.00">org.buildmlearn.appstore.activities.</text>
<text text-anchor="middle" x="297.5" y="-56.5" font-family="Helvetica,sans-Serif" font-size="10.00">StartActivity.FileReadTask.onPostExecute</text>
</a>
</g>
</g>
<!-- Node1&#45;&gt;Node4 -->
<g id="edge3" class="edge"><title>Node1&#45;&gt;Node4</title>
<path fill="none" stroke="midnightblue" d="M171.407,-78.4639C179.803,-77.5267 188.346,-76.573 196.824,-75.6267"/>
<polygon fill="midnightblue" stroke="midnightblue" points="170.802,-75.0095 161.253,-79.5974 171.579,-81.9663 170.802,-75.0095"/>
</g>
<!-- Node5 -->
<g id="node5" class="node"><title>Node5</title>
<g id="a_node5"><a xlink:href="../../d0/da8/classorg_1_1buildmlearn_1_1appstore_1_1utils_1_1_app_reader.html#af487d507ab995e6b6ab32a3494fff592" target="_top" xlink:title="Reads the Info type of app. ">
<polygon fill="none" stroke="black" points="224,-0.5 224,-30.5 371,-30.5 371,-0.5 224,-0.5"/>
<text text-anchor="start" x="232" y="-18.5" font-family="Helvetica,sans-Serif" font-size="10.00">org.buildmlearn.appstore.utils.</text>
<text text-anchor="middle" x="297.5" y="-7.5" font-family="Helvetica,sans-Serif" font-size="10.00">AppReader.readInfoFile</text>
</a>
</g>
</g>
<!-- Node1&#45;&gt;Node5 -->
<g id="edge4" class="edge"><title>Node1&#45;&gt;Node5</title>
<path fill="none" stroke="midnightblue" d="M123.601,-69.2431C145.246,-59.7953 172.222,-48.7117 197,-40.5 207.82,-36.914 219.449,-33.5586 230.806,-30.5424"/>
<polygon fill="midnightblue" stroke="midnightblue" points="122.103,-66.0781 114.366,-73.3153 124.928,-72.483 122.103,-66.0781"/>
</g>
<!-- Node6 -->
<g id="node6" class="node"><title>Node6</title>
<g id="a_node6"><a xlink:href="../../d3/dbf/classorg_1_1buildmlearn_1_1appstore_1_1activities_1_1_start_activity_1_1_file_read_task.html#aed534a6e0d4bcb1df8009e878e2bb95f" target="_top" xlink:title="This method is automatically called, when the class is set to be executed. ">
<polygon fill="none" stroke="black" points="434,-0.5 434,-30.5 638,-30.5 638,-0.5 434,-0.5"/>
<text text-anchor="start" x="442" y="-18.5" font-family="Helvetica,sans-Serif" font-size="10.00">org.buildmlearn.appstore.activities.</text>
<text text-anchor="middle" x="536" y="-7.5" font-family="Helvetica,sans-Serif" font-size="10.00">StartActivity.FileReadTask.doInBackground</text>
</a>
</g>
</g>
<!-- Node5&#45;&gt;Node6 -->
<g id="edge5" class="edge"><title>Node5&#45;&gt;Node6</title>
<path fill="none" stroke="midnightblue" d="M381.452,-15.5C398.378,-15.5 416.365,-15.5 433.844,-15.5"/>
<polygon fill="midnightblue" stroke="midnightblue" points="381.065,-12.0001 371.065,-15.5 381.065,-19.0001 381.065,-12.0001"/>
</g>
</g>
</svg>
