<?xml version="1.0" encoding="UTF-8" standalone="no"?>
<!DOCTYPE svg PUBLIC "-//W3C//DTD SVG 1.1//EN"
 "http://www.w3.org/Graphics/SVG/1.1/DTD/svg11.dtd">
<!-- Generated by graphviz version 2.38.0 (20140413.2041)
 -->
<!-- Title: org.buildmlearn.appstore.activities.HomeActivity.onCreate Pages: 1 -->
<!--zoomable 382 -->
<svg id="main" version="1.1" xmlns="http://www.w3.org/2000/svg" xmlns:xlink="http://www.w3.org/1999/xlink" xml:space="preserve" onload="init(evt)">
<style type="text/css"><![CDATA[
.edge:hover path { stroke: red; }
.edge:hover polygon { stroke: red; fill: red; }
]]></style>
<script type="text/javascript"><![CDATA[
var edges = document.getElementsByTagName('g');
if (edges && edges.length) {
  for (var i=0;i<edges.length;i++) {
    if (edges[i].id.substr(0,4)=='edge') {
      edges[i].setAttribute('class','edge');
    }
  }
}
]]></script>
        <defs>
                <circle id="rim" cx="0" cy="0" r="7"/>
                <circle id="rim2" cx="0" cy="0" r="3.5"/>
                <g id="zoomPlus">
                        <use xlink:href="#rim" fill="#404040">
                                <set attributeName="fill" to="#808080" begin="zoomplus.mouseover" end="zoomplus.mouseout"/>
                        </use>
                        <path d="M-4,0h8M0,-4v8" fill="none" stroke="white" stroke-width="1.5" pointer-events="none"/>
                </g>
                <g id="zoomMin">
                        <use xlink:href="#rim" fill="#404040">
                                <set attributeName="fill" to="#808080" begin="zoomminus.mouseover" end="zoomminus.mouseout"/>
                        </use>
                        <path d="M-4,0h8" fill="none" stroke="white" stroke-width="1.5" pointer-events="none"/>
                </g>
                <g id="dirArrow">
                        <path fill="none" stroke="white" stroke-width="1.5" d="M0,-3.0v7 M-2.5,-0.5L0,-3.0L2.5,-0.5"/>
                </g>
               <g id="resetDef">
                       <use xlink:href="#rim2" fill="#404040">
                               <set attributeName="fill" to="#808080" begin="reset.mouseover" end="reset.mouseout"/>
                       </use>
               </g>
        </defs>

<script type="text/javascript">
var viewWidth = 867;
var viewHeight = 382;
var sectionId = 'dynsection-3';
</script>
<script xlink:href="../../svgpan.js"/>
<svg id="graph" class="graph">
<g id="viewport">
<title>org.buildmlearn.appstore.activities.HomeActivity.onCreate</title>
<!-- Node1 -->
<g id="node1" class="node"><title>Node1</title>
<polygon fill="#bfbfbf" stroke="black" points="0,-171.5 0,-201.5 167,-201.5 167,-171.5 0,-171.5"/>
<text text-anchor="start" x="8" y="-189.5" font-family="Helvetica,sans-Serif" font-size="10.00">org.buildmlearn.appstore.activities.</text>
<text text-anchor="middle" x="83.5" y="-178.5" font-family="Helvetica,sans-Serif" font-size="10.00">HomeActivity.onCreate</text>
</g>
<!-- Node2 -->
<g id="node2" class="node"><title>Node2</title>
<g id="a_node2"><a xlink:href="../../d8/dcb/classorg_1_1buildmlearn_1_1appstore_1_1utils_1_1_sliding_tab_layout.html#a1432bea11a08f521a457c714d1d8f7a6" target="_top" xlink:title="Set the ViewPager.OnPageChangeListener. ">
<polygon fill="none" stroke="black" points="203,-343.5 203,-373.5 413,-373.5 413,-343.5 203,-343.5"/>
<text text-anchor="start" x="211" y="-361.5" font-family="Helvetica,sans-Serif" font-size="10.00">org.buildmlearn.appstore.utils.</text>
<text text-anchor="middle" x="308" y="-350.5" font-family="Helvetica,sans-Serif" font-size="10.00">SlidingTabLayout.setOnPageChangeListener</text>
</a>
</g>
</g>
<!-- Node1&#45;&gt;Node2 -->
<g id="edge1" class="edge"><title>Node1&#45;&gt;Node2</title>
<path fill="none" stroke="midnightblue" d="M92.2222,-201.886C108.348,-232.348 148.66,-300.339 203,-334.5 205.66,-336.172 208.423,-337.728 211.265,-339.175"/>
<polygon fill="midnightblue" stroke="midnightblue" points="210.027,-342.458 220.576,-343.44 212.942,-336.094 210.027,-342.458"/>
</g>
<!-- Node3 -->
<g id="node3" class="node"><title>Node3</title>
<g id="a_node3"><a xlink:href="../../d0/df6/classorg_1_1buildmlearn_1_1appstore_1_1fragments_1_1_tab_my_apps.html#a35f6e10d8f45a3c9995c0b70c18f438d" target="_top" xlink:title="Refreshes the list of apps. ">
<polygon fill="none" stroke="black" points="222,-294.5 222,-324.5 394,-324.5 394,-294.5 222,-294.5"/>
<text text-anchor="start" x="230" y="-312.5" font-family="Helvetica,sans-Serif" font-size="10.00">org.buildmlearn.appstore.fragments.</text>
<text text-anchor="middle" x="308" y="-301.5" font-family="Helvetica,sans-Serif" font-size="10.00">TabMyApps.refreshList</text>
</a>
</g>
</g>
<!-- Node1&#45;&gt;Node3 -->
<g id="edge2" class="edge"><title>Node1&#45;&gt;Node3</title>
<path fill="none" stroke="midnightblue" d="M98.2064,-201.815C118.761,-223.801 159.792,-264.018 203,-285.5 207.029,-287.503 211.229,-289.342 215.532,-291.03"/>
<polygon fill="midnightblue" stroke="midnightblue" points="214.494,-294.377 225.089,-294.489 216.877,-287.795 214.494,-294.377"/>
</g>
<!-- Node5 -->
<g id="node5" class="node"><title>Node5</title>
<g id="a_node5"><a xlink:href="../../d8/dd4/classorg_1_1buildmlearn_1_1appstore_1_1fragments_1_1_tab_store.html#a9b04ad8cb6754042ab570357d36cc1da" target="_top" xlink:title="This method is called from the Navigation Activity. ">
<polygon fill="none" stroke="black" points="222,-245.5 222,-275.5 394,-275.5 394,-245.5 222,-245.5"/>
<text text-anchor="start" x="230" y="-263.5" font-family="Helvetica,sans-Serif" font-size="10.00">org.buildmlearn.appstore.fragments.</text>
<text text-anchor="middle" x="308" y="-252.5" font-family="Helvetica,sans-Serif" font-size="10.00">TabStore.closeSearch</text>
</a>
</g>
</g>
<!-- Node1&#45;&gt;Node5 -->
<g id="edge4" class="edge"><title>Node1&#45;&gt;Node5</title>
<path fill="none" stroke="midnightblue" d="M116.122,-201.606C139.673,-212.42 172.833,-226.736 203,-236.5 209.909,-238.736 217.139,-240.85 224.431,-242.827"/>
<polygon fill="midnightblue" stroke="midnightblue" points="223.828,-246.287 234.388,-245.436 225.602,-239.515 223.828,-246.287"/>
</g>
<!-- Node6 -->
<g id="node6" class="node"><title>Node6</title>
<g id="a_node6"><a xlink:href="../../d0/df6/classorg_1_1buildmlearn_1_1appstore_1_1fragments_1_1_tab_my_apps.html#ad2cfa4949b0adb6836ee7ddc5e07803b" target="_top" xlink:title="This method is called from the Navigation Activity. ">
<polygon fill="none" stroke="black" points="222,-196.5 222,-226.5 394,-226.5 394,-196.5 222,-196.5"/>
<text text-anchor="start" x="230" y="-214.5" font-family="Helvetica,sans-Serif" font-size="10.00">org.buildmlearn.appstore.fragments.</text>
<text text-anchor="middle" x="308" y="-203.5" font-family="Helvetica,sans-Serif" font-size="10.00">TabMyApps.closeSearch</text>
</a>
</g>
</g>
<!-- Node1&#45;&gt;Node6 -->
<g id="edge5" class="edge"><title>Node1&#45;&gt;Node6</title>
<path fill="none" stroke="midnightblue" d="M167.035,-195.774C181.605,-197.411 196.881,-199.127 211.766,-200.8"/>
<polygon fill="midnightblue" stroke="midnightblue" points="211.667,-204.31 221.995,-201.949 212.448,-197.354 211.667,-204.31"/>
</g>
<!-- Node7 -->
<g id="node7" class="node"><title>Node7</title>
<g id="a_node7"><a xlink:href="../../d0/d60/classorg_1_1buildmlearn_1_1appstore_1_1activities_1_1_navigation_activity.html#a3819b15bd7eeb6b579ffc4ae12bb289b" target="_top" xlink:title="It clears the text in the search tool and collapses the search tool. ">
<polygon fill="none" stroke="black" points="224.5,-147.5 224.5,-177.5 391.5,-177.5 391.5,-147.5 224.5,-147.5"/>
<text text-anchor="start" x="232.5" y="-165.5" font-family="Helvetica,sans-Serif" font-size="10.00">org.buildmlearn.appstore.activities.</text>
<text text-anchor="middle" x="308" y="-154.5" font-family="Helvetica,sans-Serif" font-size="10.00">NavigationActivity.clearSearch</text>
</a>
</g>
</g>
<!-- Node1&#45;&gt;Node7 -->
<g id="edge6" class="edge"><title>Node1&#45;&gt;Node7</title>
<path fill="none" stroke="midnightblue" d="M167.035,-177.597C182.354,-175.945 198.453,-174.208 214.058,-172.525"/>
<polygon fill="midnightblue" stroke="midnightblue" points="214.661,-175.981 224.228,-171.428 213.91,-169.021 214.661,-175.981"/>
</g>
<!-- Node8 -->
<g id="node8" class="node"><title>Node8</title>
<g id="a_node8"><a xlink:href="../../d8/dcb/classorg_1_1buildmlearn_1_1appstore_1_1utils_1_1_sliding_tab_layout.html#a01535eff86c41187853e669f50126f08" target="_top" xlink:title="Distributes the tabs evenly in the available space. ">
<polygon fill="none" stroke="black" points="219.5,-98.5 219.5,-128.5 396.5,-128.5 396.5,-98.5 219.5,-98.5"/>
<text text-anchor="start" x="227.5" y="-116.5" font-family="Helvetica,sans-Serif" font-size="10.00">org.buildmlearn.appstore.utils.</text>
<text text-anchor="middle" x="308" y="-105.5" font-family="Helvetica,sans-Serif" font-size="10.00">SlidingTabLayout.setDistributeEvenly</text>
</a>
</g>
</g>
<!-- Node1&#45;&gt;Node8 -->
<g id="edge7" class="edge"><title>Node1&#45;&gt;Node8</title>
<path fill="none" stroke="midnightblue" d="M117.721,-171.491C141.21,-161.265 173.621,-147.923 203,-138.5 211.158,-135.883 219.754,-133.398 228.364,-131.081"/>
<polygon fill="midnightblue" stroke="midnightblue" points="229.282,-134.459 238.069,-128.539 227.508,-127.687 229.282,-134.459"/>
</g>
<!-- Node9 -->
<g id="node9" class="node"><title>Node9</title>
<g id="a_node9"><a xlink:href="../../d8/dcb/classorg_1_1buildmlearn_1_1appstore_1_1utils_1_1_sliding_tab_layout.html#ae8c85fbcb10f34e53ce134b9ba1e3771" target="_top" xlink:title="Set the custom TabColorizer to be used. ">
<polygon fill="none" stroke="black" points="210.5,-49.5 210.5,-79.5 405.5,-79.5 405.5,-49.5 210.5,-49.5"/>
<text text-anchor="start" x="218.5" y="-67.5" font-family="Helvetica,sans-Serif" font-size="10.00">org.buildmlearn.appstore.utils.</text>
<text text-anchor="middle" x="308" y="-56.5" font-family="Helvetica,sans-Serif" font-size="10.00">SlidingTabLayout.setCustomTabColorizer</text>
</a>
</g>
</g>
<!-- Node1&#45;&gt;Node9 -->
<g id="edge8" class="edge"><title>Node1&#45;&gt;Node9</title>
<path fill="none" stroke="midnightblue" d="M98.6445,-171.197C119.424,-149.657 160.377,-110.667 203,-89.5 207.886,-87.0737 213.019,-84.8751 218.28,-82.8838"/>
<polygon fill="midnightblue" stroke="midnightblue" points="219.585,-86.1353 227.86,-79.5191 217.265,-79.5308 219.585,-86.1353"/>
</g>
<!-- Node11 -->
<g id="node11" class="node"><title>Node11</title>
<g id="a_node11"><a xlink:href="../../d8/dcb/classorg_1_1buildmlearn_1_1appstore_1_1utils_1_1_sliding_tab_layout.html#a122f48ed0894e06f391afac8621a6421" target="_top" xlink:title="Sets the associated view pager. ">
<polygon fill="none" stroke="black" points="231,-0.5 231,-30.5 385,-30.5 385,-0.5 231,-0.5"/>
<text text-anchor="start" x="239" y="-18.5" font-family="Helvetica,sans-Serif" font-size="10.00">org.buildmlearn.appstore.utils.</text>
<text text-anchor="middle" x="308" y="-7.5" font-family="Helvetica,sans-Serif" font-size="10.00">SlidingTabLayout.setViewPager</text>
</a>
</g>
</g>
<!-- Node1&#45;&gt;Node11 -->
<g id="edge10" class="edge"><title>Node1&#45;&gt;Node11</title>
<path fill="none" stroke="midnightblue" d="M92.3053,-171.364C108.581,-141.389 149.148,-74.4468 203,-40.5 208.699,-36.9072 214.872,-33.8306 221.27,-31.1961"/>
<polygon fill="midnightblue" stroke="midnightblue" points="222.633,-34.4232 230.775,-27.644 220.183,-27.8661 222.633,-34.4232"/>
</g>
<!-- Node4 -->
<g id="node4" class="node"><title>Node4</title>
<g id="a_node4"><a xlink:href="../../d8/dfa/classorg_1_1buildmlearn_1_1appstore_1_1activities_1_1_home_activity.html#a104177f795c32e9b28838760f994dc5f" target="_top" xlink:title="Set the current view to My&#45;Apps section. ">
<polygon fill="none" stroke="black" points="458.5,-294.5 458.5,-324.5 625.5,-324.5 625.5,-294.5 458.5,-294.5"/>
<text text-anchor="start" x="466.5" y="-312.5" font-family="Helvetica,sans-Serif" font-size="10.00">org.buildmlearn.appstore.activities.</text>
<text text-anchor="middle" x="542" y="-301.5" font-family="Helvetica,sans-Serif" font-size="10.00">HomeActivity.MyAppsView</text>
</a>
</g>
</g>
<!-- Node3&#45;&gt;Node4 -->
<g id="edge3" class="edge"><title>Node3&#45;&gt;Node4</title>
<path fill="none" stroke="midnightblue" d="M394.071,-309.5C411.584,-309.5 430.111,-309.5 447.892,-309.5"/>
<polygon fill="midnightblue" stroke="midnightblue" points="448.261,-313 458.261,-309.5 448.261,-306 448.261,-313"/>
</g>
<!-- Node10 -->
<g id="node10" class="node"><title>Node10</title>
<g id="a_node10"><a xlink:href="../../d2/d6d/classorg_1_1buildmlearn_1_1appstore_1_1utils_1_1_sliding_tab_strip.html#a9b6dfb94b1bb062bdcb6842bbe606f91" target="_top" xlink:title="Sets colors to the tabs. ">
<polygon fill="none" stroke="black" points="449,-49.5 449,-79.5 635,-79.5 635,-49.5 449,-49.5"/>
<text text-anchor="start" x="457" y="-67.5" font-family="Helvetica,sans-Serif" font-size="10.00">org.buildmlearn.appstore.utils.</text>
<text text-anchor="middle" x="542" y="-56.5" font-family="Helvetica,sans-Serif" font-size="10.00">SlidingTabStrip.setCustomTabColorizer</text>
</a>
</g>
</g>
<!-- Node9&#45;&gt;Node10 -->
<g id="edge9" class="edge"><title>Node9&#45;&gt;Node10</title>
<path fill="none" stroke="midnightblue" d="M405.709,-64.5C416.656,-64.5 427.839,-64.5 438.853,-64.5"/>
<polygon fill="midnightblue" stroke="midnightblue" points="438.909,-68.0001 448.908,-64.5 438.908,-61.0001 438.909,-68.0001"/>
</g>
<!-- Node12 -->
<g id="node12" class="node"><title>Node12</title>
<g id="a_node12"><a xlink:href="../../d8/dcb/classorg_1_1buildmlearn_1_1appstore_1_1utils_1_1_sliding_tab_layout.html#a372e773548f8b02b384a9297c618bb65" target="_top" xlink:title="Populates tabs strip. ">
<polygon fill="none" stroke="black" points="458.5,-0.5 458.5,-30.5 625.5,-30.5 625.5,-0.5 458.5,-0.5"/>
<text text-anchor="start" x="466.5" y="-18.5" font-family="Helvetica,sans-Serif" font-size="10.00">org.buildmlearn.appstore.utils.</text>
<text text-anchor="middle" x="542" y="-7.5" font-family="Helvetica,sans-Serif" font-size="10.00">SlidingTabLayout.populateTabStrip</text>
</a>
</g>
</g>
<!-- Node11&#45;&gt;Node12 -->
<g id="edge11" class="edge"><title>Node11&#45;&gt;Node12</title>
<path fill="none" stroke="midnightblue" d="M385.287,-15.5C405.376,-15.5 427.272,-15.5 448.128,-15.5"/>
<polygon fill="midnightblue" stroke="midnightblue" points="448.271,-19.0001 458.271,-15.5 448.271,-12.0001 448.271,-19.0001"/>
</g>
<!-- Node13 -->
<g id="node13" class="node"><title>Node13</title>
<g id="a_node13"><a xlink:href="../../d8/dcb/classorg_1_1buildmlearn_1_1appstore_1_1utils_1_1_sliding_tab_layout.html#ae1a0a68a2e16ac093b4d8b80bcbaeb88" target="_top" xlink:title="Create a default view to be used for tabs. ">
<polygon fill="none" stroke="black" points="671,-0.5 671,-30.5 859,-30.5 859,-0.5 671,-0.5"/>
<text text-anchor="start" x="679" y="-18.5" font-family="Helvetica,sans-Serif" font-size="10.00">org.buildmlearn.appstore.utils.</text>
<text text-anchor="middle" x="765" y="-7.5" font-family="Helvetica,sans-Serif" font-size="10.00">SlidingTabLayout.createDefaultTabView</text>
</a>
</g>
</g>
<!-- Node12&#45;&gt;Node13 -->
<g id="edge12" class="edge"><title>Node12&#45;&gt;Node13</title>
<path fill="none" stroke="midnightblue" d="M625.607,-15.5C636.985,-15.5 648.787,-15.5 660.483,-15.5"/>
<polygon fill="midnightblue" stroke="midnightblue" points="660.722,-19.0001 670.722,-15.5 660.721,-12.0001 660.722,-19.0001"/>
</g>
</g>
</svg>
        <g id="navigator" transform="translate(0 0)" fill="#404254">
                <rect fill="#f2f5e9" fill-opacity="0.5" stroke="#606060" stroke-width=".5" x="0" y="0" width="60" height="60"/>
                <use id="zoomplus" xlink:href="#zoomPlus" x="17" y="9" onmousedown="handleZoom(evt,'in')"/>
                <use id="zoomminus" xlink:href="#zoomMin" x="42" y="9" onmousedown="handleZoom(evt,'out')"/>
                <use id="reset" xlink:href="#resetDef" x="30" y="36" onmousedown="handleReset()"/>
                <g id="arrowUp" xlink:href="#dirArrow" transform="translate(30 24)" onmousedown="handlePan(0,-1)">
                  <use xlink:href="#rim" fill="#404040">
                        <set attributeName="fill" to="#808080" begin="arrowUp.mouseover" end="arrowUp.mouseout"/>
                  </use>
                  <path fill="none" stroke="white" stroke-width="1.5" d="M0,-3.0v7 M-2.5,-0.5L0,-3.0L2.5,-0.5"/>
                </g>
                <g id="arrowRight" xlink:href="#dirArrow" transform="rotate(90) translate(36 -43)" onmousedown="handlePan(1,0)">
                  <use xlink:href="#rim" fill="#404040">
                        <set attributeName="fill" to="#808080" begin="arrowRight.mouseover" end="arrowRight.mouseout"/>
                  </use>
                  <path fill="none" stroke="white" stroke-width="1.5" d="M0,-3.0v7 M-2.5,-0.5L0,-3.0L2.5,-0.5"/>
                </g>
                <g id="arrowDown" xlink:href="#dirArrow" transform="rotate(180) translate(-30 -48)" onmousedown="handlePan(0,1)">
                  <use xlink:href="#rim" fill="#404040">
                        <set attributeName="fill" to="#808080" begin="arrowDown.mouseover" end="arrowDown.mouseout"/>
                  </use>
                  <path fill="none" stroke="white" stroke-width="1.5" d="M0,-3.0v7 M-2.5,-0.5L0,-3.0L2.5,-0.5"/>
                </g>
                <g id="arrowLeft" xlink:href="#dirArrow" transform="rotate(270) translate(-36 17)" onmousedown="handlePan(-1,0)">
                  <use xlink:href="#rim" fill="#404040">
                        <set attributeName="fill" to="#808080" begin="arrowLeft.mouseover" end="arrowLeft.mouseout"/>
                  </use>
                  <path fill="none" stroke="white" stroke-width="1.5" d="M0,-3.0v7 M-2.5,-0.5L0,-3.0L2.5,-0.5"/>
                </g>
        </g>
        <svg viewBox="0 0 15 15" width="100%" height="30px" preserveAspectRatio="xMaxYMin meet">
         <g id="arrow_out" transform="scale(0.3 0.3)">
          <a xlink:href="classorg_1_1buildmlearn_1_1appstore_1_1activities_1_1_home_activity_a1a3c72988991108cb3f2f70b345a1a0d_cgraph_org.svg" target="_base">
           <rect id="button" ry="5" rx="5" y="6" x="6" height="38" width="38"
                fill="#f2f5e9" fill-opacity="0.5" stroke="#606060" stroke-width="1.0"/>
           <path id="arrow"
             d="M 11.500037,31.436501 C 11.940474,20.09759 22.043105,11.32322 32.158766,21.979434 L 37.068811,17.246167 C 37.068811,17.246167 37.088388,32 37.088388,32 L 22.160133,31.978069 C 22.160133,31.978069 26.997745,27.140456 26.997745,27.140456 C 18.528582,18.264221 13.291696,25.230495 11.500037,31.436501 z"
             style="fill:#404040;"/>
          </a>
         </g>
        </svg>
</svg>
