<?xml version="1.0" encoding="UTF-8" standalone="no"?>
<!DOCTYPE svg PUBLIC "-//W3C//DTD SVG 1.1//EN"
 "http://www.w3.org/Graphics/SVG/1.1/DTD/svg11.dtd">
<!-- Generated by graphviz version 2.38.0 (20140413.2041)
 -->
<!-- Title: org.buildmlearn.appstore.activities.HomeActivity.MyAppsView Pages: 1 -->
<svg width="608pt" height="88pt"
 viewBox="0.00 0.00 608.00 88.00" xmlns="http://www.w3.org/2000/svg" xmlns:xlink="http://www.w3.org/1999/xlink">
<g id="graph0" class="graph" transform="scale(1 1) rotate(0) translate(4 84)">
<title>org.buildmlearn.appstore.activities.HomeActivity.MyAppsView</title>
<!-- Node1 -->
<g id="node1" class="node"><title>Node1</title>
<polygon fill="#bfbfbf" stroke="black" points="0,-24.5 0,-54.5 167,-54.5 167,-24.5 0,-24.5"/>
<text text-anchor="start" x="8" y="-42.5" font-family="Helvetica,sans-Serif" font-size="10.00">org.buildmlearn.appstore.activities.</text>
<text text-anchor="middle" x="83.5" y="-31.5" font-family="Helvetica,sans-Serif" font-size="10.00">HomeActivity.MyAppsView</text>
</g>
<!-- Node2 -->
<g id="node2" class="node"><title>Node2</title>
<g id="a_node2"><a xlink:href="../../d0/df6/classorg_1_1buildmlearn_1_1appstore_1_1fragments_1_1_tab_my_apps.html#a35f6e10d8f45a3c9995c0b70c18f438d" target="_top" xlink:title="Refreshes the list of apps. ">
<polygon fill="none" stroke="black" points="203,-24.5 203,-54.5 375,-54.5 375,-24.5 203,-24.5"/>
<text text-anchor="start" x="211" y="-42.5" font-family="Helvetica,sans-Serif" font-size="10.00">org.buildmlearn.appstore.fragments.</text>
<text text-anchor="middle" x="289" y="-31.5" font-family="Helvetica,sans-Serif" font-size="10.00">TabMyApps.refreshList</text>
</a>
</g>
</g>
<!-- Node1&#45;&gt;Node2 -->
<g id="edge1" class="edge"><title>Node1&#45;&gt;Node2</title>
<path fill="none" stroke="midnightblue" d="M177.274,-39.5C185.842,-39.5 194.494,-39.5 202.987,-39.5"/>
<polygon fill="midnightblue" stroke="midnightblue" points="177.271,-36.0001 167.271,-39.5 177.271,-43.0001 177.271,-36.0001"/>
</g>
<!-- Node3 -->
<g id="node3" class="node"><title>Node3</title>
<g id="a_node3"><a xlink:href="../../d8/dfa/classorg_1_1buildmlearn_1_1appstore_1_1activities_1_1_home_activity.html#a1a3c72988991108cb3f2f70b345a1a0d" target="_top" xlink:title="The method is executed first when the activity is created. ">
<polygon fill="none" stroke="black" points="422,-49.5 422,-79.5 589,-79.5 589,-49.5 422,-49.5"/>
<text text-anchor="start" x="430" y="-67.5" font-family="Helvetica,sans-Serif" font-size="10.00">org.buildmlearn.appstore.activities.</text>
<text text-anchor="middle" x="505.5" y="-56.5" font-family="Helvetica,sans-Serif" font-size="10.00">HomeActivity.onCreate</text>
</a>
</g>
</g>
<!-- Node2&#45;&gt;Node3 -->
<g id="edge2" class="edge"><title>Node2&#45;&gt;Node3</title>
<path fill="none" stroke="midnightblue" d="M385.294,-50.6066C397.525,-52.032 409.965,-53.482 421.969,-54.881"/>
<polygon fill="midnightblue" stroke="midnightblue" points="385.422,-47.0979 375.084,-49.4166 384.612,-54.0508 385.422,-47.0979"/>
</g>
<!-- Node4 -->
<g id="node4" class="node"><title>Node4</title>
<g id="a_node4"><a xlink:href="../../dc/d6e/classorg_1_1buildmlearn_1_1appstore_1_1adapters_1_1_my_apps_view_adapter.html#ab95b082936ebfbe1ca7120428e7024d7" target="_top" xlink:title="Binds the content to the view. ">
<polygon fill="none" stroke="black" points="411,-0.5 411,-30.5 600,-30.5 600,-0.5 411,-0.5"/>
<text text-anchor="start" x="419" y="-18.5" font-family="Helvetica,sans-Serif" font-size="10.00">org.buildmlearn.appstore.adapters.</text>
<text text-anchor="middle" x="505.5" y="-7.5" font-family="Helvetica,sans-Serif" font-size="10.00">MyAppsViewAdapter.onBindViewHolder</text>
</a>
</g>
</g>
<!-- Node2&#45;&gt;Node4 -->
<g id="edge3" class="edge"><title>Node2&#45;&gt;Node4</title>
<path fill="none" stroke="midnightblue" d="M385.027,-28.8676C393.55,-27.914 402.176,-26.9488 410.688,-25.9965"/>
<polygon fill="midnightblue" stroke="midnightblue" points="384.633,-25.3898 375.084,-29.9801 385.411,-32.3464 384.633,-25.3898"/>
</g>
</g>
</svg>
