<?xml version="1.0" encoding="UTF-8" standalone="no"?>
<!DOCTYPE svg PUBLIC "-//W3C//DTD SVG 1.1//EN"
 "http://www.w3.org/Graphics/SVG/1.1/DTD/svg11.dtd">
<!-- Generated by graphviz version 2.38.0 (20140413.2041)
 -->
<!-- Title: org.buildmlearn.appstore.models.FlashModel Pages: 1 -->
<svg width="252pt" height="165pt"
 viewBox="0.00 0.00 252.00 165.00" xmlns="http://www.w3.org/2000/svg" xmlns:xlink="http://www.w3.org/1999/xlink">
<g id="graph0" class="graph" transform="scale(1 1) rotate(0) translate(4 161)">
<title>org.buildmlearn.appstore.models.FlashModel</title>
<!-- Node1 -->
<g id="node1" class="node"><title>Node1</title>
<polygon fill="#bfbfbf" stroke="black" points="0,-0.5 0,-156.5 161,-156.5 161,-0.5 0,-0.5"/>
<text text-anchor="start" x="8" y="-144.5" font-family="Helvetica,sans-Serif" font-size="10.00">org.buildmlearn.appstore.models.</text>
<text text-anchor="middle" x="80.5" y="-133.5" font-family="Helvetica,sans-Serif" font-size="10.00">FlashModel</text>
<polyline fill="none" stroke="black" points="0,-126.5 161,-126.5 "/>
<text text-anchor="start" x="8" y="-114.5" font-family="Helvetica,sans-Serif" font-size="10.00">&#45; mName</text>
<text text-anchor="start" x="8" y="-103.5" font-family="Helvetica,sans-Serif" font-size="10.00">&#45; mAuthor</text>
<text text-anchor="start" x="8" y="-92.5" font-family="Helvetica,sans-Serif" font-size="10.00">&#45; mList</text>
<polyline fill="none" stroke="black" points="0,-85.5 161,-85.5 "/>
<text text-anchor="start" x="8" y="-73.5" font-family="Helvetica,sans-Serif" font-size="10.00">+ getAuthor()</text>
<text text-anchor="start" x="8" y="-62.5" font-family="Helvetica,sans-Serif" font-size="10.00">+ setAuthor()</text>
<text text-anchor="start" x="8" y="-51.5" font-family="Helvetica,sans-Serif" font-size="10.00">+ getName()</text>
<text text-anchor="start" x="8" y="-40.5" font-family="Helvetica,sans-Serif" font-size="10.00">+ setName()</text>
<text text-anchor="start" x="8" y="-29.5" font-family="Helvetica,sans-Serif" font-size="10.00">+ getList()</text>
<text text-anchor="start" x="8" y="-18.5" font-family="Helvetica,sans-Serif" font-size="10.00">+ setList()</text>
<text text-anchor="start" x="8" y="-7.5" font-family="Helvetica,sans-Serif" font-size="10.00">+ getInstance()</text>
</g>
<!-- Node1&#45;&gt;Node1 -->
<g id="edge1" class="edge"><title>Node1&#45;&gt;Node1</title>
<path fill="none" stroke="#404040" d="M161.27,-104.294C171.93,-99.8948 179,-91.2969 179,-78.5 179,-70.502 176.238,-64.1441 171.564,-59.4265"/>
<polygon fill="none" stroke="#404040" points="171.318,-59.2659 164.107,-59.3356 161.27,-52.7063 168.48,-52.6366 171.318,-59.2659"/>
<text text-anchor="middle" x="211.5" y="-76" font-family="Helvetica,sans-Serif" font-size="10.00"> &#45;mFlashModel</text>
</g>
</g>
</svg>
