<?xml version="1.0" encoding="UTF-8" standalone="no"?>
<!DOCTYPE svg PUBLIC "-//W3C//DTD SVG 1.1//EN"
 "http://www.w3.org/Graphics/SVG/1.1/DTD/svg11.dtd">
<!-- Generated by graphviz version 2.38.0 (20140413.2041)
 -->
<!-- Title: org.buildmlearn.appstore.utils.SlidingTabStrip.SlidingTabStrip Pages: 1 -->
<svg width="379pt" height="100pt"
 viewBox="0.00 0.00 379.00 99.50" xmlns="http://www.w3.org/2000/svg" xmlns:xlink="http://www.w3.org/1999/xlink">
<g id="graph0" class="graph" transform="scale(1 1) rotate(0) translate(4 95.5)">
<title>org.buildmlearn.appstore.utils.SlidingTabStrip.SlidingTabStrip</title>
<!-- Node1 -->
<g id="node1" class="node"><title>Node1</title>
<polygon fill="#bfbfbf" stroke="black" points="0,-33 0,-63 150,-63 150,-33 0,-33"/>
<text text-anchor="start" x="8" y="-51" font-family="Helvetica,sans-Serif" font-size="10.00">org.buildmlearn.appstore.utils.</text>
<text text-anchor="middle" x="75" y="-40" font-family="Helvetica,sans-Serif" font-size="10.00">SlidingTabStrip.SlidingTabStrip</text>
</g>
<!-- Node2 -->
<g id="node2" class="node"><title>Node2</title>
<g id="a_node2"><a xlink:href="../../d2/d6d/classorg_1_1buildmlearn_1_1appstore_1_1utils_1_1_sliding_tab_strip.html#ad1e0c92037e3b8bbfe747de043ab0878" target="_top" xlink:title="Set the alpha value of the. ">
<polygon fill="none" stroke="black" points="205,-61 205,-91 352,-91 352,-61 205,-61"/>
<text text-anchor="start" x="213" y="-79" font-family="Helvetica,sans-Serif" font-size="10.00">org.buildmlearn.appstore.utils.</text>
<text text-anchor="middle" x="278.5" y="-68" font-family="Helvetica,sans-Serif" font-size="10.00">SlidingTabStrip.setColorAlpha</text>
</a>
</g>
</g>
<!-- Node1&#45;&gt;Node2 -->
<g id="edge1" class="edge"><title>Node1&#45;&gt;Node2</title>
<path fill="none" stroke="midnightblue" d="M150.173,-58.3069C164.67,-60.3213 179.957,-62.4456 194.713,-64.4961"/>
<polygon fill="midnightblue" stroke="midnightblue" points="194.441,-67.9919 204.828,-65.9016 195.405,-61.0585 194.441,-67.9919"/>
</g>
<!-- Node3 -->
<g id="node3" class="node"><title>Node3</title>
<g id="a_node3"><a xlink:href="../../d7/d95/classorg_1_1buildmlearn_1_1appstore_1_1utils_1_1_sliding_tab_strip_1_1_simple_tab_colorizer.html#ac7f6cb67aab2132317215aeb8e8674fe" target="_top" xlink:title="Sets the Indicator colors for the Tabs. ">
<polygon fill="none" stroke="black" points="186,-0.5 186,-41.5 371,-41.5 371,-0.5 186,-0.5"/>
<text text-anchor="start" x="194" y="-29.5" font-family="Helvetica,sans-Serif" font-size="10.00">org.buildmlearn.appstore.utils.</text>
<text text-anchor="start" x="194" y="-18.5" font-family="Helvetica,sans-Serif" font-size="10.00">SlidingTabStrip.SimpleTabColorizer.set</text>
<text text-anchor="middle" x="278.5" y="-7.5" font-family="Helvetica,sans-Serif" font-size="10.00">IndicatorColors</text>
</a>
</g>
</g>
<!-- Node1&#45;&gt;Node3 -->
<g id="edge2" class="edge"><title>Node1&#45;&gt;Node3</title>
<path fill="none" stroke="midnightblue" d="M150.173,-38.0612C158.48,-36.9481 167.047,-35.8001 175.625,-34.6507"/>
<polygon fill="midnightblue" stroke="midnightblue" points="176.238,-38.0999 185.685,-33.3027 175.309,-31.1619 176.238,-38.0999"/>
</g>
</g>
</svg>
