<?xml version="1.0" encoding="UTF-8" standalone="no"?>
<!DOCTYPE svg PUBLIC "-//W3C//DTD SVG 1.1//EN"
 "http://www.w3.org/Graphics/SVG/1.1/DTD/svg11.dtd">
<!-- Generated by graphviz version 2.38.0 (20140413.2041)
 -->
<!-- Title: org.buildmlearn.appstore.utils.SlidingTabStrip.SimpleTabColorizer.setIndicatorColors Pages: 1 -->
<svg width="676pt" height="88pt"
 viewBox="0.00 0.00 676.00 88.00" xmlns="http://www.w3.org/2000/svg" xmlns:xlink="http://www.w3.org/1999/xlink">
<g id="graph0" class="graph" transform="scale(1 1) rotate(0) translate(4 84)">
<title>org.buildmlearn.appstore.utils.SlidingTabStrip.SimpleTabColorizer.setIndicatorColors</title>
<!-- Node1 -->
<g id="node1" class="node"><title>Node1</title>
<polygon fill="#bfbfbf" stroke="black" points="0,-19 0,-60 185,-60 185,-19 0,-19"/>
<text text-anchor="start" x="8" y="-48" font-family="Helvetica,sans-Serif" font-size="10.00">org.buildmlearn.appstore.utils.</text>
<text text-anchor="start" x="8" y="-37" font-family="Helvetica,sans-Serif" font-size="10.00">SlidingTabStrip.SimpleTabColorizer.set</text>
<text text-anchor="middle" x="92.5" y="-26" font-family="Helvetica,sans-Serif" font-size="10.00">IndicatorColors</text>
</g>
<!-- Node2 -->
<g id="node2" class="node"><title>Node2</title>
<g id="a_node2"><a xlink:href="$d2/d6d/classorg_1_1buildmlearn_1_1appstore_1_1utils_1_1_sliding_tab_strip.html#aa05ff2b028372fd3c3d17644e8c7693a" xlink:title="Constructor of the Helper class. ">
<polygon fill="none" stroke="black" points="246.5,-49.5 246.5,-79.5 396.5,-79.5 396.5,-49.5 246.5,-49.5"/>
<text text-anchor="start" x="254.5" y="-67.5" font-family="Helvetica,sans-Serif" font-size="10.00">org.buildmlearn.appstore.utils.</text>
<text text-anchor="middle" x="321.5" y="-56.5" font-family="Helvetica,sans-Serif" font-size="10.00">SlidingTabStrip.SlidingTabStrip</text>
</a>
</g>
</g>
<!-- Node1&#45;&gt;Node2 -->
<g id="edge1" class="edge"><title>Node1&#45;&gt;Node2</title>
<path fill="none" stroke="midnightblue" d="M195.234,-50.7042C212.41,-52.5959 229.95,-54.5275 246.256,-56.3234"/>
<polygon fill="midnightblue" stroke="midnightblue" points="195.498,-47.2122 185.175,-49.5964 194.732,-54.1702 195.498,-47.2122"/>
</g>
<!-- Node3 -->
<g id="node3" class="node"><title>Node3</title>
<g id="a_node3"><a xlink:href="$d2/d6d/classorg_1_1buildmlearn_1_1appstore_1_1utils_1_1_sliding_tab_strip.html#a83d4b6bd9114a7d661b6db66339b64b2" xlink:title="Set the Color to the active Tab. ">
<polygon fill="none" stroke="black" points="221,-0.5 221,-30.5 422,-30.5 422,-0.5 221,-0.5"/>
<text text-anchor="start" x="229" y="-18.5" font-family="Helvetica,sans-Serif" font-size="10.00">org.buildmlearn.appstore.utils.</text>
<text text-anchor="middle" x="321.5" y="-7.5" font-family="Helvetica,sans-Serif" font-size="10.00">SlidingTabStrip.setSelectedIndicatorColors</text>
</a>
</g>
</g>
<!-- Node1&#45;&gt;Node3 -->
<g id="edge2" class="edge"><title>Node1&#45;&gt;Node3</title>
<path fill="none" stroke="midnightblue" d="M195.38,-28.7285C203.792,-27.8392 212.289,-26.9408 220.685,-26.0531"/>
<polygon fill="midnightblue" stroke="midnightblue" points="194.752,-25.2754 185.175,-29.8075 195.488,-32.2366 194.752,-25.2754"/>
</g>
<!-- Node4 -->
<g id="node4" class="node"><title>Node4</title>
<g id="a_node4"><a xlink:href="$d8/dcb/classorg_1_1buildmlearn_1_1appstore_1_1utils_1_1_sliding_tab_layout.html#a380c66569aaebb5e4967bb682d1bf0dd" xlink:title="Sets the colors to be used for indicating the selected tab. ">
<polygon fill="none" stroke="black" points="458,-0.5 458,-30.5 668,-30.5 668,-0.5 458,-0.5"/>
<text text-anchor="start" x="466" y="-18.5" font-family="Helvetica,sans-Serif" font-size="10.00">org.buildmlearn.appstore.utils.</text>
<text text-anchor="middle" x="563" y="-7.5" font-family="Helvetica,sans-Serif" font-size="10.00">SlidingTabLayout.setSelectedIndicatorColors</text>
</a>
</g>
</g>
<!-- Node3&#45;&gt;Node4 -->
<g id="edge3" class="edge"><title>Node3&#45;&gt;Node4</title>
<path fill="none" stroke="midnightblue" d="M432.518,-15.5C440.901,-15.5 449.349,-15.5 457.694,-15.5"/>
<polygon fill="midnightblue" stroke="midnightblue" points="432.335,-12.0001 422.335,-15.5 432.335,-19.0001 432.335,-12.0001"/>
</g>
</g>
</svg>
