<?xml version="1.0" encoding="UTF-8" standalone="no"?>
<!DOCTYPE svg PUBLIC "-//W3C//DTD SVG 1.1//EN"
 "http://www.w3.org/Graphics/SVG/1.1/DTD/svg11.dtd">
<!-- Generated by graphviz version 2.38.0 (20140413.2041)
 -->
<!-- Title: org.buildmlearn.appstore.activities.SettingsActivity.bindPreferenceSummaryToValue Pages: 1 -->
<svg width="665pt" height="50pt"
 viewBox="0.00 0.00 665.00 50.00" xmlns="http://www.w3.org/2000/svg" xmlns:xlink="http://www.w3.org/1999/xlink">
<g id="graph0" class="graph" transform="scale(1 1) rotate(0) translate(4 46)">
<title>org.buildmlearn.appstore.activities.SettingsActivity.bindPreferenceSummaryToValue</title>
<!-- Node1 -->
<g id="node1" class="node"><title>Node1</title>
<polygon fill="#bfbfbf" stroke="black" points="0,-0.5 0,-41.5 194,-41.5 194,-0.5 0,-0.5"/>
<text text-anchor="start" x="8" y="-29.5" font-family="Helvetica,sans-Serif" font-size="10.00">org.buildmlearn.appstore.activities.</text>
<text text-anchor="start" x="8" y="-18.5" font-family="Helvetica,sans-Serif" font-size="10.00">SettingsActivity.bindPreferenceSummary</text>
<text text-anchor="middle" x="97" y="-7.5" font-family="Helvetica,sans-Serif" font-size="10.00">ToValue</text>
</g>
<!-- Node2 -->
<g id="node2" class="node"><title>Node2</title>
<g id="a_node2"><a xlink:href="$d7/d35/classorg_1_1buildmlearn_1_1appstore_1_1activities_1_1_settings_activity.html#a37ba985470ade6df6862fef74ff540de" xlink:title="Shows the simplified settings UI if the device configuration if the device configuration dictates tha...">
<polygon fill="none" stroke="black" points="230,-6 230,-36 454,-36 454,-6 230,-6"/>
<text text-anchor="start" x="238" y="-24" font-family="Helvetica,sans-Serif" font-size="10.00">org.buildmlearn.appstore.activities.</text>
<text text-anchor="middle" x="342" y="-13" font-family="Helvetica,sans-Serif" font-size="10.00">SettingsActivity.setupSimplePreferencesScreen</text>
</a>
</g>
</g>
<!-- Node1&#45;&gt;Node2 -->
<g id="edge1" class="edge"><title>Node1&#45;&gt;Node2</title>
<path fill="none" stroke="midnightblue" d="M204.071,-21C212.666,-21 221.366,-21 229.995,-21"/>
<polygon fill="midnightblue" stroke="midnightblue" points="204.04,-17.5001 194.04,-21 204.04,-24.5001 204.04,-17.5001"/>
</g>
<!-- Node3 -->
<g id="node3" class="node"><title>Node3</title>
<g id="a_node3"><a xlink:href="$d7/d35/classorg_1_1buildmlearn_1_1appstore_1_1activities_1_1_settings_activity.html#a963635e555c52a885b59d8712a716672" xlink:title="org.buildmlearn.appstore.activities.\lSettingsActivity.onPostCreate">
<polygon fill="none" stroke="black" points="490,-6 490,-36 657,-36 657,-6 490,-6"/>
<text text-anchor="start" x="498" y="-24" font-family="Helvetica,sans-Serif" font-size="10.00">org.buildmlearn.appstore.activities.</text>
<text text-anchor="middle" x="573.5" y="-13" font-family="Helvetica,sans-Serif" font-size="10.00">SettingsActivity.onPostCreate</text>
</a>
</g>
</g>
<!-- Node2&#45;&gt;Node3 -->
<g id="edge2" class="edge"><title>Node2&#45;&gt;Node3</title>
<path fill="none" stroke="midnightblue" d="M464.19,-21C472.817,-21 481.395,-21 489.728,-21"/>
<polygon fill="midnightblue" stroke="midnightblue" points="464.053,-17.5001 454.053,-21 464.053,-24.5001 464.053,-17.5001"/>
</g>
</g>
</svg>
