<?xml version="1.0" encoding="UTF-8" standalone="no"?>
<!DOCTYPE svg PUBLIC "-//W3C//DTD SVG 1.1//EN"
 "http://www.w3.org/Graphics/SVG/1.1/DTD/svg11.dtd">
<!-- Generated by graphviz version 2.38.0 (20140413.2041)
 -->
<!-- Title: org.buildmlearn.appstore.activities.SettingsActivity.onIsMultiPane Pages: 1 -->
<svg width="590pt" height="61pt"
 viewBox="0.00 0.00 590.00 61.00" xmlns="http://www.w3.org/2000/svg" xmlns:xlink="http://www.w3.org/1999/xlink">
<g id="graph0" class="graph" transform="scale(1 1) rotate(0) translate(4 57)">
<title>org.buildmlearn.appstore.activities.SettingsActivity.onIsMultiPane</title>
<!-- Node1 -->
<g id="node1" class="node"><title>Node1</title>
<polygon fill="#bfbfbf" stroke="black" points="0,-22.5 0,-52.5 167,-52.5 167,-22.5 0,-22.5"/>
<text text-anchor="start" x="8" y="-40.5" font-family="Helvetica,sans-Serif" font-size="10.00">org.buildmlearn.appstore.activities.</text>
<text text-anchor="middle" x="83.5" y="-29.5" font-family="Helvetica,sans-Serif" font-size="10.00">SettingsActivity.onIsMultiPane</text>
</g>
<!-- Node2 -->
<g id="node2" class="node"><title>Node2</title>
<g id="a_node2"><a xlink:href="$d7/d35/classorg_1_1buildmlearn_1_1appstore_1_1activities_1_1_settings_activity.html#a03783015733c15e832fa994286ac519b" xlink:title="Helper method to determine if the device has an extra&#45;large screen. ">
<polygon fill="none" stroke="black" points="415,-22.5 415,-52.5 582,-52.5 582,-22.5 415,-22.5"/>
<text text-anchor="start" x="423" y="-40.5" font-family="Helvetica,sans-Serif" font-size="10.00">org.buildmlearn.appstore.activities.</text>
<text text-anchor="middle" x="498.5" y="-29.5" font-family="Helvetica,sans-Serif" font-size="10.00">SettingsActivity.isXLargeTablet</text>
</a>
</g>
</g>
<!-- Node1&#45;&gt;Node2 -->
<g id="edge1" class="edge"><title>Node1&#45;&gt;Node2</title>
<path fill="none" stroke="midnightblue" d="M167.049,-39.858C179.107,-40.1245 191.374,-40.3529 203,-40.5 281.216,-41.4899 300.784,-41.4899 379,-40.5 387.357,-40.3942 396.044,-40.2465 404.746,-40.0729"/>
<polygon fill="midnightblue" stroke="midnightblue" points="405.027,-43.5678 414.951,-39.858 404.879,-36.5694 405.027,-43.5678"/>
</g>
<!-- Node3 -->
<g id="node3" class="node"><title>Node3</title>
<g id="a_node3"><a xlink:href="$d7/d35/classorg_1_1buildmlearn_1_1appstore_1_1activities_1_1_settings_activity.html#a41e13cf6763dacaa6be05fb9e7aa37ce" xlink:title="Determines whether the simplified settings UI should be shown. ">
<polygon fill="none" stroke="black" points="203,-0.5 203,-30.5 379,-30.5 379,-0.5 203,-0.5"/>
<text text-anchor="start" x="211" y="-18.5" font-family="Helvetica,sans-Serif" font-size="10.00">org.buildmlearn.appstore.activities.</text>
<text text-anchor="middle" x="291" y="-7.5" font-family="Helvetica,sans-Serif" font-size="10.00">SettingsActivity.isSimplePreferences</text>
</a>
</g>
</g>
<!-- Node1&#45;&gt;Node3 -->
<g id="edge2" class="edge"><title>Node1&#45;&gt;Node3</title>
<path fill="none" stroke="midnightblue" d="M167.196,-28.6469C175.613,-27.7458 184.217,-26.8247 192.77,-25.9091"/>
<polygon fill="midnightblue" stroke="midnightblue" points="193.202,-29.3829 202.772,-24.8383 192.456,-22.4227 193.202,-29.3829"/>
</g>
<!-- Node3&#45;&gt;Node2 -->
<g id="edge3" class="edge"><title>Node3&#45;&gt;Node2</title>
<path fill="none" stroke="midnightblue" d="M379.151,-24.83C387.642,-25.7391 396.279,-26.6637 404.823,-27.5783"/>
<polygon fill="midnightblue" stroke="midnightblue" points="404.479,-31.0614 414.794,-28.6459 405.224,-24.1012 404.479,-31.0614"/>
</g>
</g>
</svg>
