<?xml version="1.0" encoding="UTF-8" standalone="no"?>
<!DOCTYPE svg PUBLIC "-//W3C//DTD SVG 1.1//EN"
 "http://www.w3.org/Graphics/SVG/1.1/DTD/svg11.dtd">
<!-- Generated by graphviz version 2.38.0 (20140413.2041)
 -->
<!-- Title: org.buildmlearn.appstore.activities.StartActivity.FileReadTask.onPostExecute Pages: 1 -->
<!--zoomable 578 -->
<svg id="main" version="1.1" xmlns="http://www.w3.org/2000/svg" xmlns:xlink="http://www.w3.org/1999/xlink" xml:space="preserve" onload="init(evt)">
<style type="text/css"><![CDATA[
.edge:hover path { stroke: red; }
.edge:hover polygon { stroke: red; fill: red; }
]]></style>
<script type="text/javascript"><![CDATA[
var edges = document.getElementsByTagName('g');
if (edges && edges.length) {
  for (var i=0;i<edges.length;i++) {
    if (edges[i].id.substr(0,4)=='edge') {
      edges[i].setAttribute('class','edge');
    }
  }
}
]]></script>
        <defs>
                <circle id="rim" cx="0" cy="0" r="7"/>
                <circle id="rim2" cx="0" cy="0" r="3.5"/>
                <g id="zoomPlus">
                        <use xlink:href="#rim" fill="#404040">
                                <set attributeName="fill" to="#808080" begin="zoomplus.mouseover" end="zoomplus.mouseout"/>
                        </use>
                        <path d="M-4,0h8M0,-4v8" fill="none" stroke="white" stroke-width="1.5" pointer-events="none"/>
                </g>
                <g id="zoomMin">
                        <use xlink:href="#rim" fill="#404040">
                                <set attributeName="fill" to="#808080" begin="zoomminus.mouseover" end="zoomminus.mouseout"/>
                        </use>
                        <path d="M-4,0h8" fill="none" stroke="white" stroke-width="1.5" pointer-events="none"/>
                </g>
                <g id="dirArrow">
                        <path fill="none" stroke="white" stroke-width="1.5" d="M0,-3.0v7 M-2.5,-0.5L0,-3.0L2.5,-0.5"/>
                </g>
               <g id="resetDef">
                       <use xlink:href="#rim2" fill="#404040">
                               <set attributeName="fill" to="#808080" begin="reset.mouseover" end="reset.mouseout"/>
                       </use>
               </g>
        </defs>

<script type="text/javascript">
var viewWidth = 406;
var viewHeight = 578;
var sectionId = 'dynsection-2';
</script>
<script xlink:href="../../svgpan.js"/>
<svg id="graph" class="graph">
<g id="viewport">
<title>org.buildmlearn.appstore.activities.StartActivity.FileReadTask.onPostExecute</title>
<!-- Node1 -->
<g id="node1" class="node"><title>Node1</title>
<polygon fill="#bfbfbf" stroke="black" points="0,-269.5 0,-299.5 201,-299.5 201,-269.5 0,-269.5"/>
<text text-anchor="start" x="8" y="-287.5" font-family="Helvetica,sans-Serif" font-size="10.00">org.buildmlearn.appstore.activities.</text>
<text text-anchor="middle" x="100.5" y="-276.5" font-family="Helvetica,sans-Serif" font-size="10.00">StartActivity.FileReadTask.onPostExecute</text>
</g>
<!-- Node2 -->
<g id="node2" class="node"><title>Node2</title>
<g id="a_node2"><a xlink:href="../../d2/d32/classorg_1_1buildmlearn_1_1appstore_1_1models_1_1_info_model.html#a36f373dfeec1b5bb676195a047d401e5" target="_top" xlink:title="org.buildmlearn.appstore.models.\lInfoModel.getInstance">
<polygon fill="none" stroke="black" points="237,-539.5 237,-569.5 398,-569.5 398,-539.5 237,-539.5"/>
<text text-anchor="start" x="245" y="-557.5" font-family="Helvetica,sans-Serif" font-size="10.00">org.buildmlearn.appstore.models.</text>
<text text-anchor="middle" x="317.5" y="-546.5" font-family="Helvetica,sans-Serif" font-size="10.00">InfoModel.getInstance</text>
</a>
</g>
</g>
<!-- Node1&#45;&gt;Node2 -->
<g id="edge1" class="edge"><title>Node1&#45;&gt;Node2</title>
<path fill="none" stroke="midnightblue" d="M105.428,-299.541C117.405,-342.41 157.588,-466.249 237,-530.5 238.597,-531.792 240.263,-533.015 241.984,-534.172"/>
<polygon fill="midnightblue" stroke="midnightblue" points="240.598,-537.415 251.001,-539.426 244.123,-531.367 240.598,-537.415"/>
</g>
<!-- Node3 -->
<g id="node3" class="node"><title>Node3</title>
<g id="a_node3"><a xlink:href="../../d2/d32/classorg_1_1buildmlearn_1_1appstore_1_1models_1_1_info_model.html#a6f97a432628d64f71923b4edd27f83fe" target="_top" xlink:title="org.buildmlearn.appstore.models.\lInfoModel.getInfoAuthor">
<polygon fill="none" stroke="black" points="237,-490.5 237,-520.5 398,-520.5 398,-490.5 237,-490.5"/>
<text text-anchor="start" x="245" y="-508.5" font-family="Helvetica,sans-Serif" font-size="10.00">org.buildmlearn.appstore.models.</text>
<text text-anchor="middle" x="317.5" y="-497.5" font-family="Helvetica,sans-Serif" font-size="10.00">InfoModel.getInfoAuthor</text>
</a>
</g>
</g>
<!-- Node1&#45;&gt;Node3 -->
<g id="edge2" class="edge"><title>Node1&#45;&gt;Node3</title>
<path fill="none" stroke="midnightblue" d="M107.651,-299.672C123.396,-336.582 168.78,-431.682 237,-481.5 238.892,-482.882 240.864,-484.185 242.899,-485.413"/>
<polygon fill="midnightblue" stroke="midnightblue" points="241.69,-488.735 252.163,-490.338 244.976,-482.554 241.69,-488.735"/>
</g>
<!-- Node4 -->
<g id="node4" class="node"><title>Node4</title>
<g id="a_node4"><a xlink:href="../../d2/d32/classorg_1_1buildmlearn_1_1appstore_1_1models_1_1_info_model.html#a032f70e5afd85c2adca8b3fde854341a" target="_top" xlink:title="org.buildmlearn.appstore.models.\lInfoModel.getInfoName">
<polygon fill="none" stroke="black" points="237,-441.5 237,-471.5 398,-471.5 398,-441.5 237,-441.5"/>
<text text-anchor="start" x="245" y="-459.5" font-family="Helvetica,sans-Serif" font-size="10.00">org.buildmlearn.appstore.models.</text>
<text text-anchor="middle" x="317.5" y="-448.5" font-family="Helvetica,sans-Serif" font-size="10.00">InfoModel.getInfoName</text>
</a>
</g>
</g>
<!-- Node1&#45;&gt;Node4 -->
<g id="edge3" class="edge"><title>Node1&#45;&gt;Node4</title>
<path fill="none" stroke="midnightblue" d="M111.118,-299.545C130.975,-329.395 179.492,-396.339 237,-432.5 239.601,-434.136 242.32,-435.665 245.12,-437.095"/>
<polygon fill="midnightblue" stroke="midnightblue" points="243.741,-440.314 254.287,-441.33 246.677,-433.959 243.741,-440.314"/>
</g>
<!-- Node5 -->
<g id="node5" class="node"><title>Node5</title>
<g id="a_node5"><a xlink:href="../../d9/d64/classorg_1_1buildmlearn_1_1appstore_1_1models_1_1_flash_model.html#ad7225d1b4d75db6f5ce8755339783f28" target="_top" xlink:title="org.buildmlearn.appstore.models.\lFlashModel.getInstance">
<polygon fill="none" stroke="black" points="237,-392.5 237,-422.5 398,-422.5 398,-392.5 237,-392.5"/>
<text text-anchor="start" x="245" y="-410.5" font-family="Helvetica,sans-Serif" font-size="10.00">org.buildmlearn.appstore.models.</text>
<text text-anchor="middle" x="317.5" y="-399.5" font-family="Helvetica,sans-Serif" font-size="10.00">FlashModel.getInstance</text>
</a>
</g>
</g>
<!-- Node1&#45;&gt;Node5 -->
<g id="edge4" class="edge"><title>Node1&#45;&gt;Node5</title>
<path fill="none" stroke="midnightblue" d="M118.232,-299.671C142.672,-321.112 190.319,-360.251 237,-383.5 240.775,-385.38 244.725,-387.144 248.761,-388.793"/>
<polygon fill="midnightblue" stroke="midnightblue" points="247.701,-392.135 258.292,-392.436 250.2,-385.596 247.701,-392.135"/>
</g>
<!-- Node6 -->
<g id="node6" class="node"><title>Node6</title>
<g id="a_node6"><a xlink:href="../../d9/d64/classorg_1_1buildmlearn_1_1appstore_1_1models_1_1_flash_model.html#a488455de9ef33d5134379e4f363d2581" target="_top" xlink:title="org.buildmlearn.appstore.models.\lFlashModel.getAuthor">
<polygon fill="none" stroke="black" points="237,-343.5 237,-373.5 398,-373.5 398,-343.5 237,-343.5"/>
<text text-anchor="start" x="245" y="-361.5" font-family="Helvetica,sans-Serif" font-size="10.00">org.buildmlearn.appstore.models.</text>
<text text-anchor="middle" x="317.5" y="-350.5" font-family="Helvetica,sans-Serif" font-size="10.00">FlashModel.getAuthor</text>
</a>
</g>
</g>
<!-- Node1&#45;&gt;Node6 -->
<g id="edge5" class="edge"><title>Node1&#45;&gt;Node6</title>
<path fill="none" stroke="midnightblue" d="M140.414,-299.568C167.379,-309.835 204.19,-323.505 237,-334.5 242.921,-336.484 249.114,-338.484 255.318,-340.437"/>
<polygon fill="midnightblue" stroke="midnightblue" points="254.449,-343.832 265.037,-343.459 256.528,-337.148 254.449,-343.832"/>
</g>
<!-- Node7 -->
<g id="node7" class="node"><title>Node7</title>
<g id="a_node7"><a xlink:href="../../d9/d64/classorg_1_1buildmlearn_1_1appstore_1_1models_1_1_flash_model.html#a8f57ed59495dd90b0b5934a43f025543" target="_top" xlink:title="org.buildmlearn.appstore.models.\lFlashModel.getName">
<polygon fill="none" stroke="black" points="237,-294.5 237,-324.5 398,-324.5 398,-294.5 237,-294.5"/>
<text text-anchor="start" x="245" y="-312.5" font-family="Helvetica,sans-Serif" font-size="10.00">org.buildmlearn.appstore.models.</text>
<text text-anchor="middle" x="317.5" y="-301.5" font-family="Helvetica,sans-Serif" font-size="10.00">FlashModel.getName</text>
</a>
</g>
</g>
<!-- Node1&#45;&gt;Node7 -->
<g id="edge6" class="edge"><title>Node1&#45;&gt;Node7</title>
<path fill="none" stroke="midnightblue" d="M201.133,-296.085C209.645,-297.075 218.223,-298.072 226.652,-299.053"/>
<polygon fill="midnightblue" stroke="midnightblue" points="226.509,-302.559 236.846,-300.238 227.317,-295.606 226.509,-302.559"/>
</g>
<!-- Node8 -->
<g id="node8" class="node"><title>Node8</title>
<g id="a_node8"><a xlink:href="../../da/d2e/classorg_1_1buildmlearn_1_1appstore_1_1models_1_1_quiz_model.html#afd56bc8e8b1e5fdd506622bae6362f73" target="_top" xlink:title="org.buildmlearn.appstore.models.\lQuizModel.getInstance">
<polygon fill="none" stroke="black" points="237,-245.5 237,-275.5 398,-275.5 398,-245.5 237,-245.5"/>
<text text-anchor="start" x="245" y="-263.5" font-family="Helvetica,sans-Serif" font-size="10.00">org.buildmlearn.appstore.models.</text>
<text text-anchor="middle" x="317.5" y="-252.5" font-family="Helvetica,sans-Serif" font-size="10.00">QuizModel.getInstance</text>
</a>
</g>
</g>
<!-- Node1&#45;&gt;Node8 -->
<g id="edge7" class="edge"><title>Node1&#45;&gt;Node8</title>
<path fill="none" stroke="midnightblue" d="M201.133,-273.378C209.645,-272.428 218.223,-271.47 226.652,-270.53"/>
<polygon fill="midnightblue" stroke="midnightblue" points="227.296,-273.979 236.846,-269.392 226.519,-267.023 227.296,-273.979"/>
</g>
<!-- Node9 -->
<g id="node9" class="node"><title>Node9</title>
<g id="a_node9"><a xlink:href="../../da/d2e/classorg_1_1buildmlearn_1_1appstore_1_1models_1_1_quiz_model.html#a9585dbb090a8acb42abf77b7f2949c64" target="_top" xlink:title="org.buildmlearn.appstore.models.\lQuizModel.getQuizAuthor">
<polygon fill="none" stroke="black" points="237,-196.5 237,-226.5 398,-226.5 398,-196.5 237,-196.5"/>
<text text-anchor="start" x="245" y="-214.5" font-family="Helvetica,sans-Serif" font-size="10.00">org.buildmlearn.appstore.models.</text>
<text text-anchor="middle" x="317.5" y="-203.5" font-family="Helvetica,sans-Serif" font-size="10.00">QuizModel.getQuizAuthor</text>
</a>
</g>
</g>
<!-- Node1&#45;&gt;Node9 -->
<g id="edge8" class="edge"><title>Node1&#45;&gt;Node9</title>
<path fill="none" stroke="midnightblue" d="M142.88,-269.409C169.644,-259.755 205.283,-247.101 237,-236.5 243.793,-234.23 250.931,-231.903 258.027,-229.626"/>
<polygon fill="midnightblue" stroke="midnightblue" points="259.175,-232.933 267.64,-226.562 257.05,-226.264 259.175,-232.933"/>
</g>
<!-- Node10 -->
<g id="node10" class="node"><title>Node10</title>
<g id="a_node10"><a xlink:href="../../da/d2e/classorg_1_1buildmlearn_1_1appstore_1_1models_1_1_quiz_model.html#ad8b77ee2f097056dd3926a7b245b46b1" target="_top" xlink:title="org.buildmlearn.appstore.models.\lQuizModel.getQuizName">
<polygon fill="none" stroke="black" points="237,-147.5 237,-177.5 398,-177.5 398,-147.5 237,-147.5"/>
<text text-anchor="start" x="245" y="-165.5" font-family="Helvetica,sans-Serif" font-size="10.00">org.buildmlearn.appstore.models.</text>
<text text-anchor="middle" x="317.5" y="-154.5" font-family="Helvetica,sans-Serif" font-size="10.00">QuizModel.getQuizName</text>
</a>
</g>
</g>
<!-- Node1&#45;&gt;Node10 -->
<g id="edge9" class="edge"><title>Node1&#45;&gt;Node10</title>
<path fill="none" stroke="midnightblue" d="M118.74,-269.378C143.414,-248.411 190.925,-210.5 237,-187.5 241.575,-185.216 246.403,-183.086 251.325,-181.112"/>
<polygon fill="midnightblue" stroke="midnightblue" points="252.751,-184.315 260.868,-177.506 250.276,-177.767 252.751,-184.315"/>
</g>
<!-- Node11 -->
<g id="node11" class="node"><title>Node11</title>
<g id="a_node11"><a xlink:href="../../d9/d29/classorg_1_1buildmlearn_1_1appstore_1_1models_1_1_spellings_model.html#af291064e82c76410196621b65c4703fb" target="_top" xlink:title="org.buildmlearn.appstore.models.\lSpellingsModel.getInstance">
<polygon fill="none" stroke="black" points="237,-98.5 237,-128.5 398,-128.5 398,-98.5 237,-98.5"/>
<text text-anchor="start" x="245" y="-116.5" font-family="Helvetica,sans-Serif" font-size="10.00">org.buildmlearn.appstore.models.</text>
<text text-anchor="middle" x="317.5" y="-105.5" font-family="Helvetica,sans-Serif" font-size="10.00">SpellingsModel.getInstance</text>
</a>
</g>
</g>
<!-- Node1&#45;&gt;Node11 -->
<g id="edge10" class="edge"><title>Node1&#45;&gt;Node11</title>
<path fill="none" stroke="midnightblue" d="M111.515,-269.265C131.717,-239.707 180.291,-174.345 237,-138.5 240.344,-136.386 243.881,-134.439 247.531,-132.646"/>
<polygon fill="midnightblue" stroke="midnightblue" points="249.093,-135.782 256.792,-128.503 246.235,-129.392 249.093,-135.782"/>
</g>
<!-- Node12 -->
<g id="node12" class="node"><title>Node12</title>
<g id="a_node12"><a xlink:href="../../d9/d29/classorg_1_1buildmlearn_1_1appstore_1_1models_1_1_spellings_model.html#a6e60122c1147d84f2c015c476c1245c0" target="_top" xlink:title="org.buildmlearn.appstore.models.\lSpellingsModel.getPuzzleAuthor">
<polygon fill="none" stroke="black" points="237,-49.5 237,-79.5 398,-79.5 398,-49.5 237,-49.5"/>
<text text-anchor="start" x="245" y="-67.5" font-family="Helvetica,sans-Serif" font-size="10.00">org.buildmlearn.appstore.models.</text>
<text text-anchor="middle" x="317.5" y="-56.5" font-family="Helvetica,sans-Serif" font-size="10.00">SpellingsModel.getPuzzleAuthor</text>
</a>
</g>
</g>
<!-- Node1&#45;&gt;Node12 -->
<g id="edge11" class="edge"><title>Node1&#45;&gt;Node12</title>
<path fill="none" stroke="midnightblue" d="M107.85,-269.262C123.882,-232.645 169.581,-139.08 237,-89.5 239.623,-87.5713 242.398,-85.7886 245.28,-84.141"/>
<polygon fill="midnightblue" stroke="midnightblue" points="246.878,-87.2549 254.195,-79.5929 243.697,-81.0193 246.878,-87.2549"/>
</g>
<!-- Node13 -->
<g id="node13" class="node"><title>Node13</title>
<g id="a_node13"><a xlink:href="../../d9/d29/classorg_1_1buildmlearn_1_1appstore_1_1models_1_1_spellings_model.html#a42ee50162a58bd2ca2ae66f1ee9b5a0d" target="_top" xlink:title="org.buildmlearn.appstore.models.\lSpellingsModel.getPuzzleName">
<polygon fill="none" stroke="black" points="237,-0.5 237,-30.5 398,-30.5 398,-0.5 237,-0.5"/>
<text text-anchor="start" x="245" y="-18.5" font-family="Helvetica,sans-Serif" font-size="10.00">org.buildmlearn.appstore.models.</text>
<text text-anchor="middle" x="317.5" y="-7.5" font-family="Helvetica,sans-Serif" font-size="10.00">SpellingsModel.getPuzzleName</text>
</a>
</g>
</g>
<!-- Node1&#45;&gt;Node13 -->
<g id="edge12" class="edge"><title>Node1&#45;&gt;Node13</title>
<path fill="none" stroke="midnightblue" d="M105.59,-269.32C117.873,-226.636 158.528,-104.514 237,-40.5 239.06,-38.8195 241.234,-37.2514 243.495,-35.7883"/>
<polygon fill="midnightblue" stroke="midnightblue" points="245.604,-38.6164 252.589,-30.6495 242.161,-32.5221 245.604,-38.6164"/>
</g>
</g>
</svg>
        <g id="navigator" transform="translate(0 0)" fill="#404254">
                <rect fill="#f2f5e9" fill-opacity="0.5" stroke="#606060" stroke-width=".5" x="0" y="0" width="60" height="60"/>
                <use id="zoomplus" xlink:href="#zoomPlus" x="17" y="9" onmousedown="handleZoom(evt,'in')"/>
                <use id="zoomminus" xlink:href="#zoomMin" x="42" y="9" onmousedown="handleZoom(evt,'out')"/>
                <use id="reset" xlink:href="#resetDef" x="30" y="36" onmousedown="handleReset()"/>
                <g id="arrowUp" xlink:href="#dirArrow" transform="translate(30 24)" onmousedown="handlePan(0,-1)">
                  <use xlink:href="#rim" fill="#404040">
                        <set attributeName="fill" to="#808080" begin="arrowUp.mouseover" end="arrowUp.mouseout"/>
                  </use>
                  <path fill="none" stroke="white" stroke-width="1.5" d="M0,-3.0v7 M-2.5,-0.5L0,-3.0L2.5,-0.5"/>
                </g>
                <g id="arrowRight" xlink:href="#dirArrow" transform="rotate(90) translate(36 -43)" onmousedown="handlePan(1,0)">
                  <use xlink:href="#rim" fill="#404040">
                        <set attributeName="fill" to="#808080" begin="arrowRight.mouseover" end="arrowRight.mouseout"/>
                  </use>
                  <path fill="none" stroke="white" stroke-width="1.5" d="M0,-3.0v7 M-2.5,-0.5L0,-3.0L2.5,-0.5"/>
                </g>
                <g id="arrowDown" xlink:href="#dirArrow" transform="rotate(180) translate(-30 -48)" onmousedown="handlePan(0,1)">
                  <use xlink:href="#rim" fill="#404040">
                        <set attributeName="fill" to="#808080" begin="arrowDown.mouseover" end="arrowDown.mouseout"/>
                  </use>
                  <path fill="none" stroke="white" stroke-width="1.5" d="M0,-3.0v7 M-2.5,-0.5L0,-3.0L2.5,-0.5"/>
                </g>
                <g id="arrowLeft" xlink:href="#dirArrow" transform="rotate(270) translate(-36 17)" onmousedown="handlePan(-1,0)">
                  <use xlink:href="#rim" fill="#404040">
                        <set attributeName="fill" to="#808080" begin="arrowLeft.mouseover" end="arrowLeft.mouseout"/>
                  </use>
                  <path fill="none" stroke="white" stroke-width="1.5" d="M0,-3.0v7 M-2.5,-0.5L0,-3.0L2.5,-0.5"/>
                </g>
        </g>
        <svg viewBox="0 0 15 15" width="100%" height="30px" preserveAspectRatio="xMaxYMin meet">
         <g id="arrow_out" transform="scale(0.3 0.3)">
          <a xlink:href="classorg_1_1buildmlearn_1_1appstore_1_1activities_1_1_start_activity_1_1_file_read_task_a1170e20ba70058ef64883f3cc85e209b_cgraph_org.svg" target="_base">
           <rect id="button" ry="5" rx="5" y="6" x="6" height="38" width="38"
                fill="#f2f5e9" fill-opacity="0.5" stroke="#606060" stroke-width="1.0"/>
           <path id="arrow"
             d="M 11.500037,31.436501 C 11.940474,20.09759 22.043105,11.32322 32.158766,21.979434 L 37.068811,17.246167 C 37.068811,17.246167 37.088388,32 37.088388,32 L 22.160133,31.978069 C 22.160133,31.978069 26.997745,27.140456 26.997745,27.140456 C 18.528582,18.264221 13.291696,25.230495 11.500037,31.436501 z"
             style="fill:#404040;"/>
          </a>
         </g>
        </svg>
</svg>
