<?xml version="1.0" encoding="UTF-8" standalone="no"?>
<!DOCTYPE svg PUBLIC "-//W3C//DTD SVG 1.1//EN"
 "http://www.w3.org/Graphics/SVG/1.1/DTD/svg11.dtd">
<!-- Generated by graphviz version 2.38.0 (20140413.2041)
 -->
<!-- Title: org.buildmlearn.appstore.activities.StartActivity.FileReadTask.doInBackground Pages: 1 -->
<svg width="788pt" height="960pt"
 viewBox="0.00 0.00 788.00 960.00" xmlns="http://www.w3.org/2000/svg" xmlns:xlink="http://www.w3.org/1999/xlink">
<g id="graph0" class="graph" transform="scale(1 1) rotate(0) translate(4 956)">
<title>org.buildmlearn.appstore.activities.StartActivity.FileReadTask.doInBackground</title>
<!-- Node1 -->
<g id="node1" class="node"><title>Node1</title>
<polygon fill="#bfbfbf" stroke="black" points="0,-455.5 0,-485.5 204,-485.5 204,-455.5 0,-455.5"/>
<text text-anchor="start" x="8" y="-473.5" font-family="Helvetica,sans-Serif" font-size="10.00">org.buildmlearn.appstore.activities.</text>
<text text-anchor="middle" x="102" y="-462.5" font-family="Helvetica,sans-Serif" font-size="10.00">StartActivity.FileReadTask.doInBackground</text>
</g>
<!-- Node2 -->
<g id="node2" class="node"><title>Node2</title>
<g id="a_node2"><a xlink:href="../../d0/da8/classorg_1_1buildmlearn_1_1appstore_1_1utils_1_1_app_reader.html#af487d507ab995e6b6ab32a3494fff592" target="_top" xlink:title="Reads the Info type of app. ">
<polygon fill="none" stroke="black" points="246.5,-798.5 246.5,-828.5 393.5,-828.5 393.5,-798.5 246.5,-798.5"/>
<text text-anchor="start" x="254.5" y="-816.5" font-family="Helvetica,sans-Serif" font-size="10.00">org.buildmlearn.appstore.utils.</text>
<text text-anchor="middle" x="320" y="-805.5" font-family="Helvetica,sans-Serif" font-size="10.00">AppReader.readInfoFile</text>
</a>
</g>
</g>
<!-- Node1&#45;&gt;Node2 -->
<g id="edge1" class="edge"><title>Node1&#45;&gt;Node2</title>
<path fill="none" stroke="midnightblue" d="M112.56,-485.681C146.644,-539.806 262.393,-723.61 303.972,-789.637"/>
<polygon fill="midnightblue" stroke="midnightblue" points="301.26,-791.898 309.55,-798.494 307.183,-788.167 301.26,-791.898"/>
</g>
<!-- Node8 -->
<g id="node8" class="node"><title>Node8</title>
<g id="a_node8"><a xlink:href="../../d0/da8/classorg_1_1buildmlearn_1_1appstore_1_1utils_1_1_app_reader.html#aefcab830573415c5c0d3d21a31e05e46" target="_top" xlink:title="Reads the FlashCards type of app. ">
<polygon fill="none" stroke="black" points="246.5,-382.5 246.5,-412.5 393.5,-412.5 393.5,-382.5 246.5,-382.5"/>
<text text-anchor="start" x="254.5" y="-400.5" font-family="Helvetica,sans-Serif" font-size="10.00">org.buildmlearn.appstore.utils.</text>
<text text-anchor="middle" x="320" y="-389.5" font-family="Helvetica,sans-Serif" font-size="10.00">AppReader.readFlashContent</text>
</a>
</g>
</g>
<!-- Node1&#45;&gt;Node8 -->
<g id="edge7" class="edge"><title>Node1&#45;&gt;Node8</title>
<path fill="none" stroke="midnightblue" d="M147.493,-455.463C181.472,-443.979 228.458,-428.1 264.659,-415.865"/>
<polygon fill="midnightblue" stroke="midnightblue" points="266.211,-419.035 274.564,-412.518 263.97,-412.404 266.211,-419.035"/>
</g>
<!-- Node16 -->
<g id="node16" class="node"><title>Node16</title>
<g id="a_node16"><a xlink:href="../../d0/da8/classorg_1_1buildmlearn_1_1appstore_1_1utils_1_1_app_reader.html#abe6c5c2f0c98582beef2eca8fd9ae462" target="_top" xlink:title="Reads the Quiz type of app. ">
<polygon fill="none" stroke="black" points="246.5,-169.5 246.5,-199.5 393.5,-199.5 393.5,-169.5 246.5,-169.5"/>
<text text-anchor="start" x="254.5" y="-187.5" font-family="Helvetica,sans-Serif" font-size="10.00">org.buildmlearn.appstore.utils.</text>
<text text-anchor="middle" x="320" y="-176.5" font-family="Helvetica,sans-Serif" font-size="10.00">AppReader.readQuizFile</text>
</a>
</g>
</g>
<!-- Node1&#45;&gt;Node16 -->
<g id="edge15" class="edge"><title>Node1&#45;&gt;Node16</title>
<path fill="none" stroke="midnightblue" d="M114.613,-455.123C150.296,-407.876 258.508,-264.597 301.306,-207.929"/>
<polygon fill="midnightblue" stroke="midnightblue" points="304.358,-209.695 307.592,-199.606 298.772,-205.476 304.358,-209.695"/>
</g>
<!-- Node21 -->
<g id="node21" class="node"><title>Node21</title>
<g id="a_node21"><a xlink:href="../../d0/da8/classorg_1_1buildmlearn_1_1appstore_1_1utils_1_1_app_reader.html#aaeb43a1338ffba1f17dd7993c82af47f" target="_top" xlink:title="Reads the Spelling Puzzle type of app. ">
<polygon fill="none" stroke="black" points="240,-529.5 240,-559.5 400,-559.5 400,-529.5 240,-529.5"/>
<text text-anchor="start" x="248" y="-547.5" font-family="Helvetica,sans-Serif" font-size="10.00">org.buildmlearn.appstore.utils.</text>
<text text-anchor="middle" x="320" y="-536.5" font-family="Helvetica,sans-Serif" font-size="10.00">AppReader.readSpellingsContent</text>
</a>
</g>
</g>
<!-- Node1&#45;&gt;Node21 -->
<g id="edge23" class="edge"><title>Node1&#45;&gt;Node21</title>
<path fill="none" stroke="midnightblue" d="M146.971,-485.564C181.28,-497.318 229.082,-513.695 265.591,-526.202"/>
<polygon fill="midnightblue" stroke="midnightblue" points="264.496,-529.527 275.09,-529.457 266.765,-522.905 264.496,-529.527"/>
</g>
<!-- Node3 -->
<g id="node3" class="node"><title>Node3</title>
<g id="a_node3"><a xlink:href="../../d2/d32/classorg_1_1buildmlearn_1_1appstore_1_1models_1_1_info_model.html#a36f373dfeec1b5bb676195a047d401e5" target="_top" xlink:title="org.buildmlearn.appstore.models.\lInfoModel.getInstance">
<polygon fill="none" stroke="black" points="436,-921.5 436,-951.5 597,-951.5 597,-921.5 436,-921.5"/>
<text text-anchor="start" x="444" y="-939.5" font-family="Helvetica,sans-Serif" font-size="10.00">org.buildmlearn.appstore.models.</text>
<text text-anchor="middle" x="516.5" y="-928.5" font-family="Helvetica,sans-Serif" font-size="10.00">InfoModel.getInstance</text>
</a>
</g>
</g>
<!-- Node2&#45;&gt;Node3 -->
<g id="edge2" class="edge"><title>Node2&#45;&gt;Node3</title>
<path fill="none" stroke="midnightblue" d="M334.734,-828.823C354.908,-850.449 394.661,-889.81 436,-912.5 439.29,-914.306 442.733,-915.993 446.264,-917.566"/>
<polygon fill="midnightblue" stroke="midnightblue" points="445.19,-920.908 455.77,-921.469 447.849,-914.433 445.19,-920.908"/>
</g>
<!-- Node4 -->
<g id="node4" class="node"><title>Node4</title>
<g id="a_node4"><a xlink:href="../../d2/d32/classorg_1_1buildmlearn_1_1appstore_1_1models_1_1_info_model.html#a82a660299557f895f32e3545aec2a332" target="_top" xlink:title="org.buildmlearn.appstore.models.\lInfoModel.setInfoAuthor">
<polygon fill="none" stroke="black" points="436,-872.5 436,-902.5 597,-902.5 597,-872.5 436,-872.5"/>
<text text-anchor="start" x="444" y="-890.5" font-family="Helvetica,sans-Serif" font-size="10.00">org.buildmlearn.appstore.models.</text>
<text text-anchor="middle" x="516.5" y="-879.5" font-family="Helvetica,sans-Serif" font-size="10.00">InfoModel.setInfoAuthor</text>
</a>
</g>
</g>
<!-- Node2&#45;&gt;Node4 -->
<g id="edge3" class="edge"><title>Node2&#45;&gt;Node4</title>
<path fill="none" stroke="midnightblue" d="M352.813,-828.528C375.675,-839.032 407.386,-853.001 436,-863.5 441.463,-865.504 447.179,-867.473 452.933,-869.368"/>
<polygon fill="midnightblue" stroke="midnightblue" points="452.023,-872.752 462.614,-872.48 454.165,-866.087 452.023,-872.752"/>
</g>
<!-- Node5 -->
<g id="node5" class="node"><title>Node5</title>
<g id="a_node5"><a xlink:href="../../d2/d32/classorg_1_1buildmlearn_1_1appstore_1_1models_1_1_info_model.html#a543a7e7619f281b8a209e2c1aa7792a9" target="_top" xlink:title="org.buildmlearn.appstore.models.\lInfoModel.setInfoName">
<polygon fill="none" stroke="black" points="436,-823.5 436,-853.5 597,-853.5 597,-823.5 436,-823.5"/>
<text text-anchor="start" x="444" y="-841.5" font-family="Helvetica,sans-Serif" font-size="10.00">org.buildmlearn.appstore.models.</text>
<text text-anchor="middle" x="516.5" y="-830.5" font-family="Helvetica,sans-Serif" font-size="10.00">InfoModel.setInfoName</text>
</a>
</g>
</g>
<!-- Node2&#45;&gt;Node5 -->
<g id="edge4" class="edge"><title>Node2&#45;&gt;Node5</title>
<path fill="none" stroke="midnightblue" d="M393.701,-822.845C404.086,-824.179 414.87,-825.566 425.536,-826.937"/>
<polygon fill="midnightblue" stroke="midnightblue" points="425.346,-830.441 435.71,-828.244 426.238,-823.498 425.346,-830.441"/>
</g>
<!-- Node6 -->
<g id="node6" class="node"><title>Node6</title>
<g id="a_node6"><a xlink:href="../../d2/d32/classorg_1_1buildmlearn_1_1appstore_1_1models_1_1_info_model.html#aaa70aa18d96990e8b1f3c9867f776de5" target="_top" xlink:title="org.buildmlearn.appstore.models.\lInfoModel.setInfoMap">
<polygon fill="none" stroke="black" points="436,-774.5 436,-804.5 597,-804.5 597,-774.5 436,-774.5"/>
<text text-anchor="start" x="444" y="-792.5" font-family="Helvetica,sans-Serif" font-size="10.00">org.buildmlearn.appstore.models.</text>
<text text-anchor="middle" x="516.5" y="-781.5" font-family="Helvetica,sans-Serif" font-size="10.00">InfoModel.setInfoMap</text>
</a>
</g>
</g>
<!-- Node2&#45;&gt;Node6 -->
<g id="edge5" class="edge"><title>Node2&#45;&gt;Node6</title>
<path fill="none" stroke="midnightblue" d="M393.701,-804.529C404.086,-803.248 414.87,-801.917 425.536,-800.601"/>
<polygon fill="midnightblue" stroke="midnightblue" points="426.214,-804.044 435.71,-799.346 425.357,-797.097 426.214,-804.044"/>
</g>
<!-- Node7 -->
<g id="node7" class="node"><title>Node7</title>
<g id="a_node7"><a xlink:href="../../d2/d32/classorg_1_1buildmlearn_1_1appstore_1_1models_1_1_info_model.html#aa4da7a4d70aff359c4b6db2590295821" target="_top" xlink:title="org.buildmlearn.appstore.models.\lInfoModel.setListTitleList">
<polygon fill="none" stroke="black" points="436,-725.5 436,-755.5 597,-755.5 597,-725.5 436,-725.5"/>
<text text-anchor="start" x="444" y="-743.5" font-family="Helvetica,sans-Serif" font-size="10.00">org.buildmlearn.appstore.models.</text>
<text text-anchor="middle" x="516.5" y="-732.5" font-family="Helvetica,sans-Serif" font-size="10.00">InfoModel.setListTitleList</text>
</a>
</g>
</g>
<!-- Node2&#45;&gt;Node7 -->
<g id="edge6" class="edge"><title>Node2&#45;&gt;Node7</title>
<path fill="none" stroke="midnightblue" d="M354.897,-798.398C377.633,-788.506 408.361,-775.59 436,-765.5 442.301,-763.2 448.927,-760.913 455.553,-758.71"/>
<polygon fill="midnightblue" stroke="midnightblue" points="456.806,-761.983 465.225,-755.55 454.632,-755.329 456.806,-761.983"/>
</g>
<!-- Node9 -->
<g id="node9" class="node"><title>Node9</title>
<g id="a_node9"><a xlink:href="../../d9/d64/classorg_1_1buildmlearn_1_1appstore_1_1models_1_1_flash_model.html#ad7225d1b4d75db6f5ce8755339783f28" target="_top" xlink:title="org.buildmlearn.appstore.models.\lFlashModel.getInstance">
<polygon fill="none" stroke="black" points="436,-480.5 436,-510.5 597,-510.5 597,-480.5 436,-480.5"/>
<text text-anchor="start" x="444" y="-498.5" font-family="Helvetica,sans-Serif" font-size="10.00">org.buildmlearn.appstore.models.</text>
<text text-anchor="middle" x="516.5" y="-487.5" font-family="Helvetica,sans-Serif" font-size="10.00">FlashModel.getInstance</text>
</a>
</g>
</g>
<!-- Node8&#45;&gt;Node9 -->
<g id="edge8" class="edge"><title>Node8&#45;&gt;Node9</title>
<path fill="none" stroke="midnightblue" d="M341.256,-412.673C363.526,-428.79 400.831,-454.152 436,-470.5 440.92,-472.787 446.105,-474.941 451.37,-476.951"/>
<polygon fill="midnightblue" stroke="midnightblue" points="450.303,-480.287 460.898,-480.411 452.693,-473.707 450.303,-480.287"/>
</g>
<!-- Node10 -->
<g id="node10" class="node"><title>Node10</title>
<g id="a_node10"><a xlink:href="../../d6/d02/classorg_1_1buildmlearn_1_1appstore_1_1utils_1_1_x_m_l_parser.html#a15a8449f10403c80625319062f73432e" target="_top" xlink:title="Gets the Document object from the xml string. ">
<polygon fill="none" stroke="black" points="443,-431.5 443,-461.5 590,-461.5 590,-431.5 443,-431.5"/>
<text text-anchor="start" x="451" y="-449.5" font-family="Helvetica,sans-Serif" font-size="10.00">org.buildmlearn.appstore.utils.</text>
<text text-anchor="middle" x="516.5" y="-438.5" font-family="Helvetica,sans-Serif" font-size="10.00">XMLParser.getDomElement</text>
</a>
</g>
</g>
<!-- Node8&#45;&gt;Node10 -->
<g id="edge9" class="edge"><title>Node8&#45;&gt;Node10</title>
<path fill="none" stroke="midnightblue" d="M380.678,-412.535C401.308,-417.732 424.603,-423.601 445.955,-428.98"/>
<polygon fill="midnightblue" stroke="midnightblue" points="445.383,-432.445 455.935,-431.494 447.093,-425.657 445.383,-432.445"/>
</g>
<!-- Node11 -->
<g id="node11" class="node"><title>Node11</title>
<g id="a_node11"><a xlink:href="../../d9/d64/classorg_1_1buildmlearn_1_1appstore_1_1models_1_1_flash_model.html#aef70d9b669c794f5142063d284909fdc" target="_top" xlink:title="org.buildmlearn.appstore.models.\lFlashModel.setAuthor">
<polygon fill="none" stroke="black" points="436,-333.5 436,-363.5 597,-363.5 597,-333.5 436,-333.5"/>
<text text-anchor="start" x="444" y="-351.5" font-family="Helvetica,sans-Serif" font-size="10.00">org.buildmlearn.appstore.models.</text>
<text text-anchor="middle" x="516.5" y="-340.5" font-family="Helvetica,sans-Serif" font-size="10.00">FlashModel.setAuthor</text>
</a>
</g>
</g>
<!-- Node8&#45;&gt;Node11 -->
<g id="edge10" class="edge"><title>Node8&#45;&gt;Node11</title>
<path fill="none" stroke="midnightblue" d="M380.678,-382.465C401.308,-377.268 424.603,-371.399 445.955,-366.02"/>
<polygon fill="midnightblue" stroke="midnightblue" points="447.093,-369.343 455.935,-363.506 445.383,-362.555 447.093,-369.343"/>
</g>
<!-- Node12 -->
<g id="node12" class="node"><title>Node12</title>
<g id="a_node12"><a xlink:href="../../d6/d02/classorg_1_1buildmlearn_1_1appstore_1_1utils_1_1_x_m_l_parser.html#a42151792145130629c7bf2a16b2885bc" target="_top" xlink:title="Gets the value of the item from the Document object. ">
<polygon fill="none" stroke="black" points="443,-382.5 443,-412.5 590,-412.5 590,-382.5 443,-382.5"/>
<text text-anchor="start" x="451" y="-400.5" font-family="Helvetica,sans-Serif" font-size="10.00">org.buildmlearn.appstore.utils.</text>
<text text-anchor="middle" x="516.5" y="-389.5" font-family="Helvetica,sans-Serif" font-size="10.00">XMLParser.getValue</text>
</a>
</g>
</g>
<!-- Node8&#45;&gt;Node12 -->
<g id="edge11" class="edge"><title>Node8&#45;&gt;Node12</title>
<path fill="none" stroke="midnightblue" d="M393.701,-397.5C406.387,-397.5 419.669,-397.5 432.605,-397.5"/>
<polygon fill="midnightblue" stroke="midnightblue" points="432.887,-401 442.887,-397.5 432.887,-394 432.887,-401"/>
</g>
<!-- Node14 -->
<g id="node14" class="node"><title>Node14</title>
<g id="a_node14"><a xlink:href="../../d9/d64/classorg_1_1buildmlearn_1_1appstore_1_1models_1_1_flash_model.html#a8114fa573bb5ba91a44be0bcb7d78cc6" target="_top" xlink:title="org.buildmlearn.appstore.models.\lFlashModel.setName">
<polygon fill="none" stroke="black" points="436,-284.5 436,-314.5 597,-314.5 597,-284.5 436,-284.5"/>
<text text-anchor="start" x="444" y="-302.5" font-family="Helvetica,sans-Serif" font-size="10.00">org.buildmlearn.appstore.models.</text>
<text text-anchor="middle" x="516.5" y="-291.5" font-family="Helvetica,sans-Serif" font-size="10.00">FlashModel.setName</text>
</a>
</g>
</g>
<!-- Node8&#45;&gt;Node14 -->
<g id="edge13" class="edge"><title>Node8&#45;&gt;Node14</title>
<path fill="none" stroke="midnightblue" d="M340.78,-382.32C362.941,-365.914 400.433,-339.919 436,-323.5 440.275,-321.527 444.752,-319.666 449.312,-317.922"/>
<polygon fill="midnightblue" stroke="midnightblue" points="450.535,-321.202 458.747,-314.506 448.152,-314.62 450.535,-321.202"/>
</g>
<!-- Node15 -->
<g id="node15" class="node"><title>Node15</title>
<g id="a_node15"><a xlink:href="../../d9/d64/classorg_1_1buildmlearn_1_1appstore_1_1models_1_1_flash_model.html#a4f73eb4d6dc34a961774eefe86acd923" target="_top" xlink:title="org.buildmlearn.appstore.models.\lFlashModel.setList">
<polygon fill="none" stroke="black" points="436,-235.5 436,-265.5 597,-265.5 597,-235.5 436,-235.5"/>
<text text-anchor="start" x="444" y="-253.5" font-family="Helvetica,sans-Serif" font-size="10.00">org.buildmlearn.appstore.models.</text>
<text text-anchor="middle" x="516.5" y="-242.5" font-family="Helvetica,sans-Serif" font-size="10.00">FlashModel.setList</text>
</a>
</g>
</g>
<!-- Node8&#45;&gt;Node15 -->
<g id="edge14" class="edge"><title>Node8&#45;&gt;Node15</title>
<path fill="none" stroke="midnightblue" d="M331.151,-382.216C349.182,-356.247 389.322,-303.512 436,-274.5 438.755,-272.788 441.64,-271.191 444.611,-269.703"/>
<polygon fill="midnightblue" stroke="midnightblue" points="446.079,-272.88 453.736,-265.556 443.184,-266.507 446.079,-272.88"/>
</g>
<!-- Node13 -->
<g id="node13" class="node"><title>Node13</title>
<g id="a_node13"><a xlink:href="../../d6/d02/classorg_1_1buildmlearn_1_1appstore_1_1utils_1_1_x_m_l_parser.html#a623e2412cff7b8ab44947732d167feef" target="_top" xlink:title="Gets the element value of the node. ">
<polygon fill="none" stroke="black" points="633,-286.5 633,-316.5 780,-316.5 780,-286.5 633,-286.5"/>
<text text-anchor="start" x="641" y="-304.5" font-family="Helvetica,sans-Serif" font-size="10.00">org.buildmlearn.appstore.utils.</text>
<text text-anchor="middle" x="706.5" y="-293.5" font-family="Helvetica,sans-Serif" font-size="10.00">XMLParser.getElementValue</text>
</a>
</g>
</g>
<!-- Node12&#45;&gt;Node13 -->
<g id="edge12" class="edge"><title>Node12&#45;&gt;Node13</title>
<path fill="none" stroke="midnightblue" d="M572.571,-382.359C580.902,-379.448 589.284,-376.152 597,-372.5 626.15,-358.703 656.653,-338.113 677.866,-322.654"/>
<polygon fill="midnightblue" stroke="midnightblue" points="680.114,-325.345 686.078,-316.587 675.955,-319.715 680.114,-325.345"/>
</g>
<!-- Node16&#45;&gt;Node10 -->
<g id="edge17" class="edge"><title>Node16&#45;&gt;Node10</title>
<path fill="none" stroke="midnightblue" d="M326.522,-199.621C343.999,-246.742 399.122,-389.683 436,-421.5 437.965,-423.195 440.045,-424.776 442.214,-426.249"/>
<polygon fill="midnightblue" stroke="midnightblue" points="440.578,-429.348 450.968,-431.418 444.137,-423.32 440.578,-429.348"/>
</g>
<!-- Node16&#45;&gt;Node12 -->
<g id="edge19" class="edge"><title>Node16&#45;&gt;Node12</title>
<path fill="none" stroke="midnightblue" d="M326.062,-199.714C338.706,-235.373 375.098,-324.916 436,-372.5 438.298,-374.295 440.727,-375.963 443.252,-377.512"/>
<polygon fill="midnightblue" stroke="midnightblue" points="441.697,-380.65 452.157,-382.334 445.03,-374.495 441.697,-380.65"/>
</g>
<!-- Node16&#45;&gt;Node13 -->
<g id="edge21" class="edge"><title>Node16&#45;&gt;Node13</title>
<path fill="none" stroke="midnightblue" d="M393.691,-186.201C450.768,-189.662 531.3,-199.315 597,-225.5 629.063,-238.279 660.822,-262.194 681.614,-279.797"/>
<polygon fill="midnightblue" stroke="midnightblue" points="679.435,-282.54 689.289,-286.433 684.013,-277.245 679.435,-282.54"/>
</g>
<!-- Node17 -->
<g id="node17" class="node"><title>Node17</title>
<g id="a_node17"><a xlink:href="../../da/d2e/classorg_1_1buildmlearn_1_1appstore_1_1models_1_1_quiz_model.html#afd56bc8e8b1e5fdd506622bae6362f73" target="_top" xlink:title="org.buildmlearn.appstore.models.\lQuizModel.getInstance">
<polygon fill="none" stroke="black" points="436,-147.5 436,-177.5 597,-177.5 597,-147.5 436,-147.5"/>
<text text-anchor="start" x="444" y="-165.5" font-family="Helvetica,sans-Serif" font-size="10.00">org.buildmlearn.appstore.models.</text>
<text text-anchor="middle" x="516.5" y="-154.5" font-family="Helvetica,sans-Serif" font-size="10.00">QuizModel.getInstance</text>
</a>
</g>
</g>
<!-- Node16&#45;&gt;Node17 -->
<g id="edge16" class="edge"><title>Node16&#45;&gt;Node17</title>
<path fill="none" stroke="midnightblue" d="M393.701,-176.277C404.086,-175.102 414.87,-173.882 425.536,-172.676"/>
<polygon fill="midnightblue" stroke="midnightblue" points="426.167,-176.127 435.71,-171.525 425.38,-169.171 426.167,-176.127"/>
</g>
<!-- Node18 -->
<g id="node18" class="node"><title>Node18</title>
<g id="a_node18"><a xlink:href="../../da/d2e/classorg_1_1buildmlearn_1_1appstore_1_1models_1_1_quiz_model.html#aad4ec9d0c34fbc5dbcddd9d57eb527b7" target="_top" xlink:title="org.buildmlearn.appstore.models.\lQuizModel.setQuizAuthor">
<polygon fill="none" stroke="black" points="436,-98.5 436,-128.5 597,-128.5 597,-98.5 436,-98.5"/>
<text text-anchor="start" x="444" y="-116.5" font-family="Helvetica,sans-Serif" font-size="10.00">org.buildmlearn.appstore.models.</text>
<text text-anchor="middle" x="516.5" y="-105.5" font-family="Helvetica,sans-Serif" font-size="10.00">QuizModel.setQuizAuthor</text>
</a>
</g>
</g>
<!-- Node16&#45;&gt;Node18 -->
<g id="edge18" class="edge"><title>Node16&#45;&gt;Node18</title>
<path fill="none" stroke="midnightblue" d="M355.394,-169.444C378.076,-159.765 408.555,-147.226 436,-137.5 441.572,-135.525 447.398,-133.568 453.254,-131.672"/>
<polygon fill="midnightblue" stroke="midnightblue" points="454.625,-134.909 463.098,-128.549 452.508,-128.237 454.625,-134.909"/>
</g>
<!-- Node19 -->
<g id="node19" class="node"><title>Node19</title>
<g id="a_node19"><a xlink:href="../../da/d2e/classorg_1_1buildmlearn_1_1appstore_1_1models_1_1_quiz_model.html#a27d28892237a29ae8f3c80aa389c275d" target="_top" xlink:title="org.buildmlearn.appstore.models.\lQuizModel.setQuizName">
<polygon fill="none" stroke="black" points="436,-49.5 436,-79.5 597,-79.5 597,-49.5 436,-49.5"/>
<text text-anchor="start" x="444" y="-67.5" font-family="Helvetica,sans-Serif" font-size="10.00">org.buildmlearn.appstore.models.</text>
<text text-anchor="middle" x="516.5" y="-56.5" font-family="Helvetica,sans-Serif" font-size="10.00">QuizModel.setQuizName</text>
</a>
</g>
</g>
<!-- Node16&#45;&gt;Node19 -->
<g id="edge20" class="edge"><title>Node16&#45;&gt;Node19</title>
<path fill="none" stroke="midnightblue" d="M335.173,-169.312C355.57,-148.298 395.25,-110.466 436,-88.5 439.304,-86.7192 442.757,-85.0524 446.297,-83.4949"/>
<polygon fill="midnightblue" stroke="midnightblue" points="447.874,-86.6318 455.82,-79.6238 445.238,-80.147 447.874,-86.6318"/>
</g>
<!-- Node20 -->
<g id="node20" class="node"><title>Node20</title>
<g id="a_node20"><a xlink:href="../../da/d2e/classorg_1_1buildmlearn_1_1appstore_1_1models_1_1_quiz_model.html#aca9fbcfac76bcc6f0049d1c4bfc75826" target="_top" xlink:title="org.buildmlearn.appstore.models.\lQuizModel.setQueAnsList">
<polygon fill="none" stroke="black" points="436,-0.5 436,-30.5 597,-30.5 597,-0.5 436,-0.5"/>
<text text-anchor="start" x="444" y="-18.5" font-family="Helvetica,sans-Serif" font-size="10.00">org.buildmlearn.appstore.models.</text>
<text text-anchor="middle" x="516.5" y="-7.5" font-family="Helvetica,sans-Serif" font-size="10.00">QuizModel.setQueAnsList</text>
</a>
</g>
</g>
<!-- Node16&#45;&gt;Node20 -->
<g id="edge22" class="edge"><title>Node16&#45;&gt;Node20</title>
<path fill="none" stroke="midnightblue" d="M328.896,-169.268C344.984,-139.737 384.441,-74.5268 436,-39.5 438.27,-37.9581 440.641,-36.5129 443.087,-35.1584"/>
<polygon fill="midnightblue" stroke="midnightblue" points="444.807,-38.2124 452.218,-30.6406 441.703,-31.9384 444.807,-38.2124"/>
</g>
<!-- Node21&#45;&gt;Node10 -->
<g id="edge25" class="edge"><title>Node21&#45;&gt;Node10</title>
<path fill="none" stroke="midnightblue" d="M340.78,-529.32C362.941,-512.914 400.433,-486.919 436,-470.5 440.275,-468.527 444.752,-466.666 449.312,-464.922"/>
<polygon fill="midnightblue" stroke="midnightblue" points="450.535,-468.202 458.747,-461.506 448.152,-461.62 450.535,-468.202"/>
</g>
<!-- Node21&#45;&gt;Node12 -->
<g id="edge27" class="edge"><title>Node21&#45;&gt;Node12</title>
<path fill="none" stroke="midnightblue" d="M331.151,-529.216C349.182,-503.247 389.322,-450.512 436,-421.5 438.755,-419.788 441.64,-418.191 444.611,-416.703"/>
<polygon fill="midnightblue" stroke="midnightblue" points="446.079,-419.88 453.736,-412.556 443.184,-413.507 446.079,-419.88"/>
</g>
<!-- Node22 -->
<g id="node22" class="node"><title>Node22</title>
<g id="a_node22"><a xlink:href="../../d9/d29/classorg_1_1buildmlearn_1_1appstore_1_1models_1_1_spellings_model.html#af291064e82c76410196621b65c4703fb" target="_top" xlink:title="org.buildmlearn.appstore.models.\lSpellingsModel.getInstance">
<polygon fill="none" stroke="black" points="436,-676.5 436,-706.5 597,-706.5 597,-676.5 436,-676.5"/>
<text text-anchor="start" x="444" y="-694.5" font-family="Helvetica,sans-Serif" font-size="10.00">org.buildmlearn.appstore.models.</text>
<text text-anchor="middle" x="516.5" y="-683.5" font-family="Helvetica,sans-Serif" font-size="10.00">SpellingsModel.getInstance</text>
</a>
</g>
</g>
<!-- Node21&#45;&gt;Node22 -->
<g id="edge24" class="edge"><title>Node21&#45;&gt;Node22</title>
<path fill="none" stroke="midnightblue" d="M331.151,-559.784C349.182,-585.753 389.322,-638.488 436,-667.5 438.755,-669.212 441.64,-670.809 444.611,-672.297"/>
<polygon fill="midnightblue" stroke="midnightblue" points="443.184,-675.493 453.736,-676.444 446.079,-669.12 443.184,-675.493"/>
</g>
<!-- Node23 -->
<g id="node23" class="node"><title>Node23</title>
<g id="a_node23"><a xlink:href="../../d9/d29/classorg_1_1buildmlearn_1_1appstore_1_1models_1_1_spellings_model.html#a3a314993416a721ead3b5d8e0a877ed8" target="_top" xlink:title="org.buildmlearn.appstore.models.\lSpellingsModel.setPuzzleAuthor">
<polygon fill="none" stroke="black" points="436,-627.5 436,-657.5 597,-657.5 597,-627.5 436,-627.5"/>
<text text-anchor="start" x="444" y="-645.5" font-family="Helvetica,sans-Serif" font-size="10.00">org.buildmlearn.appstore.models.</text>
<text text-anchor="middle" x="516.5" y="-634.5" font-family="Helvetica,sans-Serif" font-size="10.00">SpellingsModel.setPuzzleAuthor</text>
</a>
</g>
</g>
<!-- Node21&#45;&gt;Node23 -->
<g id="edge26" class="edge"><title>Node21&#45;&gt;Node23</title>
<path fill="none" stroke="midnightblue" d="M340.78,-559.68C362.941,-576.086 400.433,-602.081 436,-618.5 440.275,-620.473 444.752,-622.334 449.312,-624.078"/>
<polygon fill="midnightblue" stroke="midnightblue" points="448.152,-627.38 458.747,-627.494 450.535,-620.798 448.152,-627.38"/>
</g>
<!-- Node24 -->
<g id="node24" class="node"><title>Node24</title>
<g id="a_node24"><a xlink:href="../../d9/d29/classorg_1_1buildmlearn_1_1appstore_1_1models_1_1_spellings_model.html#abb5a9649c871924119470ad500077374" target="_top" xlink:title="org.buildmlearn.appstore.models.\lSpellingsModel.setPuzzleName">
<polygon fill="none" stroke="black" points="436,-578.5 436,-608.5 597,-608.5 597,-578.5 436,-578.5"/>
<text text-anchor="start" x="444" y="-596.5" font-family="Helvetica,sans-Serif" font-size="10.00">org.buildmlearn.appstore.models.</text>
<text text-anchor="middle" x="516.5" y="-585.5" font-family="Helvetica,sans-Serif" font-size="10.00">SpellingsModel.setPuzzleName</text>
</a>
</g>
</g>
<!-- Node21&#45;&gt;Node24 -->
<g id="edge28" class="edge"><title>Node21&#45;&gt;Node24</title>
<path fill="none" stroke="midnightblue" d="M380.678,-559.535C401.308,-564.732 424.603,-570.601 445.955,-575.98"/>
<polygon fill="midnightblue" stroke="midnightblue" points="445.383,-579.445 455.935,-578.494 447.093,-572.657 445.383,-579.445"/>
</g>
<!-- Node25 -->
<g id="node25" class="node"><title>Node25</title>
<g id="a_node25"><a xlink:href="../../d9/d29/classorg_1_1buildmlearn_1_1appstore_1_1models_1_1_spellings_model.html#a534bcc5c59d7c6f2016f1f10bdee5dca" target="_top" xlink:title="org.buildmlearn.appstore.models.\lSpellingsModel.setSpellingsList">
<polygon fill="none" stroke="black" points="436,-529.5 436,-559.5 597,-559.5 597,-529.5 436,-529.5"/>
<text text-anchor="start" x="444" y="-547.5" font-family="Helvetica,sans-Serif" font-size="10.00">org.buildmlearn.appstore.models.</text>
<text text-anchor="middle" x="516.5" y="-536.5" font-family="Helvetica,sans-Serif" font-size="10.00">SpellingsModel.setSpellingsList</text>
</a>
</g>
</g>
<!-- Node21&#45;&gt;Node25 -->
<g id="edge29" class="edge"><title>Node21&#45;&gt;Node25</title>
<path fill="none" stroke="midnightblue" d="M400.111,-544.5C408.577,-544.5 417.234,-544.5 425.811,-544.5"/>
<polygon fill="midnightblue" stroke="midnightblue" points="425.828,-548 435.828,-544.5 425.828,-541 425.828,-548"/>
</g>
</g>
</svg>
