<?xml version="1.0" encoding="UTF-8" standalone="no"?>
<!DOCTYPE svg PUBLIC "-//W3C//DTD SVG 1.1//EN"
 "http://www.w3.org/Graphics/SVG/1.1/DTD/svg11.dtd">
<!-- Generated by graphviz version 2.38.0 (20140413.2041)
 -->
<!-- Title: org.buildmlearn.appstore.adapters.MyAppsViewAdapter.onBindViewHolder Pages: 1 -->
<!--zoomable 198 -->
<svg id="main" version="1.1" xmlns="http://www.w3.org/2000/svg" xmlns:xlink="http://www.w3.org/1999/xlink" xml:space="preserve" onload="init(evt)">
<style type="text/css"><![CDATA[
.edge:hover path { stroke: red; }
.edge:hover polygon { stroke: red; fill: red; }
]]></style>
<script type="text/javascript"><![CDATA[
var edges = document.getElementsByTagName('g');
if (edges && edges.length) {
  for (var i=0;i<edges.length;i++) {
    if (edges[i].id.substr(0,4)=='edge') {
      edges[i].setAttribute('class','edge');
    }
  }
}
]]></script>
        <defs>
                <circle id="rim" cx="0" cy="0" r="7"/>
                <circle id="rim2" cx="0" cy="0" r="3.5"/>
                <g id="zoomPlus">
                        <use xlink:href="#rim" fill="#404040">
                                <set attributeName="fill" to="#808080" begin="zoomplus.mouseover" end="zoomplus.mouseout"/>
                        </use>
                        <path d="M-4,0h8M0,-4v8" fill="none" stroke="white" stroke-width="1.5" pointer-events="none"/>
                </g>
                <g id="zoomMin">
                        <use xlink:href="#rim" fill="#404040">
                                <set attributeName="fill" to="#808080" begin="zoomminus.mouseover" end="zoomminus.mouseout"/>
                        </use>
                        <path d="M-4,0h8" fill="none" stroke="white" stroke-width="1.5" pointer-events="none"/>
                </g>
                <g id="dirArrow">
                        <path fill="none" stroke="white" stroke-width="1.5" d="M0,-3.0v7 M-2.5,-0.5L0,-3.0L2.5,-0.5"/>
                </g>
               <g id="resetDef">
                       <use xlink:href="#rim2" fill="#404040">
                               <set attributeName="fill" to="#808080" begin="reset.mouseover" end="reset.mouseout"/>
                       </use>
               </g>
        </defs>

<script type="text/javascript">
var viewWidth = 648;
var viewHeight = 198;
var sectionId = 'dynsection-1';
</script>
<script xlink:href="../../svgpan.js"/>
<svg id="graph" class="graph">
<g id="viewport">
<title>org.buildmlearn.appstore.adapters.MyAppsViewAdapter.onBindViewHolder</title>
<!-- Node1 -->
<g id="node1" class="node"><title>Node1</title>
<polygon fill="#bfbfbf" stroke="black" points="0,-73.5 0,-103.5 189,-103.5 189,-73.5 0,-73.5"/>
<text text-anchor="start" x="8" y="-91.5" font-family="Helvetica,sans-Serif" font-size="10.00">org.buildmlearn.appstore.adapters.</text>
<text text-anchor="middle" x="94.5" y="-80.5" font-family="Helvetica,sans-Serif" font-size="10.00">MyAppsViewAdapter.onBindViewHolder</text>
</g>
<!-- Node2 -->
<g id="node2" class="node"><title>Node2</title>
<g id="a_node2"><a xlink:href="../../df/d2d/classorg_1_1buildmlearn_1_1appstore_1_1adapters_1_1_my_apps_view_adapter_1_1_my_apps_view_holder.html#af2768dceceffe931571f5c49e382791c" target="_top" xlink:title="org.buildmlearn.appstore.adapters.\lMyAppsViewAdapter.MyAppsViewHolder.set\lClickListener">
<polygon fill="none" stroke="black" points="225,-148 225,-189 437,-189 437,-148 225,-148"/>
<text text-anchor="start" x="233" y="-177" font-family="Helvetica,sans-Serif" font-size="10.00">org.buildmlearn.appstore.adapters.</text>
<text text-anchor="start" x="233" y="-166" font-family="Helvetica,sans-Serif" font-size="10.00">MyAppsViewAdapter.MyAppsViewHolder.set</text>
<text text-anchor="middle" x="331" y="-155" font-family="Helvetica,sans-Serif" font-size="10.00">ClickListener</text>
</a>
</g>
</g>
<!-- Node1&#45;&gt;Node2 -->
<g id="edge1" class="edge"><title>Node1&#45;&gt;Node2</title>
<path fill="none" stroke="midnightblue" d="M131.742,-103.502C157.533,-113.929 193.123,-127.816 225,-138.5 231.461,-140.666 238.179,-142.814 244.952,-144.909"/>
<polygon fill="midnightblue" stroke="midnightblue" points="244.307,-148.371 254.893,-147.933 246.345,-141.674 244.307,-148.371"/>
</g>
<!-- Node3 -->
<g id="node3" class="node"><title>Node3</title>
<g id="a_node3"><a xlink:href="../../d0/da8/classorg_1_1buildmlearn_1_1appstore_1_1utils_1_1_app_reader.html#aec556fcddde1c33f82e823933f3fb1a6" target="_top" xlink:title="Gets the list of Installed Apps. ">
<polygon fill="none" stroke="black" points="257.5,-98.5 257.5,-128.5 404.5,-128.5 404.5,-98.5 257.5,-98.5"/>
<text text-anchor="start" x="265.5" y="-116.5" font-family="Helvetica,sans-Serif" font-size="10.00">org.buildmlearn.appstore.utils.</text>
<text text-anchor="middle" x="331" y="-105.5" font-family="Helvetica,sans-Serif" font-size="10.00">AppReader.listApps</text>
</a>
</g>
</g>
<!-- Node1&#45;&gt;Node3 -->
<g id="edge2" class="edge"><title>Node1&#45;&gt;Node3</title>
<path fill="none" stroke="midnightblue" d="M189.192,-98.4884C208.44,-100.541 228.572,-102.687 247.396,-104.694"/>
<polygon fill="midnightblue" stroke="midnightblue" points="247.09,-108.181 257.405,-105.761 247.832,-101.22 247.09,-108.181"/>
</g>
<!-- Node4 -->
<g id="node4" class="node"><title>Node4</title>
<g id="a_node4"><a xlink:href="../../d0/d60/classorg_1_1buildmlearn_1_1appstore_1_1activities_1_1_navigation_activity.html#a3819b15bd7eeb6b579ffc4ae12bb289b" target="_top" xlink:title="It clears the text in the search tool and collapses the search tool. ">
<polygon fill="none" stroke="black" points="247.5,-49.5 247.5,-79.5 414.5,-79.5 414.5,-49.5 247.5,-49.5"/>
<text text-anchor="start" x="255.5" y="-67.5" font-family="Helvetica,sans-Serif" font-size="10.00">org.buildmlearn.appstore.activities.</text>
<text text-anchor="middle" x="331" y="-56.5" font-family="Helvetica,sans-Serif" font-size="10.00">NavigationActivity.clearSearch</text>
</a>
</g>
</g>
<!-- Node1&#45;&gt;Node4 -->
<g id="edge3" class="edge"><title>Node1&#45;&gt;Node4</title>
<path fill="none" stroke="midnightblue" d="M189.192,-78.9111C204.994,-77.2938 221.391,-75.6156 237.171,-74.0006"/>
<polygon fill="midnightblue" stroke="midnightblue" points="237.848,-77.4497 247.439,-72.9497 237.135,-70.4861 237.848,-77.4497"/>
</g>
<!-- Node5 -->
<g id="node5" class="node"><title>Node5</title>
<g id="a_node5"><a xlink:href="../../d0/df6/classorg_1_1buildmlearn_1_1appstore_1_1fragments_1_1_tab_my_apps.html#a35f6e10d8f45a3c9995c0b70c18f438d" target="_top" xlink:title="Refreshes the list of apps. ">
<polygon fill="none" stroke="black" points="245,-0.5 245,-30.5 417,-30.5 417,-0.5 245,-0.5"/>
<text text-anchor="start" x="253" y="-18.5" font-family="Helvetica,sans-Serif" font-size="10.00">org.buildmlearn.appstore.fragments.</text>
<text text-anchor="middle" x="331" y="-7.5" font-family="Helvetica,sans-Serif" font-size="10.00">TabMyApps.refreshList</text>
</a>
</g>
</g>
<!-- Node1&#45;&gt;Node5 -->
<g id="edge4" class="edge"><title>Node1&#45;&gt;Node5</title>
<path fill="none" stroke="midnightblue" d="M132.494,-73.4255C158.177,-63.2979 193.334,-50.0996 225,-40.5 233.626,-37.885 242.717,-35.37 251.795,-33.0099"/>
<polygon fill="midnightblue" stroke="midnightblue" points="252.788,-36.3689 261.617,-30.5122 251.062,-29.5848 252.788,-36.3689"/>
</g>
<!-- Node6 -->
<g id="node6" class="node"><title>Node6</title>
<g id="a_node6"><a xlink:href="../../d8/dfa/classorg_1_1buildmlearn_1_1appstore_1_1activities_1_1_home_activity.html#a104177f795c32e9b28838760f994dc5f" target="_top" xlink:title="Set the current view to My&#45;Apps section. ">
<polygon fill="none" stroke="black" points="473,-0.5 473,-30.5 640,-30.5 640,-0.5 473,-0.5"/>
<text text-anchor="start" x="481" y="-18.5" font-family="Helvetica,sans-Serif" font-size="10.00">org.buildmlearn.appstore.activities.</text>
<text text-anchor="middle" x="556.5" y="-7.5" font-family="Helvetica,sans-Serif" font-size="10.00">HomeActivity.MyAppsView</text>
</a>
</g>
</g>
<!-- Node5&#45;&gt;Node6 -->
<g id="edge5" class="edge"><title>Node5&#45;&gt;Node6</title>
<path fill="none" stroke="midnightblue" d="M417.133,-15.5C431.968,-15.5 447.466,-15.5 462.499,-15.5"/>
<polygon fill="midnightblue" stroke="midnightblue" points="462.818,-19.0001 472.818,-15.5 462.818,-12.0001 462.818,-19.0001"/>
</g>
</g>
</svg>
        <g id="navigator" transform="translate(0 0)" fill="#404254">
                <rect fill="#f2f5e9" fill-opacity="0.5" stroke="#606060" stroke-width=".5" x="0" y="0" width="60" height="60"/>
                <use id="zoomplus" xlink:href="#zoomPlus" x="17" y="9" onmousedown="handleZoom(evt,'in')"/>
                <use id="zoomminus" xlink:href="#zoomMin" x="42" y="9" onmousedown="handleZoom(evt,'out')"/>
                <use id="reset" xlink:href="#resetDef" x="30" y="36" onmousedown="handleReset()"/>
                <g id="arrowUp" xlink:href="#dirArrow" transform="translate(30 24)" onmousedown="handlePan(0,-1)">
                  <use xlink:href="#rim" fill="#404040">
                        <set attributeName="fill" to="#808080" begin="arrowUp.mouseover" end="arrowUp.mouseout"/>
                  </use>
                  <path fill="none" stroke="white" stroke-width="1.5" d="M0,-3.0v7 M-2.5,-0.5L0,-3.0L2.5,-0.5"/>
                </g>
                <g id="arrowRight" xlink:href="#dirArrow" transform="rotate(90) translate(36 -43)" onmousedown="handlePan(1,0)">
                  <use xlink:href="#rim" fill="#404040">
                        <set attributeName="fill" to="#808080" begin="arrowRight.mouseover" end="arrowRight.mouseout"/>
                  </use>
                  <path fill="none" stroke="white" stroke-width="1.5" d="M0,-3.0v7 M-2.5,-0.5L0,-3.0L2.5,-0.5"/>
                </g>
                <g id="arrowDown" xlink:href="#dirArrow" transform="rotate(180) translate(-30 -48)" onmousedown="handlePan(0,1)">
                  <use xlink:href="#rim" fill="#404040">
                        <set attributeName="fill" to="#808080" begin="arrowDown.mouseover" end="arrowDown.mouseout"/>
                  </use>
                  <path fill="none" stroke="white" stroke-width="1.5" d="M0,-3.0v7 M-2.5,-0.5L0,-3.0L2.5,-0.5"/>
                </g>
                <g id="arrowLeft" xlink:href="#dirArrow" transform="rotate(270) translate(-36 17)" onmousedown="handlePan(-1,0)">
                  <use xlink:href="#rim" fill="#404040">
                        <set attributeName="fill" to="#808080" begin="arrowLeft.mouseover" end="arrowLeft.mouseout"/>
                  </use>
                  <path fill="none" stroke="white" stroke-width="1.5" d="M0,-3.0v7 M-2.5,-0.5L0,-3.0L2.5,-0.5"/>
                </g>
        </g>
        <svg viewBox="0 0 15 15" width="100%" height="30px" preserveAspectRatio="xMaxYMin meet">
         <g id="arrow_out" transform="scale(0.3 0.3)">
          <a xlink:href="classorg_1_1buildmlearn_1_1appstore_1_1adapters_1_1_my_apps_view_adapter_ab95b082936ebfbe1ca7120428e7024d7_cgraph_org.svg" target="_base">
           <rect id="button" ry="5" rx="5" y="6" x="6" height="38" width="38"
                fill="#f2f5e9" fill-opacity="0.5" stroke="#606060" stroke-width="1.0"/>
           <path id="arrow"
             d="M 11.500037,31.436501 C 11.940474,20.09759 22.043105,11.32322 32.158766,21.979434 L 37.068811,17.246167 C 37.068811,17.246167 37.088388,32 37.088388,32 L 22.160133,31.978069 C 22.160133,31.978069 26.997745,27.140456 26.997745,27.140456 C 18.528582,18.264221 13.291696,25.230495 11.500037,31.436501 z"
             style="fill:#404040;"/>
          </a>
         </g>
        </svg>
</svg>
