<?xml version="1.0" encoding="UTF-8" standalone="no"?>
<!DOCTYPE svg PUBLIC "-//W3C//DTD SVG 1.1//EN"
 "http://www.w3.org/Graphics/SVG/1.1/DTD/svg11.dtd">
<!-- Generated by graphviz version 2.38.0 (20140413.2041)
 -->
<!-- Title: org.buildmlearn.appstore.activities.ScoreActivity Pages: 1 -->
<svg width="526pt" height="391pt"
 viewBox="0.00 0.00 526.00 391.00" xmlns="http://www.w3.org/2000/svg" xmlns:xlink="http://www.w3.org/1999/xlink">
<g id="graph0" class="graph" transform="scale(1 1) rotate(0) translate(4 387)">
<title>org.buildmlearn.appstore.activities.ScoreActivity</title>
<!-- Node1 -->
<g id="node1" class="node"><title>Node1</title>
<polygon fill="#bfbfbf" stroke="black" points="125,-0.5 125,-68.5 292,-68.5 292,-0.5 125,-0.5"/>
<text text-anchor="start" x="133" y="-56.5" font-family="Helvetica,sans-Serif" font-size="10.00">org.buildmlearn.appstore.activities.</text>
<text text-anchor="middle" x="208.5" y="-45.5" font-family="Helvetica,sans-Serif" font-size="10.00">ScoreActivity</text>
<polyline fill="none" stroke="black" points="125,-38.5 292,-38.5 "/>
<text text-anchor="start" x="133" y="-26.5" font-family="Helvetica,sans-Serif" font-size="10.00">&#45; activity</text>
<polyline fill="none" stroke="black" points="125,-19.5 292,-19.5 "/>
<text text-anchor="start" x="133" y="-7.5" font-family="Helvetica,sans-Serif" font-size="10.00">+ onCreate()</text>
</g>
<!-- Node2 -->
<g id="node2" class="node"><title>Node2</title>
<g id="a_node2"><a xlink:href="../../da/d2e/classorg_1_1buildmlearn_1_1appstore_1_1models_1_1_quiz_model.html" target="_top" xlink:title="Template model for Quiz type of apps. ">
<polygon fill="none" stroke="black" points="0,-133 0,-366 161,-366 161,-133 0,-133"/>
<text text-anchor="start" x="8" y="-354" font-family="Helvetica,sans-Serif" font-size="10.00">org.buildmlearn.appstore.models.</text>
<text text-anchor="middle" x="80.5" y="-343" font-family="Helvetica,sans-Serif" font-size="10.00">QuizModel</text>
<polyline fill="none" stroke="black" points="0,-336 161,-336 "/>
<text text-anchor="start" x="8" y="-324" font-family="Helvetica,sans-Serif" font-size="10.00">~ totalWrong</text>
<text text-anchor="start" x="8" y="-313" font-family="Helvetica,sans-Serif" font-size="10.00">&#45; mQuizName</text>
<text text-anchor="start" x="8" y="-302" font-family="Helvetica,sans-Serif" font-size="10.00">&#45; mQuizAuthor</text>
<text text-anchor="start" x="8" y="-291" font-family="Helvetica,sans-Serif" font-size="10.00">&#45; mQueAnsList</text>
<text text-anchor="start" x="8" y="-280" font-family="Helvetica,sans-Serif" font-size="10.00">&#45; totalCorrect</text>
<polyline fill="none" stroke="black" points="0,-273 161,-273 "/>
<text text-anchor="start" x="8" y="-261" font-family="Helvetica,sans-Serif" font-size="10.00">+ getQueAnsList()</text>
<text text-anchor="start" x="8" y="-250" font-family="Helvetica,sans-Serif" font-size="10.00">+ setQueAnsList()</text>
<text text-anchor="start" x="8" y="-239" font-family="Helvetica,sans-Serif" font-size="10.00">+ getQuizAuthor()</text>
<text text-anchor="start" x="8" y="-228" font-family="Helvetica,sans-Serif" font-size="10.00">+ setQuizAuthor()</text>
<text text-anchor="start" x="8" y="-217" font-family="Helvetica,sans-Serif" font-size="10.00">+ getQuizName()</text>
<text text-anchor="start" x="8" y="-206" font-family="Helvetica,sans-Serif" font-size="10.00">+ setQuizName()</text>
<text text-anchor="start" x="8" y="-195" font-family="Helvetica,sans-Serif" font-size="10.00">+ getTotalWrong()</text>
<text text-anchor="start" x="8" y="-184" font-family="Helvetica,sans-Serif" font-size="10.00">+ setTotalWrong()</text>
<text text-anchor="start" x="8" y="-173" font-family="Helvetica,sans-Serif" font-size="10.00">+ getTotalCorrect()</text>
<text text-anchor="start" x="8" y="-162" font-family="Helvetica,sans-Serif" font-size="10.00">+ setTotalCorrect()</text>
<text text-anchor="start" x="8" y="-151" font-family="Helvetica,sans-Serif" font-size="10.00">+ clearInstance()</text>
<text text-anchor="start" x="8" y="-140" font-family="Helvetica,sans-Serif" font-size="10.00">+ getInstance()</text>
</a>
</g>
</g>
<!-- Node2&#45;&gt;Node1 -->
<g id="edge1" class="edge"><title>Node2&#45;&gt;Node1</title>
<path fill="none" stroke="#404040" d="M149.932,-132.961C161.392,-113.891 172.618,-95.2093 182.127,-79.3871"/>
<polygon fill="none" stroke="#404040" points="182.235,-79.206 181.897,-72.0028 188.416,-68.9203 188.754,-76.1235 182.235,-79.206"/>
<text text-anchor="middle" x="205" y="-90" font-family="Helvetica,sans-Serif" font-size="10.00"> &#45;mQuizModel</text>
</g>
<!-- Node2&#45;&gt;Node2 -->
<g id="edge2" class="edge"><title>Node2&#45;&gt;Node2</title>
<path fill="none" stroke="#404040" d="M161.27,-275.294C171.93,-270.895 179,-262.297 179,-249.5 179,-241.502 176.238,-235.144 171.564,-230.427"/>
<polygon fill="none" stroke="#404040" points="171.318,-230.266 164.107,-230.336 161.27,-223.706 168.48,-223.637 171.318,-230.266"/>
<text text-anchor="middle" x="209.5" y="-247" font-family="Helvetica,sans-Serif" font-size="10.00"> &#45;mQuizModel</text>
</g>
<!-- Node3 -->
<g id="node3" class="node"><title>Node3</title>
<g id="a_node3"><a xlink:href="../../d9/d29/classorg_1_1buildmlearn_1_1appstore_1_1models_1_1_spellings_model.html" target="_top" xlink:title="Template model for Spellings Puzzle type of apps. ">
<polygon fill="none" stroke="black" points="258,-116.5 258,-382.5 419,-382.5 419,-116.5 258,-116.5"/>
<text text-anchor="start" x="266" y="-370.5" font-family="Helvetica,sans-Serif" font-size="10.00">org.buildmlearn.appstore.models.</text>
<text text-anchor="middle" x="338.5" y="-359.5" font-family="Helvetica,sans-Serif" font-size="10.00">SpellingsModel</text>
<polyline fill="none" stroke="black" points="258,-352.5 419,-352.5 "/>
<text text-anchor="start" x="266" y="-340.5" font-family="Helvetica,sans-Serif" font-size="10.00">~ totalWrong</text>
<text text-anchor="start" x="266" y="-329.5" font-family="Helvetica,sans-Serif" font-size="10.00">~ activeCount</text>
<text text-anchor="start" x="266" y="-318.5" font-family="Helvetica,sans-Serif" font-size="10.00">&#45; mPuzzleName</text>
<text text-anchor="start" x="266" y="-307.5" font-family="Helvetica,sans-Serif" font-size="10.00">&#45; mPuzzleAuthor</text>
<text text-anchor="start" x="266" y="-296.5" font-family="Helvetica,sans-Serif" font-size="10.00">&#45; mSpellingsList</text>
<text text-anchor="start" x="266" y="-285.5" font-family="Helvetica,sans-Serif" font-size="10.00">&#45; totalCorrect</text>
<polyline fill="none" stroke="black" points="258,-278.5 419,-278.5 "/>
<text text-anchor="start" x="266" y="-266.5" font-family="Helvetica,sans-Serif" font-size="10.00">+ getPuzzleName()</text>
<text text-anchor="start" x="266" y="-255.5" font-family="Helvetica,sans-Serif" font-size="10.00">+ setPuzzleName()</text>
<text text-anchor="start" x="266" y="-244.5" font-family="Helvetica,sans-Serif" font-size="10.00">+ getPuzzleAuthor()</text>
<text text-anchor="start" x="266" y="-233.5" font-family="Helvetica,sans-Serif" font-size="10.00">+ setPuzzleAuthor()</text>
<text text-anchor="start" x="266" y="-222.5" font-family="Helvetica,sans-Serif" font-size="10.00">+ getSpellingsList()</text>
<text text-anchor="start" x="266" y="-211.5" font-family="Helvetica,sans-Serif" font-size="10.00">+ setSpellingsList()</text>
<text text-anchor="start" x="266" y="-200.5" font-family="Helvetica,sans-Serif" font-size="10.00">+ getTotalCorrect()</text>
<text text-anchor="start" x="266" y="-189.5" font-family="Helvetica,sans-Serif" font-size="10.00">+ setTotalCorrect()</text>
<text text-anchor="start" x="266" y="-178.5" font-family="Helvetica,sans-Serif" font-size="10.00">+ getTotalWrong()</text>
<text text-anchor="start" x="266" y="-167.5" font-family="Helvetica,sans-Serif" font-size="10.00">+ setTotalWrong()</text>
<text text-anchor="start" x="266" y="-156.5" font-family="Helvetica,sans-Serif" font-size="10.00">+ getActiveCount()</text>
<text text-anchor="start" x="266" y="-145.5" font-family="Helvetica,sans-Serif" font-size="10.00">+ setActiveCount()</text>
<text text-anchor="start" x="266" y="-134.5" font-family="Helvetica,sans-Serif" font-size="10.00">+ clearInstance()</text>
<text text-anchor="start" x="266" y="-123.5" font-family="Helvetica,sans-Serif" font-size="10.00">+ getInstance()</text>
</a>
</g>
</g>
<!-- Node3&#45;&gt;Node1 -->
<g id="edge3" class="edge"><title>Node3&#45;&gt;Node1</title>
<path fill="none" stroke="#404040" d="M257.833,-116.33C249.748,-103.083 242.007,-90.4003 235.152,-79.1686"/>
<polygon fill="none" stroke="#404040" points="235.12,-79.1166 228.58,-76.079 228.869,-68.8736 235.409,-71.9112 235.12,-79.1166"/>
<text text-anchor="middle" x="283" y="-90" font-family="Helvetica,sans-Serif" font-size="10.00"> &#45;mSpellingsModel</text>
</g>
<!-- Node3&#45;&gt;Node3 -->
<g id="edge4" class="edge"><title>Node3&#45;&gt;Node3</title>
<path fill="none" stroke="#404040" d="M419.27,-275.294C429.93,-270.895 437,-262.297 437,-249.5 437,-241.502 434.238,-235.144 429.564,-230.427"/>
<polygon fill="none" stroke="#404040" points="429.318,-230.266 422.107,-230.336 419.27,-223.706 426.48,-223.637 429.318,-230.266"/>
<text text-anchor="middle" x="477.5" y="-247" font-family="Helvetica,sans-Serif" font-size="10.00"> &#45;mSpellingsModel</text>
</g>
</g>
</svg>
