<?xml version="1.0" encoding="UTF-8" standalone="no"?>
<!DOCTYPE svg PUBLIC "-//W3C//DTD SVG 1.1//EN"
 "http://www.w3.org/Graphics/SVG/1.1/DTD/svg11.dtd">
<!-- Generated by graphviz version 2.38.0 (20140413.2041)
 -->
<!-- Title: org.buildmlearn.appstore.adapters.CardCategoriesAdapter.onBindViewHolder Pages: 1 -->
<svg width="449pt" height="149pt"
 viewBox="0.00 0.00 449.00 148.50" xmlns="http://www.w3.org/2000/svg" xmlns:xlink="http://www.w3.org/1999/xlink">
<g id="graph0" class="graph" transform="scale(1 1) rotate(0) translate(4 144.5)">
<title>org.buildmlearn.appstore.adapters.CardCategoriesAdapter.onBindViewHolder</title>
<!-- Node1 -->
<g id="node1" class="node"><title>Node1</title>
<polygon fill="#bfbfbf" stroke="black" points="0,-49.5 0,-79.5 199,-79.5 199,-49.5 0,-49.5"/>
<text text-anchor="start" x="8" y="-67.5" font-family="Helvetica,sans-Serif" font-size="10.00">org.buildmlearn.appstore.adapters.</text>
<text text-anchor="middle" x="99.5" y="-56.5" font-family="Helvetica,sans-Serif" font-size="10.00">CardCategoriesAdapter.onBindViewHolder</text>
</g>
<!-- Node2 -->
<g id="node2" class="node"><title>Node2</title>
<g id="a_node2"><a xlink:href="$d1/d87/classorg_1_1buildmlearn_1_1appstore_1_1adapters_1_1_card_categories_adapter_1_1_card_view_holder.html#af6049ce1b1395978be6dee8f9fed9a15" xlink:title="org.buildmlearn.appstore.adapters.\lCardCategoriesAdapter.CardViewHolder.set\lClickListener">
<polygon fill="none" stroke="black" points="235,-99 235,-140 441,-140 441,-99 235,-99"/>
<text text-anchor="start" x="243" y="-128" font-family="Helvetica,sans-Serif" font-size="10.00">org.buildmlearn.appstore.adapters.</text>
<text text-anchor="start" x="243" y="-117" font-family="Helvetica,sans-Serif" font-size="10.00">CardCategoriesAdapter.CardViewHolder.set</text>
<text text-anchor="middle" x="338" y="-106" font-family="Helvetica,sans-Serif" font-size="10.00">ClickListener</text>
</a>
</g>
</g>
<!-- Node1&#45;&gt;Node2 -->
<g id="edge1" class="edge"><title>Node1&#45;&gt;Node2</title>
<path fill="none" stroke="midnightblue" d="M165.125,-79.529C187.823,-84.8077 213.866,-90.8643 238.701,-96.6397"/>
<polygon fill="midnightblue" stroke="midnightblue" points="237.983,-100.066 248.516,-98.9223 239.568,-93.248 237.983,-100.066"/>
</g>
<!-- Node3 -->
<g id="node3" class="node"><title>Node3</title>
<g id="a_node3"><a xlink:href="$d6/d69/classorg_1_1buildmlearn_1_1appstore_1_1activities_1_1_categories_activity.html#ad5feda8baa86efb06548383e14e941de" xlink:title="This method is called from the Navigation Activity. ">
<polygon fill="none" stroke="black" points="254.5,-49.5 254.5,-79.5 421.5,-79.5 421.5,-49.5 254.5,-49.5"/>
<text text-anchor="start" x="262.5" y="-67.5" font-family="Helvetica,sans-Serif" font-size="10.00">org.buildmlearn.appstore.activities.</text>
<text text-anchor="middle" x="338" y="-56.5" font-family="Helvetica,sans-Serif" font-size="10.00">CategoriesActivity.closeSearch</text>
</a>
</g>
</g>
<!-- Node1&#45;&gt;Node3 -->
<g id="edge2" class="edge"><title>Node1&#45;&gt;Node3</title>
<path fill="none" stroke="midnightblue" d="M199.085,-64.5C214.017,-64.5 229.379,-64.5 244.183,-64.5"/>
<polygon fill="midnightblue" stroke="midnightblue" points="244.331,-68.0001 254.331,-64.5 244.331,-61.0001 244.331,-68.0001"/>
</g>
<!-- Node4 -->
<g id="node4" class="node"><title>Node4</title>
<g id="a_node4"><a xlink:href="$d0/d60/classorg_1_1buildmlearn_1_1appstore_1_1activities_1_1_navigation_activity.html#a3819b15bd7eeb6b579ffc4ae12bb289b" xlink:title="It clears the text in the search tool and collapses the search tool. ">
<polygon fill="none" stroke="black" points="254.5,-0.5 254.5,-30.5 421.5,-30.5 421.5,-0.5 254.5,-0.5"/>
<text text-anchor="start" x="262.5" y="-18.5" font-family="Helvetica,sans-Serif" font-size="10.00">org.buildmlearn.appstore.activities.</text>
<text text-anchor="middle" x="338" y="-7.5" font-family="Helvetica,sans-Serif" font-size="10.00">NavigationActivity.clearSearch</text>
</a>
</g>
</g>
<!-- Node1&#45;&gt;Node4 -->
<g id="edge3" class="edge"><title>Node1&#45;&gt;Node4</title>
<path fill="none" stroke="midnightblue" d="M173.065,-49.4654C198.831,-44.127 228.016,-38.0802 254.547,-32.5834"/>
<polygon fill="midnightblue" stroke="midnightblue" points="255.49,-35.9623 264.572,-30.5062 254.07,-29.1078 255.49,-35.9623"/>
</g>
</g>
</svg>
