<?xml version="1.0" encoding="UTF-8" standalone="no"?>
<!DOCTYPE svg PUBLIC "-//W3C//DTD SVG 1.1//EN"
 "http://www.w3.org/Graphics/SVG/1.1/DTD/svg11.dtd">
<!-- Generated by graphviz version 2.38.0 (20140413.2041)
 -->
<!-- Title: org.buildmlearn.appstore.activities.QuestionActivity.onCreate Pages: 1 -->
<svg width="378pt" height="382pt"
 viewBox="0.00 0.00 378.00 382.00" xmlns="http://www.w3.org/2000/svg" xmlns:xlink="http://www.w3.org/1999/xlink">
<g id="graph0" class="graph" transform="scale(1 1) rotate(0) translate(4 378)">
<title>org.buildmlearn.appstore.activities.QuestionActivity.onCreate</title>
<!-- Node1 -->
<g id="node1" class="node"><title>Node1</title>
<polygon fill="#bfbfbf" stroke="black" points="0,-171.5 0,-201.5 167,-201.5 167,-171.5 0,-171.5"/>
<text text-anchor="start" x="8" y="-189.5" font-family="Helvetica,sans-Serif" font-size="10.00">org.buildmlearn.appstore.activities.</text>
<text text-anchor="middle" x="83.5" y="-178.5" font-family="Helvetica,sans-Serif" font-size="10.00">QuestionActivity.onCreate</text>
</g>
<!-- Node2 -->
<g id="node2" class="node"><title>Node2</title>
<g id="a_node2"><a xlink:href="../../da/d2e/classorg_1_1buildmlearn_1_1appstore_1_1models_1_1_quiz_model.html#afd56bc8e8b1e5fdd506622bae6362f73" target="_top" xlink:title="org.buildmlearn.appstore.models.\lQuizModel.getInstance">
<polygon fill="none" stroke="black" points="206,-343.5 206,-373.5 367,-373.5 367,-343.5 206,-343.5"/>
<text text-anchor="start" x="214" y="-361.5" font-family="Helvetica,sans-Serif" font-size="10.00">org.buildmlearn.appstore.models.</text>
<text text-anchor="middle" x="286.5" y="-350.5" font-family="Helvetica,sans-Serif" font-size="10.00">QuizModel.getInstance</text>
</a>
</g>
</g>
<!-- Node1&#45;&gt;Node2 -->
<g id="edge1" class="edge"><title>Node1&#45;&gt;Node2</title>
<path fill="none" stroke="midnightblue" d="M92.3896,-201.628C108.816,-231.626 149.643,-298.823 203,-334.5 205.304,-336.04 207.708,-337.484 210.185,-338.836"/>
<polygon fill="midnightblue" stroke="midnightblue" points="208.906,-342.106 219.428,-343.343 211.974,-335.814 208.906,-342.106"/>
</g>
<!-- Node3 -->
<g id="node3" class="node"><title>Node3</title>
<g id="a_node3"><a xlink:href="../../da/d2e/classorg_1_1buildmlearn_1_1appstore_1_1models_1_1_quiz_model.html#aca9eac557c61f0a772054c1ad2ebe126" target="_top" xlink:title="org.buildmlearn.appstore.models.\lQuizModel.getQueAnsList">
<polygon fill="none" stroke="black" points="206,-294.5 206,-324.5 367,-324.5 367,-294.5 206,-294.5"/>
<text text-anchor="start" x="214" y="-312.5" font-family="Helvetica,sans-Serif" font-size="10.00">org.buildmlearn.appstore.models.</text>
<text text-anchor="middle" x="286.5" y="-301.5" font-family="Helvetica,sans-Serif" font-size="10.00">QuizModel.getQueAnsList</text>
</a>
</g>
</g>
<!-- Node1&#45;&gt;Node3 -->
<g id="edge2" class="edge"><title>Node1&#45;&gt;Node3</title>
<path fill="none" stroke="midnightblue" d="M98.7186,-201.858C119.588,-223.525 160.65,-262.936 203,-285.5 206.456,-287.341 210.07,-289.057 213.775,-290.654"/>
<polygon fill="midnightblue" stroke="midnightblue" points="212.543,-293.931 223.128,-294.383 215.135,-287.429 212.543,-293.931"/>
</g>
<!-- Node4 -->
<g id="node4" class="node"><title>Node4</title>
<g id="a_node4"><a xlink:href="../../da/d2e/classorg_1_1buildmlearn_1_1appstore_1_1models_1_1_quiz_model.html#ad8b77ee2f097056dd3926a7b245b46b1" target="_top" xlink:title="org.buildmlearn.appstore.models.\lQuizModel.getQuizName">
<polygon fill="none" stroke="black" points="206,-245.5 206,-275.5 367,-275.5 367,-245.5 206,-245.5"/>
<text text-anchor="start" x="214" y="-263.5" font-family="Helvetica,sans-Serif" font-size="10.00">org.buildmlearn.appstore.models.</text>
<text text-anchor="middle" x="286.5" y="-252.5" font-family="Helvetica,sans-Serif" font-size="10.00">QuizModel.getQuizName</text>
</a>
</g>
</g>
<!-- Node1&#45;&gt;Node4 -->
<g id="edge3" class="edge"><title>Node1&#45;&gt;Node4</title>
<path fill="none" stroke="midnightblue" d="M117.297,-201.552C140.863,-212.067 173.541,-226.04 203,-236.5 208.583,-238.482 214.42,-240.427 220.297,-242.299"/>
<polygon fill="midnightblue" stroke="midnightblue" points="219.6,-245.747 230.188,-245.373 221.677,-239.063 219.6,-245.747"/>
</g>
<!-- Node5 -->
<g id="node5" class="node"><title>Node5</title>
<g id="a_node5"><a xlink:href="../../d8/d63/classorg_1_1buildmlearn_1_1appstore_1_1activities_1_1_question_activity.html#acfd73848a225674142d2a993c41b25fc" target="_top" xlink:title="Populates the question according to the index. ">
<polygon fill="none" stroke="black" points="203,-196.5 203,-226.5 370,-226.5 370,-196.5 203,-196.5"/>
<text text-anchor="start" x="211" y="-214.5" font-family="Helvetica,sans-Serif" font-size="10.00">org.buildmlearn.appstore.activities.</text>
<text text-anchor="middle" x="286.5" y="-203.5" font-family="Helvetica,sans-Serif" font-size="10.00">QuestionActivity.populateQuestion</text>
</a>
</g>
</g>
<!-- Node1&#45;&gt;Node5 -->
<g id="edge4" class="edge"><title>Node1&#45;&gt;Node5</title>
<path fill="none" stroke="midnightblue" d="M167.125,-196.777C175.607,-197.832 184.266,-198.909 192.848,-199.976"/>
<polygon fill="midnightblue" stroke="midnightblue" points="192.516,-203.462 202.872,-201.223 193.38,-196.515 192.516,-203.462"/>
</g>
<!-- Node6 -->
<g id="node6" class="node"><title>Node6</title>
<g id="a_node6"><a xlink:href="../../da/d2e/classorg_1_1buildmlearn_1_1appstore_1_1models_1_1_quiz_model.html#a5f45f6253f1bb46810d8335424333209" target="_top" xlink:title="org.buildmlearn.appstore.models.\lQuizModel.setTotalCorrect">
<polygon fill="none" stroke="black" points="206,-147.5 206,-177.5 367,-177.5 367,-147.5 206,-147.5"/>
<text text-anchor="start" x="214" y="-165.5" font-family="Helvetica,sans-Serif" font-size="10.00">org.buildmlearn.appstore.models.</text>
<text text-anchor="middle" x="286.5" y="-154.5" font-family="Helvetica,sans-Serif" font-size="10.00">QuizModel.setTotalCorrect</text>
</a>
</g>
</g>
<!-- Node1&#45;&gt;Node6 -->
<g id="edge5" class="edge"><title>Node1&#45;&gt;Node6</title>
<path fill="none" stroke="midnightblue" d="M167.125,-176.634C176.508,-175.514 186.105,-174.368 195.576,-173.237"/>
<polygon fill="midnightblue" stroke="midnightblue" points="196.273,-176.679 205.788,-172.018 195.443,-169.728 196.273,-176.679"/>
</g>
<!-- Node7 -->
<g id="node7" class="node"><title>Node7</title>
<g id="a_node7"><a xlink:href="../../da/d2e/classorg_1_1buildmlearn_1_1appstore_1_1models_1_1_quiz_model.html#a00aede4ce68eefdb825a3c56d37f4ce2" target="_top" xlink:title="org.buildmlearn.appstore.models.\lQuizModel.getTotalCorrect">
<polygon fill="none" stroke="black" points="206,-98.5 206,-128.5 367,-128.5 367,-98.5 206,-98.5"/>
<text text-anchor="start" x="214" y="-116.5" font-family="Helvetica,sans-Serif" font-size="10.00">org.buildmlearn.appstore.models.</text>
<text text-anchor="middle" x="286.5" y="-105.5" font-family="Helvetica,sans-Serif" font-size="10.00">QuizModel.getTotalCorrect</text>
</a>
</g>
</g>
<!-- Node1&#45;&gt;Node7 -->
<g id="edge6" class="edge"><title>Node1&#45;&gt;Node7</title>
<path fill="none" stroke="midnightblue" d="M119.182,-171.484C142.638,-161.568 174.432,-148.591 203,-138.5 209.694,-136.135 216.74,-133.789 223.778,-131.535"/>
<polygon fill="midnightblue" stroke="midnightblue" points="224.849,-134.867 233.336,-128.525 222.746,-128.19 224.849,-134.867"/>
</g>
<!-- Node8 -->
<g id="node8" class="node"><title>Node8</title>
<g id="a_node8"><a xlink:href="../../da/d2e/classorg_1_1buildmlearn_1_1appstore_1_1models_1_1_quiz_model.html#ae3542c47b32630b9256a4b8145c54cf8" target="_top" xlink:title="org.buildmlearn.appstore.models.\lQuizModel.setTotalWrong">
<polygon fill="none" stroke="black" points="206,-49.5 206,-79.5 367,-79.5 367,-49.5 206,-49.5"/>
<text text-anchor="start" x="214" y="-67.5" font-family="Helvetica,sans-Serif" font-size="10.00">org.buildmlearn.appstore.models.</text>
<text text-anchor="middle" x="286.5" y="-56.5" font-family="Helvetica,sans-Serif" font-size="10.00">QuizModel.setTotalWrong</text>
</a>
</g>
</g>
<!-- Node1&#45;&gt;Node8 -->
<g id="edge7" class="edge"><title>Node1&#45;&gt;Node8</title>
<path fill="none" stroke="midnightblue" d="M99.1706,-171.176C120.267,-149.97 161.247,-111.776 203,-89.5 207.234,-87.2413 211.701,-85.1562 216.277,-83.2367"/>
<polygon fill="midnightblue" stroke="midnightblue" points="217.739,-86.4231 225.782,-79.5266 215.194,-79.9022 217.739,-86.4231"/>
</g>
<!-- Node9 -->
<g id="node9" class="node"><title>Node9</title>
<g id="a_node9"><a xlink:href="../../da/d2e/classorg_1_1buildmlearn_1_1appstore_1_1models_1_1_quiz_model.html#a4882c53765d30ac097e50ca9d2f7f589" target="_top" xlink:title="org.buildmlearn.appstore.models.\lQuizModel.getTotalWrong">
<polygon fill="none" stroke="black" points="206,-0.5 206,-30.5 367,-30.5 367,-0.5 206,-0.5"/>
<text text-anchor="start" x="214" y="-18.5" font-family="Helvetica,sans-Serif" font-size="10.00">org.buildmlearn.appstore.models.</text>
<text text-anchor="middle" x="286.5" y="-7.5" font-family="Helvetica,sans-Serif" font-size="10.00">QuizModel.getTotalWrong</text>
</a>
</g>
</g>
<!-- Node1&#45;&gt;Node9 -->
<g id="edge8" class="edge"><title>Node1&#45;&gt;Node9</title>
<path fill="none" stroke="midnightblue" d="M92.7349,-171.172C109.485,-141.453 150.432,-75.8205 203,-40.5 205.946,-38.5203 209.055,-36.6928 212.271,-35.0064"/>
<polygon fill="midnightblue" stroke="midnightblue" points="214.02,-38.051 221.57,-30.6177 211.032,-31.7206 214.02,-38.051"/>
</g>
</g>
</svg>
