<?xml version="1.0" encoding="UTF-8" standalone="no"?>
<!DOCTYPE svg PUBLIC "-//W3C//DTD SVG 1.1//EN"
 "http://www.w3.org/Graphics/SVG/1.1/DTD/svg11.dtd">
<!-- Generated by graphviz version 2.38.0 (20140413.2041)
 -->
<!-- Title: org.buildmlearn.appstore.activities.CategoriesActivity.closeSearch Pages: 1 -->
<svg width="841pt" height="176pt"
 viewBox="0.00 0.00 841.00 176.00" xmlns="http://www.w3.org/2000/svg" xmlns:xlink="http://www.w3.org/1999/xlink">
<g id="graph0" class="graph" transform="scale(1 1) rotate(0) translate(4 172)">
<title>org.buildmlearn.appstore.activities.CategoriesActivity.closeSearch</title>
<!-- Node1 -->
<g id="node1" class="node"><title>Node1</title>
<polygon fill="#bfbfbf" stroke="black" points="0,-71.5 0,-101.5 167,-101.5 167,-71.5 0,-71.5"/>
<text text-anchor="start" x="8" y="-89.5" font-family="Helvetica,sans-Serif" font-size="10.00">org.buildmlearn.appstore.activities.</text>
<text text-anchor="middle" x="83.5" y="-78.5" font-family="Helvetica,sans-Serif" font-size="10.00">CategoriesActivity.closeSearch</text>
</g>
<!-- Node2 -->
<g id="node2" class="node"><title>Node2</title>
<g id="a_node2"><a xlink:href="$d6/d69/classorg_1_1buildmlearn_1_1appstore_1_1activities_1_1_categories_activity.html#a3672a6d4cc226656c88d964f354cae7b" xlink:title="This method is called from the Navigation Activity, which controls all the search view...">
<polygon fill="none" stroke="black" points="219,-137.5 219,-167.5 386,-167.5 386,-137.5 219,-137.5"/>
<text text-anchor="start" x="227" y="-155.5" font-family="Helvetica,sans-Serif" font-size="10.00">org.buildmlearn.appstore.activities.</text>
<text text-anchor="middle" x="302.5" y="-144.5" font-family="Helvetica,sans-Serif" font-size="10.00">CategoriesActivity.refineSearch</text>
</a>
</g>
</g>
<!-- Node1&#45;&gt;Node2 -->
<g id="edge1" class="edge"><title>Node1&#45;&gt;Node2</title>
<path fill="none" stroke="midnightblue" d="M143.792,-104.534C177.677,-114.84 219.686,-127.617 251.825,-137.392"/>
<polygon fill="midnightblue" stroke="midnightblue" points="144.598,-101.12 134.012,-101.559 142.561,-107.817 144.598,-101.12"/>
</g>
<!-- Node4 -->
<g id="node4" class="node"><title>Node4</title>
<g id="a_node4"><a xlink:href="$d0/d60/classorg_1_1buildmlearn_1_1appstore_1_1activities_1_1_navigation_activity.html#a0d03e67c759108fd119b9e5ad2e48014" xlink:title="This method creates menu items to be shown on the Action Bar. ">
<polygon fill="none" stroke="black" points="641,-115.5 641,-145.5 833,-145.5 833,-115.5 641,-115.5"/>
<text text-anchor="start" x="649" y="-133.5" font-family="Helvetica,sans-Serif" font-size="10.00">org.buildmlearn.appstore.activities.</text>
<text text-anchor="middle" x="737" y="-122.5" font-family="Helvetica,sans-Serif" font-size="10.00">NavigationActivity.onCreateOptionsMenu</text>
</a>
</g>
</g>
<!-- Node1&#45;&gt;Node4 -->
<g id="edge6" class="edge"><title>Node1&#45;&gt;Node4</title>
<path fill="none" stroke="midnightblue" d="M177.171,-92.7587C300.291,-101.074 516.68,-115.688 640.975,-124.082"/>
<polygon fill="midnightblue" stroke="midnightblue" points="177.226,-89.2545 167.013,-92.0726 176.754,-96.2386 177.226,-89.2545"/>
</g>
<!-- Node5 -->
<g id="node5" class="node"><title>Node5</title>
<g id="a_node5"><a xlink:href="$d6/d69/classorg_1_1buildmlearn_1_1appstore_1_1activities_1_1_categories_activity.html#a341e2a6af653492b1925067573b806b5" xlink:title="This activity is automatically called when back button is pressed. ">
<polygon fill="none" stroke="black" points="219,-49.5 219,-79.5 386,-79.5 386,-49.5 219,-49.5"/>
<text text-anchor="start" x="227" y="-67.5" font-family="Helvetica,sans-Serif" font-size="10.00">org.buildmlearn.appstore.activities.</text>
<text text-anchor="middle" x="302.5" y="-56.5" font-family="Helvetica,sans-Serif" font-size="10.00">CategoriesActivity.onBackPressed</text>
</a>
</g>
</g>
<!-- Node1&#45;&gt;Node5 -->
<g id="edge5" class="edge"><title>Node1&#45;&gt;Node5</title>
<path fill="none" stroke="midnightblue" d="M177.141,-77.1078C190.955,-75.7073 205.12,-74.2713 218.713,-72.8931"/>
<polygon fill="midnightblue" stroke="midnightblue" points="176.753,-73.6291 167.157,-78.12 177.459,-80.5934 176.753,-73.6291"/>
</g>
<!-- Node6 -->
<g id="node6" class="node"><title>Node6</title>
<g id="a_node6"><a xlink:href="$d6/d04/classorg_1_1buildmlearn_1_1appstore_1_1adapters_1_1_card_categories_adapter.html#a15a41b533fef084c27b851ed933a4361" xlink:title="It binds content to the views. ">
<polygon fill="none" stroke="black" points="203,-0.5 203,-30.5 402,-30.5 402,-0.5 203,-0.5"/>
<text text-anchor="start" x="211" y="-18.5" font-family="Helvetica,sans-Serif" font-size="10.00">org.buildmlearn.appstore.adapters.</text>
<text text-anchor="middle" x="302.5" y="-7.5" font-family="Helvetica,sans-Serif" font-size="10.00">CardCategoriesAdapter.onBindViewHolder</text>
</a>
</g>
</g>
<!-- Node1&#45;&gt;Node6 -->
<g id="edge7" class="edge"><title>Node1&#45;&gt;Node6</title>
<path fill="none" stroke="midnightblue" d="M129.281,-67.6318C151.266,-58.7516 178.28,-48.4026 203,-40.5 214.091,-36.9542 226.011,-33.5751 237.594,-30.5123"/>
<polygon fill="midnightblue" stroke="midnightblue" points="127.815,-64.4498 119.875,-71.465 130.457,-70.9322 127.815,-64.4498"/>
</g>
<!-- Node3 -->
<g id="node3" class="node"><title>Node3</title>
<g id="a_node3"><a xlink:href="$d0/d60/classorg_1_1buildmlearn_1_1appstore_1_1activities_1_1_navigation_activity.html#a205e1d750606e6ca55b3cb753fc6f9cc" xlink:title="This method sends the search query to respective active activities, to refresh their view with the cu...">
<polygon fill="none" stroke="black" points="438,-137.5 438,-167.5 605,-167.5 605,-137.5 438,-137.5"/>
<text text-anchor="start" x="446" y="-155.5" font-family="Helvetica,sans-Serif" font-size="10.00">org.buildmlearn.appstore.activities.</text>
<text text-anchor="middle" x="521.5" y="-144.5" font-family="Helvetica,sans-Serif" font-size="10.00">NavigationActivity.refineSearch</text>
</a>
</g>
</g>
<!-- Node2&#45;&gt;Node3 -->
<g id="edge2" class="edge"><title>Node2&#45;&gt;Node3</title>
<path fill="none" stroke="midnightblue" d="M396.544,-152.5C410.23,-152.5 424.252,-152.5 437.713,-152.5"/>
<polygon fill="midnightblue" stroke="midnightblue" points="396.157,-149 386.157,-152.5 396.157,-156 396.157,-149"/>
</g>
<!-- Node3&#45;&gt;Node4 -->
<g id="edge3" class="edge"><title>Node3&#45;&gt;Node4</title>
<path fill="none" stroke="midnightblue" d="M615.03,-142.965C623.595,-142.083 632.286,-141.187 640.874,-140.302"/>
<polygon fill="midnightblue" stroke="midnightblue" points="614.633,-139.488 605.045,-143.994 615.351,-146.451 614.633,-139.488"/>
</g>
<!-- Node4&#45;&gt;Node4 -->
<g id="edge4" class="edge"><title>Node4&#45;&gt;Node4</title>
<path fill="none" stroke="midnightblue" d="M698.975,-155.958C703.694,-160.679 716.369,-164 737,-164 770.855,-164 783.287,-155.057 774.294,-145.659"/>
<polygon fill="midnightblue" stroke="midnightblue" points="702.489,-155.882 699.706,-145.659 695.506,-155.386 702.489,-155.882"/>
</g>
</g>
</svg>
