<?xml version="1.0" encoding="UTF-8" standalone="no"?>
<!DOCTYPE svg PUBLIC "-//W3C//DTD SVG 1.1//EN"
 "http://www.w3.org/Graphics/SVG/1.1/DTD/svg11.dtd">
<!-- Generated by graphviz version 2.38.0 (20140413.2041)
 -->
<!-- Title: org.buildmlearn.appstore.activities.CategoriesActivity.onCreate Pages: 1 -->
<svg width="570pt" height="39pt"
 viewBox="0.00 0.00 570.00 39.00" xmlns="http://www.w3.org/2000/svg" xmlns:xlink="http://www.w3.org/1999/xlink">
<g id="graph0" class="graph" transform="scale(1 1) rotate(0) translate(4 35)">
<title>org.buildmlearn.appstore.activities.CategoriesActivity.onCreate</title>
<!-- Node1 -->
<g id="node1" class="node"><title>Node1</title>
<polygon fill="#bfbfbf" stroke="black" points="0,-0.5 0,-30.5 167,-30.5 167,-0.5 0,-0.5"/>
<text text-anchor="start" x="8" y="-18.5" font-family="Helvetica,sans-Serif" font-size="10.00">org.buildmlearn.appstore.activities.</text>
<text text-anchor="middle" x="83.5" y="-7.5" font-family="Helvetica,sans-Serif" font-size="10.00">CategoriesActivity.onCreate</text>
</g>
<!-- Node2 -->
<g id="node2" class="node"><title>Node2</title>
<g id="a_node2"><a xlink:href="$d1/d06/classorg_1_1buildmlearn_1_1appstore_1_1models_1_1_categories_card.html#ab813d0f7d8a63a8846f60723fada8944" xlink:title="org.buildmlearn.appstore.models.\lCategoriesCard.getCategoriesList">
<polygon fill="none" stroke="black" points="203,-0.5 203,-30.5 365,-30.5 365,-0.5 203,-0.5"/>
<text text-anchor="start" x="211" y="-18.5" font-family="Helvetica,sans-Serif" font-size="10.00">org.buildmlearn.appstore.models.</text>
<text text-anchor="middle" x="284" y="-7.5" font-family="Helvetica,sans-Serif" font-size="10.00">CategoriesCard.getCategoriesList</text>
</a>
</g>
</g>
<!-- Node1&#45;&gt;Node2 -->
<g id="edge1" class="edge"><title>Node1&#45;&gt;Node2</title>
<path fill="none" stroke="midnightblue" d="M167.244,-15.5C175.639,-15.5 184.196,-15.5 192.666,-15.5"/>
<polygon fill="midnightblue" stroke="midnightblue" points="192.937,-19.0001 202.937,-15.5 192.937,-12.0001 192.937,-19.0001"/>
</g>
<!-- Node3 -->
<g id="node3" class="node"><title>Node3</title>
<g id="a_node3"><a xlink:href="$d1/d06/classorg_1_1buildmlearn_1_1appstore_1_1models_1_1_categories_card.html#ac04e1ef2bf697cc92e0bff48b1919bc2" xlink:title="org.buildmlearn.appstore.models.\lCategoriesCard.CategoriesCard">
<polygon fill="none" stroke="black" points="401,-0.5 401,-30.5 562,-30.5 562,-0.5 401,-0.5"/>
<text text-anchor="start" x="409" y="-18.5" font-family="Helvetica,sans-Serif" font-size="10.00">org.buildmlearn.appstore.models.</text>
<text text-anchor="middle" x="481.5" y="-7.5" font-family="Helvetica,sans-Serif" font-size="10.00">CategoriesCard.CategoriesCard</text>
</a>
</g>
</g>
<!-- Node2&#45;&gt;Node3 -->
<g id="edge2" class="edge"><title>Node2&#45;&gt;Node3</title>
<path fill="none" stroke="midnightblue" d="M365.081,-15.5C373.57,-15.5 382.243,-15.5 390.831,-15.5"/>
<polygon fill="midnightblue" stroke="midnightblue" points="390.859,-19.0001 400.859,-15.5 390.859,-12.0001 390.859,-19.0001"/>
</g>
</g>
</svg>
