<?xml version="1.0" encoding="UTF-8" standalone="no"?>
<!DOCTYPE svg PUBLIC "-//W3C//DTD SVG 1.1//EN"
 "http://www.w3.org/Graphics/SVG/1.1/DTD/svg11.dtd">
<!-- Generated by graphviz version 2.38.0 (20140413.2041)
 -->
<!-- Title: Graphical Class Hierarchy Pages: 1 -->
<svg width="274pt" height="88pt"
 viewBox="0.00 0.00 274.00 88.00" xmlns="http://www.w3.org/2000/svg" xmlns:xlink="http://www.w3.org/1999/xlink">
<g id="graph0" class="graph" transform="scale(1 1) rotate(0) translate(4 84)">
<title>Graphical Class Hierarchy</title>
<!-- Node1 -->
<g id="node1" class="node"><title>Node1</title>
<polygon fill="none" stroke="#bfbfbf" points="0,-30 0,-49 58,-49 58,-30 0,-30"/>
<text text-anchor="middle" x="29" y="-37" font-family="Helvetica,sans-Serif" font-size="10.00">Fragment</text>
</g>
<!-- Node2 -->
<g id="node2" class="node"><title>Node2</title>
<g id="a_node2"><a xlink:href="d0/df6/classorg_1_1buildmlearn_1_1appstore_1_1fragments_1_1_tab_my_apps.html" target="_top" xlink:title="Fragment class of the My&#45;Apps section on the Home Page. ">
<polygon fill="none" stroke="black" points="94,-49.5 94,-79.5 266,-79.5 266,-49.5 94,-49.5"/>
<text text-anchor="start" x="102" y="-67.5" font-family="Helvetica,sans-Serif" font-size="10.00">org.buildmlearn.appstore.fragments.</text>
<text text-anchor="middle" x="180" y="-56.5" font-family="Helvetica,sans-Serif" font-size="10.00">TabMyApps</text>
</a>
</g>
</g>
<!-- Node1&#45;&gt;Node2 -->
<g id="edge1" class="edge"><title>Node1&#45;&gt;Node2</title>
<path fill="none" stroke="midnightblue" d="M68.1015,-45.8929C76.1278,-47.2396 84.9013,-48.7116 93.8851,-50.219"/>
<polygon fill="midnightblue" stroke="midnightblue" points="68.4671,-42.4054 58.0258,-44.2023 67.3087,-49.3089 68.4671,-42.4054"/>
</g>
<!-- Node3 -->
<g id="node3" class="node"><title>Node3</title>
<g id="a_node3"><a xlink:href="d8/dd4/classorg_1_1buildmlearn_1_1appstore_1_1fragments_1_1_tab_store.html" target="_top" xlink:title="Fragment class of the Store section on the Home Page. ">
<polygon fill="none" stroke="black" points="94,-0.5 94,-30.5 266,-30.5 266,-0.5 94,-0.5"/>
<text text-anchor="start" x="102" y="-18.5" font-family="Helvetica,sans-Serif" font-size="10.00">org.buildmlearn.appstore.fragments.</text>
<text text-anchor="middle" x="180" y="-7.5" font-family="Helvetica,sans-Serif" font-size="10.00">TabStore</text>
</a>
</g>
</g>
<!-- Node1&#45;&gt;Node3 -->
<g id="edge2" class="edge"><title>Node1&#45;&gt;Node3</title>
<path fill="none" stroke="midnightblue" d="M68.1015,-33.3628C76.1278,-32.07 84.9013,-30.6568 93.8851,-29.2098"/>
<polygon fill="midnightblue" stroke="midnightblue" points="67.3419,-29.94 58.0258,-34.9858 68.4551,-36.8509 67.3419,-29.94"/>
</g>
</g>
</svg>
