<?xml version="1.0" encoding="UTF-8" standalone="no"?>
<!DOCTYPE svg PUBLIC "-//W3C//DTD SVG 1.1//EN"
 "http://www.w3.org/Graphics/SVG/1.1/DTD/svg11.dtd">
<!-- Generated by graphviz version 2.38.0 (20140413.2041)
 -->
<!-- Title: Graphical Class Hierarchy Pages: 1 -->
<svg width="357pt" height="88pt"
 viewBox="0.00 0.00 357.00 88.00" xmlns="http://www.w3.org/2000/svg" xmlns:xlink="http://www.w3.org/1999/xlink">
<g id="graph0" class="graph" transform="scale(1 1) rotate(0) translate(4 84)">
<title>Graphical Class Hierarchy</title>
<!-- Node1 -->
<g id="node1" class="node"><title>Node1</title>
<polygon fill="none" stroke="#bfbfbf" points="0,-30 0,-49 104,-49 104,-30 0,-30"/>
<text text-anchor="middle" x="52" y="-37" font-family="Helvetica,sans-Serif" font-size="10.00">PreferenceFragment</text>
</g>
<!-- Node2 -->
<g id="node2" class="node"><title>Node2</title>
<g id="a_node2"><a xlink:href="d0/d38/classorg_1_1buildmlearn_1_1appstore_1_1activities_1_1_settings_activity_1_1_about_preference_fragment.html" target="_top" xlink:title="This fragment shows notification preferences only. ">
<polygon fill="none" stroke="black" points="144.5,-49.5 144.5,-79.5 344.5,-79.5 344.5,-49.5 144.5,-49.5"/>
<text text-anchor="start" x="152.5" y="-67.5" font-family="Helvetica,sans-Serif" font-size="10.00">org.buildmlearn.appstore.activities.</text>
<text text-anchor="middle" x="244.5" y="-56.5" font-family="Helvetica,sans-Serif" font-size="10.00">SettingsActivity.AboutPreferenceFragment</text>
</a>
</g>
</g>
<!-- Node1&#45;&gt;Node2 -->
<g id="edge1" class="edge"><title>Node1&#45;&gt;Node2</title>
<path fill="none" stroke="midnightblue" d="M114.01,-47.5066C123.78,-48.7887 134.104,-50.1436 144.488,-51.5063"/>
<polygon fill="midnightblue" stroke="midnightblue" points="114.421,-44.0306 104.051,-46.1995 113.51,-50.9711 114.421,-44.0306"/>
</g>
<!-- Node3 -->
<g id="node3" class="node"><title>Node3</title>
<g id="a_node3"><a xlink:href="d9/d66/classorg_1_1buildmlearn_1_1appstore_1_1activities_1_1_settings_activity_1_1_general_preference_fragment.html" target="_top" xlink:title="This fragment shows general preferences only. ">
<polygon fill="none" stroke="black" points="140,-0.5 140,-30.5 349,-30.5 349,-0.5 140,-0.5"/>
<text text-anchor="start" x="148" y="-18.5" font-family="Helvetica,sans-Serif" font-size="10.00">org.buildmlearn.appstore.activities.</text>
<text text-anchor="middle" x="244.5" y="-7.5" font-family="Helvetica,sans-Serif" font-size="10.00">SettingsActivity.GeneralPreferenceFragment</text>
</a>
</g>
</g>
<!-- Node1&#45;&gt;Node3 -->
<g id="edge2" class="edge"><title>Node1&#45;&gt;Node3</title>
<path fill="none" stroke="midnightblue" d="M114.216,-31.7877C122.423,-30.7538 131.017,-29.671 139.708,-28.5762"/>
<polygon fill="midnightblue" stroke="midnightblue" points="113.535,-28.3458 104.051,-33.0684 114.41,-35.2909 113.535,-28.3458"/>
</g>
</g>
</svg>
