<?xml version="1.0" encoding="UTF-8" standalone="no"?>
<!DOCTYPE svg PUBLIC "-//W3C//DTD SVG 1.1//EN"
 "http://www.w3.org/Graphics/SVG/1.1/DTD/svg11.dtd">
<!-- Generated by graphviz version 2.38.0 (20140413.2041)
 -->
<!-- Title: Graphical Class Hierarchy Pages: 1 -->
<svg width="513pt" height="480pt"
 viewBox="0.00 0.00 513.00 480.00" xmlns="http://www.w3.org/2000/svg" xmlns:xlink="http://www.w3.org/1999/xlink">
<g id="graph0" class="graph" transform="scale(1 1) rotate(0) translate(4 476)">
<title>Graphical Class Hierarchy</title>
<!-- Node1 -->
<g id="node1" class="node"><title>Node1</title>
<polygon fill="none" stroke="#bfbfbf" points="0,-226 0,-245 99,-245 99,-226 0,-226"/>
<text text-anchor="middle" x="49.5" y="-233" font-family="Helvetica,sans-Serif" font-size="10.00">AppCompatActivity</text>
</g>
<!-- Node2 -->
<g id="node2" class="node"><title>Node2</title>
<g id="a_node2"><a xlink:href="dd/d52/classorg_1_1buildmlearn_1_1appstore_1_1activities_1_1_app_details.html" target="_top" xlink:title="This class deals with the App&#45;Details page, which is shown when the user taps on any app cards displa...">
<polygon fill="none" stroke="black" points="135,-294.5 135,-324.5 302,-324.5 302,-294.5 135,-294.5"/>
<text text-anchor="start" x="143" y="-312.5" font-family="Helvetica,sans-Serif" font-size="10.00">org.buildmlearn.appstore.activities.</text>
<text text-anchor="middle" x="218.5" y="-301.5" font-family="Helvetica,sans-Serif" font-size="10.00">AppDetails</text>
</a>
</g>
</g>
<!-- Node1&#45;&gt;Node2 -->
<g id="edge1" class="edge"><title>Node1&#45;&gt;Node2</title>
<path fill="none" stroke="midnightblue" d="M72.7197,-250.749C89.3019,-261.599 112.827,-275.897 135,-285.5 142.528,-288.76 150.63,-291.728 158.711,-294.377"/>
<polygon fill="midnightblue" stroke="midnightblue" points="74.5384,-247.755 64.2744,-245.128 70.6598,-253.583 74.5384,-247.755"/>
</g>
<!-- Node3 -->
<g id="node3" class="node"><title>Node3</title>
<g id="a_node3"><a xlink:href="d6/d1d/classorg_1_1buildmlearn_1_1appstore_1_1activities_1_1_flash_activity.html" target="_top" xlink:title="This activity deals with the Flash Card apps. ">
<polygon fill="none" stroke="black" points="135,-441.5 135,-471.5 302,-471.5 302,-441.5 135,-441.5"/>
<text text-anchor="start" x="143" y="-459.5" font-family="Helvetica,sans-Serif" font-size="10.00">org.buildmlearn.appstore.activities.</text>
<text text-anchor="middle" x="218.5" y="-448.5" font-family="Helvetica,sans-Serif" font-size="10.00">FlashActivity</text>
</a>
</g>
</g>
<!-- Node1&#45;&gt;Node3 -->
<g id="edge2" class="edge"><title>Node1&#45;&gt;Node3</title>
<path fill="none" stroke="midnightblue" d="M53.3295,-255.417C60.0306,-295.106 80.5974,-384.365 135,-432.5 138.91,-435.96 143.293,-438.922 147.947,-441.458"/>
<polygon fill="midnightblue" stroke="midnightblue" points="56.7668,-254.744 51.7607,-245.406 49.8512,-255.828 56.7668,-254.744"/>
</g>
<!-- Node4 -->
<g id="node4" class="node"><title>Node4</title>
<g id="a_node4"><a xlink:href="d2/d16/classorg_1_1buildmlearn_1_1appstore_1_1activities_1_1_info_activity.html" target="_top" xlink:title="This class deals with rendering Info&#45;Type apps. ">
<polygon fill="none" stroke="black" points="135,-245.5 135,-275.5 302,-275.5 302,-245.5 135,-245.5"/>
<text text-anchor="start" x="143" y="-263.5" font-family="Helvetica,sans-Serif" font-size="10.00">org.buildmlearn.appstore.activities.</text>
<text text-anchor="middle" x="218.5" y="-252.5" font-family="Helvetica,sans-Serif" font-size="10.00">InfoActivity</text>
</a>
</g>
</g>
<!-- Node1&#45;&gt;Node4 -->
<g id="edge3" class="edge"><title>Node1&#45;&gt;Node4</title>
<path fill="none" stroke="midnightblue" d="M109.165,-244.282C117.458,-245.524 126.111,-246.819 134.753,-248.113"/>
<polygon fill="midnightblue" stroke="midnightblue" points="109.66,-240.817 99.2522,-242.798 108.624,-247.74 109.66,-240.817"/>
</g>
<!-- Node5 -->
<g id="node5" class="node"><title>Node5</title>
<g id="a_node5"><a xlink:href="d1/d3e/classorg_1_1buildmlearn_1_1appstore_1_1activities_1_1_info_detail_activity.html" target="_top" xlink:title="This class deals with showing meaning/description related to a particular word listed in the InfoActi...">
<polygon fill="none" stroke="black" points="135,-196.5 135,-226.5 302,-226.5 302,-196.5 135,-196.5"/>
<text text-anchor="start" x="143" y="-214.5" font-family="Helvetica,sans-Serif" font-size="10.00">org.buildmlearn.appstore.activities.</text>
<text text-anchor="middle" x="218.5" y="-203.5" font-family="Helvetica,sans-Serif" font-size="10.00">InfoDetailActivity</text>
</a>
</g>
</g>
<!-- Node1&#45;&gt;Node5 -->
<g id="edge4" class="edge"><title>Node1&#45;&gt;Node5</title>
<path fill="none" stroke="midnightblue" d="M109.165,-227.069C117.458,-225.877 126.111,-224.634 134.753,-223.392"/>
<polygon fill="midnightblue" stroke="midnightblue" points="108.653,-223.607 99.2522,-228.494 109.648,-230.535 108.653,-223.607"/>
</g>
<!-- Node6 -->
<g id="node6" class="node"><title>Node6</title>
<g id="a_node6"><a xlink:href="d0/d60/classorg_1_1buildmlearn_1_1appstore_1_1activities_1_1_navigation_activity.html" target="_top" xlink:title="This class is the parent class to which almost all the activities extends to. ">
<polygon fill="none" stroke="black" points="135,-147.5 135,-177.5 302,-177.5 302,-147.5 135,-147.5"/>
<text text-anchor="start" x="143" y="-165.5" font-family="Helvetica,sans-Serif" font-size="10.00">org.buildmlearn.appstore.activities.</text>
<text text-anchor="middle" x="218.5" y="-154.5" font-family="Helvetica,sans-Serif" font-size="10.00">NavigationActivity</text>
</a>
</g>
</g>
<!-- Node1&#45;&gt;Node6 -->
<g id="edge5" class="edge"><title>Node1&#45;&gt;Node6</title>
<path fill="none" stroke="midnightblue" d="M73.4337,-220.617C90.0368,-210.31 113.284,-196.82 135,-187.5 143.527,-183.84 152.762,-180.487 161.863,-177.506"/>
<polygon fill="midnightblue" stroke="midnightblue" points="71.5376,-217.675 64.9453,-225.969 75.271,-223.596 71.5376,-217.675"/>
</g>
<!-- Node11 -->
<g id="node11" class="node"><title>Node11</title>
<g id="a_node11"><a xlink:href="d8/d63/classorg_1_1buildmlearn_1_1appstore_1_1activities_1_1_question_activity.html" target="_top" xlink:title="This activity renders Quiz related apps. ">
<polygon fill="none" stroke="black" points="135,-98.5 135,-128.5 302,-128.5 302,-98.5 135,-98.5"/>
<text text-anchor="start" x="143" y="-116.5" font-family="Helvetica,sans-Serif" font-size="10.00">org.buildmlearn.appstore.activities.</text>
<text text-anchor="middle" x="218.5" y="-105.5" font-family="Helvetica,sans-Serif" font-size="10.00">QuestionActivity</text>
</a>
</g>
</g>
<!-- Node1&#45;&gt;Node11 -->
<g id="edge10" class="edge"><title>Node1&#45;&gt;Node11</title>
<path fill="none" stroke="midnightblue" d="M61.7224,-217.279C76.0872,-195.442 102.983,-159.212 135,-138.5 140.906,-134.679 147.424,-131.419 154.131,-128.642"/>
<polygon fill="midnightblue" stroke="midnightblue" points="58.6289,-215.62 56.1924,-225.931 64.5271,-219.39 58.6289,-215.62"/>
</g>
<!-- Node12 -->
<g id="node12" class="node"><title>Node12</title>
<g id="a_node12"><a xlink:href="df/dcb/classorg_1_1buildmlearn_1_1appstore_1_1activities_1_1_score_activity.html" target="_top" xlink:title="This activity shows the current score (total answered, unanswered and total wrong attempts) related t...">
<polygon fill="none" stroke="black" points="135,-392.5 135,-422.5 302,-422.5 302,-392.5 135,-392.5"/>
<text text-anchor="start" x="143" y="-410.5" font-family="Helvetica,sans-Serif" font-size="10.00">org.buildmlearn.appstore.activities.</text>
<text text-anchor="middle" x="218.5" y="-399.5" font-family="Helvetica,sans-Serif" font-size="10.00">ScoreActivity</text>
</a>
</g>
</g>
<!-- Node1&#45;&gt;Node12 -->
<g id="edge11" class="edge"><title>Node1&#45;&gt;Node12</title>
<path fill="none" stroke="midnightblue" d="M56.2938,-254.972C66.7407,-286.698 91.7663,-349.42 135,-383.5 139.334,-386.917 144.139,-389.847 149.188,-392.36"/>
<polygon fill="midnightblue" stroke="midnightblue" points="59.5405,-253.629 53.2007,-245.14 52.8631,-255.729 59.5405,-253.629"/>
</g>
<!-- Node13 -->
<g id="node13" class="node"><title>Node13</title>
<g id="a_node13"><a xlink:href="d9/dca/classorg_1_1buildmlearn_1_1appstore_1_1activities_1_1_spelling_activity.html" target="_top" xlink:title="This activity renders the launched spellings puzzle app. ">
<polygon fill="none" stroke="black" points="135,-49.5 135,-79.5 302,-79.5 302,-49.5 135,-49.5"/>
<text text-anchor="start" x="143" y="-67.5" font-family="Helvetica,sans-Serif" font-size="10.00">org.buildmlearn.appstore.activities.</text>
<text text-anchor="middle" x="218.5" y="-56.5" font-family="Helvetica,sans-Serif" font-size="10.00">SpellingActivity</text>
</a>
</g>
</g>
<!-- Node1&#45;&gt;Node13 -->
<g id="edge12" class="edge"><title>Node1&#45;&gt;Node13</title>
<path fill="none" stroke="midnightblue" d="M56.5664,-215.89C67.2729,-184.524 92.5003,-123.183 135,-89.5 139.926,-85.5957 145.457,-82.2996 151.26,-79.5172"/>
<polygon fill="midnightblue" stroke="midnightblue" points="53.1596,-215.047 53.3804,-225.64 59.8134,-217.221 53.1596,-215.047"/>
</g>
<!-- Node14 -->
<g id="node14" class="node"><title>Node14</title>
<g id="a_node14"><a xlink:href="d1/d76/classorg_1_1buildmlearn_1_1appstore_1_1activities_1_1_start_activity.html" target="_top" xlink:title="This is the stating page, which is navigated to, when an app is launched. ">
<polygon fill="none" stroke="black" points="135,-0.5 135,-30.5 302,-30.5 302,-0.5 135,-0.5"/>
<text text-anchor="start" x="143" y="-18.5" font-family="Helvetica,sans-Serif" font-size="10.00">org.buildmlearn.appstore.activities.</text>
<text text-anchor="middle" x="218.5" y="-7.5" font-family="Helvetica,sans-Serif" font-size="10.00">StartActivity</text>
</a>
</g>
</g>
<!-- Node1&#45;&gt;Node14 -->
<g id="edge13" class="edge"><title>Node1&#45;&gt;Node14</title>
<path fill="none" stroke="midnightblue" d="M53.4385,-215.832C60.3364,-176.631 81.2411,-88.4224 135,-40.5 139.357,-36.6161 144.301,-33.3353 149.552,-30.5641"/>
<polygon fill="midnightblue" stroke="midnightblue" points="49.9816,-215.284 51.8177,-225.719 56.8894,-216.417 49.9816,-215.284"/>
</g>
<!-- Node15 -->
<g id="node15" class="node"><title>Node15</title>
<g id="a_node15"><a xlink:href="d2/d2d/classorg_1_1buildmlearn_1_1appstore_1_1activities_1_1_word_info_activity.html" target="_top" xlink:title="This class deals with displaying result for Spellings Puzzle apps. ">
<polygon fill="none" stroke="black" points="135,-343.5 135,-373.5 302,-373.5 302,-343.5 135,-343.5"/>
<text text-anchor="start" x="143" y="-361.5" font-family="Helvetica,sans-Serif" font-size="10.00">org.buildmlearn.appstore.activities.</text>
<text text-anchor="middle" x="218.5" y="-350.5" font-family="Helvetica,sans-Serif" font-size="10.00">WordInfoActivity</text>
</a>
</g>
</g>
<!-- Node1&#45;&gt;Node15 -->
<g id="edge14" class="edge"><title>Node1&#45;&gt;Node15</title>
<path fill="none" stroke="midnightblue" d="M61.1864,-253.523C75.3149,-275.804 102.284,-313.36 135,-334.5 140.262,-337.9 146.018,-340.831 151.964,-343.354"/>
<polygon fill="midnightblue" stroke="midnightblue" points="64.1625,-251.681 55.9381,-245.002 58.2022,-255.352 64.1625,-251.681"/>
</g>
<!-- Node7 -->
<g id="node7" class="node"><title>Node7</title>
<g id="a_node7"><a xlink:href="dc/d90/classorg_1_1buildmlearn_1_1appstore_1_1activities_1_1_apps_activity.html" target="_top" xlink:title="This activity deals with the apps shown when &quot;more&quot; button on the Home Page is pressed. ">
<polygon fill="none" stroke="black" points="338,-220.5 338,-250.5 505,-250.5 505,-220.5 338,-220.5"/>
<text text-anchor="start" x="346" y="-238.5" font-family="Helvetica,sans-Serif" font-size="10.00">org.buildmlearn.appstore.activities.</text>
<text text-anchor="middle" x="421.5" y="-227.5" font-family="Helvetica,sans-Serif" font-size="10.00">AppsActivity</text>
</a>
</g>
</g>
<!-- Node6&#45;&gt;Node7 -->
<g id="edge6" class="edge"><title>Node6&#45;&gt;Node7</title>
<path fill="none" stroke="midnightblue" d="M286.661,-181.018C291.923,-183.022 297.094,-185.184 302,-187.5 319.389,-195.71 320.566,-203.387 338,-211.5 345.168,-214.836 352.904,-217.819 360.665,-220.452"/>
<polygon fill="midnightblue" stroke="midnightblue" points="287.722,-177.68 277.128,-177.581 285.348,-184.265 287.722,-177.68"/>
</g>
<!-- Node8 -->
<g id="node8" class="node"><title>Node8</title>
<g id="a_node8"><a xlink:href="d6/d69/classorg_1_1buildmlearn_1_1appstore_1_1activities_1_1_categories_activity.html" target="_top" xlink:title="This activity shows all the categories. ">
<polygon fill="none" stroke="black" points="338,-171.5 338,-201.5 505,-201.5 505,-171.5 338,-171.5"/>
<text text-anchor="start" x="346" y="-189.5" font-family="Helvetica,sans-Serif" font-size="10.00">org.buildmlearn.appstore.activities.</text>
<text text-anchor="middle" x="421.5" y="-178.5" font-family="Helvetica,sans-Serif" font-size="10.00">CategoriesActivity</text>
</a>
</g>
</g>
<!-- Node6&#45;&gt;Node8 -->
<g id="edge7" class="edge"><title>Node6&#45;&gt;Node8</title>
<path fill="none" stroke="midnightblue" d="M312.148,-173.562C320.73,-174.587 329.389,-175.621 337.872,-176.634"/>
<polygon fill="midnightblue" stroke="midnightblue" points="312.469,-170.076 302.125,-172.366 311.639,-177.027 312.469,-170.076"/>
</g>
<!-- Node9 -->
<g id="node9" class="node"><title>Node9</title>
<g id="a_node9"><a xlink:href="dd/d45/classorg_1_1buildmlearn_1_1appstore_1_1activities_1_1_categories_view.html" target="_top" xlink:title="This activity shows all the apps which belong to a particular category. ">
<polygon fill="none" stroke="black" points="338,-122.5 338,-152.5 505,-152.5 505,-122.5 338,-122.5"/>
<text text-anchor="start" x="346" y="-140.5" font-family="Helvetica,sans-Serif" font-size="10.00">org.buildmlearn.appstore.activities.</text>
<text text-anchor="middle" x="421.5" y="-129.5" font-family="Helvetica,sans-Serif" font-size="10.00">CategoriesView</text>
</a>
</g>
</g>
<!-- Node6&#45;&gt;Node9 -->
<g id="edge8" class="edge"><title>Node6&#45;&gt;Node9</title>
<path fill="none" stroke="midnightblue" d="M312.148,-150.977C320.73,-149.909 329.389,-148.832 337.872,-147.777"/>
<polygon fill="midnightblue" stroke="midnightblue" points="311.616,-147.516 302.125,-152.223 312.48,-154.462 311.616,-147.516"/>
</g>
<!-- Node10 -->
<g id="node10" class="node"><title>Node10</title>
<g id="a_node10"><a xlink:href="d8/dfa/classorg_1_1buildmlearn_1_1appstore_1_1activities_1_1_home_activity.html" target="_top" xlink:title="This class is the Home Page, which has a viewpager to display tabs for Store section and My&#45;Apps sect...">
<polygon fill="none" stroke="black" points="338,-73.5 338,-103.5 505,-103.5 505,-73.5 338,-73.5"/>
<text text-anchor="start" x="346" y="-91.5" font-family="Helvetica,sans-Serif" font-size="10.00">org.buildmlearn.appstore.activities.</text>
<text text-anchor="middle" x="421.5" y="-80.5" font-family="Helvetica,sans-Serif" font-size="10.00">HomeActivity</text>
</a>
</g>
</g>
<!-- Node6&#45;&gt;Node10 -->
<g id="edge9" class="edge"><title>Node6&#45;&gt;Node10</title>
<path fill="none" stroke="midnightblue" d="M289.396,-143.926C293.718,-142.239 297.952,-140.43 302,-138.5 319.582,-130.114 320.465,-121.984 338,-113.5 345.679,-109.785 354.029,-106.485 362.369,-103.599"/>
<polygon fill="midnightblue" stroke="midnightblue" points="288.019,-140.703 279.834,-147.43 290.427,-147.276 288.019,-140.703"/>
</g>
<!-- Node16 -->
<g id="node16" class="node"><title>Node16</title>
<polygon fill="none" stroke="#bfbfbf" points="6.5,-6 6.5,-25 92.5,-25 92.5,-6 6.5,-6"/>
<text text-anchor="middle" x="49.5" y="-13" font-family="Helvetica,sans-Serif" font-size="10.00">OnClickListener</text>
</g>
<!-- Node16&#45;&gt;Node14 -->
<g id="edge15" class="edge"><title>Node16&#45;&gt;Node14</title>
<path fill="none" stroke="midnightblue" d="M102.656,-15.5C112.948,-15.5 123.982,-15.5 134.994,-15.5"/>
<polygon fill="midnightblue" stroke="midnightblue" points="102.641,-12.0001 92.6412,-15.5 102.641,-19.0001 102.641,-12.0001"/>
</g>
<!-- Node17 -->
<g id="node17" class="node"><title>Node17</title>
<polygon fill="none" stroke="#bfbfbf" points="2,-447 2,-466 97,-466 97,-447 2,-447"/>
<text text-anchor="middle" x="49.5" y="-454" font-family="Helvetica,sans-Serif" font-size="10.00">AnimationListener</text>
</g>
<!-- Node17&#45;&gt;Node3 -->
<g id="edge16" class="edge"><title>Node17&#45;&gt;Node3</title>
<path fill="none" stroke="midnightblue" d="M107.217,-456.5C116.106,-456.5 125.447,-456.5 134.776,-456.5"/>
<polygon fill="midnightblue" stroke="midnightblue" points="107.019,-453 97.0188,-456.5 107.019,-460 107.019,-453"/>
</g>
<!-- Node18 -->
<g id="node18" class="node"><title>Node18</title>
<polygon fill="none" stroke="#bfbfbf" points="11,-55 11,-74 88,-74 88,-55 11,-55"/>
<text text-anchor="middle" x="49.5" y="-62" font-family="Helvetica,sans-Serif" font-size="10.00">OnInitListener</text>
</g>
<!-- Node18&#45;&gt;Node13 -->
<g id="edge17" class="edge"><title>Node18&#45;&gt;Node13</title>
<path fill="none" stroke="midnightblue" d="M98.5054,-64.5C109.88,-64.5 122.333,-64.5 134.764,-64.5"/>
<polygon fill="midnightblue" stroke="midnightblue" points="98.3949,-61.0001 88.3949,-64.5 98.3949,-68.0001 98.3949,-61.0001"/>
</g>
</g>
</svg>
