<?xml version="1.0" encoding="UTF-8" standalone="no"?>
<!DOCTYPE svg PUBLIC "-//W3C//DTD SVG 1.1//EN"
 "http://www.w3.org/Graphics/SVG/1.1/DTD/svg11.dtd">
<!-- Generated by graphviz version 2.38.0 (20140413.2041)
 -->
<!-- Title: Graphical Class Hierarchy Pages: 1 -->
<svg width="346pt" height="235pt"
 viewBox="0.00 0.00 346.00 235.00" xmlns="http://www.w3.org/2000/svg" xmlns:xlink="http://www.w3.org/1999/xlink">
<g id="graph0" class="graph" transform="scale(1 1) rotate(0) translate(4 231)">
<title>Graphical Class Hierarchy</title>
<!-- Node1 -->
<g id="node1" class="node"><title>Node1</title>
<polygon fill="none" stroke="#bfbfbf" points="10.5,-77 10.5,-96 96.5,-96 96.5,-77 10.5,-77"/>
<text text-anchor="middle" x="53.5" y="-84" font-family="Helvetica,sans-Serif" font-size="10.00">OnClickListener</text>
</g>
<!-- Node2 -->
<g id="node2" class="node"><title>Node2</title>
<g id="a_node2"><a xlink:href="d1/d87/classorg_1_1buildmlearn_1_1appstore_1_1adapters_1_1_card_categories_adapter_1_1_card_view_holder.html" target="_top" xlink:title="Holder class to contain all the views required during populating content into it. ...">
<polygon fill="none" stroke="black" points="146,-147.5 146,-177.5 335,-177.5 335,-147.5 146,-147.5"/>
<text text-anchor="start" x="154" y="-165.5" font-family="Helvetica,sans-Serif" font-size="10.00">org.buildmlearn.appstore.adapters.</text>
<text text-anchor="middle" x="240.5" y="-154.5" font-family="Helvetica,sans-Serif" font-size="10.00">CardCategoriesAdapter.CardViewHolder</text>
</a>
</g>
</g>
<!-- Node1&#45;&gt;Node2 -->
<g id="edge1" class="edge"><title>Node1&#45;&gt;Node2</title>
<path fill="none" stroke="midnightblue" d="M96.3441,-99.9042C100.038,-101.603 103.645,-103.468 107,-105.5 125.565,-116.745 123.878,-128.23 143,-138.5 149.388,-141.931 156.277,-144.882 163.331,-147.418"/>
<polygon fill="midnightblue" stroke="midnightblue" points="97.6487,-96.6561 87.073,-96.0204 94.944,-103.112 97.6487,-96.6561"/>
</g>
<!-- Node3 -->
<g id="node3" class="node"><title>Node3</title>
<g id="a_node3"><a xlink:href="df/da8/classorg_1_1buildmlearn_1_1appstore_1_1adapters_1_1_card_view_adapter_1_1_card_view_holder.html" target="_top" xlink:title="Holder class to contain all the views required during populating content into it. ...">
<polygon fill="none" stroke="black" points="157,-98.5 157,-128.5 324,-128.5 324,-98.5 157,-98.5"/>
<text text-anchor="start" x="165" y="-116.5" font-family="Helvetica,sans-Serif" font-size="10.00">org.buildmlearn.appstore.adapters.</text>
<text text-anchor="middle" x="240.5" y="-105.5" font-family="Helvetica,sans-Serif" font-size="10.00">CardViewAdapter.CardViewHolder</text>
</a>
</g>
</g>
<!-- Node1&#45;&gt;Node3 -->
<g id="edge2" class="edge"><title>Node1&#45;&gt;Node3</title>
<path fill="none" stroke="midnightblue" d="M106.865,-94.1425C122.413,-96.4116 139.837,-98.9545 156.815,-101.432"/>
<polygon fill="midnightblue" stroke="midnightblue" points="107.343,-90.6753 96.9427,-92.6943 106.332,-97.6019 107.343,-90.6753"/>
</g>
<!-- Node4 -->
<g id="node4" class="node"><title>Node4</title>
<g id="a_node4"><a xlink:href="dc/d9f/classorg_1_1buildmlearn_1_1appstore_1_1adapters_1_1_categories_adapter_1_1_categories_view_holder.html" target="_top" xlink:title="Holder class to contain all the views required during populating content into it. ...">
<polygon fill="none" stroke="black" points="143,-49.5 143,-79.5 338,-79.5 338,-49.5 143,-49.5"/>
<text text-anchor="start" x="151" y="-67.5" font-family="Helvetica,sans-Serif" font-size="10.00">org.buildmlearn.appstore.adapters.</text>
<text text-anchor="middle" x="240.5" y="-56.5" font-family="Helvetica,sans-Serif" font-size="10.00">CategoriesAdapter.CategoriesViewHolder</text>
</a>
</g>
</g>
<!-- Node1&#45;&gt;Node4 -->
<g id="edge3" class="edge"><title>Node1&#45;&gt;Node4</title>
<path fill="none" stroke="midnightblue" d="M106.942,-80.2636C118.156,-78.9301 130.343,-77.4809 142.633,-76.0194"/>
<polygon fill="midnightblue" stroke="midnightblue" points="106.459,-76.7963 96.9427,-81.4528 107.286,-83.7473 106.459,-76.7963"/>
</g>
<!-- Node5 -->
<g id="node5" class="node"><title>Node5</title>
<g id="a_node5"><a xlink:href="df/d2d/classorg_1_1buildmlearn_1_1appstore_1_1adapters_1_1_my_apps_view_adapter_1_1_my_apps_view_holder.html" target="_top" xlink:title="Holder class to contain all the views required during populating content into it. ...">
<polygon fill="none" stroke="black" points="143,-196.5 143,-226.5 338,-226.5 338,-196.5 143,-196.5"/>
<text text-anchor="start" x="151" y="-214.5" font-family="Helvetica,sans-Serif" font-size="10.00">org.buildmlearn.appstore.adapters.</text>
<text text-anchor="middle" x="240.5" y="-203.5" font-family="Helvetica,sans-Serif" font-size="10.00">MyAppsViewAdapter.MyAppsViewHolder</text>
</a>
</g>
</g>
<!-- Node1&#45;&gt;Node5 -->
<g id="edge4" class="edge"><title>Node1&#45;&gt;Node5</title>
<path fill="none" stroke="midnightblue" d="M101.623,-101.187C103.527,-102.505 105.332,-103.94 107,-105.5 136.064,-132.694 112.569,-161.846 143,-187.5 147.092,-190.949 151.608,-193.915 156.385,-196.464"/>
<polygon fill="midnightblue" stroke="midnightblue" points="103.187,-98.0502 92.7692,-96.1228 99.7115,-104.126 103.187,-98.0502"/>
</g>
<!-- Node6 -->
<g id="node6" class="node"><title>Node6</title>
<g id="a_node6"><a xlink:href="df/d00/classorg_1_1buildmlearn_1_1appstore_1_1utils_1_1_sliding_tab_layout_1_1_tab_click_listener.html" target="_top" xlink:title="Helper class which implements a listener to the click/tap event on the tabs. ">
<polygon fill="none" stroke="black" points="157.5,-0.5 157.5,-30.5 323.5,-30.5 323.5,-0.5 157.5,-0.5"/>
<text text-anchor="start" x="165.5" y="-18.5" font-family="Helvetica,sans-Serif" font-size="10.00">org.buildmlearn.appstore.utils.</text>
<text text-anchor="middle" x="240.5" y="-7.5" font-family="Helvetica,sans-Serif" font-size="10.00">SlidingTabLayout.TabClickListener</text>
</a>
</g>
</g>
<!-- Node1&#45;&gt;Node6 -->
<g id="edge5" class="edge"><title>Node1&#45;&gt;Node6</title>
<path fill="none" stroke="midnightblue" d="M78.5136,-71.6774C95.8998,-61.4671 120.247,-48.2199 143,-39.5 151.705,-36.1638 161.031,-33.1672 170.33,-30.5154"/>
<polygon fill="midnightblue" stroke="midnightblue" points="76.4135,-68.855 69.625,-76.9894 80.0045,-74.8638 76.4135,-68.855"/>
</g>
<!-- Node7 -->
<g id="node7" class="node"><title>Node7</title>
<polygon fill="none" stroke="#bfbfbf" points="0,-115 0,-134 107,-134 107,-115 0,-115"/>
<text text-anchor="middle" x="53.5" y="-122" font-family="Helvetica,sans-Serif" font-size="10.00">OnLongClickListener</text>
</g>
<!-- Node7&#45;&gt;Node2 -->
<g id="edge6" class="edge"><title>Node7&#45;&gt;Node2</title>
<path fill="none" stroke="midnightblue" d="M111.154,-136.137C128.517,-139.704 147.875,-143.68 166.184,-147.44"/>
<polygon fill="midnightblue" stroke="midnightblue" points="111.683,-132.673 101.183,-134.089 110.275,-139.53 111.683,-132.673"/>
</g>
<!-- Node7&#45;&gt;Node3 -->
<g id="edge7" class="edge"><title>Node7&#45;&gt;Node3</title>
<path fill="none" stroke="midnightblue" d="M117.046,-120.781C129.805,-120.022 143.415,-119.213 156.752,-118.42"/>
<polygon fill="midnightblue" stroke="midnightblue" points="116.793,-117.29 107.019,-121.377 117.209,-124.277 116.793,-117.29"/>
</g>
<!-- Node7&#45;&gt;Node4 -->
<g id="edge8" class="edge"><title>Node7&#45;&gt;Node4</title>
<path fill="none" stroke="midnightblue" d="M91.8417,-111.356C96.9567,-109.447 102.123,-107.463 107,-105.5 123.242,-98.9611 126.469,-95.2707 143,-89.5 153.376,-85.878 164.541,-82.5147 175.467,-79.5046"/>
<polygon fill="midnightblue" stroke="midnightblue" points="90.3431,-108.177 82.1591,-114.906 92.7528,-114.749 90.3431,-108.177"/>
</g>
<!-- Node7&#45;&gt;Node5 -->
<g id="edge9" class="edge"><title>Node7&#45;&gt;Node5</title>
<path fill="none" stroke="midnightblue" d="M98.3999,-138.287C101.409,-139.862 104.31,-141.595 107,-143.5 127.621,-158.102 121.652,-173.984 143,-187.5 148.397,-190.917 154.25,-193.847 160.314,-196.361"/>
<polygon fill="midnightblue" stroke="midnightblue" points="99.6992,-135.032 89.152,-134.028 96.7709,-141.39 99.6992,-135.032"/>
</g>
<!-- Node8 -->
<g id="node8" class="node"><title>Node8</title>
<polygon fill="none" stroke="#bfbfbf" points="21,-153 21,-172 86,-172 86,-153 21,-153"/>
<text text-anchor="middle" x="53.5" y="-160" font-family="Helvetica,sans-Serif" font-size="10.00">ViewHolder</text>
</g>
<!-- Node8&#45;&gt;Node2 -->
<g id="edge10" class="edge"><title>Node8&#45;&gt;Node2</title>
<path fill="none" stroke="midnightblue" d="M96.5506,-162.5C111.267,-162.5 128.439,-162.5 145.672,-162.5"/>
<polygon fill="midnightblue" stroke="midnightblue" points="96.3027,-159 86.3026,-162.5 96.3026,-166 96.3027,-159"/>
</g>
<!-- Node8&#45;&gt;Node3 -->
<g id="edge11" class="edge"><title>Node8&#45;&gt;Node3</title>
<path fill="none" stroke="midnightblue" d="M95.9234,-151.162C110.763,-147.128 127.622,-142.577 143,-138.5 155.296,-135.24 168.485,-131.791 181.043,-128.531"/>
<polygon fill="midnightblue" stroke="midnightblue" points="94.7445,-147.856 86.0154,-153.86 96.5837,-154.61 94.7445,-147.856"/>
</g>
<!-- Node8&#45;&gt;Node4 -->
<g id="edge12" class="edge"><title>Node8&#45;&gt;Node4</title>
<path fill="none" stroke="midnightblue" d="M95.3738,-150.708C99.5056,-148.653 103.472,-146.266 107,-143.5 129.698,-125.701 119.493,-106.216 143,-89.5 148.501,-85.5885 154.565,-82.2885 160.893,-79.5046"/>
<polygon fill="midnightblue" stroke="midnightblue" points="93.9573,-147.507 86.171,-154.692 96.7384,-153.931 93.9573,-147.507"/>
</g>
<!-- Node8&#45;&gt;Node5 -->
<g id="edge13" class="edge"><title>Node8&#45;&gt;Node5</title>
<path fill="none" stroke="midnightblue" d="M96.2375,-174.583C110.985,-178.774 127.704,-183.439 143,-187.5 154.263,-190.491 166.295,-193.573 177.908,-196.49"/>
<polygon fill="midnightblue" stroke="midnightblue" points="96.9615,-171.149 86.3848,-171.769 95.0397,-177.88 96.9615,-171.149"/>
</g>
</g>
</svg>
