<?xml version="1.0" encoding="UTF-8" standalone="no"?>
<!DOCTYPE svg PUBLIC "-//W3C//DTD SVG 1.1//EN"
 "http://www.w3.org/Graphics/SVG/1.1/DTD/svg11.dtd">
<!-- Generated by graphviz version 2.38.0 (20140413.2041)
 -->
<!-- Title: Graphical Class Hierarchy Pages: 1 -->
<svg width="259pt" height="88pt"
 viewBox="0.00 0.00 259.00 88.00" xmlns="http://www.w3.org/2000/svg" xmlns:xlink="http://www.w3.org/1999/xlink">
<g id="graph0" class="graph" transform="scale(1 1) rotate(0) translate(4 84)">
<title>Graphical Class Hierarchy</title>
<!-- Node1 -->
<g id="node1" class="node"><title>Node1</title>
<polygon fill="none" stroke="#bfbfbf" points="0,-30 0,-49 48,-49 48,-30 0,-30"/>
<text text-anchor="middle" x="24" y="-37" font-family="Helvetica,sans-Serif" font-size="10.00">Activity</text>
</g>
<!-- Node2 -->
<g id="node2" class="node"><title>Node2</title>
<g id="a_node2"><a xlink:href="d7/d07/classorg_1_1buildmlearn_1_1appstore_1_1activities_1_1_full_screen_view_activity.html" target="_top" xlink:title="This activity deals with showing a full screen image when an image in the screenshots gallery is sele...">
<polygon fill="none" stroke="black" points="84,-49.5 84,-79.5 251,-79.5 251,-49.5 84,-49.5"/>
<text text-anchor="start" x="92" y="-67.5" font-family="Helvetica,sans-Serif" font-size="10.00">org.buildmlearn.appstore.activities.</text>
<text text-anchor="middle" x="167.5" y="-56.5" font-family="Helvetica,sans-Serif" font-size="10.00">FullScreenViewActivity</text>
</a>
</g>
</g>
<!-- Node1&#45;&gt;Node2 -->
<g id="edge1" class="edge"><title>Node1&#45;&gt;Node2</title>
<path fill="none" stroke="midnightblue" d="M57.9071,-45.314C65.8399,-46.7155 74.6723,-48.276 83.7771,-49.8846"/>
<polygon fill="midnightblue" stroke="midnightblue" points="58.5058,-41.8656 48.0493,-43.5723 57.2879,-48.7589 58.5058,-41.8656"/>
</g>
<!-- Node3 -->
<g id="node3" class="node"><title>Node3</title>
<g id="a_node3"><a xlink:href="df/d05/classorg_1_1buildmlearn_1_1appstore_1_1activities_1_1_splash_activity.html" target="_top" xlink:title="Shows the splash screen and in the meanwhile, it download and renders the xml file. ">
<polygon fill="none" stroke="black" points="84,-0.5 84,-30.5 251,-30.5 251,-0.5 84,-0.5"/>
<text text-anchor="start" x="92" y="-18.5" font-family="Helvetica,sans-Serif" font-size="10.00">org.buildmlearn.appstore.activities.</text>
<text text-anchor="middle" x="167.5" y="-7.5" font-family="Helvetica,sans-Serif" font-size="10.00">SplashActivity</text>
</a>
</g>
</g>
<!-- Node1&#45;&gt;Node3 -->
<g id="edge2" class="edge"><title>Node1&#45;&gt;Node3</title>
<path fill="none" stroke="midnightblue" d="M58.1748,-33.8732C66.0385,-32.5394 74.7746,-31.0577 83.7771,-29.5307"/>
<polygon fill="midnightblue" stroke="midnightblue" points="57.3232,-30.4675 48.0493,-35.5906 58.4938,-37.369 57.3232,-30.4675"/>
</g>
</g>
</svg>
