<?xml version="1.0" encoding="UTF-8" standalone="no"?>
<!DOCTYPE svg PUBLIC "-//W3C//DTD SVG 1.1//EN"
 "http://www.w3.org/Graphics/SVG/1.1/DTD/svg11.dtd">
<!-- Generated by graphviz version 2.38.0 (20140413.2041)
 -->
<!-- Title: Graphical Class Hierarchy Pages: 1 -->
<svg width="261pt" height="186pt"
 viewBox="0.00 0.00 261.00 186.00" xmlns="http://www.w3.org/2000/svg" xmlns:xlink="http://www.w3.org/1999/xlink">
<g id="graph0" class="graph" transform="scale(1 1) rotate(0) translate(4 182)">
<title>Graphical Class Hierarchy</title>
<!-- Node1 -->
<g id="node1" class="node"><title>Node1</title>
<polygon fill="none" stroke="#bfbfbf" points="0,-79 0,-98 50,-98 50,-79 0,-79"/>
<text text-anchor="middle" x="25" y="-86" font-family="Helvetica,sans-Serif" font-size="10.00">Adapter</text>
</g>
<!-- Node2 -->
<g id="node2" class="node"><title>Node2</title>
<g id="a_node2"><a xlink:href="d6/d04/classorg_1_1buildmlearn_1_1appstore_1_1adapters_1_1_card_categories_adapter.html" target="_top" xlink:title="This adapter class populates cards related to categories in the Featured Categories section of the Ho...">
<polygon fill="none" stroke="black" points="86,-147.5 86,-177.5 253,-177.5 253,-147.5 86,-147.5"/>
<text text-anchor="start" x="94" y="-165.5" font-family="Helvetica,sans-Serif" font-size="10.00">org.buildmlearn.appstore.adapters.</text>
<text text-anchor="middle" x="169.5" y="-154.5" font-family="Helvetica,sans-Serif" font-size="10.00">CardCategoriesAdapter</text>
</a>
</g>
</g>
<!-- Node1&#45;&gt;Node2 -->
<g id="edge1" class="edge"><title>Node1&#45;&gt;Node2</title>
<path fill="none" stroke="midnightblue" d="M42.6633,-105.644C53.9937,-116.431 69.8169,-129.891 86,-138.5 92.3212,-141.863 99.1723,-144.808 106.132,-147.375"/>
<polygon fill="midnightblue" stroke="midnightblue" points="44.8502,-102.886 35.2661,-98.37 39.9421,-107.877 44.8502,-102.886"/>
</g>
<!-- Node3 -->
<g id="node3" class="node"><title>Node3</title>
<g id="a_node3"><a xlink:href="d5/d3c/classorg_1_1buildmlearn_1_1appstore_1_1adapters_1_1_card_view_adapter.html" target="_top" xlink:title="An Adapter class, which populates cards related to apps in various activities like HomeActivity...">
<polygon fill="none" stroke="black" points="86,-98.5 86,-128.5 253,-128.5 253,-98.5 86,-98.5"/>
<text text-anchor="start" x="94" y="-116.5" font-family="Helvetica,sans-Serif" font-size="10.00">org.buildmlearn.appstore.adapters.</text>
<text text-anchor="middle" x="169.5" y="-105.5" font-family="Helvetica,sans-Serif" font-size="10.00">CardViewAdapter</text>
</a>
</g>
</g>
<!-- Node1&#45;&gt;Node3 -->
<g id="edge2" class="edge"><title>Node1&#45;&gt;Node3</title>
<path fill="none" stroke="midnightblue" d="M60.0573,-94.475C67.989,-95.8665 76.7752,-97.4079 85.8134,-98.9936"/>
<polygon fill="midnightblue" stroke="midnightblue" points="60.6276,-91.0216 50.1732,-92.7409 59.4179,-97.9163 60.6276,-91.0216"/>
</g>
<!-- Node4 -->
<g id="node4" class="node"><title>Node4</title>
<g id="a_node4"><a xlink:href="df/de6/classorg_1_1buildmlearn_1_1appstore_1_1adapters_1_1_categories_adapter.html" target="_top" xlink:title="This adapter class populates cards related to categories in the Categories Activity. ">
<polygon fill="none" stroke="black" points="86,-49.5 86,-79.5 253,-79.5 253,-49.5 86,-49.5"/>
<text text-anchor="start" x="94" y="-67.5" font-family="Helvetica,sans-Serif" font-size="10.00">org.buildmlearn.appstore.adapters.</text>
<text text-anchor="middle" x="169.5" y="-56.5" font-family="Helvetica,sans-Serif" font-size="10.00">CategoriesAdapter</text>
</a>
</g>
</g>
<!-- Node1&#45;&gt;Node4 -->
<g id="edge3" class="edge"><title>Node1&#45;&gt;Node4</title>
<path fill="none" stroke="midnightblue" d="M60.0573,-82.764C67.989,-81.4282 76.7752,-79.9484 85.8134,-78.4262"/>
<polygon fill="midnightblue" stroke="midnightblue" points="59.453,-79.3164 50.1732,-84.4287 60.6156,-86.2192 59.453,-79.3164"/>
</g>
<!-- Node5 -->
<g id="node5" class="node"><title>Node5</title>
<g id="a_node5"><a xlink:href="dc/d6e/classorg_1_1buildmlearn_1_1appstore_1_1adapters_1_1_my_apps_view_adapter.html" target="_top" xlink:title="This adapter class populates cards related to apps in the My&#45;Apps section of the Home Page...">
<polygon fill="none" stroke="black" points="86,-0.5 86,-30.5 253,-30.5 253,-0.5 86,-0.5"/>
<text text-anchor="start" x="94" y="-18.5" font-family="Helvetica,sans-Serif" font-size="10.00">org.buildmlearn.appstore.adapters.</text>
<text text-anchor="middle" x="169.5" y="-7.5" font-family="Helvetica,sans-Serif" font-size="10.00">MyAppsViewAdapter</text>
</a>
</g>
</g>
<!-- Node1&#45;&gt;Node5 -->
<g id="edge4" class="edge"><title>Node1&#45;&gt;Node5</title>
<path fill="none" stroke="midnightblue" d="M43.2222,-71.7617C54.5829,-61.5064 70.2316,-48.7993 86,-40.5 93.1516,-36.7359 100.957,-33.4474 108.822,-30.6014"/>
<polygon fill="midnightblue" stroke="midnightblue" points="40.7044,-69.3236 35.7673,-78.6977 45.4726,-74.4485 40.7044,-69.3236"/>
</g>
</g>
</svg>
