<?xml version="1.0" encoding="UTF-8" standalone="no"?>
<!DOCTYPE svg PUBLIC "-//W3C//DTD SVG 1.1//EN"
 "http://www.w3.org/Graphics/SVG/1.1/DTD/svg11.dtd">
<!-- Generated by graphviz version 2.38.0 (20140413.2041)
 -->
<!-- Title: org.buildmlearn.appstore.activities.FlashActivity.onCreate Pages: 1 -->
<svg width="378pt" height="186pt"
 viewBox="0.00 0.00 378.00 186.00" xmlns="http://www.w3.org/2000/svg" xmlns:xlink="http://www.w3.org/1999/xlink">
<g id="graph0" class="graph" transform="scale(1 1) rotate(0) translate(4 182)">
<title>org.buildmlearn.appstore.activities.FlashActivity.onCreate</title>
<!-- Node1 -->
<g id="node1" class="node"><title>Node1</title>
<polygon fill="#bfbfbf" stroke="black" points="0,-73.5 0,-103.5 167,-103.5 167,-73.5 0,-73.5"/>
<text text-anchor="start" x="8" y="-91.5" font-family="Helvetica,sans-Serif" font-size="10.00">org.buildmlearn.appstore.activities.</text>
<text text-anchor="middle" x="83.5" y="-80.5" font-family="Helvetica,sans-Serif" font-size="10.00">FlashActivity.onCreate</text>
</g>
<!-- Node2 -->
<g id="node2" class="node"><title>Node2</title>
<g id="a_node2"><a xlink:href="$d9/d64/classorg_1_1buildmlearn_1_1appstore_1_1models_1_1_flash_model.html#ad7225d1b4d75db6f5ce8755339783f28" xlink:title="org.buildmlearn.appstore.models.\lFlashModel.getInstance">
<polygon fill="none" stroke="black" points="206,-147.5 206,-177.5 367,-177.5 367,-147.5 206,-147.5"/>
<text text-anchor="start" x="214" y="-165.5" font-family="Helvetica,sans-Serif" font-size="10.00">org.buildmlearn.appstore.models.</text>
<text text-anchor="middle" x="286.5" y="-154.5" font-family="Helvetica,sans-Serif" font-size="10.00">FlashModel.getInstance</text>
</a>
</g>
</g>
<!-- Node1&#45;&gt;Node2 -->
<g id="edge1" class="edge"><title>Node1&#45;&gt;Node2</title>
<path fill="none" stroke="midnightblue" d="M117.297,-103.552C140.863,-114.067 173.541,-128.04 203,-138.5 208.583,-140.482 214.42,-142.427 220.297,-144.299"/>
<polygon fill="midnightblue" stroke="midnightblue" points="219.6,-147.747 230.188,-147.373 221.677,-141.063 219.6,-147.747"/>
</g>
<!-- Node3 -->
<g id="node3" class="node"><title>Node3</title>
<g id="a_node3"><a xlink:href="$d9/d64/classorg_1_1buildmlearn_1_1appstore_1_1models_1_1_flash_model.html#a8f57ed59495dd90b0b5934a43f025543" xlink:title="org.buildmlearn.appstore.models.\lFlashModel.getName">
<polygon fill="none" stroke="black" points="206,-98.5 206,-128.5 367,-128.5 367,-98.5 206,-98.5"/>
<text text-anchor="start" x="214" y="-116.5" font-family="Helvetica,sans-Serif" font-size="10.00">org.buildmlearn.appstore.models.</text>
<text text-anchor="middle" x="286.5" y="-105.5" font-family="Helvetica,sans-Serif" font-size="10.00">FlashModel.getName</text>
</a>
</g>
</g>
<!-- Node1&#45;&gt;Node3 -->
<g id="edge2" class="edge"><title>Node1&#45;&gt;Node3</title>
<path fill="none" stroke="midnightblue" d="M167.125,-98.7767C176.508,-99.9437 186.105,-101.137 195.576,-102.315"/>
<polygon fill="midnightblue" stroke="midnightblue" points="195.432,-105.824 205.788,-103.586 196.296,-98.8779 195.432,-105.824"/>
</g>
<!-- Node4 -->
<g id="node4" class="node"><title>Node4</title>
<g id="a_node4"><a xlink:href="$d9/d64/classorg_1_1buildmlearn_1_1appstore_1_1models_1_1_flash_model.html#aa1f2c4eb079a838ac9ce836f566f90fe" xlink:title="org.buildmlearn.appstore.models.\lFlashModel.getList">
<polygon fill="none" stroke="black" points="206,-49.5 206,-79.5 367,-79.5 367,-49.5 206,-49.5"/>
<text text-anchor="start" x="214" y="-67.5" font-family="Helvetica,sans-Serif" font-size="10.00">org.buildmlearn.appstore.models.</text>
<text text-anchor="middle" x="286.5" y="-56.5" font-family="Helvetica,sans-Serif" font-size="10.00">FlashModel.getList</text>
</a>
</g>
</g>
<!-- Node1&#45;&gt;Node4 -->
<g id="edge3" class="edge"><title>Node1&#45;&gt;Node4</title>
<path fill="none" stroke="midnightblue" d="M167.125,-78.6344C176.508,-77.514 186.105,-76.368 195.576,-75.2371"/>
<polygon fill="midnightblue" stroke="midnightblue" points="196.273,-78.6789 205.788,-74.0179 195.443,-71.7283 196.273,-78.6789"/>
</g>
<!-- Node5 -->
<g id="node5" class="node"><title>Node5</title>
<g id="a_node5"><a xlink:href="$d6/d1d/classorg_1_1buildmlearn_1_1appstore_1_1activities_1_1_flash_activity.html#aca3ef46b22d4aacad25222020ddeb510" xlink:title="This method populates questions to the cards. ">
<polygon fill="none" stroke="black" points="203,-0.5 203,-30.5 370,-30.5 370,-0.5 203,-0.5"/>
<text text-anchor="start" x="211" y="-18.5" font-family="Helvetica,sans-Serif" font-size="10.00">org.buildmlearn.appstore.activities.</text>
<text text-anchor="middle" x="286.5" y="-7.5" font-family="Helvetica,sans-Serif" font-size="10.00">FlashActivity.populateQuestion</text>
</a>
</g>
</g>
<!-- Node1&#45;&gt;Node5 -->
<g id="edge4" class="edge"><title>Node1&#45;&gt;Node5</title>
<path fill="none" stroke="midnightblue" d="M119.182,-73.4837C142.638,-63.5678 174.432,-50.5912 203,-40.5 209.694,-38.1354 216.74,-35.7887 223.778,-33.5345"/>
<polygon fill="midnightblue" stroke="midnightblue" points="224.849,-36.8668 233.336,-30.5249 222.746,-30.19 224.849,-36.8668"/>
</g>
</g>
</svg>
