<?xml version="1.0" encoding="UTF-8" standalone="no"?>
<!DOCTYPE svg PUBLIC "-//W3C//DTD SVG 1.1//EN"
 "http://www.w3.org/Graphics/SVG/1.1/DTD/svg11.dtd">
<!-- Generated by graphviz version 2.38.0 (20140413.2041)
 -->
<!-- Title: org.buildmlearn.appstore.activities.SettingsActivity.onBuildHeaders Pages: 1 -->
<svg width="590pt" height="39pt"
 viewBox="0.00 0.00 590.00 39.00" xmlns="http://www.w3.org/2000/svg" xmlns:xlink="http://www.w3.org/1999/xlink">
<g id="graph0" class="graph" transform="scale(1 1) rotate(0) translate(4 35)">
<title>org.buildmlearn.appstore.activities.SettingsActivity.onBuildHeaders</title>
<!-- Node1 -->
<g id="node1" class="node"><title>Node1</title>
<polygon fill="#bfbfbf" stroke="black" points="0,-0.5 0,-30.5 167,-30.5 167,-0.5 0,-0.5"/>
<text text-anchor="start" x="8" y="-18.5" font-family="Helvetica,sans-Serif" font-size="10.00">org.buildmlearn.appstore.activities.</text>
<text text-anchor="middle" x="83.5" y="-7.5" font-family="Helvetica,sans-Serif" font-size="10.00">SettingsActivity.onBuildHeaders</text>
</g>
<!-- Node2 -->
<g id="node2" class="node"><title>Node2</title>
<g id="a_node2"><a xlink:href="../../d7/d35/classorg_1_1buildmlearn_1_1appstore_1_1activities_1_1_settings_activity.html#a41e13cf6763dacaa6be05fb9e7aa37ce" target="_top" xlink:title="Determines whether the simplified settings UI should be shown. ">
<polygon fill="none" stroke="black" points="203,-0.5 203,-30.5 379,-30.5 379,-0.5 203,-0.5"/>
<text text-anchor="start" x="211" y="-18.5" font-family="Helvetica,sans-Serif" font-size="10.00">org.buildmlearn.appstore.activities.</text>
<text text-anchor="middle" x="291" y="-7.5" font-family="Helvetica,sans-Serif" font-size="10.00">SettingsActivity.isSimplePreferences</text>
</a>
</g>
</g>
<!-- Node1&#45;&gt;Node2 -->
<g id="edge1" class="edge"><title>Node1&#45;&gt;Node2</title>
<path fill="none" stroke="midnightblue" d="M167.196,-15.5C175.613,-15.5 184.217,-15.5 192.77,-15.5"/>
<polygon fill="midnightblue" stroke="midnightblue" points="192.772,-19.0001 202.772,-15.5 192.772,-12.0001 192.772,-19.0001"/>
</g>
<!-- Node3 -->
<g id="node3" class="node"><title>Node3</title>
<g id="a_node3"><a xlink:href="../../d7/d35/classorg_1_1buildmlearn_1_1appstore_1_1activities_1_1_settings_activity.html#a03783015733c15e832fa994286ac519b" target="_top" xlink:title="Helper method to determine if the device has an extra&#45;large screen. ">
<polygon fill="none" stroke="black" points="415,-0.5 415,-30.5 582,-30.5 582,-0.5 415,-0.5"/>
<text text-anchor="start" x="423" y="-18.5" font-family="Helvetica,sans-Serif" font-size="10.00">org.buildmlearn.appstore.activities.</text>
<text text-anchor="middle" x="498.5" y="-7.5" font-family="Helvetica,sans-Serif" font-size="10.00">SettingsActivity.isXLargeTablet</text>
</a>
</g>
</g>
<!-- Node2&#45;&gt;Node3 -->
<g id="edge2" class="edge"><title>Node2&#45;&gt;Node3</title>
<path fill="none" stroke="midnightblue" d="M379.151,-15.5C387.55,-15.5 396.091,-15.5 404.544,-15.5"/>
<polygon fill="midnightblue" stroke="midnightblue" points="404.794,-19.0001 414.794,-15.5 404.794,-12.0001 404.794,-19.0001"/>
</g>
</g>
</svg>
