<?xml version="1.0" encoding="UTF-8" standalone="no"?>
<!DOCTYPE svg PUBLIC "-//W3C//DTD SVG 1.1//EN"
 "http://www.w3.org/Graphics/SVG/1.1/DTD/svg11.dtd">
<!-- Generated by graphviz version 2.38.0 (20140413.2041)
 -->
<!-- Title: org.buildmlearn.appstore.activities.SettingsActivity.isSimplePreferences Pages: 1 -->
<svg width="647pt" height="137pt"
 viewBox="0.00 0.00 647.00 137.00" xmlns="http://www.w3.org/2000/svg" xmlns:xlink="http://www.w3.org/1999/xlink">
<g id="graph0" class="graph" transform="scale(1 1) rotate(0) translate(4 133)">
<title>org.buildmlearn.appstore.activities.SettingsActivity.isSimplePreferences</title>
<!-- Node1 -->
<g id="node1" class="node"><title>Node1</title>
<polygon fill="#bfbfbf" stroke="black" points="0,-49.5 0,-79.5 176,-79.5 176,-49.5 0,-49.5"/>
<text text-anchor="start" x="8" y="-67.5" font-family="Helvetica,sans-Serif" font-size="10.00">org.buildmlearn.appstore.activities.</text>
<text text-anchor="middle" x="88" y="-56.5" font-family="Helvetica,sans-Serif" font-size="10.00">SettingsActivity.isSimplePreferences</text>
</g>
<!-- Node2 -->
<g id="node2" class="node"><title>Node2</title>
<g id="a_node2"><a xlink:href="../../d7/d35/classorg_1_1buildmlearn_1_1appstore_1_1activities_1_1_settings_activity.html#a37ba985470ade6df6862fef74ff540de" target="_top" xlink:title="Shows the simplified settings UI if the device configuration if the device configuration dictates tha...">
<polygon fill="none" stroke="black" points="212,-98.5 212,-128.5 436,-128.5 436,-98.5 212,-98.5"/>
<text text-anchor="start" x="220" y="-116.5" font-family="Helvetica,sans-Serif" font-size="10.00">org.buildmlearn.appstore.activities.</text>
<text text-anchor="middle" x="324" y="-105.5" font-family="Helvetica,sans-Serif" font-size="10.00">SettingsActivity.setupSimplePreferencesScreen</text>
</a>
</g>
</g>
<!-- Node1&#45;&gt;Node2 -->
<g id="edge1" class="edge"><title>Node1&#45;&gt;Node2</title>
<path fill="none" stroke="midnightblue" d="M170.722,-81.6127C196.981,-87.1115 225.857,-93.158 251.338,-98.4938"/>
<polygon fill="midnightblue" stroke="midnightblue" points="171.303,-78.1586 160.798,-79.5346 169.868,-85.01 171.303,-78.1586"/>
</g>
<!-- Node4 -->
<g id="node4" class="node"><title>Node4</title>
<g id="a_node4"><a xlink:href="../../d7/d35/classorg_1_1buildmlearn_1_1appstore_1_1activities_1_1_settings_activity.html#a3e05ad31206e46aa0c7af8e1152549a2" target="_top" xlink:title="org.buildmlearn.appstore.activities.\lSettingsActivity.onIsMultiPane">
<polygon fill="none" stroke="black" points="240.5,-49.5 240.5,-79.5 407.5,-79.5 407.5,-49.5 240.5,-49.5"/>
<text text-anchor="start" x="248.5" y="-67.5" font-family="Helvetica,sans-Serif" font-size="10.00">org.buildmlearn.appstore.activities.</text>
<text text-anchor="middle" x="324" y="-56.5" font-family="Helvetica,sans-Serif" font-size="10.00">SettingsActivity.onIsMultiPane</text>
</a>
</g>
</g>
<!-- Node1&#45;&gt;Node4 -->
<g id="edge3" class="edge"><title>Node1&#45;&gt;Node4</title>
<path fill="none" stroke="midnightblue" d="M186.341,-64.5C204.328,-64.5 222.953,-64.5 240.449,-64.5"/>
<polygon fill="midnightblue" stroke="midnightblue" points="186.133,-61.0001 176.133,-64.5 186.133,-68.0001 186.133,-61.0001"/>
</g>
<!-- Node5 -->
<g id="node5" class="node"><title>Node5</title>
<g id="a_node5"><a xlink:href="../../d7/d35/classorg_1_1buildmlearn_1_1appstore_1_1activities_1_1_settings_activity.html#a6cdf908936f1273fab9dbe2d2cb824a3" target="_top" xlink:title="org.buildmlearn.appstore.activities.\lSettingsActivity.onBuildHeaders">
<polygon fill="none" stroke="black" points="240.5,-0.5 240.5,-30.5 407.5,-30.5 407.5,-0.5 240.5,-0.5"/>
<text text-anchor="start" x="248.5" y="-18.5" font-family="Helvetica,sans-Serif" font-size="10.00">org.buildmlearn.appstore.activities.</text>
<text text-anchor="middle" x="324" y="-7.5" font-family="Helvetica,sans-Serif" font-size="10.00">SettingsActivity.onBuildHeaders</text>
</a>
</g>
</g>
<!-- Node1&#45;&gt;Node5 -->
<g id="edge4" class="edge"><title>Node1&#45;&gt;Node5</title>
<path fill="none" stroke="midnightblue" d="M170.722,-47.3873C196.981,-41.8885 225.857,-35.842 251.338,-30.5062"/>
<polygon fill="midnightblue" stroke="midnightblue" points="169.868,-43.99 160.798,-49.4654 171.303,-50.8414 169.868,-43.99"/>
</g>
<!-- Node3 -->
<g id="node3" class="node"><title>Node3</title>
<g id="a_node3"><a xlink:href="../../d7/d35/classorg_1_1buildmlearn_1_1appstore_1_1activities_1_1_settings_activity.html#a963635e555c52a885b59d8712a716672" target="_top" xlink:title="org.buildmlearn.appstore.activities.\lSettingsActivity.onPostCreate">
<polygon fill="none" stroke="black" points="472,-98.5 472,-128.5 639,-128.5 639,-98.5 472,-98.5"/>
<text text-anchor="start" x="480" y="-116.5" font-family="Helvetica,sans-Serif" font-size="10.00">org.buildmlearn.appstore.activities.</text>
<text text-anchor="middle" x="555.5" y="-105.5" font-family="Helvetica,sans-Serif" font-size="10.00">SettingsActivity.onPostCreate</text>
</a>
</g>
</g>
<!-- Node2&#45;&gt;Node3 -->
<g id="edge2" class="edge"><title>Node2&#45;&gt;Node3</title>
<path fill="none" stroke="midnightblue" d="M446.19,-113.5C454.817,-113.5 463.395,-113.5 471.728,-113.5"/>
<polygon fill="midnightblue" stroke="midnightblue" points="446.053,-110 436.053,-113.5 446.053,-117 446.053,-110"/>
</g>
</g>
</svg>
