<?xml version="1.0" encoding="UTF-8" standalone="no"?>
<!DOCTYPE svg PUBLIC "-//W3C//DTD SVG 1.1//EN"
 "http://www.w3.org/Graphics/SVG/1.1/DTD/svg11.dtd">
<!-- Generated by graphviz version 2.38.0 (20140413.2041)
 -->
<!-- Title: org.buildmlearn.appstore.activities.SettingsActivity.setupSimplePreferencesScreen Pages: 1 -->
<svg width="665pt" height="100pt"
 viewBox="0.00 0.00 665.00 99.50" xmlns="http://www.w3.org/2000/svg" xmlns:xlink="http://www.w3.org/1999/xlink">
<g id="graph0" class="graph" transform="scale(1 1) rotate(0) translate(4 95.5)">
<title>org.buildmlearn.appstore.activities.SettingsActivity.setupSimplePreferencesScreen</title>
<!-- Node1 -->
<g id="node1" class="node"><title>Node1</title>
<polygon fill="#bfbfbf" stroke="black" points="0,-33 0,-63 224,-63 224,-33 0,-33"/>
<text text-anchor="start" x="8" y="-51" font-family="Helvetica,sans-Serif" font-size="10.00">org.buildmlearn.appstore.activities.</text>
<text text-anchor="middle" x="112" y="-40" font-family="Helvetica,sans-Serif" font-size="10.00">SettingsActivity.setupSimplePreferencesScreen</text>
</g>
<!-- Node2 -->
<g id="node2" class="node"><title>Node2</title>
<g id="a_node2"><a xlink:href="../../d7/d35/classorg_1_1buildmlearn_1_1appstore_1_1activities_1_1_settings_activity.html#a41e13cf6763dacaa6be05fb9e7aa37ce" target="_top" xlink:title="Determines whether the simplified settings UI should be shown. ">
<polygon fill="none" stroke="black" points="269,-61 269,-91 445,-91 445,-61 269,-61"/>
<text text-anchor="start" x="277" y="-79" font-family="Helvetica,sans-Serif" font-size="10.00">org.buildmlearn.appstore.activities.</text>
<text text-anchor="middle" x="357" y="-68" font-family="Helvetica,sans-Serif" font-size="10.00">SettingsActivity.isSimplePreferences</text>
</a>
</g>
</g>
<!-- Node1&#45;&gt;Node2 -->
<g id="edge1" class="edge"><title>Node1&#45;&gt;Node2</title>
<path fill="none" stroke="midnightblue" d="M224.188,-60.8118C235.787,-62.1483 247.512,-63.4993 258.937,-64.8157"/>
<polygon fill="midnightblue" stroke="midnightblue" points="258.553,-68.2946 268.888,-65.9624 259.355,-61.3406 258.553,-68.2946"/>
</g>
<!-- Node4 -->
<g id="node4" class="node"><title>Node4</title>
<g id="a_node4"><a xlink:href="../../d7/d35/classorg_1_1buildmlearn_1_1appstore_1_1activities_1_1_settings_activity.html#ae976024e560a9fa3993eeb2d17d30b69" target="_top" xlink:title="Binds a preference&#39;s summary to its value. ">
<polygon fill="none" stroke="black" points="260,-0.5 260,-41.5 454,-41.5 454,-0.5 260,-0.5"/>
<text text-anchor="start" x="268" y="-29.5" font-family="Helvetica,sans-Serif" font-size="10.00">org.buildmlearn.appstore.activities.</text>
<text text-anchor="start" x="268" y="-18.5" font-family="Helvetica,sans-Serif" font-size="10.00">SettingsActivity.bindPreferenceSummary</text>
<text text-anchor="middle" x="357" y="-7.5" font-family="Helvetica,sans-Serif" font-size="10.00">ToValue</text>
</a>
</g>
</g>
<!-- Node1&#45;&gt;Node4 -->
<g id="edge3" class="edge"><title>Node1&#45;&gt;Node4</title>
<path fill="none" stroke="midnightblue" d="M224.188,-35.6457C232.629,-34.7079 241.136,-33.7627 249.546,-32.8283"/>
<polygon fill="midnightblue" stroke="midnightblue" points="250.192,-36.2781 259.744,-31.6951 249.419,-29.3209 250.192,-36.2781"/>
</g>
<!-- Node3 -->
<g id="node3" class="node"><title>Node3</title>
<g id="a_node3"><a xlink:href="../../d7/d35/classorg_1_1buildmlearn_1_1appstore_1_1activities_1_1_settings_activity.html#a03783015733c15e832fa994286ac519b" target="_top" xlink:title="Helper method to determine if the device has an extra&#45;large screen. ">
<polygon fill="none" stroke="black" points="490,-61 490,-91 657,-91 657,-61 490,-61"/>
<text text-anchor="start" x="498" y="-79" font-family="Helvetica,sans-Serif" font-size="10.00">org.buildmlearn.appstore.activities.</text>
<text text-anchor="middle" x="573.5" y="-68" font-family="Helvetica,sans-Serif" font-size="10.00">SettingsActivity.isXLargeTablet</text>
</a>
</g>
</g>
<!-- Node2&#45;&gt;Node3 -->
<g id="edge2" class="edge"><title>Node2&#45;&gt;Node3</title>
<path fill="none" stroke="midnightblue" d="M445.245,-76C456.638,-76 468.344,-76 479.822,-76"/>
<polygon fill="midnightblue" stroke="midnightblue" points="479.837,-79.5001 489.837,-76 479.837,-72.5001 479.837,-79.5001"/>
</g>
</g>
</svg>
