<?xml version="1.0" encoding="UTF-8" standalone="no"?>
<!DOCTYPE svg PUBLIC "-//W3C//DTD SVG 1.1//EN"
 "http://www.w3.org/Graphics/SVG/1.1/DTD/svg11.dtd">
<!-- Generated by graphviz version 2.38.0 (20140413.2041)
 -->
<!-- Title: org.buildmlearn.appstore.activities.SettingsActivity.isXLargeTablet Pages: 1 -->
<svg width="850pt" height="137pt"
 viewBox="0.00 0.00 850.00 137.00" xmlns="http://www.w3.org/2000/svg" xmlns:xlink="http://www.w3.org/1999/xlink">
<g id="graph0" class="graph" transform="scale(1 1) rotate(0) translate(4 133)">
<title>org.buildmlearn.appstore.activities.SettingsActivity.isXLargeTablet</title>
<!-- Node1 -->
<g id="node1" class="node"><title>Node1</title>
<polygon fill="#bfbfbf" stroke="black" points="0,-73.5 0,-103.5 167,-103.5 167,-73.5 0,-73.5"/>
<text text-anchor="start" x="8" y="-91.5" font-family="Helvetica,sans-Serif" font-size="10.00">org.buildmlearn.appstore.activities.</text>
<text text-anchor="middle" x="83.5" y="-80.5" font-family="Helvetica,sans-Serif" font-size="10.00">SettingsActivity.isXLargeTablet</text>
</g>
<!-- Node2 -->
<g id="node2" class="node"><title>Node2</title>
<g id="a_node2"><a xlink:href="../../d7/d35/classorg_1_1buildmlearn_1_1appstore_1_1activities_1_1_settings_activity.html#a3e05ad31206e46aa0c7af8e1152549a2" target="_top" xlink:title="org.buildmlearn.appstore.activities.\lSettingsActivity.onIsMultiPane">
<polygon fill="none" stroke="black" points="443.5,-98.5 443.5,-128.5 610.5,-128.5 610.5,-98.5 443.5,-98.5"/>
<text text-anchor="start" x="451.5" y="-116.5" font-family="Helvetica,sans-Serif" font-size="10.00">org.buildmlearn.appstore.activities.</text>
<text text-anchor="middle" x="527" y="-105.5" font-family="Helvetica,sans-Serif" font-size="10.00">SettingsActivity.onIsMultiPane</text>
</a>
</g>
</g>
<!-- Node1&#45;&gt;Node2 -->
<g id="edge1" class="edge"><title>Node1&#45;&gt;Node2</title>
<path fill="none" stroke="midnightblue" d="M177.403,-93.7607C255.983,-98.2102 367.543,-104.527 443.131,-108.808"/>
<polygon fill="midnightblue" stroke="midnightblue" points="177.207,-90.244 167.025,-93.173 176.811,-97.2328 177.207,-90.244"/>
</g>
<!-- Node3 -->
<g id="node3" class="node"><title>Node3</title>
<g id="a_node3"><a xlink:href="../../d7/d35/classorg_1_1buildmlearn_1_1appstore_1_1activities_1_1_settings_activity.html#a41e13cf6763dacaa6be05fb9e7aa37ce" target="_top" xlink:title="Determines whether the simplified settings UI should be shown. ">
<polygon fill="none" stroke="black" points="203,-50.5 203,-80.5 379,-80.5 379,-50.5 203,-50.5"/>
<text text-anchor="start" x="211" y="-68.5" font-family="Helvetica,sans-Serif" font-size="10.00">org.buildmlearn.appstore.activities.</text>
<text text-anchor="middle" x="291" y="-57.5" font-family="Helvetica,sans-Serif" font-size="10.00">SettingsActivity.isSimplePreferences</text>
</a>
</g>
</g>
<!-- Node1&#45;&gt;Node3 -->
<g id="edge2" class="edge"><title>Node1&#45;&gt;Node3</title>
<path fill="none" stroke="midnightblue" d="M177.149,-78.1306C185.676,-77.1762 194.296,-76.2114 202.772,-75.2627"/>
<polygon fill="midnightblue" stroke="midnightblue" points="176.745,-74.6538 167.196,-79.2444 177.524,-81.6104 176.745,-74.6538"/>
</g>
<!-- Node3&#45;&gt;Node2 -->
<g id="edge5" class="edge"><title>Node3&#45;&gt;Node2</title>
<path fill="none" stroke="midnightblue" d="M375.344,-82.5963C400.66,-87.7892 428.273,-93.4534 452.863,-98.4976"/>
<polygon fill="midnightblue" stroke="midnightblue" points="375.896,-79.1367 365.397,-80.5558 374.49,-85.9939 375.896,-79.1367"/>
</g>
<!-- Node4 -->
<g id="node4" class="node"><title>Node4</title>
<g id="a_node4"><a xlink:href="../../d7/d35/classorg_1_1buildmlearn_1_1appstore_1_1activities_1_1_settings_activity.html#a37ba985470ade6df6862fef74ff540de" target="_top" xlink:title="Shows the simplified settings UI if the device configuration if the device configuration dictates tha...">
<polygon fill="none" stroke="black" points="415,-49.5 415,-79.5 639,-79.5 639,-49.5 415,-49.5"/>
<text text-anchor="start" x="423" y="-67.5" font-family="Helvetica,sans-Serif" font-size="10.00">org.buildmlearn.appstore.activities.</text>
<text text-anchor="middle" x="527" y="-56.5" font-family="Helvetica,sans-Serif" font-size="10.00">SettingsActivity.setupSimplePreferencesScreen</text>
</a>
</g>
</g>
<!-- Node3&#45;&gt;Node4 -->
<g id="edge3" class="edge"><title>Node3&#45;&gt;Node4</title>
<path fill="none" stroke="midnightblue" d="M389.369,-65.0839C397.828,-65.0477 406.428,-65.011 414.986,-64.9744"/>
<polygon fill="midnightblue" stroke="midnightblue" points="389.118,-61.5848 379.133,-65.1276 389.148,-68.5848 389.118,-61.5848"/>
</g>
<!-- Node6 -->
<g id="node6" class="node"><title>Node6</title>
<g id="a_node6"><a xlink:href="../../d7/d35/classorg_1_1buildmlearn_1_1appstore_1_1activities_1_1_settings_activity.html#a6cdf908936f1273fab9dbe2d2cb824a3" target="_top" xlink:title="org.buildmlearn.appstore.activities.\lSettingsActivity.onBuildHeaders">
<polygon fill="none" stroke="black" points="443.5,-0.5 443.5,-30.5 610.5,-30.5 610.5,-0.5 443.5,-0.5"/>
<text text-anchor="start" x="451.5" y="-18.5" font-family="Helvetica,sans-Serif" font-size="10.00">org.buildmlearn.appstore.activities.</text>
<text text-anchor="middle" x="527" y="-7.5" font-family="Helvetica,sans-Serif" font-size="10.00">SettingsActivity.onBuildHeaders</text>
</a>
</g>
</g>
<!-- Node3&#45;&gt;Node6 -->
<g id="edge6" class="edge"><title>Node3&#45;&gt;Node6</title>
<path fill="none" stroke="midnightblue" d="M372.039,-48.3975C399.121,-42.6109 429.147,-36.1952 455.438,-30.5774"/>
<polygon fill="midnightblue" stroke="midnightblue" points="371.256,-44.986 362.208,-50.4984 372.718,-51.8314 371.256,-44.986"/>
</g>
<!-- Node5 -->
<g id="node5" class="node"><title>Node5</title>
<g id="a_node5"><a xlink:href="../../d7/d35/classorg_1_1buildmlearn_1_1appstore_1_1activities_1_1_settings_activity.html#a963635e555c52a885b59d8712a716672" target="_top" xlink:title="org.buildmlearn.appstore.activities.\lSettingsActivity.onPostCreate">
<polygon fill="none" stroke="black" points="675,-49.5 675,-79.5 842,-79.5 842,-49.5 675,-49.5"/>
<text text-anchor="start" x="683" y="-67.5" font-family="Helvetica,sans-Serif" font-size="10.00">org.buildmlearn.appstore.activities.</text>
<text text-anchor="middle" x="758.5" y="-56.5" font-family="Helvetica,sans-Serif" font-size="10.00">SettingsActivity.onPostCreate</text>
</a>
</g>
</g>
<!-- Node4&#45;&gt;Node5 -->
<g id="edge4" class="edge"><title>Node4&#45;&gt;Node5</title>
<path fill="none" stroke="midnightblue" d="M649.19,-64.5C657.817,-64.5 666.395,-64.5 674.728,-64.5"/>
<polygon fill="midnightblue" stroke="midnightblue" points="649.053,-61.0001 639.053,-64.5 649.053,-68.0001 649.053,-61.0001"/>
</g>
</g>
</svg>
