<?xml version="1.0" encoding="UTF-8" standalone="no"?>
<!DOCTYPE svg PUBLIC "-//W3C//DTD SVG 1.1//EN"
 "http://www.w3.org/Graphics/SVG/1.1/DTD/svg11.dtd">
<!-- Generated by graphviz version 2.38.0 (20140413.2041)
 -->
<!-- Title: org.buildmlearn.appstore.activities.SettingsActivity.onPostCreate Pages: 1 -->
<svg width="868pt" height="100pt"
 viewBox="0.00 0.00 868.00 99.50" xmlns="http://www.w3.org/2000/svg" xmlns:xlink="http://www.w3.org/1999/xlink">
<g id="graph0" class="graph" transform="scale(1 1) rotate(0) translate(4 95.5)">
<title>org.buildmlearn.appstore.activities.SettingsActivity.onPostCreate</title>
<!-- Node1 -->
<g id="node1" class="node"><title>Node1</title>
<polygon fill="#bfbfbf" stroke="black" points="0,-33 0,-63 167,-63 167,-33 0,-33"/>
<text text-anchor="start" x="8" y="-51" font-family="Helvetica,sans-Serif" font-size="10.00">org.buildmlearn.appstore.activities.</text>
<text text-anchor="middle" x="83.5" y="-40" font-family="Helvetica,sans-Serif" font-size="10.00">SettingsActivity.onPostCreate</text>
</g>
<!-- Node2 -->
<g id="node2" class="node"><title>Node2</title>
<g id="a_node2"><a xlink:href="../../d7/d35/classorg_1_1buildmlearn_1_1appstore_1_1activities_1_1_settings_activity.html#a37ba985470ade6df6862fef74ff540de" target="_top" xlink:title="Shows the simplified settings UI if the device configuration if the device configuration dictates tha...">
<polygon fill="none" stroke="black" points="203,-33 203,-63 427,-63 427,-33 203,-33"/>
<text text-anchor="start" x="211" y="-51" font-family="Helvetica,sans-Serif" font-size="10.00">org.buildmlearn.appstore.activities.</text>
<text text-anchor="middle" x="315" y="-40" font-family="Helvetica,sans-Serif" font-size="10.00">SettingsActivity.setupSimplePreferencesScreen</text>
</a>
</g>
</g>
<!-- Node1&#45;&gt;Node2 -->
<g id="edge1" class="edge"><title>Node1&#45;&gt;Node2</title>
<path fill="none" stroke="midnightblue" d="M167.031,-48C175.343,-48 183.902,-48 192.511,-48"/>
<polygon fill="midnightblue" stroke="midnightblue" points="192.628,-51.5001 202.628,-48 192.628,-44.5001 192.628,-51.5001"/>
</g>
<!-- Node3 -->
<g id="node3" class="node"><title>Node3</title>
<g id="a_node3"><a xlink:href="../../d7/d35/classorg_1_1buildmlearn_1_1appstore_1_1activities_1_1_settings_activity.html#a41e13cf6763dacaa6be05fb9e7aa37ce" target="_top" xlink:title="Determines whether the simplified settings UI should be shown. ">
<polygon fill="none" stroke="black" points="472,-61 472,-91 648,-91 648,-61 472,-61"/>
<text text-anchor="start" x="480" y="-79" font-family="Helvetica,sans-Serif" font-size="10.00">org.buildmlearn.appstore.activities.</text>
<text text-anchor="middle" x="560" y="-68" font-family="Helvetica,sans-Serif" font-size="10.00">SettingsActivity.isSimplePreferences</text>
</a>
</g>
</g>
<!-- Node2&#45;&gt;Node3 -->
<g id="edge2" class="edge"><title>Node2&#45;&gt;Node3</title>
<path fill="none" stroke="midnightblue" d="M427.188,-60.8118C438.787,-62.1483 450.512,-63.4993 461.937,-64.8157"/>
<polygon fill="midnightblue" stroke="midnightblue" points="461.553,-68.2946 471.888,-65.9624 462.355,-61.3406 461.553,-68.2946"/>
</g>
<!-- Node5 -->
<g id="node5" class="node"><title>Node5</title>
<g id="a_node5"><a xlink:href="../../d7/d35/classorg_1_1buildmlearn_1_1appstore_1_1activities_1_1_settings_activity.html#ae976024e560a9fa3993eeb2d17d30b69" target="_top" xlink:title="Binds a preference&#39;s summary to its value. ">
<polygon fill="none" stroke="black" points="463,-0.5 463,-41.5 657,-41.5 657,-0.5 463,-0.5"/>
<text text-anchor="start" x="471" y="-29.5" font-family="Helvetica,sans-Serif" font-size="10.00">org.buildmlearn.appstore.activities.</text>
<text text-anchor="start" x="471" y="-18.5" font-family="Helvetica,sans-Serif" font-size="10.00">SettingsActivity.bindPreferenceSummary</text>
<text text-anchor="middle" x="560" y="-7.5" font-family="Helvetica,sans-Serif" font-size="10.00">ToValue</text>
</a>
</g>
</g>
<!-- Node2&#45;&gt;Node5 -->
<g id="edge4" class="edge"><title>Node2&#45;&gt;Node5</title>
<path fill="none" stroke="midnightblue" d="M427.188,-35.6457C435.629,-34.7079 444.136,-33.7627 452.546,-32.8283"/>
<polygon fill="midnightblue" stroke="midnightblue" points="453.192,-36.2781 462.744,-31.6951 452.419,-29.3209 453.192,-36.2781"/>
</g>
<!-- Node4 -->
<g id="node4" class="node"><title>Node4</title>
<g id="a_node4"><a xlink:href="../../d7/d35/classorg_1_1buildmlearn_1_1appstore_1_1activities_1_1_settings_activity.html#a03783015733c15e832fa994286ac519b" target="_top" xlink:title="Helper method to determine if the device has an extra&#45;large screen. ">
<polygon fill="none" stroke="black" points="693,-61 693,-91 860,-91 860,-61 693,-61"/>
<text text-anchor="start" x="701" y="-79" font-family="Helvetica,sans-Serif" font-size="10.00">org.buildmlearn.appstore.activities.</text>
<text text-anchor="middle" x="776.5" y="-68" font-family="Helvetica,sans-Serif" font-size="10.00">SettingsActivity.isXLargeTablet</text>
</a>
</g>
</g>
<!-- Node3&#45;&gt;Node4 -->
<g id="edge3" class="edge"><title>Node3&#45;&gt;Node4</title>
<path fill="none" stroke="midnightblue" d="M648.245,-76C659.638,-76 671.344,-76 682.822,-76"/>
<polygon fill="midnightblue" stroke="midnightblue" points="682.837,-79.5001 692.837,-76 682.837,-72.5001 682.837,-79.5001"/>
</g>
</g>
</svg>
