<?xml version="1.0" encoding="UTF-8" standalone="no"?>
<!DOCTYPE svg PUBLIC "-//W3C//DTD SVG 1.1//EN"
 "http://www.w3.org/Graphics/SVG/1.1/DTD/svg11.dtd">
<!-- Generated by graphviz version 2.38.0 (20140413.2041)
 -->
<!-- Title: org.buildmlearn.appstore.utils.VolleySingleton.VolleySingleton Pages: 1 -->
<svg width="569pt" height="198pt"
 viewBox="0.00 0.00 569.00 198.00" xmlns="http://www.w3.org/2000/svg" xmlns:xlink="http://www.w3.org/1999/xlink">
<g id="graph0" class="graph" transform="scale(1 1) rotate(0) translate(4 194)">
<title>org.buildmlearn.appstore.utils.VolleySingleton.VolleySingleton</title>
<!-- Node1 -->
<g id="node1" class="node"><title>Node1</title>
<polygon fill="#bfbfbf" stroke="black" points="0,-82.5 0,-112.5 155,-112.5 155,-82.5 0,-82.5"/>
<text text-anchor="start" x="8" y="-100.5" font-family="Helvetica,sans-Serif" font-size="10.00">org.buildmlearn.appstore.utils.</text>
<text text-anchor="middle" x="77.5" y="-89.5" font-family="Helvetica,sans-Serif" font-size="10.00">VolleySingleton.VolleySingleton</text>
</g>
<!-- Node2 -->
<g id="node2" class="node"><title>Node2</title>
<g id="a_node2"><a xlink:href="../../dc/d8d/classorg_1_1buildmlearn_1_1appstore_1_1utils_1_1_volley_singleton.html#a0ae2f754208733f98580d31801f723c6" target="_top" xlink:title="Gets the instance of the Volley. ">
<polygon fill="none" stroke="black" points="191,-82.5 191,-112.5 338,-112.5 338,-82.5 191,-82.5"/>
<text text-anchor="start" x="199" y="-100.5" font-family="Helvetica,sans-Serif" font-size="10.00">org.buildmlearn.appstore.utils.</text>
<text text-anchor="middle" x="264.5" y="-89.5" font-family="Helvetica,sans-Serif" font-size="10.00">VolleySingleton.getInstance</text>
</a>
</g>
</g>
<!-- Node1&#45;&gt;Node2 -->
<g id="edge1" class="edge"><title>Node1&#45;&gt;Node2</title>
<path fill="none" stroke="midnightblue" d="M165.13,-97.5C173.731,-97.5 182.4,-97.5 190.838,-97.5"/>
<polygon fill="midnightblue" stroke="midnightblue" points="165.082,-94.0001 155.082,-97.5 165.082,-101 165.082,-94.0001"/>
</g>
<!-- Node3 -->
<g id="node3" class="node"><title>Node3</title>
<g id="a_node3"><a xlink:href="../../dd/d52/classorg_1_1buildmlearn_1_1appstore_1_1activities_1_1_app_details.html#a5496a1ae07afc43ae065d908ceea260b" target="_top" xlink:title="The method is executed first when the activity is created. ">
<polygon fill="none" stroke="black" points="384,-159.5 384,-189.5 551,-189.5 551,-159.5 384,-159.5"/>
<text text-anchor="start" x="392" y="-177.5" font-family="Helvetica,sans-Serif" font-size="10.00">org.buildmlearn.appstore.activities.</text>
<text text-anchor="middle" x="467.5" y="-166.5" font-family="Helvetica,sans-Serif" font-size="10.00">AppDetails.onCreate</text>
</a>
</g>
</g>
<!-- Node2&#45;&gt;Node3 -->
<g id="edge2" class="edge"><title>Node2&#45;&gt;Node3</title>
<path fill="none" stroke="midnightblue" d="M301.555,-117.378C322.295,-128.232 349.105,-141.296 374,-150.5 382.87,-153.779 392.376,-156.788 401.795,-159.484"/>
<polygon fill="midnightblue" stroke="midnightblue" points="302.955,-114.159 292.481,-112.568 299.677,-120.344 302.955,-114.159"/>
</g>
<!-- Node4 -->
<g id="node4" class="node"><title>Node4</title>
<g id="a_node4"><a xlink:href="../../d7/d07/classorg_1_1buildmlearn_1_1appstore_1_1activities_1_1_full_screen_view_activity.html#ab634b24b8cfee4d1feb01426e9f8325b" target="_top" xlink:title="The method is executed first when the activity is created. ">
<polygon fill="none" stroke="black" points="384,-110.5 384,-140.5 551,-140.5 551,-110.5 384,-110.5"/>
<text text-anchor="start" x="392" y="-128.5" font-family="Helvetica,sans-Serif" font-size="10.00">org.buildmlearn.appstore.activities.</text>
<text text-anchor="middle" x="467.5" y="-117.5" font-family="Helvetica,sans-Serif" font-size="10.00">FullScreenViewActivity.onCreate</text>
</a>
</g>
</g>
<!-- Node2&#45;&gt;Node4 -->
<g id="edge3" class="edge"><title>Node2&#45;&gt;Node4</title>
<path fill="none" stroke="midnightblue" d="M348.274,-109.031C360.006,-110.665 372.072,-112.346 383.803,-113.98"/>
<polygon fill="midnightblue" stroke="midnightblue" points="348.453,-105.522 338.066,-107.609 347.487,-112.455 348.453,-105.522"/>
</g>
<!-- Node5 -->
<g id="node5" class="node"><title>Node5</title>
<g id="a_node5"><a xlink:href="../../df/da8/classorg_1_1buildmlearn_1_1appstore_1_1adapters_1_1_card_view_adapter_1_1_card_view_holder.html#acc7b8394cad57217471bcaac46d87104" target="_top" xlink:title="org.buildmlearn.appstore.adapters.\lCardViewAdapter.CardViewHolder.Card\lViewHolder">
<polygon fill="none" stroke="black" points="374,-50 374,-91 561,-91 561,-50 374,-50"/>
<text text-anchor="start" x="382" y="-79" font-family="Helvetica,sans-Serif" font-size="10.00">org.buildmlearn.appstore.adapters.</text>
<text text-anchor="start" x="382" y="-68" font-family="Helvetica,sans-Serif" font-size="10.00">CardViewAdapter.CardViewHolder.Card</text>
<text text-anchor="middle" x="467.5" y="-57" font-family="Helvetica,sans-Serif" font-size="10.00">ViewHolder</text>
</a>
</g>
</g>
<!-- Node2&#45;&gt;Node5 -->
<g id="edge4" class="edge"><title>Node2&#45;&gt;Node5</title>
<path fill="none" stroke="midnightblue" d="M348.228,-86.3873C356.642,-85.257 365.229,-84.1036 373.74,-82.9602"/>
<polygon fill="midnightblue" stroke="midnightblue" points="347.511,-82.9521 338.066,-87.7524 348.443,-89.8898 347.511,-82.9521"/>
</g>
<!-- Node6 -->
<g id="node6" class="node"><title>Node6</title>
<g id="a_node6"><a xlink:href="../../dd/df9/classorg_1_1buildmlearn_1_1appstore_1_1adapters_1_1_search_list_adapter.html#a91dabedaae628786d4ca4d4c1bc98696" target="_top" xlink:title="Binds the content ot different views. ">
<polygon fill="none" stroke="black" points="384,-0.5 384,-30.5 551,-30.5 551,-0.5 384,-0.5"/>
<text text-anchor="start" x="392" y="-18.5" font-family="Helvetica,sans-Serif" font-size="10.00">org.buildmlearn.appstore.adapters.</text>
<text text-anchor="middle" x="467.5" y="-7.5" font-family="Helvetica,sans-Serif" font-size="10.00">SearchListAdapter.bindView</text>
</a>
</g>
</g>
<!-- Node2&#45;&gt;Node6 -->
<g id="edge5" class="edge"><title>Node2&#45;&gt;Node6</title>
<path fill="none" stroke="midnightblue" d="M299.444,-77.191C320.39,-65.2914 348.118,-50.6534 374,-40.5 383.292,-36.855 393.309,-33.5452 403.202,-30.6139"/>
<polygon fill="midnightblue" stroke="midnightblue" points="297.54,-74.2486 290.619,-82.2704 301.032,-80.3156 297.54,-74.2486"/>
</g>
</g>
</svg>
