<?xml version="1.0" encoding="UTF-8" standalone="no"?>
<!DOCTYPE svg PUBLIC "-//W3C//DTD SVG 1.1//EN"
 "http://www.w3.org/Graphics/SVG/1.1/DTD/svg11.dtd">
<!-- Generated by graphviz version 2.38.0 (20140413.2041)
 -->
<!-- Title: org.buildmlearn.appstore.utils.XMLParser.getElementValue Pages: 1 -->
<svg width="781pt" height="204pt"
 viewBox="0.00 0.00 781.00 204.00" xmlns="http://www.w3.org/2000/svg" xmlns:xlink="http://www.w3.org/1999/xlink">
<g id="graph0" class="graph" transform="scale(1 1) rotate(0) translate(4 200)">
<title>org.buildmlearn.appstore.utils.XMLParser.getElementValue</title>
<!-- Node1 -->
<g id="node1" class="node"><title>Node1</title>
<polygon fill="#bfbfbf" stroke="black" points="0,-139.5 0,-169.5 147,-169.5 147,-139.5 0,-139.5"/>
<text text-anchor="start" x="8" y="-157.5" font-family="Helvetica,sans-Serif" font-size="10.00">org.buildmlearn.appstore.utils.</text>
<text text-anchor="middle" x="73.5" y="-146.5" font-family="Helvetica,sans-Serif" font-size="10.00">XMLParser.getElementValue</text>
</g>
<!-- Node2 -->
<g id="node2" class="node"><title>Node2</title>
<g id="a_node2"><a xlink:href="$d0/da8/classorg_1_1buildmlearn_1_1appstore_1_1utils_1_1_app_reader.html#abe6c5c2f0c98582beef2eca8fd9ae462" xlink:title="Reads the Quiz type of app. ">
<polygon fill="none" stroke="black" points="376,-165.5 376,-195.5 523,-195.5 523,-165.5 376,-165.5"/>
<text text-anchor="start" x="384" y="-183.5" font-family="Helvetica,sans-Serif" font-size="10.00">org.buildmlearn.appstore.utils.</text>
<text text-anchor="middle" x="449.5" y="-172.5" font-family="Helvetica,sans-Serif" font-size="10.00">AppReader.readQuizFile</text>
</a>
</g>
</g>
<!-- Node1&#45;&gt;Node2 -->
<g id="edge1" class="edge"><title>Node1&#45;&gt;Node2</title>
<path fill="none" stroke="midnightblue" d="M157.333,-160.258C222.766,-164.807 313.186,-171.093 375.829,-175.448"/>
<polygon fill="midnightblue" stroke="midnightblue" points="157.273,-156.746 147.054,-159.544 156.788,-163.729 157.273,-156.746"/>
</g>
<!-- Node4 -->
<g id="node4" class="node"><title>Node4</title>
<g id="a_node4"><a xlink:href="$d6/d02/classorg_1_1buildmlearn_1_1appstore_1_1utils_1_1_x_m_l_parser.html#a42151792145130629c7bf2a16b2885bc" xlink:title="Gets the value of the item from the Document object. ">
<polygon fill="none" stroke="black" points="183,-116.5 183,-146.5 330,-146.5 330,-116.5 183,-116.5"/>
<text text-anchor="start" x="191" y="-134.5" font-family="Helvetica,sans-Serif" font-size="10.00">org.buildmlearn.appstore.utils.</text>
<text text-anchor="middle" x="256.5" y="-123.5" font-family="Helvetica,sans-Serif" font-size="10.00">XMLParser.getValue</text>
</a>
</g>
</g>
<!-- Node1&#45;&gt;Node4 -->
<g id="edge3" class="edge"><title>Node1&#45;&gt;Node4</title>
<path fill="none" stroke="midnightblue" d="M157.116,-144.002C165.722,-142.908 174.424,-141.802 182.907,-140.725"/>
<polygon fill="midnightblue" stroke="midnightblue" points="156.556,-140.545 147.077,-145.278 157.438,-147.489 156.556,-140.545"/>
</g>
<!-- Node3 -->
<g id="node3" class="node"><title>Node3</title>
<g id="a_node3"><a xlink:href="$d3/dbf/classorg_1_1buildmlearn_1_1appstore_1_1activities_1_1_start_activity_1_1_file_read_task.html#aed534a6e0d4bcb1df8009e878e2bb95f" xlink:title="This method is automatically called, when the class is set to be executed. ">
<polygon fill="none" stroke="black" points="569,-116.5 569,-146.5 773,-146.5 773,-116.5 569,-116.5"/>
<text text-anchor="start" x="577" y="-134.5" font-family="Helvetica,sans-Serif" font-size="10.00">org.buildmlearn.appstore.activities.</text>
<text text-anchor="middle" x="671" y="-123.5" font-family="Helvetica,sans-Serif" font-size="10.00">StartActivity.FileReadTask.doInBackground</text>
</a>
</g>
</g>
<!-- Node2&#45;&gt;Node3 -->
<g id="edge2" class="edge"><title>Node2&#45;&gt;Node3</title>
<path fill="none" stroke="midnightblue" d="M527.809,-163.242C552.267,-157.782 579.087,-151.795 602.778,-146.506"/>
<polygon fill="midnightblue" stroke="midnightblue" points="526.846,-159.871 517.849,-165.465 528.371,-166.703 526.846,-159.871"/>
</g>
<!-- Node4&#45;&gt;Node2 -->
<g id="edge7" class="edge"><title>Node4&#45;&gt;Node2</title>
<path fill="none" stroke="midnightblue" d="M325.908,-149.05C346.883,-154.431 369.757,-160.299 390.006,-165.494"/>
<polygon fill="midnightblue" stroke="midnightblue" points="326.66,-145.629 316.104,-146.535 324.921,-152.41 326.66,-145.629"/>
</g>
<!-- Node5 -->
<g id="node5" class="node"><title>Node5</title>
<g id="a_node5"><a xlink:href="$df/d05/classorg_1_1buildmlearn_1_1appstore_1_1activities_1_1_splash_activity.html#a524ae9928ab2c671026d7bfa84701531" xlink:title="It parses the xml data to be shown on the store. ">
<polygon fill="none" stroke="black" points="366,-0.5 366,-30.5 533,-30.5 533,-0.5 366,-0.5"/>
<text text-anchor="start" x="374" y="-18.5" font-family="Helvetica,sans-Serif" font-size="10.00">org.buildmlearn.appstore.activities.</text>
<text text-anchor="middle" x="449.5" y="-7.5" font-family="Helvetica,sans-Serif" font-size="10.00">SplashActivity.parseXML</text>
</a>
</g>
</g>
<!-- Node4&#45;&gt;Node5 -->
<g id="edge4" class="edge"><title>Node4&#45;&gt;Node5</title>
<path fill="none" stroke="midnightblue" d="M286.538,-110.2C308.018,-94.8167 338.24,-73.942 366,-57.5 382.318,-47.8352 401.121,-38.1567 416.651,-30.5305"/>
<polygon fill="midnightblue" stroke="midnightblue" points="284.252,-107.533 278.187,-116.22 288.345,-113.212 284.252,-107.533"/>
</g>
<!-- Node7 -->
<g id="node7" class="node"><title>Node7</title>
<g id="a_node7"><a xlink:href="$d0/da8/classorg_1_1buildmlearn_1_1appstore_1_1utils_1_1_app_reader.html#aaeb43a1338ffba1f17dd7993c82af47f" xlink:title="Reads the Spelling Puzzle type of app. ">
<polygon fill="none" stroke="black" points="369.5,-116.5 369.5,-146.5 529.5,-146.5 529.5,-116.5 369.5,-116.5"/>
<text text-anchor="start" x="377.5" y="-134.5" font-family="Helvetica,sans-Serif" font-size="10.00">org.buildmlearn.appstore.utils.</text>
<text text-anchor="middle" x="449.5" y="-123.5" font-family="Helvetica,sans-Serif" font-size="10.00">AppReader.readSpellingsContent</text>
</a>
</g>
</g>
<!-- Node4&#45;&gt;Node7 -->
<g id="edge8" class="edge"><title>Node4&#45;&gt;Node7</title>
<path fill="none" stroke="midnightblue" d="M340.522,-131.5C350.063,-131.5 359.773,-131.5 369.263,-131.5"/>
<polygon fill="midnightblue" stroke="midnightblue" points="340.254,-128 330.254,-131.5 340.254,-135 340.254,-128"/>
</g>
<!-- Node8 -->
<g id="node8" class="node"><title>Node8</title>
<g id="a_node8"><a xlink:href="$d0/da8/classorg_1_1buildmlearn_1_1appstore_1_1utils_1_1_app_reader.html#aefcab830573415c5c0d3d21a31e05e46" xlink:title="Reads the FlashCards type of app. ">
<polygon fill="none" stroke="black" points="376,-67.5 376,-97.5 523,-97.5 523,-67.5 376,-67.5"/>
<text text-anchor="start" x="384" y="-85.5" font-family="Helvetica,sans-Serif" font-size="10.00">org.buildmlearn.appstore.utils.</text>
<text text-anchor="middle" x="449.5" y="-74.5" font-family="Helvetica,sans-Serif" font-size="10.00">AppReader.readFlashContent</text>
</a>
</g>
</g>
<!-- Node4&#45;&gt;Node8 -->
<g id="edge10" class="edge"><title>Node4&#45;&gt;Node8</title>
<path fill="none" stroke="midnightblue" d="M325.908,-113.95C346.883,-108.569 369.757,-102.701 390.006,-97.5062"/>
<polygon fill="midnightblue" stroke="midnightblue" points="324.921,-110.59 316.104,-116.465 326.66,-117.371 324.921,-110.59"/>
</g>
<!-- Node5&#45;&gt;Node5 -->
<g id="edge6" class="edge"><title>Node5&#45;&gt;Node5</title>
<path fill="none" stroke="midnightblue" d="M415.384,-40.9579C419.618,-45.679 430.99,-49 449.5,-49 479.875,-49 491.028,-40.0566 482.96,-30.659"/>
<polygon fill="midnightblue" stroke="midnightblue" points="418.897,-40.8613 416.04,-30.659 411.911,-40.4162 418.897,-40.8613"/>
</g>
<!-- Node6 -->
<g id="node6" class="node"><title>Node6</title>
<g id="a_node6"><a xlink:href="$df/d05/classorg_1_1buildmlearn_1_1appstore_1_1activities_1_1_splash_activity.html#a87a3b8f0b5f853a7f8c658bde17b5020" xlink:title="The method is executed when the activity is created. ">
<polygon fill="none" stroke="black" points="587.5,-0.5 587.5,-30.5 754.5,-30.5 754.5,-0.5 587.5,-0.5"/>
<text text-anchor="start" x="595.5" y="-18.5" font-family="Helvetica,sans-Serif" font-size="10.00">org.buildmlearn.appstore.activities.</text>
<text text-anchor="middle" x="671" y="-7.5" font-family="Helvetica,sans-Serif" font-size="10.00">SplashActivity.onCreate</text>
</a>
</g>
</g>
<!-- Node5&#45;&gt;Node6 -->
<g id="edge5" class="edge"><title>Node5&#45;&gt;Node6</title>
<path fill="none" stroke="midnightblue" d="M543.244,-15.5C557.909,-15.5 572.99,-15.5 587.404,-15.5"/>
<polygon fill="midnightblue" stroke="midnightblue" points="543.171,-12.0001 533.171,-15.5 543.171,-19.0001 543.171,-12.0001"/>
</g>
<!-- Node7&#45;&gt;Node3 -->
<g id="edge9" class="edge"><title>Node7&#45;&gt;Node3</title>
<path fill="none" stroke="midnightblue" d="M539.934,-131.5C549.413,-131.5 559.101,-131.5 568.703,-131.5"/>
<polygon fill="midnightblue" stroke="midnightblue" points="539.745,-128 529.745,-131.5 539.745,-135 539.745,-128"/>
</g>
<!-- Node8&#45;&gt;Node3 -->
<g id="edge11" class="edge"><title>Node8&#45;&gt;Node3</title>
<path fill="none" stroke="midnightblue" d="M527.809,-99.7581C552.267,-105.218 579.087,-111.205 602.778,-116.494"/>
<polygon fill="midnightblue" stroke="midnightblue" points="528.371,-96.2975 517.849,-97.5346 526.846,-103.129 528.371,-96.2975"/>
</g>
</g>
</svg>
