<?xml version="1.0" encoding="UTF-8" standalone="no"?>
<!DOCTYPE svg PUBLIC "-//W3C//DTD SVG 1.1//EN"
 "http://www.w3.org/Graphics/SVG/1.1/DTD/svg11.dtd">
<!-- Generated by graphviz version 2.38.0 (20140413.2041)
 -->
<!-- Title: org.buildmlearn.appstore.utils.XMLParser.getValue Pages: 1 -->
<svg width="598pt" height="204pt"
 viewBox="0.00 0.00 598.00 204.00" xmlns="http://www.w3.org/2000/svg" xmlns:xlink="http://www.w3.org/1999/xlink">
<g id="graph0" class="graph" transform="scale(1 1) rotate(0) translate(4 200)">
<title>org.buildmlearn.appstore.utils.XMLParser.getValue</title>
<!-- Node1 -->
<g id="node1" class="node"><title>Node1</title>
<polygon fill="#bfbfbf" stroke="black" points="0,-73.5 0,-103.5 147,-103.5 147,-73.5 0,-73.5"/>
<text text-anchor="start" x="8" y="-91.5" font-family="Helvetica,sans-Serif" font-size="10.00">org.buildmlearn.appstore.utils.</text>
<text text-anchor="middle" x="73.5" y="-80.5" font-family="Helvetica,sans-Serif" font-size="10.00">XMLParser.getValue</text>
</g>
<!-- Node2 -->
<g id="node2" class="node"><title>Node2</title>
<g id="a_node2"><a xlink:href="$df/d05/classorg_1_1buildmlearn_1_1appstore_1_1activities_1_1_splash_activity.html#a524ae9928ab2c671026d7bfa84701531" xlink:title="It parses the xml data to be shown on the store. ">
<polygon fill="none" stroke="black" points="183,-147.5 183,-177.5 350,-177.5 350,-147.5 183,-147.5"/>
<text text-anchor="start" x="191" y="-165.5" font-family="Helvetica,sans-Serif" font-size="10.00">org.buildmlearn.appstore.activities.</text>
<text text-anchor="middle" x="266.5" y="-154.5" font-family="Helvetica,sans-Serif" font-size="10.00">SplashActivity.parseXML</text>
</a>
</g>
</g>
<!-- Node1&#45;&gt;Node2 -->
<g id="edge1" class="edge"><title>Node1&#45;&gt;Node2</title>
<path fill="none" stroke="midnightblue" d="M112.94,-107.913C133.428,-117.823 159.243,-129.627 183,-138.5 191.524,-141.684 200.67,-144.713 209.658,-147.48"/>
<polygon fill="midnightblue" stroke="midnightblue" points="114.45,-104.755 103.929,-103.51 111.377,-111.044 114.45,-104.755"/>
</g>
<!-- Node4 -->
<g id="node4" class="node"><title>Node4</title>
<g id="a_node4"><a xlink:href="$d0/da8/classorg_1_1buildmlearn_1_1appstore_1_1utils_1_1_app_reader.html#abe6c5c2f0c98582beef2eca8fd9ae462" xlink:title="Reads the Quiz type of app. ">
<polygon fill="none" stroke="black" points="193,-98.5 193,-128.5 340,-128.5 340,-98.5 193,-98.5"/>
<text text-anchor="start" x="201" y="-116.5" font-family="Helvetica,sans-Serif" font-size="10.00">org.buildmlearn.appstore.utils.</text>
<text text-anchor="middle" x="266.5" y="-105.5" font-family="Helvetica,sans-Serif" font-size="10.00">AppReader.readQuizFile</text>
</a>
</g>
</g>
<!-- Node1&#45;&gt;Node4 -->
<g id="edge4" class="edge"><title>Node1&#45;&gt;Node4</title>
<path fill="none" stroke="midnightblue" d="M157.175,-99.3213C169.081,-100.88 181.259,-102.474 192.949,-104.004"/>
<polygon fill="midnightblue" stroke="midnightblue" points="157.623,-95.8503 147.254,-98.0227 156.715,-102.791 157.623,-95.8503"/>
</g>
<!-- Node6 -->
<g id="node6" class="node"><title>Node6</title>
<g id="a_node6"><a xlink:href="$d0/da8/classorg_1_1buildmlearn_1_1appstore_1_1utils_1_1_app_reader.html#aaeb43a1338ffba1f17dd7993c82af47f" xlink:title="Reads the Spelling Puzzle type of app. ">
<polygon fill="none" stroke="black" points="186.5,-49.5 186.5,-79.5 346.5,-79.5 346.5,-49.5 186.5,-49.5"/>
<text text-anchor="start" x="194.5" y="-67.5" font-family="Helvetica,sans-Serif" font-size="10.00">org.buildmlearn.appstore.utils.</text>
<text text-anchor="middle" x="266.5" y="-56.5" font-family="Helvetica,sans-Serif" font-size="10.00">AppReader.readSpellingsContent</text>
</a>
</g>
</g>
<!-- Node1&#45;&gt;Node6 -->
<g id="edge6" class="edge"><title>Node1&#45;&gt;Node6</title>
<path fill="none" stroke="midnightblue" d="M157.218,-78.1062C166.857,-76.895 176.672,-75.6616 186.263,-74.4565"/>
<polygon fill="midnightblue" stroke="midnightblue" points="156.739,-74.6386 147.254,-79.3582 157.612,-81.584 156.739,-74.6386"/>
</g>
<!-- Node7 -->
<g id="node7" class="node"><title>Node7</title>
<g id="a_node7"><a xlink:href="$d0/da8/classorg_1_1buildmlearn_1_1appstore_1_1utils_1_1_app_reader.html#aefcab830573415c5c0d3d21a31e05e46" xlink:title="Reads the FlashCards type of app. ">
<polygon fill="none" stroke="black" points="193,-0.5 193,-30.5 340,-30.5 340,-0.5 193,-0.5"/>
<text text-anchor="start" x="201" y="-18.5" font-family="Helvetica,sans-Serif" font-size="10.00">org.buildmlearn.appstore.utils.</text>
<text text-anchor="middle" x="266.5" y="-7.5" font-family="Helvetica,sans-Serif" font-size="10.00">AppReader.readFlashContent</text>
</a>
</g>
</g>
<!-- Node1&#45;&gt;Node7 -->
<g id="edge8" class="edge"><title>Node1&#45;&gt;Node7</title>
<path fill="none" stroke="midnightblue" d="M115.092,-69.129C135.267,-59.8654 160.161,-48.9762 183,-40.5 192.401,-37.0111 202.532,-33.636 212.367,-30.5541"/>
<polygon fill="midnightblue" stroke="midnightblue" points="113.491,-66.0131 105.888,-73.3918 116.433,-72.3649 113.491,-66.0131"/>
</g>
<!-- Node2&#45;&gt;Node2 -->
<g id="edge3" class="edge"><title>Node2&#45;&gt;Node2</title>
<path fill="none" stroke="midnightblue" d="M232.384,-187.958C236.618,-192.679 247.99,-196 266.5,-196 296.875,-196 308.028,-187.057 299.96,-177.659"/>
<polygon fill="midnightblue" stroke="midnightblue" points="235.897,-187.861 233.04,-177.659 228.911,-187.416 235.897,-187.861"/>
</g>
<!-- Node3 -->
<g id="node3" class="node"><title>Node3</title>
<g id="a_node3"><a xlink:href="$df/d05/classorg_1_1buildmlearn_1_1appstore_1_1activities_1_1_splash_activity.html#a87a3b8f0b5f853a7f8c658bde17b5020" xlink:title="The method is executed when the activity is created. ">
<polygon fill="none" stroke="black" points="404.5,-147.5 404.5,-177.5 571.5,-177.5 571.5,-147.5 404.5,-147.5"/>
<text text-anchor="start" x="412.5" y="-165.5" font-family="Helvetica,sans-Serif" font-size="10.00">org.buildmlearn.appstore.activities.</text>
<text text-anchor="middle" x="488" y="-154.5" font-family="Helvetica,sans-Serif" font-size="10.00">SplashActivity.onCreate</text>
</a>
</g>
</g>
<!-- Node2&#45;&gt;Node3 -->
<g id="edge2" class="edge"><title>Node2&#45;&gt;Node3</title>
<path fill="none" stroke="midnightblue" d="M360.244,-162.5C374.909,-162.5 389.99,-162.5 404.404,-162.5"/>
<polygon fill="midnightblue" stroke="midnightblue" points="360.171,-159 350.171,-162.5 360.171,-166 360.171,-159"/>
</g>
<!-- Node5 -->
<g id="node5" class="node"><title>Node5</title>
<g id="a_node5"><a xlink:href="$d3/dbf/classorg_1_1buildmlearn_1_1appstore_1_1activities_1_1_start_activity_1_1_file_read_task.html#aed534a6e0d4bcb1df8009e878e2bb95f" xlink:title="This method is automatically called, when the class is set to be executed. ">
<polygon fill="none" stroke="black" points="386,-49.5 386,-79.5 590,-79.5 590,-49.5 386,-49.5"/>
<text text-anchor="start" x="394" y="-67.5" font-family="Helvetica,sans-Serif" font-size="10.00">org.buildmlearn.appstore.activities.</text>
<text text-anchor="middle" x="488" y="-56.5" font-family="Helvetica,sans-Serif" font-size="10.00">StartActivity.FileReadTask.doInBackground</text>
</a>
</g>
</g>
<!-- Node4&#45;&gt;Node5 -->
<g id="edge5" class="edge"><title>Node4&#45;&gt;Node5</title>
<path fill="none" stroke="midnightblue" d="M344.809,-96.2419C369.267,-90.782 396.087,-84.795 419.778,-79.5062"/>
<polygon fill="midnightblue" stroke="midnightblue" points="343.846,-92.8707 334.849,-98.4654 345.371,-99.7025 343.846,-92.8707"/>
</g>
<!-- Node6&#45;&gt;Node5 -->
<g id="edge7" class="edge"><title>Node6&#45;&gt;Node5</title>
<path fill="none" stroke="midnightblue" d="M356.934,-64.5C366.413,-64.5 376.101,-64.5 385.703,-64.5"/>
<polygon fill="midnightblue" stroke="midnightblue" points="356.745,-61.0001 346.745,-64.5 356.745,-68.0001 356.745,-61.0001"/>
</g>
<!-- Node7&#45;&gt;Node5 -->
<g id="edge9" class="edge"><title>Node7&#45;&gt;Node5</title>
<path fill="none" stroke="midnightblue" d="M344.809,-32.7581C369.267,-38.218 396.087,-44.205 419.778,-49.4938"/>
<polygon fill="midnightblue" stroke="midnightblue" points="345.371,-29.2975 334.849,-30.5346 343.846,-36.1293 345.371,-29.2975"/>
</g>
</g>
</svg>
