<?xml version="1.0" encoding="UTF-8" standalone="no"?>
<!DOCTYPE svg PUBLIC "-//W3C//DTD SVG 1.1//EN"
 "http://www.w3.org/Graphics/SVG/1.1/DTD/svg11.dtd">
<!-- Generated by graphviz version 2.38.0 (20140413.2041)
 -->
<!-- Title: org.buildmlearn.appstore.activities.AppsActivity.closeSearch Pages: 1 -->
<svg width="809pt" height="61pt"
 viewBox="0.00 0.00 809.00 61.00" xmlns="http://www.w3.org/2000/svg" xmlns:xlink="http://www.w3.org/1999/xlink">
<g id="graph0" class="graph" transform="scale(1 1) rotate(0) translate(4 57)">
<title>org.buildmlearn.appstore.activities.AppsActivity.closeSearch</title>
<!-- Node1 -->
<g id="node1" class="node"><title>Node1</title>
<polygon fill="#bfbfbf" stroke="black" points="0,-0.5 0,-30.5 167,-30.5 167,-0.5 0,-0.5"/>
<text text-anchor="start" x="8" y="-18.5" font-family="Helvetica,sans-Serif" font-size="10.00">org.buildmlearn.appstore.activities.</text>
<text text-anchor="middle" x="83.5" y="-7.5" font-family="Helvetica,sans-Serif" font-size="10.00">AppsActivity.closeSearch</text>
</g>
<!-- Node2 -->
<g id="node2" class="node"><title>Node2</title>
<g id="a_node2"><a xlink:href="../../dc/d90/classorg_1_1buildmlearn_1_1appstore_1_1activities_1_1_apps_activity.html#afc2b93e8898eda23eabe8550a88b4fa8" target="_top" xlink:title="This method is called from the Navigation Activity, which controls all the search view...">
<polygon fill="none" stroke="black" points="203,-22.5 203,-52.5 370,-52.5 370,-22.5 203,-22.5"/>
<text text-anchor="start" x="211" y="-40.5" font-family="Helvetica,sans-Serif" font-size="10.00">org.buildmlearn.appstore.activities.</text>
<text text-anchor="middle" x="286.5" y="-29.5" font-family="Helvetica,sans-Serif" font-size="10.00">AppsActivity.refineSearch</text>
</a>
</g>
</g>
<!-- Node1&#45;&gt;Node2 -->
<g id="edge1" class="edge"><title>Node1&#45;&gt;Node2</title>
<path fill="none" stroke="midnightblue" d="M177.148,-25.6406C185.73,-26.5799 194.389,-27.5276 202.872,-28.4561"/>
<polygon fill="midnightblue" stroke="midnightblue" points="177.446,-22.1524 167.125,-24.5435 176.684,-29.1108 177.446,-22.1524"/>
</g>
<!-- Node4 -->
<g id="node4" class="node"><title>Node4</title>
<g id="a_node4"><a xlink:href="../../d0/d60/classorg_1_1buildmlearn_1_1appstore_1_1activities_1_1_navigation_activity.html#a0d03e67c759108fd119b9e5ad2e48014" target="_top" xlink:title="This method creates menu items to be shown on the Action Bar. ">
<polygon fill="none" stroke="black" points="609,-0.5 609,-30.5 801,-30.5 801,-0.5 609,-0.5"/>
<text text-anchor="start" x="617" y="-18.5" font-family="Helvetica,sans-Serif" font-size="10.00">org.buildmlearn.appstore.activities.</text>
<text text-anchor="middle" x="705" y="-7.5" font-family="Helvetica,sans-Serif" font-size="10.00">NavigationActivity.onCreateOptionsMenu</text>
</a>
</g>
</g>
<!-- Node1&#45;&gt;Node4 -->
<g id="edge5" class="edge"><title>Node1&#45;&gt;Node4</title>
<path fill="none" stroke="midnightblue" d="M177.254,-12.9271C185.956,-12.7535 194.643,-12.6058 203,-12.5 367.431,-10.4189 408.566,-10.6174 573,-12.5 584.601,-12.6328 596.779,-12.8318 608.844,-13.0653"/>
<polygon fill="midnightblue" stroke="midnightblue" points="176.973,-9.43216 167.049,-13.142 177.121,-16.4306 176.973,-9.43216"/>
</g>
<!-- Node3 -->
<g id="node3" class="node"><title>Node3</title>
<g id="a_node3"><a xlink:href="../../d0/d60/classorg_1_1buildmlearn_1_1appstore_1_1activities_1_1_navigation_activity.html#a205e1d750606e6ca55b3cb753fc6f9cc" target="_top" xlink:title="This method sends the search query to respective active activities, to refresh their view with the cu...">
<polygon fill="none" stroke="black" points="406,-22.5 406,-52.5 573,-52.5 573,-22.5 406,-22.5"/>
<text text-anchor="start" x="414" y="-40.5" font-family="Helvetica,sans-Serif" font-size="10.00">org.buildmlearn.appstore.activities.</text>
<text text-anchor="middle" x="489.5" y="-29.5" font-family="Helvetica,sans-Serif" font-size="10.00">NavigationActivity.refineSearch</text>
</a>
</g>
</g>
<!-- Node2&#45;&gt;Node3 -->
<g id="edge2" class="edge"><title>Node2&#45;&gt;Node3</title>
<path fill="none" stroke="midnightblue" d="M380.148,-37.5C388.73,-37.5 397.389,-37.5 405.872,-37.5"/>
<polygon fill="midnightblue" stroke="midnightblue" points="380.125,-34.0001 370.125,-37.5 380.124,-41.0001 380.125,-34.0001"/>
</g>
<!-- Node3&#45;&gt;Node4 -->
<g id="edge3" class="edge"><title>Node3&#45;&gt;Node4</title>
<path fill="none" stroke="midnightblue" d="M583.03,-27.9653C591.595,-27.0827 600.286,-26.1872 608.874,-25.3022"/>
<polygon fill="midnightblue" stroke="midnightblue" points="582.633,-24.4876 573.045,-28.9942 583.351,-31.4507 582.633,-24.4876"/>
</g>
<!-- Node4&#45;&gt;Node4 -->
<g id="edge4" class="edge"><title>Node4&#45;&gt;Node4</title>
<path fill="none" stroke="midnightblue" d="M666.975,-40.9579C671.694,-45.679 684.369,-49 705,-49 738.855,-49 751.287,-40.0566 742.294,-30.659"/>
<polygon fill="midnightblue" stroke="midnightblue" points="670.489,-40.8818 667.706,-30.659 663.506,-40.386 670.489,-40.8818"/>
</g>
</g>
</svg>
